<svg xmlns="http://www.w3.org/2000/svg" xmlns:xlink="http://www.w3.org/1999/xlink" width="1366" height="332" viewBox="0 0 1366 332">
  <defs>
    <clipPath id="clip-path">
      <rect id="Retângulo_1" data-name="Retângulo 1" width="1366" height="332" transform="translate(126 295)" fill="#fff" stroke="#707070" stroke-width="1"/>
    </clipPath>
  </defs>
  <g id="Grupo_1" data-name="Grupo 1" transform="translate(-140 -295)">
    <g id="Grupo_de_máscara_1" data-name="Grupo de máscara 1" transform="translate(14)" clip-path="url(#clip-path)">
      <g id="background-about" transform="translate(293 295)">
        <rect id="XMLID_842_" width="1032" height="332" transform="translate(0)" fill="#59848e"/>
        <path id="XMLID_841_" d="M120.118,0c4.619,31.339,30.017,46.2,61.191,35.8s70.425-4.459,69.271,54.994,46.18,78.774,101.6,56.477,92.362-6.689,118.915,53.507S562.3,263.2,600.4,223.071s68.116,31.213,21.936,46.075-42.716,62.994-42.716,62.994H712.387s-24.246-10.976,10.392-71.913,8.08-94.751-4.619-135.251,15.052-62.187,49.066-53.507c24.2,6.175,42.195-6.994,52.53-29.727S832.745,0,847.464,0Z" fill="#e4b48d" fill-rule="evenodd"/>
        <path id="XMLID_840_" d="M191.412,153.523c6.518,0,11.833-6.842,11.833-15.233s-5.315-15.233-11.833-15.233-11.833,6.845-11.833,15.233S184.894,153.523,191.412,153.523Z" transform="translate(0 35.361)" fill="#e4b48d" fill-rule="evenodd"/>
        <path id="XMLID_839_" d="M3.962-.5A2.95,2.95,0,0,1,7.426,2.966,5.407,5.407,0,0,1,2.966,7.426,2.95,2.95,0,0,1-.5,3.962,5.407,5.407,0,0,1,3.962-.5Z" transform="translate(203.829 130.548) rotate(-45)" fill="#e4b48d"/>
        <g id="XMLID_820_" transform="translate(726.573 46.079)">
          <path id="XMLID_862_" d="M803.877,241.546c-.588,0-1.16-.023-1.714-.063-6.539-.494-27.089-4.343-43.422-16.059-16.8-12.051-25.251-28.89-32.037-42.425a1.249,1.249,0,0,1,.242-1.457.718.718,0,0,1,1.131.312c6.691,13.335,15.016,29.932,31.46,41.725,15.985,11.464,36.718,15.343,42.721,15.8,6.183.465,13.918-1.769,17.261-7.824,2.6-4.7,2.433-8.229,2.206-13.116-.08-1.755-.173-3.739-.142-5.976.1-6.945,3.642-11.338,10.25-12.7a4.341,4.341,0,0,0,3.668-4.838c-.353-3.55-2.82-7.549-5.075-9.669a1.19,1.19,0,0,1-.332-.952,1.075,1.075,0,0,1,.469-.853,49.392,49.392,0,0,0,7.219-5.471c2.054-1.918,3.371-4.466,3.273-6.344a2.116,2.116,0,0,0-.907-1.749c-2.361-1.636-5.353-4.682-6.008-7.89a5.047,5.047,0,0,1,.33-3.262c.619-1.261,1.616-1.712,2.995-2.333a22.8,22.8,0,0,0,4.485-2.542c3.771-2.744,5.052-6.523,4.647-9.055-.2-1.281-1.255-2.482-2.992-4.473a86.042,86.042,0,0,1-6.1-7.688c-5.531-7.864-12.6-22.629-13.088-29.176-.273-3.7.861-7.134,2.062-10.77.191-.574.384-1.161.575-1.755,4.322-13.481-2.608-37.192-10.874-53.514a1.244,1.244,0,0,1,.24-1.457.715.715,0,0,1,1.131.309c8.779,17.334,15.588,41.207,11.016,55.468-.193.6-.389,1.195-.58,1.775-1.168,3.53-2.173,6.583-1.938,9.745.41,5.508,6.8,19.62,12.673,27.961a84.835,84.835,0,0,0,5.98,7.525c1.992,2.283,3.2,3.657,3.51,5.624.523,3.278-.959,8.05-5.446,11.315a24.451,24.451,0,0,1-4.75,2.7c-1.24.557-1.851.856-2.15,1.467a2.443,2.443,0,0,0-.131,1.6c.418,2.037,2.557,4.742,5.2,6.573a4.342,4.342,0,0,1,1.766,3.464c.137,2.615-1.412,5.827-3.946,8.189a50.085,50.085,0,0,1-6.325,4.934,19.277,19.277,0,0,1,4.709,10.037,6.313,6.313,0,0,1-5.031,7.184c-5.8,1.2-8.792,4.785-8.871,10.661-.031,2.153.057,4.015.139,5.813.234,5.12.42,9.161-2.508,14.463C817.249,239.3,809.818,241.546,803.877,241.546Z" transform="translate(-726.573 -35.794)" fill="#e4b48d"/>
          <path id="XMLID_860_" d="M829.438,129.256a.751.751,0,0,1-.619-.365,1.272,1.272,0,0,1,.083-1.486c1.977-2.207,7.029-4.718,10.137-3.481a4.113,4.113,0,0,1,2.469,3.219,1.11,1.11,0,0,1-.583,1.287c-.436.146-.884-.189-1-.75a2.158,2.158,0,0,0-1.369-1.739c-2.379-.949-6.892,1.175-8.583,3.059A.725.725,0,0,1,829.438,129.256Z" transform="translate(-726.573 -10.563)" fill="#e4b48d"/>
          <path id="XMLID_859_" d="M825.639,134.622a.725.725,0,0,1-.528-.249,10.638,10.638,0,0,1-2.678-7.127,11.414,11.414,0,0,1,2.66-7.545.7.7,0,0,1,1.155.083,1.276,1.276,0,0,1-.064,1.486,8.994,8.994,0,0,0-2.113,5.943,8.285,8.285,0,0,0,2.1,5.548,1.271,1.271,0,0,1,.1,1.483A.745.745,0,0,1,825.639,134.622Z" transform="translate(-726.573 -11.759)" fill="#e4b48d"/>
          <g id="XMLID_827_" transform="translate(66.141 55.281)">
            <path id="XMLID_858_" d="M804.457,98.7a18.669,18.669,0,0,1-11.336-3.812,1.231,1.231,0,0,1-.3-1.44.727.727,0,0,1,1.119-.382c6.392,4.775,14.57,4.688,22.576-.2a24.519,24.519,0,0,1-4.255-13.033.984.984,0,0,1,.781-1.1.945.945,0,0,1,.853,1.005c.157,4.566,1.428,8.152,4.536,12.791a1.271,1.271,0,0,1,.183.889,1.067,1.067,0,0,1-.43.737A25.145,25.145,0,0,1,804.457,98.7Z" transform="translate(-792.714 -78.735)" fill="#e4b48d"/>
            <g id="XMLID_829_" transform="translate(8.831 14.485)">
              <path id="XMLID_857_" d="M823.834,100.493a.68.68,0,0,1-.237-.046c-3.26-1.264-5.871-4.075-8.222-8.843a1.244,1.244,0,0,1,.253-1.453.719.719,0,0,1,1.129.325c2.126,4.317,4.449,6.845,7.312,7.953a1.128,1.128,0,0,1,.546,1.314A.873.873,0,0,1,823.834,100.493Z" transform="translate(-801.545 -89.987)" fill="#e4b48d"/>
              <path id="XMLID_856_" d="M818.566,105.4a.684.684,0,0,1-.461-.186,29.226,29.226,0,0,1-7.4-12.134,1.175,1.175,0,0,1,.448-1.374.77.77,0,0,1,1.067.577,27.386,27.386,0,0,0,6.817,11.2,1.252,1.252,0,0,1,.211,1.463A.794.794,0,0,1,818.566,105.4Z" transform="translate(-801.545 -89.514)" fill="#e4b48d"/>
              <path id="XMLID_855_" d="M811.563,106.742a.7.7,0,0,1-.479-.2c-.175-.166-4.307-4.144-4.307-13.1a.843.843,0,1,1,1.634,0c0,7.834,3.49,11.258,3.637,11.4a1.263,1.263,0,0,1,.173,1.47A.766.766,0,0,1,811.563,106.742Z" transform="translate(-801.545 -89.297)" fill="#e4b48d"/>
              <path id="XMLID_854_" d="M803.748,105.514a.75.75,0,0,1-.626-.382c-.2-.312-1.92-3.288-1.516-11.64.028-.581.415-1.029.869-.985a1,1,0,0,1,.765,1.118c-.366,7.532,1.142,10.163,1.157,10.19a1.28,1.28,0,0,1-.139,1.473A.732.732,0,0,1,803.748,105.514Z" transform="translate(-801.545 -89.264)" fill="#e4b48d"/>
            </g>
            <path id="XMLID_853_" d="M796.423,104.723a.919.919,0,0,1-.809-.916c-.016-.146-.353-3.71.717-11.534.077-.574.5-.959.948-.856a1.062,1.062,0,0,1,.665,1.221,54.382,54.382,0,0,0-.7,10.9,1.029,1.029,0,0,1-.709,1.175A.62.62,0,0,1,796.423,104.723Z" transform="translate(-792.714 -75.095)" fill="#e4b48d"/>
          </g>
          <path id="XMLID_852_" d="M826.252,156.031a2.644,2.644,0,0,1-1.737-.607,1.25,1.25,0,0,1-.227-1.46.713.713,0,0,1,1.134-.292,1.557,1.557,0,0,0,1.418.166,5.107,5.107,0,0,0,2.784-2.99c.312-.677.613-1.453.936-2.276,1.459-3.736,3.456-8.849,8.933-10.611.441-.139.881.2.992.766a1.1,1.1,0,0,1-.6,1.277c-4.75,1.53-6.407,5.77-7.869,9.516-.335.856-.649,1.666-.99,2.4-.977,2.12-2.338,3.53-3.83,3.968A3.4,3.4,0,0,1,826.252,156.031Z" transform="translate(-726.573 -6.444)" fill="#e4b48d"/>
          <path id="XMLID_851_" d="M831.966,168.316a.67.67,0,0,1-.394-.133c-1.57-1.118-1.956-3.766-2.369-6.57-.43-2.94-.876-5.982-2.642-7.121a1.21,1.21,0,0,1-.366-1.414.745.745,0,0,1,1.1-.471c2.49,1.606,3.036,5.329,3.516,8.614.338,2.3.657,4.479,1.552,5.116a1.224,1.224,0,0,1,.32,1.43A.8.8,0,0,1,831.966,168.316Z" transform="translate(-726.573 -2.258)" fill="#e4b48d"/>
          <g id="XMLID_847_" transform="translate(86.263 96.216)">
            <path id="XMLID_246_" d="M814.432,114.3a1.832,1.832,0,1,0-1.379-1.775A1.619,1.619,0,0,0,814.432,114.3Z" transform="translate(-812.837 -110.471)" fill="#e4b48d" fill-rule="evenodd"/>
            <path id="XMLID_848_" d="M814.432,114.644a2.122,2.122,0,1,1,1.6-2.054A1.872,1.872,0,0,1,814.432,114.644Zm0-3.547a1.541,1.541,0,1,0,1.16,1.493A1.361,1.361,0,0,0,814.432,111.1Z" transform="translate(-812.837 -110.533)" fill="#e4b48d"/>
          </g>
          <g id="XMLID_835_" transform="translate(78.072 98.389)">
            <path id="XMLID_245_" d="M806.241,115.985a1.832,1.832,0,1,0-1.379-1.775A1.619,1.619,0,0,0,806.241,115.985Z" transform="translate(-804.646 -112.16)" fill="#e4b48d" fill-rule="evenodd"/>
            <path id="XMLID_836_" d="M806.241,116.329a2.12,2.12,0,1,1,1.6-2.054A1.872,1.872,0,0,1,806.241,116.329Zm0-3.547a1.541,1.541,0,1,0,1.16,1.493A1.361,1.361,0,0,0,806.241,112.782Z" transform="translate(-804.646 -112.221)" fill="#e4b48d"/>
          </g>
          <g id="XMLID_831_" transform="translate(82.428 110.464)">
            <path id="XMLID_244_" d="M810.6,125.367a1.832,1.832,0,1,0-1.379-1.775A1.617,1.617,0,0,0,810.6,125.367Z" transform="translate(-809.001 -121.538)" fill="#e4b48d" fill-rule="evenodd"/>
            <path id="XMLID_832_" d="M810.6,125.708a2.12,2.12,0,1,1,1.6-2.054A1.872,1.872,0,0,1,810.6,125.708Zm0-3.547a1.541,1.541,0,1,0,1.16,1.493A1.361,1.361,0,0,0,810.6,122.161Z" transform="translate(-809.001 -121.6)" fill="#e4b48d"/>
          </g>
          <g id="XMLID_825_" transform="translate(71.902 108.284)">
            <path id="XMLID_243_" d="M800.07,123.671a1.832,1.832,0,1,0-1.379-1.775A1.617,1.617,0,0,0,800.07,123.671Z" transform="translate(-798.475 -119.845)" fill="#e4b48d" fill-rule="evenodd"/>
            <path id="XMLID_826_" d="M800.07,124.015a2.12,2.12,0,1,1,1.6-2.054A1.872,1.872,0,0,1,800.07,124.015Zm0-3.547a1.541,1.541,0,1,0,1.16,1.493A1.361,1.361,0,0,0,800.07,120.468Z" transform="translate(-798.475 -119.907)" fill="#e4b48d"/>
          </g>
          <path id="XMLID_144_" d="M738.468,278c1.979-30.533,16.774-67.788,24.54-78.462,7.6-10.442,12.16-8.985,12.194-8.972.433.169.889-.143,1.023-.7a1.129,1.129,0,0,0-.541-1.317c-.219-.086-5.469-2-13.869,9.546C753.9,208.985,738.8,246.97,736.828,278h1.639Z" transform="translate(-726.573 8.055)" fill="#e4b48d"/>
        </g>
        <path id="XMLID_819_" d="M44.233-5.557C68.663-8.626,85.979,8.69,82.91,33.119S57.549,79.841,33.119,82.91-8.626,68.663-5.557,44.233,19.8-2.488,44.233-5.557Z" transform="translate(323.454 130.178) rotate(-45)" fill="#e4b48d"/>
        <path id="XMLID_818_" d="M263.111,170.667a2.844,2.844,0,0,0-1.041.2,3.389,3.389,0,0,0-.918.538,1.22,1.22,0,0,0-.369-.538.872.872,0,0,0-.536-.2.8.8,0,0,0-.5.176,1.126,1.126,0,0,0-.348.451,1.575,1.575,0,0,0-.131.634v3.686h0V181.3a1.575,1.575,0,0,0,.131.634,1.1,1.1,0,0,0,.348.451.817.817,0,0,0,.5.176.8.8,0,0,0,.446-.139,1.1,1.1,0,0,0,.345-.365,1.513,1.513,0,0,0,.188-.521.444.444,0,0,0,.031-.126.827.827,0,0,0,.005-.11h0v-5.684a2.95,2.95,0,0,1,.25-1.218,2.171,2.171,0,0,1,.66-.859,1.554,1.554,0,0,1,.938-.325,1.649,1.649,0,0,1,.967.325,2.262,2.262,0,0,1,.691.859,2.837,2.837,0,0,1,.265,1.218V181.3a1.5,1.5,0,0,0,.139.634,1.17,1.17,0,0,0,.358.451.8.8,0,0,0,.485.176.772.772,0,0,0,.487-.176,1.167,1.167,0,0,0,.345-.451,1.619,1.619,0,0,0,.129-.634v-5.684a6.151,6.151,0,0,0-.3-1.908,5.208,5.208,0,0,0-.825-1.573,4.016,4.016,0,0,0-1.224-1.072A3.116,3.116,0,0,0,263.111,170.667Z" transform="translate(0 49.043)" fill="#e4b48d"/>
        <path id="XMLID_815_" d="M277.8,171.951a1.561,1.561,0,0,0-.137-.65,1.165,1.165,0,0,0-.351-.461.781.781,0,0,0-1.111.126,1.546,1.546,0,0,0-.343.747,4.315,4.315,0,0,0-1.144-.766,3.271,3.271,0,0,0-1.312-.282,3.381,3.381,0,0,0-1.742.481,4.664,4.664,0,0,0-1.4,1.3,6.143,6.143,0,0,0-.928,1.878,8.166,8.166,0,0,0,0,4.6,6.371,6.371,0,0,0,.928,1.895,4.6,4.6,0,0,0,1.4,1.267,3.467,3.467,0,0,0,1.742.468h0a3.376,3.376,0,0,0,1.312-.269,4.039,4.039,0,0,0,1.144-.753,1.66,1.66,0,0,0,.191.521,1.156,1.156,0,0,0,.332.365.761.761,0,0,0,.438.139.8.8,0,0,0,.492-.176,1.131,1.131,0,0,0,.351-.451,1.535,1.535,0,0,0,.137-.634v-4.662h0v-4.682Zm-2.681,7.134a2.42,2.42,0,0,1-.781.687,1.953,1.953,0,0,1-1.884,0,2.263,2.263,0,0,1-.771-.687,3.532,3.532,0,0,1-.518-1.092,4.749,4.749,0,0,1-.186-1.36,4.816,4.816,0,0,1,.186-1.377,3.315,3.315,0,0,1,.518-1.075,2.209,2.209,0,0,1,.771-.73,1.946,1.946,0,0,1,.948-.246,1.927,1.927,0,0,1,.936.246,2.327,2.327,0,0,1,.781.73,3.455,3.455,0,0,1,.526,1.075,4.942,4.942,0,0,1,0,2.737A3.545,3.545,0,0,1,275.117,179.085Z" transform="translate(0 49.042)" fill="#e4b48d"/>
        <path id="XMLID_814_" d="M283.929,171.729h-.461v-3.447a1.617,1.617,0,0,0-.137-.667,1.167,1.167,0,0,0-.363-.468.864.864,0,0,0-.518-.176.88.88,0,0,0-.523.176,1.2,1.2,0,0,0-.369.468,1.567,1.567,0,0,0-.142.667h0v3.447h-.536a.853.853,0,0,0-.518.176,1.167,1.167,0,0,0-.363.468,1.648,1.648,0,0,0-.137.667,1.565,1.565,0,0,0,.137.654,1.156,1.156,0,0,0,.363.471.828.828,0,0,0,.518.182h.536v6.636a3.209,3.209,0,0,0,.281,1.327,2.54,2.54,0,0,0,.74.952,1.747,1.747,0,0,0,1.031.362.853.853,0,0,0,.518-.176,1.167,1.167,0,0,0,.363-.468,1.635,1.635,0,0,0,.137-.667,1.672,1.672,0,0,0-.137-.674,1.19,1.19,0,0,0-.363-.474.834.834,0,0,0-.518-.182h0v-6.636h.461a.836.836,0,0,0,.513-.182,1.228,1.228,0,0,0,.376-.471,1.54,1.54,0,0,0,.144-.654,1.578,1.578,0,0,0-.144-.667,1.217,1.217,0,0,0-.376-.468.85.85,0,0,0-.513-.176Z" transform="translate(0 47.981)" fill="#e4b48d"/>
        <path id="XMLID_813_" d="M295.141,177.611v-5.684A1.414,1.414,0,0,0,295,171.3a1.23,1.23,0,0,0-.363-.458.817.817,0,0,0-.49-.179.791.791,0,0,0-.495.179,1.176,1.176,0,0,0-.338.458,1.594,1.594,0,0,0-.126.624h0v5.684a3.025,3.025,0,0,1-.273,1.234,2.177,2.177,0,0,1-.691.863,1.642,1.642,0,0,1-.977.328,1.582,1.582,0,0,1-.956-.328,2.2,2.2,0,0,1-.67-.863,2.966,2.966,0,0,1-.255-1.234v-5.684a1.608,1.608,0,0,0-.129-.624,1.178,1.178,0,0,0-.351-.458.777.777,0,0,0-.992,0,1.2,1.2,0,0,0-.351.458,1.512,1.512,0,0,0-.137.624v5.684a6.124,6.124,0,0,0,.3,1.918,5.254,5.254,0,0,0,.827,1.569,3.96,3.96,0,0,0,1.219,1.065,3.051,3.051,0,0,0,1.49.392,3.132,3.132,0,0,0,1.505-.392,4.075,4.075,0,0,0,1.24-1.065,5.223,5.223,0,0,0,.84-1.569A5.925,5.925,0,0,0,295.141,177.611Z" transform="translate(0 49.043)" fill="#e4b48d"/>
        <path id="XMLID_812_" d="M303.012,170.685a2.924,2.924,0,0,0-.876.116,3.342,3.342,0,0,0-.781.332,4.458,4.458,0,0,0-.668.481,2.476,2.476,0,0,0-.2.219c-.067.086-.131.169-.188.259v-.166a1.409,1.409,0,0,0-.142-.627,1.185,1.185,0,0,0-.363-.445.908.908,0,0,0-.51-.166.852.852,0,0,0-.492.166,1.132,1.132,0,0,0-.351.445,1.481,1.481,0,0,0-.137.627v9.37a1.5,1.5,0,0,0,.137.634,1.131,1.131,0,0,0,.351.451.818.818,0,0,0,.492.176.842.842,0,0,0,.51-.176,1.158,1.158,0,0,0,.363-.451,1.46,1.46,0,0,0,.142-.634v-4.519c.031-.116.077-.282.139-.494s.144-.455.247-.72a5.563,5.563,0,0,1,.371-.78,4.391,4.391,0,0,1,.376-.634,2.765,2.765,0,0,1,.474-.508,1.525,1.525,0,0,1,.51-.342,1.551,1.551,0,0,1,.6-.109.805.805,0,0,0,.5-.179,1.189,1.189,0,0,0,.351-.461,1.582,1.582,0,0,0,.129-.624,1.562,1.562,0,0,0-.129-.627,1.156,1.156,0,0,0-.351-.445A.857.857,0,0,0,303.012,170.685Z" transform="translate(0 49.048)" fill="#e4b48d"/>
        <path id="XMLID_809_" d="M313.152,171.951a1.561,1.561,0,0,0-.137-.65,1.165,1.165,0,0,0-.351-.461.781.781,0,0,0-1.111.126,1.546,1.546,0,0,0-.343.747,4.315,4.315,0,0,0-1.144-.766,3.271,3.271,0,0,0-1.312-.282,3.381,3.381,0,0,0-1.742.481,4.664,4.664,0,0,0-1.4,1.3,6.143,6.143,0,0,0-.928,1.878,8.166,8.166,0,0,0,0,4.6,6.37,6.37,0,0,0,.928,1.895,4.6,4.6,0,0,0,1.4,1.267,3.467,3.467,0,0,0,1.742.468h0a3.376,3.376,0,0,0,1.312-.269,4.039,4.039,0,0,0,1.144-.753,1.66,1.66,0,0,0,.191.521,1.156,1.156,0,0,0,.333.365.761.761,0,0,0,.438.139.8.8,0,0,0,.492-.176,1.131,1.131,0,0,0,.351-.451,1.536,1.536,0,0,0,.137-.634v-4.662h0v-4.682Zm-2.678,7.134a2.42,2.42,0,0,1-.781.687,1.953,1.953,0,0,1-1.884,0,2.264,2.264,0,0,1-.771-.687,3.533,3.533,0,0,1-.518-1.092,4.75,4.75,0,0,1-.186-1.36,4.817,4.817,0,0,1,.186-1.377,3.316,3.316,0,0,1,.518-1.075,2.209,2.209,0,0,1,.771-.73,1.946,1.946,0,0,1,.949-.246,1.927,1.927,0,0,1,.936.246,2.327,2.327,0,0,1,.781.73,3.455,3.455,0,0,1,.526,1.075,4.942,4.942,0,0,1,0,2.737A3.665,3.665,0,0,1,310.474,179.085Z" transform="translate(0 49.042)" fill="#e4b48d"/>
        <path id="XMLID_808_" d="M316.551,168.28v14.029a1.528,1.528,0,0,0,.142.654,1.161,1.161,0,0,0,.366.471.816.816,0,0,0,.508.182.865.865,0,0,0,.523-.182,1.189,1.189,0,0,0,.369-.471,1.539,1.539,0,0,0,.142-.654V168.28a1.553,1.553,0,0,0-.142-.657,1.317,1.317,0,0,0-.369-.471.883.883,0,0,0-.523-.179.833.833,0,0,0-.508.179,1.233,1.233,0,0,0-.366.471A1.554,1.554,0,0,0,316.551,168.28Z" transform="translate(0 47.981)" fill="#e4b48d"/>
        <path id="XMLID_807_" d="M334.488,182.555h0a3.865,3.865,0,0,0,1.585-.352,4.9,4.9,0,0,0,1.351-.909,1.513,1.513,0,0,0,.307-.551,1.67,1.67,0,0,0,.067-.627,1.429,1.429,0,0,0-.173-.584,1.183,1.183,0,0,0-.433-.411.812.812,0,0,0-.492-.086.8.8,0,0,0-.459.239,3.034,3.034,0,0,1-.809.551,2.3,2.3,0,0,1-.946.209,2.265,2.265,0,0,1-1.059-.272,2.821,2.821,0,0,1-.869-.74,3.556,3.556,0,0,1-.59-1.082,4.045,4.045,0,0,1,0-2.611,3.591,3.591,0,0,1,.59-1.088,2.856,2.856,0,0,1,.869-.75,2.233,2.233,0,0,1,1.059-.279,2.293,2.293,0,0,1,.954.209,3.122,3.122,0,0,1,.8.551.85.85,0,0,0,.464.252.781.781,0,0,0,.492-.083,1.18,1.18,0,0,0,.428-.408,1.444,1.444,0,0,0,.173-.594,1.69,1.69,0,0,0-.067-.634,1.342,1.342,0,0,0-.307-.531,4.784,4.784,0,0,0-1.351-.946,3.731,3.731,0,0,0-1.585-.362,3.82,3.82,0,0,0-1.807.481,4.829,4.829,0,0,0-1.492,1.271,6.215,6.215,0,0,0-1.016,1.895,7.275,7.275,0,0,0-.376,2.323,7.108,7.108,0,0,0,.376,2.3,6.106,6.106,0,0,0,1.016,1.881,4.813,4.813,0,0,0,1.492,1.271A3.769,3.769,0,0,0,334.488,182.555Z" transform="translate(0 49.043)" fill="#e4b48d"/>
        <path id="XMLID_804_" d="M344.13,182.628h0a3.294,3.294,0,0,0,1.714-.484,4.413,4.413,0,0,0,1.371-1.324,5.694,5.694,0,0,0,.956-1.858,7.893,7.893,0,0,0,.335-2.326h0a7.5,7.5,0,0,0-.335-2.26,6.56,6.56,0,0,0-.956-1.9,4.395,4.395,0,0,0-1.371-1.324,3.325,3.325,0,0,0-1.714-.484,3.4,3.4,0,0,0-1.755.484,4.877,4.877,0,0,0-1.423,1.324,7.068,7.068,0,0,0-.936,1.9,7.5,7.5,0,0,0-.338,2.26,7.891,7.891,0,0,0,.338,2.326,6.085,6.085,0,0,0,.936,1.858,4.876,4.876,0,0,0,1.423,1.324,3.4,3.4,0,0,0,1.755.484Zm-1.773-8.468a3.012,3.012,0,0,1,.8-.65,2.062,2.062,0,0,1,.977-.252,1.883,1.883,0,0,1,.92.252,3.062,3.062,0,0,1,.778.65,3.683,3.683,0,0,1,.534,1.108,4.714,4.714,0,0,1,.188,1.364h0a4.809,4.809,0,0,1-.188,1.394,3.9,3.9,0,0,1-.534,1.125,2.5,2.5,0,0,1-.778.654,1.977,1.977,0,0,1-.92.226,2.162,2.162,0,0,1-.977-.226,2.4,2.4,0,0,1-.8-.654,4.108,4.108,0,0,1-.492-1.125,5.334,5.334,0,0,1-.173-1.394,5.211,5.211,0,0,1,.173-1.364A3.873,3.873,0,0,1,342.356,174.161Z" transform="translate(0 49.043)" fill="#e4b48d"/>
        <path id="XMLID_803_" d="M350.725,180.915h0a6.987,6.987,0,0,0,.861.757,4.987,4.987,0,0,0,1.1.617,3.924,3.924,0,0,0,1.33.265h0a3.447,3.447,0,0,0,1.291-.252,3.761,3.761,0,0,0,1.111-.7h0a3.542,3.542,0,0,0,.6-.73,3.732,3.732,0,0,0,.412-.936,3.957,3.957,0,0,0,.155-1.095h0a3.6,3.6,0,0,0-.093-.813,3.887,3.887,0,0,0-.258-.757h0a3.047,3.047,0,0,0-.585-.843,3.466,3.466,0,0,0-.727-.557h0a4.846,4.846,0,0,0-.833-.415,6.623,6.623,0,0,0-.887-.272h-.018l-.018-.023h0a4.544,4.544,0,0,1-.82-.259,2.008,2.008,0,0,1-.528-.312h0a.622.622,0,0,1-.142-.139.409.409,0,0,1-.062-.1h0a.249.249,0,0,1-.031-.086.565.565,0,0,1-.005-.1h0a.543.543,0,0,1,.059-.239.916.916,0,0,1,.237-.309h0a1.516,1.516,0,0,1,.472-.305,1.707,1.707,0,0,1,.637-.123h0a1.659,1.659,0,0,1,.851.252,5.945,5.945,0,0,1,.851.627h0a.837.837,0,0,0,.492.219.775.775,0,0,0,.492-.123,1.089,1.089,0,0,0,.381-.428h0a1.558,1.558,0,0,0,.144-.637,1.664,1.664,0,0,0-.106-.63,1.235,1.235,0,0,0-.335-.491h0a7.856,7.856,0,0,0-.7-.571,4.115,4.115,0,0,0-.918-.514,3.123,3.123,0,0,0-1.155-.222h0a3.311,3.311,0,0,0-1.214.226,3.575,3.575,0,0,0-1.059.654h0a3.508,3.508,0,0,0-.554.7,3.824,3.824,0,0,0-.389.883,3.756,3.756,0,0,0-.147,1.035h0a4.007,4.007,0,0,0,.08.793,3.337,3.337,0,0,0,.235.707h0a3.48,3.48,0,0,0,1.273,1.38h0a4.545,4.545,0,0,0,.771.362,7.753,7.753,0,0,0,.838.259h.018a5.248,5.248,0,0,1,.892.305,2.306,2.306,0,0,1,.585.362h0a1.349,1.349,0,0,1,.17.163.392.392,0,0,1,.072.123h0a.588.588,0,0,1,.044.1.494.494,0,0,1,.013.136h0a.838.838,0,0,1-.067.322,1.458,1.458,0,0,1-.266.392h0a2.225,2.225,0,0,1-.552.319,2.053,2.053,0,0,1-.706.136h0a1.918,1.918,0,0,1-.74-.143,3.529,3.529,0,0,1-.714-.395,3.791,3.791,0,0,1-.58-.508h0a.9.9,0,0,0-.464-.279.763.763,0,0,0-.505.063,1.014,1.014,0,0,0-.415.4h0a1.425,1.425,0,0,0-.2.594,1.584,1.584,0,0,0,.044.634A1.283,1.283,0,0,0,350.725,180.915Z" transform="translate(0 49.044)" fill="#e4b48d"/>
        <path id="XMLID_802_" d="M369.159,173.212a1.523,1.523,0,0,1,.936.332,2.237,2.237,0,0,1,.67.879,2.954,2.954,0,0,1,.258,1.238V181.3a1.459,1.459,0,0,0,.142.634,1.152,1.152,0,0,0,.361.451.831.831,0,0,0,.495.176.8.8,0,0,0,.492-.176,1.131,1.131,0,0,0,.351-.451A1.535,1.535,0,0,0,373,181.3v-5.637a6.36,6.36,0,0,0-.3-1.948,5.317,5.317,0,0,0-.822-1.586,4.006,4.006,0,0,0-1.222-1.072,3.051,3.051,0,0,0-1.5-.392,3.188,3.188,0,0,0-1.119.2,3.419,3.419,0,0,0-.985.564,3.994,3.994,0,0,0-.8.879,3.955,3.955,0,0,0-1.278-1.2,3.238,3.238,0,0,0-1.621-.435,2.958,2.958,0,0,0-1.028.186,3.631,3.631,0,0,0-.949.528,1.09,1.09,0,0,0-.353-.528.846.846,0,0,0-.534-.186.833.833,0,0,0-.492.169,1.131,1.131,0,0,0-.351.451,1.619,1.619,0,0,0-.137.664V181.3a1.506,1.506,0,0,0,.108.577,1.156,1.156,0,0,0,.284.431.991.991,0,0,0,.4.249.126.126,0,0,1,.085-.007.769.769,0,0,0,.642-.216,1.339,1.339,0,0,0,.379-.538h0v-.119a.173.173,0,0,0,.034-.07c.005-.023.013-.046.021-.073v-.07a.358.358,0,0,1,.01-.083.594.594,0,0,0,.01-.083h0v-5.637a3.006,3.006,0,0,1,.258-1.238,2.286,2.286,0,0,1,.67-.879,1.509,1.509,0,0,1,.936-.332,1.6,1.6,0,0,1,.949.325,2.257,2.257,0,0,1,.683.856,2.9,2.9,0,0,1,.271,1.2v5.71a1.46,1.46,0,0,0,.144.634,1.23,1.23,0,0,0,.363.451.828.828,0,0,0,.49.176h0a.792.792,0,0,0,.492-.176,1.131,1.131,0,0,0,.351-.451,1.536,1.536,0,0,0,.137-.634v-5.71a3.007,3.007,0,0,1,.281-1.2,2.256,2.256,0,0,1,.683-.856A1.611,1.611,0,0,1,369.159,173.212Z" transform="translate(0 49.042)" fill="#e4b48d"/>
        <path id="XMLID_799_" d="M380.335,182.555a4.193,4.193,0,0,0,1.807-.385,4.47,4.47,0,0,0,1.5-1.185,1.043,1.043,0,0,0,.242-.551,1.383,1.383,0,0,0-.044-.557,1.3,1.3,0,0,0-.2-.435.624.624,0,0,0-.263-.222.881.881,0,0,0-.376-.083,1,1,0,0,0-.4.09.912.912,0,0,0-.348.285,2,2,0,0,1-.554.368,2.734,2.734,0,0,1-1.369.226,2.292,2.292,0,0,1-.662-.182,2.916,2.916,0,0,1-.621-.372,2.34,2.34,0,0,1-.49-.514,2.5,2.5,0,0,1-.4-.733,4.372,4.372,0,0,1-.224-.836H383.8a.9.9,0,0,0,.652-.262,1.1,1.1,0,0,0,.309-.69.3.3,0,0,0,.015-.106c0-.043,0-.08,0-.106h0v-.119a7.756,7.756,0,0,0-.418-2.216,5.8,5.8,0,0,0-.961-1.749,4.341,4.341,0,0,0-1.387-1.141,3.631,3.631,0,0,0-1.688-.411,3.545,3.545,0,0,0-1.771.475,4.639,4.639,0,0,0-1.425,1.284,6.383,6.383,0,0,0-.954,1.891,7.516,7.516,0,0,0,0,4.586,6.426,6.426,0,0,0,.954,1.888,4.725,4.725,0,0,0,1.425,1.284,3.693,3.693,0,0,0,1.776.481Zm0-9.629a2.884,2.884,0,0,1,1.08.328,3.245,3.245,0,0,1,.82.637,3.513,3.513,0,0,1,.554.78,2.844,2.844,0,0,1,.281.773h-5.227a3.365,3.365,0,0,1,.717-1.589,2.654,2.654,0,0,1,.747-.634A2.363,2.363,0,0,1,380.335,172.926Z" transform="translate(0 49.043)" fill="#e4b48d"/>
        <path id="XMLID_798_" d="M389.5,171.729h-.461v-3.447a1.617,1.617,0,0,0-.137-.667,1.167,1.167,0,0,0-.363-.468.863.863,0,0,0-.518-.176.88.88,0,0,0-.523.176,1.178,1.178,0,0,0-.369.468,1.566,1.566,0,0,0-.142.667h0v3.447h-.536a.853.853,0,0,0-.518.176,1.167,1.167,0,0,0-.363.468,1.647,1.647,0,0,0-.137.667,1.565,1.565,0,0,0,.137.654,1.156,1.156,0,0,0,.363.471.828.828,0,0,0,.518.182h.536v6.636a3.209,3.209,0,0,0,.281,1.327,2.54,2.54,0,0,0,.74.952,1.747,1.747,0,0,0,1.031.362.853.853,0,0,0,.518-.176,1.167,1.167,0,0,0,.363-.468,1.635,1.635,0,0,0,.137-.667,1.672,1.672,0,0,0-.137-.674,1.19,1.19,0,0,0-.363-.474.834.834,0,0,0-.518-.182h0v-6.636h.461a.836.836,0,0,0,.513-.182,1.228,1.228,0,0,0,.376-.471,1.54,1.54,0,0,0,.144-.654,1.578,1.578,0,0,0-.144-.667,1.217,1.217,0,0,0-.376-.468.85.85,0,0,0-.513-.176Z" transform="translate(0 47.981)" fill="#e4b48d"/>
        <path id="XMLID_795_" d="M394.173,171.753a.842.842,0,0,0-.505.169,1.108,1.108,0,0,0-.356.461,1.685,1.685,0,0,0-.137.677v9.274a1.562,1.562,0,0,0,.137.65,1.2,1.2,0,0,0,.356.461.849.849,0,0,0,.505.176.833.833,0,0,0,.513-.176,1.165,1.165,0,0,0,.351-.461,1.633,1.633,0,0,0,.131-.65V173.06a1.706,1.706,0,0,0-.131-.677,1.142,1.142,0,0,0-.351-.461.848.848,0,0,0-.513-.169Zm1-3.5a1.645,1.645,0,0,0-.131-.65,1.165,1.165,0,0,0-.351-.461.854.854,0,0,0-.513-.176.828.828,0,0,0-.505.176,1.152,1.152,0,0,0-.356.461,1.591,1.591,0,0,0-.137.65v.5a1.565,1.565,0,0,0,.137.654,1.187,1.187,0,0,0,.356.471.8.8,0,0,0,1.018,0,1.176,1.176,0,0,0,.351-.471,1.662,1.662,0,0,0,.131-.654Z" transform="translate(0 47.98)" fill="#e4b48d"/>
        <path id="XMLID_794_" d="M401.781,182.555h0a3.865,3.865,0,0,0,1.585-.352,4.9,4.9,0,0,0,1.351-.909,1.512,1.512,0,0,0,.307-.551,1.669,1.669,0,0,0,.067-.627,1.428,1.428,0,0,0-.173-.584,1.183,1.183,0,0,0-.433-.411.812.812,0,0,0-.492-.086.8.8,0,0,0-.459.239,3.034,3.034,0,0,1-.809.551,2.3,2.3,0,0,1-.946.209,2.265,2.265,0,0,1-1.059-.272,2.821,2.821,0,0,1-.869-.74,3.556,3.556,0,0,1-.59-1.082,4.045,4.045,0,0,1,0-2.611,3.591,3.591,0,0,1,.59-1.088,2.856,2.856,0,0,1,.869-.75,2.233,2.233,0,0,1,1.059-.279,2.293,2.293,0,0,1,.954.209,3.122,3.122,0,0,1,.8.551.85.85,0,0,0,.464.252.781.781,0,0,0,.492-.083,1.18,1.18,0,0,0,.428-.408,1.443,1.443,0,0,0,.173-.594,1.69,1.69,0,0,0-.067-.634,1.342,1.342,0,0,0-.307-.531,4.785,4.785,0,0,0-1.351-.946,3.731,3.731,0,0,0-1.585-.362,3.82,3.82,0,0,0-1.807.481,4.828,4.828,0,0,0-1.492,1.271,6.214,6.214,0,0,0-1.016,1.895,7.275,7.275,0,0,0-.376,2.323,7.108,7.108,0,0,0,.376,2.3,6.1,6.1,0,0,0,1.016,1.881,4.813,4.813,0,0,0,1.492,1.271A3.784,3.784,0,0,0,401.781,182.555Z" transform="translate(0 49.043)" fill="#e4b48d"/>
        <path id="XMLID_793_" d="M407.362,180.915h0a6.985,6.985,0,0,0,.861.757,4.986,4.986,0,0,0,1.1.617,3.924,3.924,0,0,0,1.33.265h0a3.447,3.447,0,0,0,1.291-.252,3.761,3.761,0,0,0,1.111-.7h0a3.541,3.541,0,0,0,.6-.73,3.73,3.73,0,0,0,.412-.936,4.056,4.056,0,0,0,.155-1.095h0a3.6,3.6,0,0,0-.093-.813,3.887,3.887,0,0,0-.258-.757h0a3.047,3.047,0,0,0-.585-.843,3.465,3.465,0,0,0-.727-.557h0a4.846,4.846,0,0,0-.832-.415,6.626,6.626,0,0,0-.887-.272h-.018l-.018-.023h0a4.544,4.544,0,0,1-.82-.259,2.008,2.008,0,0,1-.528-.312h0a.621.621,0,0,1-.142-.139.409.409,0,0,1-.062-.1h0a.248.248,0,0,1-.031-.086.565.565,0,0,1-.005-.1h0a.543.543,0,0,1,.059-.239.916.916,0,0,1,.237-.309h0a1.516,1.516,0,0,1,.472-.305,1.707,1.707,0,0,1,.637-.123h0a1.659,1.659,0,0,1,.851.252,5.947,5.947,0,0,1,.851.627h0a.837.837,0,0,0,.492.219.775.775,0,0,0,.492-.123,1.089,1.089,0,0,0,.381-.428h0a1.557,1.557,0,0,0,.144-.637,1.663,1.663,0,0,0-.106-.63,1.235,1.235,0,0,0-.335-.491h0a7.851,7.851,0,0,0-.7-.571,4.115,4.115,0,0,0-.918-.514,3.123,3.123,0,0,0-1.155-.222h0a3.311,3.311,0,0,0-1.214.226,3.575,3.575,0,0,0-1.059.654h0a3.508,3.508,0,0,0-.554.7,3.824,3.824,0,0,0-.389.883,3.756,3.756,0,0,0-.147,1.035h0a4.007,4.007,0,0,0,.08.793,3.339,3.339,0,0,0,.235.707h0a3.481,3.481,0,0,0,1.273,1.38h0a4.639,4.639,0,0,0,.771.362,7.752,7.752,0,0,0,.838.259h.018a5.249,5.249,0,0,1,.892.305,2.307,2.307,0,0,1,.585.362h0a1.349,1.349,0,0,1,.17.163.392.392,0,0,1,.072.123h0a.588.588,0,0,1,.044.1.493.493,0,0,1,.013.136h0a.837.837,0,0,1-.067.322,1.459,1.459,0,0,1-.265.392h0a2.226,2.226,0,0,1-.552.319,2.054,2.054,0,0,1-.706.136h0a1.918,1.918,0,0,1-.74-.143,3.528,3.528,0,0,1-.714-.395,3.791,3.791,0,0,1-.58-.508h0a.9.9,0,0,0-.464-.279.763.763,0,0,0-.505.063,1.013,1.013,0,0,0-.415.4h0a1.425,1.425,0,0,0-.2.594,1.584,1.584,0,0,0,.044.634A1.283,1.283,0,0,0,407.362,180.915Z" transform="translate(0 49.044)" fill="#e4b48d"/>
        <path id="XMLID_00000081616461066481468270000006454015262921125541_" d="M481.627,119.459h0a6.983,6.983,0,0,0,.861.757,4.987,4.987,0,0,0,1.1.617,3.925,3.925,0,0,0,1.33.265h0a3.447,3.447,0,0,0,1.291-.252,3.761,3.761,0,0,0,1.111-.7h0a3.541,3.541,0,0,0,.6-.73,3.73,3.73,0,0,0,.412-.936,4.056,4.056,0,0,0,.155-1.095h0a3.6,3.6,0,0,0-.093-.813,3.887,3.887,0,0,0-.258-.757h0a3.048,3.048,0,0,0-.585-.843,3.466,3.466,0,0,0-.727-.557h0a4.842,4.842,0,0,0-.832-.415,6.622,6.622,0,0,0-.887-.272h-.018l-.018-.023h0a4.544,4.544,0,0,1-.82-.259,2.009,2.009,0,0,1-.528-.312h0a.622.622,0,0,1-.142-.139.41.41,0,0,1-.062-.1h0a.25.25,0,0,1-.031-.086.565.565,0,0,1-.005-.1h0a.543.543,0,0,1,.059-.239.916.916,0,0,1,.237-.309h0a1.516,1.516,0,0,1,.472-.305,1.707,1.707,0,0,1,.637-.123h0a1.659,1.659,0,0,1,.851.252,5.946,5.946,0,0,1,.851.627h0a.837.837,0,0,0,.492.219.775.775,0,0,0,.492-.123,1.089,1.089,0,0,0,.381-.428h0a1.557,1.557,0,0,0,.144-.637,1.664,1.664,0,0,0-.106-.63,1.236,1.236,0,0,0-.335-.491h0a7.855,7.855,0,0,0-.7-.571,4.115,4.115,0,0,0-.918-.514,3.124,3.124,0,0,0-1.155-.222h0a3.312,3.312,0,0,0-1.214.226,3.575,3.575,0,0,0-1.059.654h0a3.507,3.507,0,0,0-.554.7,3.826,3.826,0,0,0-.389.883,3.756,3.756,0,0,0-.147,1.035h0a4.009,4.009,0,0,0,.08.793,3.338,3.338,0,0,0,.235.707h0a3.481,3.481,0,0,0,1.273,1.38h0a4.638,4.638,0,0,0,.771.362,7.746,7.746,0,0,0,.838.259h.018a5.245,5.245,0,0,1,.892.305,2.307,2.307,0,0,1,.585.362h0a1.349,1.349,0,0,1,.17.163.393.393,0,0,1,.072.123h0a.59.59,0,0,1,.044.1.5.5,0,0,1,.013.136h0a.837.837,0,0,1-.067.322,1.459,1.459,0,0,1-.265.392h0a2.225,2.225,0,0,1-.552.319,2.055,2.055,0,0,1-.706.136h0a1.918,1.918,0,0,1-.74-.143,3.529,3.529,0,0,1-.714-.395,3.792,3.792,0,0,1-.58-.508h0a.9.9,0,0,0-.464-.279.763.763,0,0,0-.505.063,1.013,1.013,0,0,0-.415.4h0a1.425,1.425,0,0,0-.2.594,1.584,1.584,0,0,0,.044.634A1.283,1.283,0,0,0,481.627,119.459Z" transform="translate(0 31.384)" fill="#e4b48d"/>
      </g>
    </g>
    <rect id="Retângulo_2" data-name="Retângulo 2" width="183" height="332" transform="translate(140 295)" fill="#59848e"/>
    <rect id="Retângulo_3" data-name="Retângulo 3" width="183" height="332" transform="translate(1323 295)" fill="#59848e"/>
  </g>
</svg>
