<svg xmlns="http://www.w3.org/2000/svg" xmlns:xlink="http://www.w3.org/1999/xlink" width="1444" height="332" viewBox="0 0 1444 332">
  <defs>
    <clipPath id="clip-path">
      <rect id="Retângulo_1" data-name="Retângulo 1" width="1444" height="332" fill="#fff"/>
    </clipPath>
  </defs>
  <g id="Grupo_1" data-name="Grupo 1" transform="translate(-140 -295)">
    <g id="Grupo_de_máscara_1" data-name="Grupo de máscara 1" transform="translate(140 295)" clip-path="url(#clip-path)">
      <g id="background-about" transform="translate(176.536)">
        <rect id="XMLID_842_" width="1090" height="332" transform="translate(0.464)" fill="#59848e"/>
        <path id="XMLID_841_" d="M120.118,0C125,31.339,151.849,46.2,184.8,35.8s74.447-4.459,73.226,54.994,48.817,78.774,107.4,56.477,97.636-6.689,125.7,53.507,96.415,62.423,136.69,22.294,72.006,31.213,23.189,46.075-45.155,62.994-45.155,62.994H746.206s-25.63-10.976,10.986-71.913,8.542-94.751-4.882-135.251,15.912-62.187,51.868-53.507c25.581,6.175,44.6-6.994,55.53-29.727S873.436,0,889,0Z" transform="translate(6.859)" fill="#e4b48d" fill-rule="evenodd"/>
        <path id="XMLID_840_" d="M192.088,153.523c6.89,0,12.509-6.842,12.509-15.233s-5.618-15.233-12.509-15.233-12.509,6.845-12.509,15.233S185.2,153.523,192.088,153.523Z" transform="translate(10.254 35.361)" fill="#e4b48d" fill-rule="evenodd"/>
        <path id="XMLID_839_" d="M4.62.161A3.22,3.22,0,0,1,8.282,3.823,5.172,5.172,0,0,1,3.823,8.282,3.22,3.22,0,0,1,.161,4.62,5.172,5.172,0,0,1,4.62.161Z" transform="translate(214.677 130.548) rotate(-45)" fill="#e4b48d"/>
        <g id="XMLID_820_" transform="translate(768.061 46.079)">
          <path id="XMLID_862_" d="M808.292,241.546c-.621,0-1.226-.023-1.812-.063-6.912-.494-28.635-4.343-45.9-16.059-17.759-12.051-26.693-28.89-33.867-42.425a1.2,1.2,0,0,1,.256-1.457.778.778,0,0,1,1.2.312c7.073,13.335,15.873,29.932,33.256,41.725,16.9,11.464,38.815,15.343,45.16,15.8,6.536.465,14.713-1.769,18.247-7.824,2.744-4.7,2.572-8.229,2.332-13.116-.084-1.755-.183-3.739-.15-5.976.1-6.945,3.85-11.338,10.836-12.7,1.981-.388,4.188-1.885,3.877-4.838-.373-3.55-2.981-7.549-5.365-9.669a1.153,1.153,0,0,1-.351-.952,1.064,1.064,0,0,1,.5-.853,52.138,52.138,0,0,0,7.632-5.471c2.172-1.918,3.564-4.466,3.46-6.344a2.086,2.086,0,0,0-.959-1.749c-2.5-1.636-5.659-4.682-6.351-7.89a4.8,4.8,0,0,1,.349-3.262c.654-1.261,1.708-1.712,3.166-2.333a24.523,24.523,0,0,0,4.741-2.542c3.986-2.744,5.34-6.523,4.912-9.055-.215-1.281-1.327-2.482-3.163-4.473a87.055,87.055,0,0,1-6.452-7.688c-5.847-7.864-13.323-22.629-13.835-29.176-.289-3.7.91-7.134,2.18-10.77.2-.574.406-1.161.608-1.755,4.569-13.481-2.757-37.192-11.5-53.514a1.2,1.2,0,0,1,.253-1.457.776.776,0,0,1,1.2.309c9.28,17.334,16.478,41.207,11.645,55.468-.2.6-.411,1.195-.613,1.775-1.234,3.53-2.3,6.583-2.049,9.745.433,5.508,7.193,19.62,13.4,27.961a85.825,85.825,0,0,0,6.321,7.525c2.106,2.283,3.378,3.657,3.711,5.624.553,3.278-1.014,8.05-5.757,11.315a26.3,26.3,0,0,1-5.021,2.7c-1.311.557-1.956.856-2.272,1.467a2.322,2.322,0,0,0-.139,1.6c.441,2.037,2.7,4.742,5.5,6.573a4.276,4.276,0,0,1,1.866,3.464c.144,2.615-1.493,5.827-4.171,8.189a52.693,52.693,0,0,1-6.686,4.934c2.294,2.465,4.586,6.3,4.978,10.037a6.368,6.368,0,0,1-5.318,7.184c-6.136,1.2-9.294,4.785-9.378,10.661-.033,2.153.06,4.015.147,5.813.248,5.12.444,9.161-2.651,14.463C822.427,239.3,814.572,241.546,808.292,241.546Z" transform="translate(-726.573 -35.794)" fill="#e4b48d"/>
          <path id="XMLID_860_" d="M829.484,129.256a.8.8,0,0,1-.654-.365,1.217,1.217,0,0,1,.087-1.486c2.09-2.207,7.43-4.718,10.716-3.481a4.158,4.158,0,0,1,2.61,3.219,1.092,1.092,0,0,1-.616,1.287.867.867,0,0,1-1.057-.75,2.185,2.185,0,0,0-1.447-1.739c-2.515-.949-7.286,1.175-9.073,3.059A.785.785,0,0,1,829.484,129.256Z" transform="translate(-720.746 -10.563)" fill="#e4b48d"/>
          <path id="XMLID_859_" d="M825.822,134.622a.785.785,0,0,1-.559-.249,10.316,10.316,0,0,1-2.831-7.127,11.042,11.042,0,0,1,2.812-7.545.762.762,0,0,1,1.221.083,1.221,1.221,0,0,1-.068,1.486,8.7,8.7,0,0,0-2.234,5.943,8.035,8.035,0,0,0,2.215,5.548,1.216,1.216,0,0,1,.1,1.483A.8.8,0,0,1,825.822,134.622Z" transform="translate(-721.1 -11.759)" fill="#e4b48d"/>
          <g id="XMLID_827_" transform="translate(69.918 55.281)">
            <path id="XMLID_858_" d="M805.128,98.7a20.484,20.484,0,0,1-11.983-3.812,1.186,1.186,0,0,1-.313-1.44.786.786,0,0,1,1.183-.382c6.757,4.775,15.4,4.688,23.865-.2a23.625,23.625,0,0,1-4.5-13.033.994.994,0,0,1,.826-1.1.965.965,0,0,1,.9,1.005c.166,4.566,1.509,8.152,4.8,12.791a1.215,1.215,0,0,1,.193.889,1.058,1.058,0,0,1-.455.737A27.626,27.626,0,0,1,805.128,98.7Z" transform="translate(-792.714 -78.735)" fill="#e4b48d"/>
            <g id="XMLID_829_" transform="translate(9.335 14.485)">
              <path id="XMLID_857_" d="M824.325,100.493a.755.755,0,0,1-.251-.046c-3.447-1.264-6.207-4.075-8.691-8.843a1.2,1.2,0,0,1,.267-1.453.779.779,0,0,1,1.193.325c2.248,4.317,4.7,6.845,7.73,7.953a1.107,1.107,0,0,1,.578,1.314A.9.9,0,0,1,824.325,100.493Z" transform="translate(-800.763 -89.987)" fill="#e4b48d"/>
              <path id="XMLID_856_" d="M819.019,105.4a.745.745,0,0,1-.488-.186A29.044,29.044,0,0,1,810.7,93.083a1.143,1.143,0,0,1,.474-1.374.821.821,0,0,1,1.128.577,27.212,27.212,0,0,0,7.207,11.2,1.2,1.2,0,0,1,.223,1.463A.842.842,0,0,1,819.019,105.4Z" transform="translate(-801.026 -89.514)" fill="#e4b48d"/>
              <path id="XMLID_855_" d="M811.836,106.742a.758.758,0,0,1-.507-.2c-.185-.166-4.553-4.144-4.553-13.1a.88.88,0,1,1,1.727,0c0,7.834,3.689,11.258,3.844,11.4a1.211,1.211,0,0,1,.182,1.47A.814.814,0,0,1,811.836,106.742Z" transform="translate(-801.247 -89.297)" fill="#e4b48d"/>
              <path id="XMLID_854_" d="M803.874,105.514a.8.8,0,0,1-.662-.382c-.21-.312-2.03-3.288-1.6-11.64a.939.939,0,0,1,.918-.985,1,1,0,0,1,.809,1.118c-.387,7.532,1.207,10.163,1.223,10.19a1.226,1.226,0,0,1-.147,1.473A.8.8,0,0,1,803.874,105.514Z" transform="translate(-801.545 -89.264)" fill="#e4b48d"/>
            </g>
            <path id="XMLID_853_" d="M796.473,104.723a.942.942,0,0,1-.855-.916c-.016-.146-.373-3.71.758-11.534a.9.9,0,0,1,1-.856,1.055,1.055,0,0,1,.7,1.221c-1.076,7.446-.747,10.867-.744,10.9a1.029,1.029,0,0,1-.749,1.175A.692.692,0,0,1,796.473,104.723Z" transform="translate(-792.552 -75.095)" fill="#e4b48d"/>
          </g>
          <path id="XMLID_852_" d="M826.372,156.031a2.9,2.9,0,0,1-1.836-.607,1.2,1.2,0,0,1-.24-1.46.773.773,0,0,1,1.2-.292,1.724,1.724,0,0,0,1.5.166,5.247,5.247,0,0,0,2.943-2.99c.33-.677.648-1.453.989-2.276,1.542-3.736,3.654-8.849,9.443-10.611a.869.869,0,0,1,1.049.766,1.084,1.084,0,0,1-.629,1.277c-5.021,1.53-6.773,5.77-8.318,9.516-.354.856-.687,1.666-1.046,2.4a7,7,0,0,1-4.049,3.968A3.786,3.786,0,0,1,826.372,156.031Z" transform="translate(-721.001 -6.444)" fill="#e4b48d"/>
          <path id="XMLID_851_" d="M832.3,168.316a.735.735,0,0,1-.417-.133c-1.659-1.118-2.068-3.766-2.5-6.57-.455-2.94-.926-5.982-2.793-7.121a1.17,1.17,0,0,1-.387-1.414.8.8,0,0,1,1.161-.471c2.632,1.606,3.21,5.329,3.716,8.614.357,2.3.695,4.479,1.64,5.116a1.181,1.181,0,0,1,.338,1.43A.844.844,0,0,1,832.3,168.316Z" transform="translate(-720.89 -2.258)" fill="#e4b48d"/>
          <g id="XMLID_847_" transform="translate(91.189 96.216)">
            <path id="XMLID_246_" d="M814.511,114.3a1.81,1.81,0,1,0-1.458-1.775A1.644,1.644,0,0,0,814.511,114.3Z" transform="translate(-812.824 -110.471)" fill="#e4b48d" fill-rule="evenodd"/>
            <path id="XMLID_848_" d="M814.523,114.644a2.1,2.1,0,1,1,1.687-2.054A1.9,1.9,0,0,1,814.523,114.644Zm0-3.547a1.522,1.522,0,1,0,1.226,1.493A1.382,1.382,0,0,0,814.523,111.1Z" transform="translate(-812.837 -110.533)" fill="#e4b48d"/>
          </g>
          <g id="XMLID_835_" transform="translate(82.53 98.389)">
            <path id="XMLID_245_" d="M806.32,115.985a1.81,1.81,0,1,0-1.458-1.775A1.644,1.644,0,0,0,806.32,115.985Z" transform="translate(-804.633 -112.16)" fill="#e4b48d" fill-rule="evenodd"/>
            <path id="XMLID_836_" d="M806.332,116.329a2.094,2.094,0,1,1,1.687-2.054A1.9,1.9,0,0,1,806.332,116.329Zm0-3.547a1.522,1.522,0,1,0,1.226,1.493A1.382,1.382,0,0,0,806.332,112.782Z" transform="translate(-804.645 -112.221)" fill="#e4b48d"/>
          </g>
          <g id="XMLID_831_" transform="translate(87.135 110.464)">
            <path id="XMLID_244_" d="M810.675,125.367a1.81,1.81,0,1,0-1.458-1.775A1.642,1.642,0,0,0,810.675,125.367Z" transform="translate(-808.989 -121.538)" fill="#e4b48d" fill-rule="evenodd"/>
            <path id="XMLID_832_" d="M810.688,125.708a2.094,2.094,0,1,1,1.687-2.054A1.9,1.9,0,0,1,810.688,125.708Zm0-3.547a1.522,1.522,0,1,0,1.226,1.493A1.382,1.382,0,0,0,810.688,122.161Z" transform="translate(-809.001 -121.6)" fill="#e4b48d"/>
          </g>
          <g id="XMLID_825_" transform="translate(76.008 108.284)">
            <path id="XMLID_243_" d="M800.149,123.671a1.81,1.81,0,1,0-1.458-1.775A1.642,1.642,0,0,0,800.149,123.671Z" transform="translate(-798.463 -119.845)" fill="#e4b48d" fill-rule="evenodd"/>
            <path id="XMLID_826_" d="M800.162,124.015a2.094,2.094,0,1,1,1.687-2.054A1.9,1.9,0,0,1,800.162,124.015Zm0-3.547a1.522,1.522,0,1,0,1.226,1.493A1.382,1.382,0,0,0,800.162,120.468Z" transform="translate(-798.475 -119.907)" fill="#e4b48d"/>
          </g>
          <path id="XMLID_144_" d="M738.561,278c2.092-30.533,17.732-67.788,25.941-78.462,8.032-10.442,12.855-8.985,12.89-8.972a.852.852,0,0,0,1.082-.7,1.107,1.107,0,0,0-.572-1.317c-.232-.086-5.782-2-14.661,9.546-8.37,10.883-24.328,48.869-26.412,79.9h1.733Z" transform="translate(-725.988 8.055)" fill="#e4b48d"/>
        </g>
        <path id="XMLID_819_" d="M51.585,1.794C76.624-.665,94.929,17.64,92.469,42.679S67.718,90.01,42.679,92.469-.665,76.624,1.794,51.585,26.545,4.253,51.585,1.794Z" transform="translate(333.089 130.178) rotate(-45)" fill="#e4b48d"/>
        <path id="XMLID_818_" d="M263.33,170.667a3.158,3.158,0,0,0-1.1.2,3.635,3.635,0,0,0-.97.538,1.222,1.222,0,0,0-.39-.538.954.954,0,0,0-.567-.2.879.879,0,0,0-.529.176,1.137,1.137,0,0,0-.368.451,1.5,1.5,0,0,0-.139.634v3.686h0V181.3a1.5,1.5,0,0,0,.139.634,1.114,1.114,0,0,0,.368.451.9.9,0,0,0,.529.176.878.878,0,0,0,.471-.139,1.13,1.13,0,0,0,.365-.365,1.461,1.461,0,0,0,.2-.521.424.424,0,0,0,.033-.126.781.781,0,0,0,.005-.11h0v-5.684a2.815,2.815,0,0,1,.264-1.218,2.191,2.191,0,0,1,.7-.859,1.7,1.7,0,0,1,.992-.325,1.809,1.809,0,0,1,1.022.325,2.291,2.291,0,0,1,.73.859,2.709,2.709,0,0,1,.281,1.218V181.3a1.43,1.43,0,0,0,.147.634,1.184,1.184,0,0,0,.379.451.877.877,0,0,0,.512.176.845.845,0,0,0,.515-.176,1.178,1.178,0,0,0,.365-.451,1.544,1.544,0,0,0,.136-.634v-5.684a5.848,5.848,0,0,0-.319-1.908,5.119,5.119,0,0,0-.872-1.573,4.184,4.184,0,0,0-1.294-1.072A3.442,3.442,0,0,0,263.33,170.667Z" transform="translate(14.805 49.043)" fill="#e4b48d"/>
        <path id="XMLID_815_" d="M278.3,171.951a1.489,1.489,0,0,0-.144-.65,1.175,1.175,0,0,0-.371-.461.859.859,0,0,0-1.174.126,1.51,1.51,0,0,0-.362.747,4.588,4.588,0,0,0-1.21-.766,3.626,3.626,0,0,0-1.387-.282,3.73,3.73,0,0,0-1.842.481,4.835,4.835,0,0,0-1.477,1.3,6.018,6.018,0,0,0-.981,1.878,7.744,7.744,0,0,0,0,4.6,6.238,6.238,0,0,0,.981,1.895,4.782,4.782,0,0,0,1.477,1.267,3.827,3.827,0,0,0,1.842.468h0a3.745,3.745,0,0,0,1.387-.269,4.3,4.3,0,0,0,1.21-.753,1.6,1.6,0,0,0,.2.521,1.182,1.182,0,0,0,.351.365.837.837,0,0,0,.463.139.873.873,0,0,0,.52-.176,1.142,1.142,0,0,0,.371-.451,1.465,1.465,0,0,0,.144-.634v-4.662h0v-4.682Zm-2.834,7.134a2.521,2.521,0,0,1-.826.687,2.168,2.168,0,0,1-1.992,0,2.355,2.355,0,0,1-.815-.687,3.453,3.453,0,0,1-.548-1.092,4.509,4.509,0,0,1-.2-1.36,4.573,4.573,0,0,1,.2-1.377,3.244,3.244,0,0,1,.548-1.075,2.287,2.287,0,0,1,.815-.73,2.15,2.15,0,0,1,1-.246,2.129,2.129,0,0,1,.989.246,2.413,2.413,0,0,1,.826.73,3.384,3.384,0,0,1,.556,1.075,4.686,4.686,0,0,1,0,2.737A3.469,3.469,0,0,1,275.466,179.085Z" transform="translate(15.36 49.042)" fill="#e4b48d"/>
        <path id="XMLID_814_" d="M284.161,171.729h-.488v-3.447a1.543,1.543,0,0,0-.144-.667,1.179,1.179,0,0,0-.384-.468.947.947,0,0,0-.548-.176.965.965,0,0,0-.553.176,1.214,1.214,0,0,0-.39.468,1.5,1.5,0,0,0-.15.667h0v3.447h-.567a.936.936,0,0,0-.548.176,1.179,1.179,0,0,0-.384.468,1.572,1.572,0,0,0-.144.667,1.494,1.494,0,0,0,.144.654,1.167,1.167,0,0,0,.384.471.907.907,0,0,0,.548.182h.567v6.636a3.062,3.062,0,0,0,.3,1.327,2.566,2.566,0,0,0,.782.952,1.914,1.914,0,0,0,1.09.362.936.936,0,0,0,.548-.176,1.179,1.179,0,0,0,.384-.468,1.56,1.56,0,0,0,.144-.667,1.6,1.6,0,0,0-.144-.674,1.2,1.2,0,0,0-.384-.474.913.913,0,0,0-.548-.182h0v-6.636h.488a.916.916,0,0,0,.542-.182,1.244,1.244,0,0,0,.4-.471,1.471,1.471,0,0,0,.153-.654,1.506,1.506,0,0,0-.153-.667,1.233,1.233,0,0,0-.4-.468.932.932,0,0,0-.542-.176Z" transform="translate(15.98 47.981)" fill="#e4b48d"/>
        <path id="XMLID_813_" d="M295.582,177.611v-5.684a1.351,1.351,0,0,0-.153-.624,1.244,1.244,0,0,0-.384-.458.894.894,0,0,0-.518-.179.866.866,0,0,0-.523.179,1.183,1.183,0,0,0-.357.458,1.52,1.52,0,0,0-.133.624h0v5.684a2.889,2.889,0,0,1-.289,1.234,2.2,2.2,0,0,1-.73.863,1.8,1.8,0,0,1-1.033.328,1.735,1.735,0,0,1-1.011-.328,2.226,2.226,0,0,1-.708-.863,2.83,2.83,0,0,1-.27-1.234v-5.684a1.534,1.534,0,0,0-.136-.624,1.188,1.188,0,0,0-.371-.458.857.857,0,0,0-1.049,0,1.213,1.213,0,0,0-.371.458,1.444,1.444,0,0,0-.144.624v5.684a5.823,5.823,0,0,0,.322,1.918,5.165,5.165,0,0,0,.875,1.569,4.127,4.127,0,0,0,1.289,1.065,3.37,3.37,0,0,0,1.575.392,3.46,3.46,0,0,0,1.591-.392,4.252,4.252,0,0,0,1.311-1.065,5.14,5.14,0,0,0,.888-1.569A5.634,5.634,0,0,0,295.582,177.611Z" transform="translate(16.411 49.043)" fill="#e4b48d"/>
        <path id="XMLID_812_" d="M303.281,170.685a3.256,3.256,0,0,0-.926.116,3.643,3.643,0,0,0-.826.332,4.714,4.714,0,0,0-.706.481,2.535,2.535,0,0,0-.213.219c-.071.086-.139.169-.2.259v-.166a1.346,1.346,0,0,0-.15-.627,1.2,1.2,0,0,0-.384-.445,1,1,0,0,0-.539-.166.935.935,0,0,0-.52.166,1.145,1.145,0,0,0-.371.445,1.414,1.414,0,0,0-.144.627v9.37a1.428,1.428,0,0,0,.144.634,1.142,1.142,0,0,0,.371.451.9.9,0,0,0,.52.176.923.923,0,0,0,.539-.176,1.173,1.173,0,0,0,.384-.451,1.394,1.394,0,0,0,.15-.634v-4.519c.033-.116.082-.282.147-.494s.153-.455.262-.72a5.435,5.435,0,0,1,.392-.78,4.349,4.349,0,0,1,.4-.634,2.834,2.834,0,0,1,.5-.508,1.621,1.621,0,0,1,.539-.342,1.722,1.722,0,0,1,.632-.109.882.882,0,0,0,.529-.179,1.2,1.2,0,0,0,.371-.461,1.51,1.51,0,0,0,.136-.624,1.49,1.49,0,0,0-.136-.627,1.169,1.169,0,0,0-.371-.445A.94.94,0,0,0,303.281,170.685Z" transform="translate(17.033 49.048)" fill="#e4b48d"/>
        <path id="XMLID_809_" d="M313.654,171.951a1.49,1.49,0,0,0-.144-.65,1.175,1.175,0,0,0-.371-.461.859.859,0,0,0-1.174.126,1.51,1.51,0,0,0-.362.747,4.588,4.588,0,0,0-1.21-.766,3.626,3.626,0,0,0-1.387-.282,3.73,3.73,0,0,0-1.842.481,4.835,4.835,0,0,0-1.477,1.3,6.018,6.018,0,0,0-.981,1.878,7.744,7.744,0,0,0,0,4.6,6.236,6.236,0,0,0,.981,1.895,4.781,4.781,0,0,0,1.477,1.267,3.827,3.827,0,0,0,1.842.468h0a3.744,3.744,0,0,0,1.387-.269,4.3,4.3,0,0,0,1.21-.753,1.6,1.6,0,0,0,.2.521,1.183,1.183,0,0,0,.352.365.837.837,0,0,0,.463.139.873.873,0,0,0,.52-.176,1.143,1.143,0,0,0,.371-.451,1.466,1.466,0,0,0,.144-.634v-4.662h0v-4.682Zm-2.831,7.134a2.521,2.521,0,0,1-.826.687,2.168,2.168,0,0,1-1.992,0,2.355,2.355,0,0,1-.815-.687,3.454,3.454,0,0,1-.548-1.092,4.511,4.511,0,0,1-.2-1.36,4.575,4.575,0,0,1,.2-1.377,3.244,3.244,0,0,1,.548-1.075,2.287,2.287,0,0,1,.815-.73,2.15,2.15,0,0,1,1-.246,2.129,2.129,0,0,1,.989.246,2.413,2.413,0,0,1,.826.73,3.383,3.383,0,0,1,.556,1.075,4.686,4.686,0,0,1,0,2.737A3.586,3.586,0,0,1,310.823,179.085Z" transform="translate(17.379 49.042)" fill="#e4b48d"/>
        <path id="XMLID_808_" d="M316.551,168.28v14.029a1.458,1.458,0,0,0,.15.654,1.173,1.173,0,0,0,.387.471.893.893,0,0,0,.537.182.948.948,0,0,0,.553-.182,1.2,1.2,0,0,0,.39-.471,1.469,1.469,0,0,0,.15-.654V168.28a1.483,1.483,0,0,0-.15-.657,1.331,1.331,0,0,0-.39-.471.969.969,0,0,0-.553-.179.912.912,0,0,0-.537.179,1.245,1.245,0,0,0-.387.471A1.483,1.483,0,0,0,316.551,168.28Z" transform="translate(18.075 47.981)" fill="#e4b48d"/>
        <path id="XMLID_807_" d="M334.755,182.555h0a4.283,4.283,0,0,0,1.676-.352,5.21,5.21,0,0,0,1.428-.909,1.493,1.493,0,0,0,.324-.551,1.584,1.584,0,0,0,.071-.627,1.373,1.373,0,0,0-.183-.584,1.225,1.225,0,0,0-.458-.411.9.9,0,0,0-.52-.086.863.863,0,0,0-.485.239,3.222,3.222,0,0,1-.855.551,2.552,2.552,0,0,1-1,.209,2.5,2.5,0,0,1-1.12-.272,2.946,2.946,0,0,1-.918-.74,3.5,3.5,0,0,1-.624-1.082,3.839,3.839,0,0,1,0-2.611,3.537,3.537,0,0,1,.624-1.088,2.979,2.979,0,0,1,.918-.75,2.467,2.467,0,0,1,1.12-.279,2.541,2.541,0,0,1,1.008.209,3.313,3.313,0,0,1,.847.551.915.915,0,0,0,.49.252.866.866,0,0,0,.52-.083,1.222,1.222,0,0,0,.452-.408,1.387,1.387,0,0,0,.183-.594,1.6,1.6,0,0,0-.071-.634,1.328,1.328,0,0,0-.324-.531,5.07,5.07,0,0,0-1.428-.946,4.132,4.132,0,0,0-1.676-.362,4.218,4.218,0,0,0-1.91.481,5.042,5.042,0,0,0-1.578,1.271,6.115,6.115,0,0,0-1.073,1.895,6.918,6.918,0,0,0-.4,2.323,6.76,6.76,0,0,0,.4,2.3,6.011,6.011,0,0,0,1.073,1.881,5.026,5.026,0,0,0,1.578,1.271A4.164,4.164,0,0,0,334.755,182.555Z" transform="translate(18.832 49.043)" fill="#e4b48d"/>
        <path id="XMLID_804_" d="M344.384,182.628h0a3.631,3.631,0,0,0,1.812-.484,4.562,4.562,0,0,0,1.449-1.324,5.591,5.591,0,0,0,1.011-1.858,7.5,7.5,0,0,0,.354-2.326h0a7.122,7.122,0,0,0-.354-2.26,6.431,6.431,0,0,0-1.011-1.9,4.543,4.543,0,0,0-1.449-1.324,3.666,3.666,0,0,0-1.812-.484,3.748,3.748,0,0,0-1.855.484,5.057,5.057,0,0,0-1.5,1.324,6.92,6.92,0,0,0-.989,1.9,7.123,7.123,0,0,0-.357,2.26,7.5,7.5,0,0,0,.357,2.326,5.967,5.967,0,0,0,.989,1.858,5.056,5.056,0,0,0,1.5,1.324,3.748,3.748,0,0,0,1.855.484Zm-1.875-8.468a3.156,3.156,0,0,1,.842-.65,2.278,2.278,0,0,1,1.033-.252,2.078,2.078,0,0,1,.973.252,3.2,3.2,0,0,1,.823.65,3.6,3.6,0,0,1,.564,1.108,4.477,4.477,0,0,1,.2,1.364h0a4.567,4.567,0,0,1-.2,1.394,3.81,3.81,0,0,1-.564,1.125,2.615,2.615,0,0,1-.823.654,2.186,2.186,0,0,1-.973.226,2.394,2.394,0,0,1-1.033-.226,2.51,2.51,0,0,1-.842-.654,4,4,0,0,1-.52-1.125,5.063,5.063,0,0,1-.183-1.394,4.946,4.946,0,0,1,.183-1.364A3.774,3.774,0,0,1,342.509,174.161Z" transform="translate(19.396 49.043)" fill="#e4b48d"/>
        <path id="XMLID_803_" d="M350.745,180.915h0a7.276,7.276,0,0,0,.91.757,5.36,5.36,0,0,0,1.158.617,4.355,4.355,0,0,0,1.406.265h0a3.826,3.826,0,0,0,1.365-.252,4.015,4.015,0,0,0,1.174-.7h0a3.59,3.59,0,0,0,.632-.73,3.633,3.633,0,0,0,.436-.936,3.758,3.758,0,0,0,.163-1.095h0a3.414,3.414,0,0,0-.1-.813,3.747,3.747,0,0,0-.272-.757h0a3.051,3.051,0,0,0-.618-.843,3.65,3.65,0,0,0-.768-.557h0a5.247,5.247,0,0,0-.88-.415,7.3,7.3,0,0,0-.937-.272H354.4l-.019-.023h0a5,5,0,0,1-.866-.259,2.151,2.151,0,0,1-.559-.312h0a.641.641,0,0,1-.15-.139.406.406,0,0,1-.065-.1h0a.24.24,0,0,1-.033-.086.533.533,0,0,1-.005-.1h0a.52.52,0,0,1,.063-.239.923.923,0,0,1,.251-.309h0a1.614,1.614,0,0,1,.5-.305,1.9,1.9,0,0,1,.673-.123h0a1.827,1.827,0,0,1,.9.252,6.28,6.28,0,0,1,.9.627h0a.91.91,0,0,0,.52.219.856.856,0,0,0,.52-.123,1.112,1.112,0,0,0,.4-.428h0a1.488,1.488,0,0,0,.153-.637,1.583,1.583,0,0,0-.112-.63,1.235,1.235,0,0,0-.354-.491h0a8.232,8.232,0,0,0-.738-.571,4.425,4.425,0,0,0-.97-.514,3.467,3.467,0,0,0-1.221-.222h0a3.677,3.677,0,0,0-1.283.226,3.821,3.821,0,0,0-1.12.654h0a3.548,3.548,0,0,0-.586.7,3.723,3.723,0,0,0-.411.883,3.567,3.567,0,0,0-.155,1.035h0a3.8,3.8,0,0,0,.084.793,3.215,3.215,0,0,0,.248.707h0a3.633,3.633,0,0,0,.608.813,3.776,3.776,0,0,0,.738.567h0a4.933,4.933,0,0,0,.815.362,8.544,8.544,0,0,0,.885.259h.019a5.766,5.766,0,0,1,.943.305,2.463,2.463,0,0,1,.618.362h0a1.394,1.394,0,0,1,.18.163.387.387,0,0,1,.076.123h0a.57.57,0,0,1,.046.1.468.468,0,0,1,.014.136h0a.8.8,0,0,1-.071.322,1.455,1.455,0,0,1-.281.392h0a2.387,2.387,0,0,1-.583.319,2.28,2.28,0,0,1-.747.136h0a2.129,2.129,0,0,1-.782-.143,3.8,3.8,0,0,1-.755-.395,3.949,3.949,0,0,1-.613-.508h0a.959.959,0,0,0-.49-.279.848.848,0,0,0-.534.063,1.047,1.047,0,0,0-.439.4h0a1.374,1.374,0,0,0-.215.594,1.5,1.5,0,0,0,.046.634A1.266,1.266,0,0,0,350.745,180.915Z" transform="translate(20.007 49.044)" fill="#e4b48d"/>
        <path id="XMLID_802_" d="M369.71,173.212a1.669,1.669,0,0,1,.989.332,2.256,2.256,0,0,1,.708.879,2.819,2.819,0,0,1,.272,1.238V181.3a1.394,1.394,0,0,0,.15.634,1.167,1.167,0,0,0,.381.451.911.911,0,0,0,.523.176.873.873,0,0,0,.52-.176,1.143,1.143,0,0,0,.371-.451,1.466,1.466,0,0,0,.144-.634v-5.637a6.046,6.046,0,0,0-.319-1.948,5.222,5.222,0,0,0-.869-1.586,4.173,4.173,0,0,0-1.291-1.072,3.369,3.369,0,0,0-1.583-.392,3.542,3.542,0,0,0-1.182.2,3.672,3.672,0,0,0-1.041.564,4.083,4.083,0,0,0-.842.879,4.1,4.1,0,0,0-1.351-1.2,3.574,3.574,0,0,0-1.714-.435,3.287,3.287,0,0,0-1.087.186,3.907,3.907,0,0,0-1,.528,1.089,1.089,0,0,0-.373-.528.927.927,0,0,0-.564-.186.913.913,0,0,0-.52.169,1.142,1.142,0,0,0-.371.451,1.545,1.545,0,0,0-.144.664V181.3a1.435,1.435,0,0,0,.114.577,1.153,1.153,0,0,0,.3.431,1.059,1.059,0,0,0,.428.249.14.14,0,0,1,.09-.007.935.935,0,0,0,.1.007.919.919,0,0,0,.575-.222,1.342,1.342,0,0,0,.4-.538h0v-.119a.17.17,0,0,0,.035-.07c.005-.023.014-.046.022-.073v-.07a.339.339,0,0,1,.011-.083.562.562,0,0,0,.011-.083h0v-5.637a2.868,2.868,0,0,1,.272-1.238,2.306,2.306,0,0,1,.708-.879,1.653,1.653,0,0,1,.989-.332,1.75,1.75,0,0,1,1,.325,2.285,2.285,0,0,1,.722.856,2.775,2.775,0,0,1,.286,1.2v5.71a1.4,1.4,0,0,0,.153.634,1.246,1.246,0,0,0,.384.451.907.907,0,0,0,.518.176h0a.867.867,0,0,0,.52-.176,1.143,1.143,0,0,0,.371-.451,1.466,1.466,0,0,0,.144-.634v-5.71a2.874,2.874,0,0,1,.3-1.2,2.283,2.283,0,0,1,.722-.856A1.767,1.767,0,0,1,369.71,173.212Z" transform="translate(20.529 49.042)" fill="#e4b48d"/>
        <path id="XMLID_799_" d="M380.592,182.555a4.647,4.647,0,0,0,1.91-.385,4.7,4.7,0,0,0,1.586-1.185,1.016,1.016,0,0,0,.256-.551,1.312,1.312,0,0,0-.046-.557,1.265,1.265,0,0,0-.213-.435.651.651,0,0,0-.278-.222.976.976,0,0,0-.4-.083,1.1,1.1,0,0,0-.422.09.955.955,0,0,0-.368.285,2.129,2.129,0,0,1-.586.368,2.788,2.788,0,0,1-.717.2,2.847,2.847,0,0,1-.73.023,2.532,2.532,0,0,1-.7-.182,3.123,3.123,0,0,1-.657-.372,2.4,2.4,0,0,1-.518-.514,2.463,2.463,0,0,1-.425-.733,4.186,4.186,0,0,1-.237-.836h6.209a.979.979,0,0,0,.689-.262,1.075,1.075,0,0,0,.327-.69.289.289,0,0,0,.016-.106c0-.043,0-.08,0-.106h0v-.119a7.386,7.386,0,0,0-.441-2.216,5.72,5.72,0,0,0-1.016-1.749,4.546,4.546,0,0,0-1.466-1.141,4.016,4.016,0,0,0-1.785-.411,3.914,3.914,0,0,0-1.872.475,4.822,4.822,0,0,0-1.507,1.284,6.259,6.259,0,0,0-1.008,1.891,7.13,7.13,0,0,0,0,4.586,6.3,6.3,0,0,0,1.008,1.888,4.911,4.911,0,0,0,1.507,1.284,4.077,4.077,0,0,0,1.877.481Zm0-9.629a3.177,3.177,0,0,1,1.142.328,3.411,3.411,0,0,1,.866.637,3.521,3.521,0,0,1,.586.78,2.747,2.747,0,0,1,.3.773h-5.525a3.128,3.128,0,0,1,.245-.793,3.253,3.253,0,0,1,.512-.8,2.772,2.772,0,0,1,.79-.634A2.6,2.6,0,0,1,380.592,172.926Z" transform="translate(21.46 49.043)" fill="#e4b48d"/>
        <path id="XMLID_798_" d="M389.73,171.729h-.488v-3.447a1.543,1.543,0,0,0-.144-.667,1.179,1.179,0,0,0-.384-.468.947.947,0,0,0-.548-.176.965.965,0,0,0-.553.176,1.191,1.191,0,0,0-.39.468,1.5,1.5,0,0,0-.15.667h0v3.447h-.567a.936.936,0,0,0-.548.176,1.179,1.179,0,0,0-.384.468,1.572,1.572,0,0,0-.144.667,1.494,1.494,0,0,0,.144.654,1.167,1.167,0,0,0,.384.471.907.907,0,0,0,.548.182h.567v6.636a3.062,3.062,0,0,0,.3,1.327,2.566,2.566,0,0,0,.782.952,1.914,1.914,0,0,0,1.09.362.936.936,0,0,0,.548-.176,1.179,1.179,0,0,0,.384-.468,1.56,1.56,0,0,0,.144-.667,1.6,1.6,0,0,0-.144-.674,1.2,1.2,0,0,0-.384-.474.913.913,0,0,0-.548-.182h0v-6.636h.488a.916.916,0,0,0,.542-.182,1.244,1.244,0,0,0,.4-.471,1.471,1.471,0,0,0,.153-.654,1.507,1.507,0,0,0-.153-.667,1.233,1.233,0,0,0-.4-.468.932.932,0,0,0-.542-.176Z" transform="translate(22.009 47.981)" fill="#e4b48d"/>
        <path id="XMLID_795_" d="M394.23,171.753a.924.924,0,0,0-.534.169,1.119,1.119,0,0,0-.376.461,1.607,1.607,0,0,0-.144.677v9.274a1.49,1.49,0,0,0,.144.65,1.211,1.211,0,0,0,.376.461.931.931,0,0,0,.534.176.913.913,0,0,0,.542-.176,1.175,1.175,0,0,0,.371-.461,1.558,1.558,0,0,0,.139-.65V173.06a1.626,1.626,0,0,0-.139-.677,1.152,1.152,0,0,0-.371-.461.931.931,0,0,0-.542-.169Zm1.054-3.5a1.569,1.569,0,0,0-.139-.65,1.175,1.175,0,0,0-.371-.461.936.936,0,0,0-.542-.176.907.907,0,0,0-.534.176,1.163,1.163,0,0,0-.376.461,1.518,1.518,0,0,0-.144.65v.5a1.494,1.494,0,0,0,.144.654,1.2,1.2,0,0,0,.376.471.885.885,0,0,0,1.076,0,1.184,1.184,0,0,0,.371-.471,1.585,1.585,0,0,0,.139-.654Z" transform="translate(22.451 47.98)" fill="#e4b48d"/>
        <path id="XMLID_794_" d="M402.049,182.555h0a4.283,4.283,0,0,0,1.676-.352,5.211,5.211,0,0,0,1.428-.909,1.492,1.492,0,0,0,.324-.551,1.584,1.584,0,0,0,.071-.627,1.372,1.372,0,0,0-.183-.584,1.225,1.225,0,0,0-.458-.411.9.9,0,0,0-.52-.086.863.863,0,0,0-.485.239,3.222,3.222,0,0,1-.856.551,2.552,2.552,0,0,1-1,.209,2.5,2.5,0,0,1-1.12-.272,2.946,2.946,0,0,1-.918-.74,3.5,3.5,0,0,1-.624-1.082,3.839,3.839,0,0,1,0-2.611,3.537,3.537,0,0,1,.624-1.088,2.979,2.979,0,0,1,.918-.75,2.467,2.467,0,0,1,1.12-.279,2.541,2.541,0,0,1,1.008.209,3.313,3.313,0,0,1,.847.551.915.915,0,0,0,.49.252.866.866,0,0,0,.52-.083,1.222,1.222,0,0,0,.452-.408,1.386,1.386,0,0,0,.183-.594,1.6,1.6,0,0,0-.071-.634,1.327,1.327,0,0,0-.324-.531,5.071,5.071,0,0,0-1.428-.946,4.132,4.132,0,0,0-1.676-.362,4.218,4.218,0,0,0-1.91.481,5.041,5.041,0,0,0-1.578,1.271,6.114,6.114,0,0,0-1.073,1.895,6.918,6.918,0,0,0-.4,2.323,6.76,6.76,0,0,0,.4,2.3,6.009,6.009,0,0,0,1.073,1.881,5.026,5.026,0,0,0,1.578,1.271A4.18,4.18,0,0,0,402.049,182.555Z" transform="translate(22.674 49.043)" fill="#e4b48d"/>
        <path id="XMLID_793_" d="M407.381,180.915h0a7.273,7.273,0,0,0,.91.757,5.36,5.36,0,0,0,1.158.617,4.355,4.355,0,0,0,1.406.265h0a3.826,3.826,0,0,0,1.365-.252,4.015,4.015,0,0,0,1.174-.7h0a3.59,3.59,0,0,0,.632-.73,3.632,3.632,0,0,0,.436-.936,3.852,3.852,0,0,0,.163-1.095h0a3.413,3.413,0,0,0-.1-.813,3.747,3.747,0,0,0-.272-.757h0a3.051,3.051,0,0,0-.618-.843,3.649,3.649,0,0,0-.768-.557h0a5.245,5.245,0,0,0-.88-.415,7.3,7.3,0,0,0-.937-.272h-.019l-.019-.023h0a5,5,0,0,1-.866-.259,2.15,2.15,0,0,1-.559-.312h0a.64.64,0,0,1-.15-.139.405.405,0,0,1-.065-.1h0a.24.24,0,0,1-.033-.086.533.533,0,0,1-.005-.1h0a.52.52,0,0,1,.063-.239.923.923,0,0,1,.251-.309h0a1.615,1.615,0,0,1,.5-.305,1.9,1.9,0,0,1,.673-.123h0a1.827,1.827,0,0,1,.9.252,6.282,6.282,0,0,1,.9.627h0a.91.91,0,0,0,.52.219.856.856,0,0,0,.52-.123,1.113,1.113,0,0,0,.4-.428h0a1.487,1.487,0,0,0,.153-.637,1.583,1.583,0,0,0-.112-.63,1.235,1.235,0,0,0-.354-.491h0a8.228,8.228,0,0,0-.738-.571,4.425,4.425,0,0,0-.97-.514,3.467,3.467,0,0,0-1.221-.222h0a3.677,3.677,0,0,0-1.283.226,3.822,3.822,0,0,0-1.12.654h0a3.548,3.548,0,0,0-.586.7,3.724,3.724,0,0,0-.411.883,3.568,3.568,0,0,0-.155,1.035h0a3.8,3.8,0,0,0,.085.793,3.215,3.215,0,0,0,.248.707h0a3.632,3.632,0,0,0,.608.813,3.776,3.776,0,0,0,.738.567h0a5.036,5.036,0,0,0,.815.362,8.543,8.543,0,0,0,.885.259h.019a5.767,5.767,0,0,1,.943.305,2.464,2.464,0,0,1,.618.362h0a1.4,1.4,0,0,1,.18.163.388.388,0,0,1,.076.123h0a.574.574,0,0,1,.046.1.468.468,0,0,1,.014.136h0a.8.8,0,0,1-.071.322,1.456,1.456,0,0,1-.281.392h0a2.389,2.389,0,0,1-.583.319,2.28,2.28,0,0,1-.747.136h0a2.129,2.129,0,0,1-.782-.143,3.8,3.8,0,0,1-.755-.395,3.951,3.951,0,0,1-.613-.508h0a.959.959,0,0,0-.49-.279.848.848,0,0,0-.534.063,1.047,1.047,0,0,0-.439.4h0a1.374,1.374,0,0,0-.215.594,1.5,1.5,0,0,0,.046.634A1.265,1.265,0,0,0,407.381,180.915Z" transform="translate(23.241 49.044)" fill="#e4b48d"/>
        <path id="XMLID_00000081616461066481468270000006454015262921125541_" d="M481.647,119.459h0a7.273,7.273,0,0,0,.91.757,5.361,5.361,0,0,0,1.158.617,4.356,4.356,0,0,0,1.406.265h0a3.826,3.826,0,0,0,1.365-.252,4.015,4.015,0,0,0,1.174-.7h0a3.591,3.591,0,0,0,.632-.73,3.634,3.634,0,0,0,.436-.936,3.852,3.852,0,0,0,.163-1.095h0a3.414,3.414,0,0,0-.1-.813,3.743,3.743,0,0,0-.272-.757h0a3.052,3.052,0,0,0-.618-.843,3.649,3.649,0,0,0-.768-.557h0a5.238,5.238,0,0,0-.88-.415,7.3,7.3,0,0,0-.937-.272H485.3l-.019-.023h0a5,5,0,0,1-.866-.259,2.151,2.151,0,0,1-.559-.312h0a.641.641,0,0,1-.15-.139.406.406,0,0,1-.065-.1h0a.241.241,0,0,1-.033-.086.533.533,0,0,1-.005-.1h0a.519.519,0,0,1,.063-.239.923.923,0,0,1,.251-.309h0a1.614,1.614,0,0,1,.5-.305,1.9,1.9,0,0,1,.673-.123h0a1.827,1.827,0,0,1,.9.252,6.28,6.28,0,0,1,.9.627h0a.91.91,0,0,0,.52.219.856.856,0,0,0,.52-.123,1.113,1.113,0,0,0,.4-.428h0a1.488,1.488,0,0,0,.153-.637,1.583,1.583,0,0,0-.112-.63,1.236,1.236,0,0,0-.354-.491h0a8.223,8.223,0,0,0-.738-.571,4.422,4.422,0,0,0-.97-.514,3.467,3.467,0,0,0-1.221-.222h0a3.678,3.678,0,0,0-1.283.226,3.821,3.821,0,0,0-1.12.654h0a3.548,3.548,0,0,0-.586.7,3.724,3.724,0,0,0-.411.883,3.567,3.567,0,0,0-.155,1.035h0a3.8,3.8,0,0,0,.084.793,3.215,3.215,0,0,0,.248.707h0a3.633,3.633,0,0,0,.608.813,3.775,3.775,0,0,0,.738.567h0a5.034,5.034,0,0,0,.815.362,8.536,8.536,0,0,0,.885.259h.019a5.762,5.762,0,0,1,.943.305,2.465,2.465,0,0,1,.619.362h0a1.392,1.392,0,0,1,.18.163.388.388,0,0,1,.076.123h0a.57.57,0,0,1,.046.1.468.468,0,0,1,.014.136h0a.8.8,0,0,1-.071.322,1.457,1.457,0,0,1-.281.392h0a2.389,2.389,0,0,1-.583.319,2.281,2.281,0,0,1-.747.136h0a2.129,2.129,0,0,1-.782-.143,3.8,3.8,0,0,1-.755-.395,3.95,3.95,0,0,1-.613-.508h0a.959.959,0,0,0-.49-.279.848.848,0,0,0-.534.063,1.047,1.047,0,0,0-.439.4h0a1.375,1.375,0,0,0-.215.594,1.5,1.5,0,0,0,.046.634A1.266,1.266,0,0,0,481.647,119.459Z" transform="translate(27.482 31.384)" fill="#e4b48d"/>
      </g>
    </g>
    <rect id="Retângulo_2" data-name="Retângulo 2" width="183" height="332" transform="translate(140 295)" fill="#59848e"/>
    <rect id="Retângulo_3" data-name="Retângulo 3" width="183" height="332" transform="translate(1401 295)" fill="#59848e"/>
  </g>
</svg>
