<?xml version="1.0" encoding="utf-8"?>
<!-- Generator: Adobe Illustrator 28.1.0, SVG Export Plug-In . SVG Version: 6.00 Build 0)  -->
<svg version="1.1" id="Ñëîé_1" xmlns="http://www.w3.org/2000/svg" xmlns:xlink="http://www.w3.org/1999/xlink" x="0px" y="0px"
	 viewBox="0 0 4004 1001" style="enable-background:new 0 0 4004 1001;" xml:space="preserve">
<style type="text/css">
	.st0{fill-rule:evenodd;clip-rule:evenodd;fill:#59848E;}
	.st1{fill-rule:evenodd;clip-rule:evenodd;fill:#E4B48D;}
	.st2{fill:#E4B48D;}
</style>
<rect id="XMLID_842_" y="0" class="st0" width="4004" height="1001"/>
<path id="XMLID_841_" class="st1" d="M466.04,0c17.92,94.45,116.46,139.24,237.41,107.89c120.94-31.36,273.24-13.44,268.76,165.74
	c-4.48,179.17,179.17,237.41,394.18,170.21s358.35-20.16,461.37,161.26c103.02,181.41,353.87,188.13,501.69,67.19
	c147.82-120.94,264.28,94.07,85.11,138.86C2235.39,855.94,2248.83,1001,2248.83,1001h515.12c0,0-94.07-33.08,40.32-216.73
	c134.38-183.65,31.35-285.56-17.92-407.62c-49.27-122.06,58.4-187.42,190.37-161.26c93.89,18.61,163.71-21.08,203.81-89.59
	C3220.63,57.3,3230.92,0,3288.03,0H466.04z"/>
<path id="XMLID_840_" class="st1" d="M742.65,569.26c25.29,0,45.91-20.62,45.91-45.91c0-25.29-20.62-45.91-45.91-45.91
	c-25.29,0-45.91,20.63-45.91,45.91C696.74,548.63,717.36,569.26,742.65,569.26z"/>
<ellipse id="XMLID_839_" transform="matrix(0.7071 -0.7071 0.7071 0.7071 -41.0077 687.8828)" class="st1" cx="809.84" cy="393.44" rx="13.44" ry="13.44"/>
<g id="XMLID_820_">
	<path id="XMLID_862_" class="st2" d="M3118.92,758.97c-2.28,0-4.5-0.07-6.65-0.19c-25.37-1.49-105.1-13.09-168.47-48.4
		c-65.18-36.32-97.97-87.07-124.3-127.86c-0.95-1.47-0.53-3.44,0.94-4.39c1.47-0.95,3.44-0.53,4.39,0.94
		c25.96,40.19,58.26,90.21,122.06,125.75c62.02,34.55,142.46,46.24,165.75,47.61c23.99,1.4,54-5.33,66.97-23.58
		c10.07-14.16,9.44-24.8,8.56-39.53c-0.31-5.29-0.67-11.27-0.55-18.01c0.37-20.93,14.13-34.17,39.77-38.29
		c7.27-1.17,15.37-5.68,14.23-14.58c-1.37-10.7-10.94-22.75-19.69-29.14c-0.91-0.66-1.4-1.75-1.29-2.87c0.11-1.12,0.8-2.1,1.82-2.57
		c0.15-0.07,14.92-7,28.01-16.49c7.97-5.78,13.08-13.46,12.7-19.12c-0.16-2.36-1.31-4.08-3.52-5.27
		c-9.16-4.93-20.77-14.11-23.31-23.78c-0.95-3.6-0.51-7,1.28-9.83c2.4-3.8,6.27-5.16,11.62-7.03c4.49-1.57,10.09-3.53,17.4-7.66
		c14.63-8.27,19.6-19.66,18.03-27.29c-0.79-3.86-4.87-7.48-11.61-13.48c-5.86-5.21-13.88-12.34-23.68-23.17
		c-21.46-23.7-48.9-68.2-50.78-87.93c-1.06-11.14,3.34-21.5,8-32.46c0.74-1.73,1.49-3.5,2.23-5.29
		c16.77-40.63-10.12-112.09-42.19-161.28c-0.96-1.47-0.54-3.44,0.93-4.39c1.47-0.96,3.44-0.54,4.39,0.93
		c34.06,52.24,60.48,124.19,42.74,167.17c-0.75,1.82-1.51,3.6-2.25,5.35c-4.53,10.64-8.43,19.84-7.52,29.37
		c1.59,16.6,26.4,59.13,49.17,84.27c9.58,10.57,17.45,17.57,23.2,22.68c7.73,6.88,12.4,11.02,13.62,16.95
		c2.03,9.88-3.72,24.26-21.13,34.1c-7.81,4.41-13.94,6.56-18.43,8.13c-4.81,1.68-7.18,2.58-8.34,4.42
		c-0.84,1.34-1.01,2.92-0.51,4.82c1.62,6.14,9.92,14.29,20.18,19.81c4.11,2.21,6.55,5.92,6.85,10.44
		c0.53,7.88-5.48,17.56-15.31,24.68c-9.22,6.68-18.99,12.02-24.54,14.87c8.42,7.43,16.83,18.98,18.27,30.25
		c1.6,12.54-8.65,19.91-19.52,21.65c-22.52,3.61-34.11,14.42-34.42,32.13c-0.12,6.49,0.22,12.1,0.54,17.52
		c0.91,15.43,1.63,27.61-9.73,43.59C3170.8,752.21,3141.97,758.97,3118.92,758.97z"/>
	<path id="XMLID_860_" class="st2" d="M3218.09,496.59c-0.89,0-1.77-0.37-2.4-1.1c-1.15-1.33-1.01-3.33,0.32-4.48
		c7.67-6.65,27.27-14.22,39.33-10.49c5.01,1.55,8.32,4.9,9.58,9.7c0.45,1.7-0.57,3.43-2.26,3.88c-1.69,0.44-3.43-0.57-3.88-2.26
		c-0.7-2.67-2.39-4.34-5.31-5.24c-9.23-2.86-26.74,3.54-33.3,9.22C3219.56,496.34,3218.82,496.59,3218.09,496.59z"/>
	<path id="XMLID_859_" class="st2" d="M3203.35,509.16c-0.72,0-1.45-0.25-2.05-0.75c-6.58-5.56-10.27-13.19-10.39-21.48
		c-0.12-8.49,3.65-16.78,10.32-22.74c1.31-1.17,3.32-1.05,4.48,0.25c1.17,1.31,1.05,3.31-0.25,4.48c-5.3,4.73-8.29,11.26-8.2,17.91
		c0.09,6.43,2.98,12.36,8.13,16.72c1.34,1.13,1.51,3.13,0.38,4.47C3205.15,508.78,3204.25,509.16,3203.35,509.16z"/>
	<g id="XMLID_827_">
		<path id="XMLID_858_" class="st2" d="M3121.17,365.64c-15.78,0-30.76-3.82-43.98-11.49c-1.52-0.88-2.03-2.82-1.15-4.34
			c0.88-1.52,2.82-2.03,4.34-1.15c24.8,14.39,56.53,14.13,87.59-0.59c-11.05-13.6-15.89-25.21-16.51-39.28
			c-0.08-1.75,1.28-3.23,3.03-3.31c1.73-0.04,3.23,1.28,3.31,3.03c0.61,13.76,5.54,24.57,17.6,38.55c0.64,0.74,0.9,1.73,0.71,2.68
			c-0.19,0.96-0.8,1.77-1.67,2.22C3156.61,361.07,3138.42,365.64,3121.17,365.64z"/>
		<g id="XMLID_829_">
			<path id="XMLID_857_" class="st2" d="M3196.35,380.8c-0.3,0-0.61-0.05-0.92-0.14c-12.65-3.81-22.78-12.28-31.9-26.65
				c-0.94-1.48-0.5-3.44,0.98-4.38c1.48-0.94,3.44-0.5,4.38,0.98c8.25,13.01,17.26,20.63,28.37,23.97c1.68,0.51,2.63,2.28,2.12,3.96
				C3198.97,379.91,3197.71,380.8,3196.35,380.8z"/>
			<path id="XMLID_856_" class="st2" d="M3175.91,397.02c-0.62,0-1.25-0.18-1.79-0.56c-9.53-6.55-22.11-20.39-28.73-36.57
				c-0.66-1.62,0.11-3.48,1.74-4.14c1.63-0.66,3.48,0.12,4.14,1.74c6.09,14.88,17.98,27.92,26.45,33.74
				c1.45,0.99,1.81,2.97,0.82,4.41C3177.92,396.53,3176.92,397.02,3175.91,397.02z"/>
			<path id="XMLID_855_" class="st2" d="M3148.74,401.71c-0.65,0-1.3-0.2-1.86-0.61c-0.68-0.5-16.71-12.49-16.71-39.48
				c0-1.75,1.42-3.17,3.17-3.17s3.17,1.42,3.17,3.17c0,23.61,13.54,33.93,14.11,34.36c1.4,1.04,1.71,3.03,0.67,4.43
				C3150.68,401.26,3149.72,401.71,3148.74,401.71z"/>
			<path id="XMLID_854_" class="st2" d="M3118.42,398.11c-0.91,0-1.81-0.39-2.43-1.15c-0.77-0.94-7.45-9.91-5.88-35.08
				c0.11-1.75,1.61-3.1,3.37-2.97c1.75,0.11,3.08,1.62,2.97,3.37c-1.42,22.7,4.43,30.63,4.49,30.71c1.05,1.38,0.82,3.36-0.54,4.44
				C3119.81,397.88,3119.11,398.11,3118.42,398.11z"/>
		</g>
		<path id="XMLID_853_" class="st2" d="M3090,394.77c-1.57,0-2.93-1.16-3.14-2.76c-0.06-0.44-1.37-11.18,2.78-34.76
			c0.3-1.73,1.95-2.89,3.68-2.58c1.73,0.3,2.88,1.95,2.58,3.68c-3.95,22.44-2.74,32.75-2.73,32.85c0.22,1.74-1.01,3.32-2.75,3.54
			C3090.27,394.76,3090.14,394.77,3090,394.77z"/>
	</g>
	<path id="XMLID_852_" class="st2" d="M3205.73,589.7c-2.56,0-4.94-0.63-6.74-1.83c-1.46-0.97-1.85-2.94-0.88-4.4
		c0.97-1.46,2.94-1.86,4.4-0.88c0.9,0.6,2.89,1.09,5.5,0.5c4.07-0.93,7.91-4.13,10.8-9.01c1.21-2.04,2.38-4.38,3.63-6.86
		c5.66-11.26,13.41-26.67,34.66-31.98c1.71-0.42,3.42,0.61,3.85,2.31c0.43,1.7-0.61,3.43-2.31,3.85
		c-18.43,4.61-24.86,17.39-30.53,28.68c-1.3,2.58-2.52,5.02-3.84,7.24c-3.79,6.39-9.07,10.64-14.86,11.96
		C3208.17,589.56,3206.93,589.7,3205.73,589.7z"/>
	<path id="XMLID_851_" class="st2" d="M3227.9,639.34c-0.52,0-1.05-0.13-1.53-0.4c-6.09-3.37-7.59-11.35-9.19-19.8
		c-1.67-8.86-3.4-18.03-10.25-21.46c-1.57-0.78-2.2-2.69-1.42-4.26c0.79-1.57,2.69-2.2,4.26-1.42c9.66,4.84,11.78,16.06,13.64,25.96
		c1.31,6.94,2.55,13.5,6.02,15.42c1.53,0.85,2.09,2.78,1.24,4.31C3230.1,638.75,3229.02,639.34,3227.9,639.34z"/>
	<g id="XMLID_847_">
		<path id="XMLID_246_" class="st1" d="M3159.87,440.39c2.94,0,5.35-2.4,5.35-5.35c0-2.94-2.4-5.35-5.35-5.35s-5.35,2.4-5.35,5.35
			C3154.52,437.99,3156.92,440.39,3159.87,440.39z"/>
		<path id="XMLID_848_" class="st2" d="M3159.87,441.24c-3.41,0-6.19-2.78-6.19-6.19c0-3.42,2.78-6.2,6.19-6.2
			c3.42,0,6.19,2.78,6.19,6.2C3166.06,438.46,3163.28,441.24,3159.87,441.24z M3159.87,430.55c-2.48,0-4.5,2.02-4.5,4.5
			c0,2.48,2.02,4.5,4.5,4.5s4.5-2.02,4.5-4.5C3164.37,432.57,3162.35,430.55,3159.87,430.55z"/>
	</g>
	<g id="XMLID_835_">
		<path id="XMLID_245_" class="st1" d="M3128.09,446.93c2.94,0,5.35-2.4,5.35-5.35c0-2.95-2.4-5.35-5.35-5.35
			c-2.95,0-5.35,2.4-5.35,5.35C3122.75,444.53,3125.15,446.93,3128.09,446.93z"/>
		<path id="XMLID_836_" class="st2" d="M3128.09,447.78c-3.41,0-6.19-2.78-6.19-6.19c0-3.41,2.78-6.19,6.19-6.19
			c3.42,0,6.19,2.78,6.19,6.19C3134.28,445,3131.51,447.78,3128.09,447.78z M3128.09,437.09c-2.48,0-4.5,2.02-4.5,4.5
			c0,2.48,2.02,4.5,4.5,4.5c2.48,0,4.5-2.02,4.5-4.5C3132.59,439.1,3130.57,437.09,3128.09,437.09z"/>
	</g>
	<g id="XMLID_831_">
		<path id="XMLID_244_" class="st1" d="M3144.99,483.33c2.95,0,5.35-2.4,5.35-5.35c0-2.94-2.4-5.35-5.35-5.35
			c-2.94,0-5.35,2.4-5.35,5.35C3139.64,480.93,3142.05,483.33,3144.99,483.33z"/>
		<path id="XMLID_832_" class="st2" d="M3144.99,484.17c-3.41,0-6.19-2.78-6.19-6.19c0-3.41,2.78-6.19,6.19-6.19
			c3.42,0,6.19,2.78,6.19,6.19C3151.18,481.4,3148.41,484.17,3144.99,484.17z M3144.99,473.48c-2.48,0-4.5,2.02-4.5,4.5
			c0,2.48,2.02,4.5,4.5,4.5c2.48,0,4.5-2.02,4.5-4.5C3149.49,475.5,3147.47,473.48,3144.99,473.48z"/>
	</g>
	<g id="XMLID_825_">
		<path id="XMLID_243_" class="st1" d="M3104.15,476.75c2.95,0,5.35-2.4,5.35-5.35c0-2.95-2.4-5.35-5.35-5.35
			c-2.94,0-5.35,2.4-5.35,5.35C3098.81,474.35,3101.21,476.75,3104.15,476.75z"/>
		<path id="XMLID_826_" class="st2" d="M3104.15,477.6c-3.41,0-6.19-2.78-6.19-6.19c0-3.41,2.78-6.19,6.19-6.19
			c3.42,0,6.19,2.78,6.19,6.19C3110.35,474.82,3107.57,477.6,3104.15,477.6z M3104.15,466.91c-2.48,0-4.5,2.02-4.5,4.5
			c0,2.48,2.02,4.5,4.5,4.5c2.48,0,4.5-2.02,4.5-4.5C3108.65,468.93,3106.63,466.91,3104.15,466.91z"/>
	</g>
	<path id="XMLID_144_" class="st2" d="M2865.14,1001c7.68-92.02,65.08-204.3,95.21-236.47c29.48-31.47,47.18-27.08,47.31-27.04
		c1.68,0.51,3.45-0.43,3.97-2.1c0.52-1.68-0.42-3.45-2.1-3.97c-0.85-0.26-21.22-6.02-53.81,28.77
		c-30.72,32.8-89.29,147.28-96.94,240.81H2865.14z"/>
</g>
<ellipse id="XMLID_819_" transform="matrix(0.7071 -0.7071 0.7071 0.7071 152.3147 1152.3629)" class="st1" cx="1467.18" cy="392.32" rx="150.06" ry="150.06"/>
<path id="XMLID_818_" class="st2" d="M1020.83,662.16c-1.41,0.01-2.75,0.2-4.04,0.6c-1.29,0.39-2.47,0.93-3.56,1.62
	c-0.33-0.69-0.81-1.23-1.43-1.62c-0.62-0.39-1.31-0.58-2.08-0.6c-0.73,0.01-1.37,0.18-1.94,0.53c-0.57,0.34-1.03,0.79-1.35,1.36
	c-0.33,0.57-0.5,1.21-0.51,1.91v11.11l0,0v17.13c0.01,0.7,0.18,1.34,0.51,1.91c0.32,0.57,0.78,1.03,1.35,1.36
	c0.56,0.35,1.21,0.51,1.94,0.53c0.62-0.01,1.21-0.14,1.73-0.42c0.53-0.27,0.98-0.63,1.34-1.1c0.36-0.47,0.6-0.99,0.73-1.57
	c0.07-0.14,0.11-0.27,0.12-0.38c0.02-0.12,0.02-0.23,0.02-0.33l0,0v-17.13c0.01-1.35,0.33-2.58,0.97-3.67
	c0.63-1.09,1.48-1.95,2.56-2.59c1.08-0.63,2.29-0.97,3.64-0.98c1.37,0.01,2.63,0.35,3.75,0.98c1.12,0.65,2.02,1.51,2.68,2.59
	c0.67,1.09,1.02,2.32,1.03,3.67v17.13c0.01,0.7,0.19,1.34,0.54,1.91c0.35,0.57,0.81,1.03,1.39,1.36c0.57,0.35,1.19,0.51,1.88,0.53
	c0.71-0.01,1.33-0.18,1.89-0.53c0.56-0.33,1-0.79,1.34-1.36c0.32-0.57,0.49-1.21,0.5-1.91v-17.13c-0.01-2.04-0.41-3.95-1.17-5.75
	c-0.76-1.79-1.84-3.38-3.2-4.74c-1.36-1.37-2.95-2.45-4.75-3.23C1024.87,662.56,1022.92,662.17,1020.83,662.16z"/>
<path id="XMLID_815_" class="st2" d="M1077.81,666.03c-0.01-0.73-0.18-1.37-0.53-1.96c-0.33-0.59-0.79-1.04-1.36-1.39
	c-0.57-0.35-1.21-0.51-1.91-0.53c-0.94,0.02-1.74,0.32-2.4,0.91c-0.66,0.58-1.1,1.33-1.33,2.25c-1.36-0.98-2.84-1.74-4.44-2.31
	c-1.6-0.55-3.3-0.84-5.09-0.85c-2.45,0.01-4.71,0.5-6.76,1.45c-2.07,0.96-3.87,2.26-5.42,3.93c-1.55,1.62-2.75,3.51-3.6,5.66
	c-0.84,2.15-1.27,4.47-1.28,6.95c0.01,2.45,0.44,4.75,1.28,6.9c0.85,2.14,2.04,4.05,3.6,5.71c1.55,1.62,3.36,2.9,5.42,3.82
	c2.05,0.92,4.31,1.4,6.76,1.41l0,0c1.79-0.01,3.49-0.28,5.09-0.81c1.6-0.54,3.08-1.29,4.44-2.27c0.14,0.57,0.39,1.1,0.74,1.57
	c0.36,0.47,0.78,0.82,1.29,1.1c0.5,0.28,1.08,0.41,1.7,0.42c0.7-0.01,1.34-0.18,1.91-0.53c0.57-0.33,1.03-0.79,1.36-1.36
	c0.35-0.57,0.51-1.21,0.53-1.91v-14.05l0,0l0,0V666.03L1077.81,666.03z M1067.41,687.53c-0.87,0.9-1.89,1.59-3.03,2.07
	c-1.16,0.48-2.37,0.73-3.63,0.73c-1.3,0-2.53-0.25-3.68-0.73c-1.16-0.48-2.15-1.17-2.99-2.07c-0.87-0.94-1.54-2.03-2.01-3.29
	c-0.48-1.25-0.72-2.62-0.72-4.1c0-1.52,0.24-2.89,0.72-4.15c0.47-1.25,1.13-2.33,2.01-3.24c0.84-0.97,1.83-1.71,2.99-2.2
	c1.15-0.49,2.38-0.74,3.68-0.74c1.27,0,2.47,0.25,3.63,0.74c1.15,0.49,2.16,1.23,3.03,2.2c0.87,0.91,1.55,1.98,2.04,3.24
	c0.49,1.25,0.74,2.63,0.75,4.15c-0.01,1.48-0.26,2.84-0.75,4.1C1068.97,685.5,1068.29,686.59,1067.41,687.53z"/>
<path id="XMLID_814_" class="st2" d="M1101.6,662.16h-1.79v-10.39c-0.01-0.75-0.18-1.42-0.53-2.01c-0.35-0.6-0.81-1.06-1.41-1.41
	c-0.58-0.35-1.25-0.51-2.01-0.53c-0.75,0.01-1.42,0.18-2.03,0.53c-0.6,0.35-1.07,0.81-1.43,1.41c-0.36,0.59-0.54,1.25-0.55,2.01l0,0
	v10.39h-2.08c-0.75,0.01-1.42,0.18-2.01,0.53c-0.6,0.35-1.06,0.81-1.41,1.41c-0.35,0.59-0.51,1.25-0.53,2.01
	c0.01,0.73,0.18,1.39,0.53,1.97c0.35,0.6,0.81,1.08,1.41,1.42c0.58,0.36,1.25,0.54,2.01,0.55h2.08v20c0.02,1.47,0.38,2.81,1.09,4
	c0.72,1.19,1.67,2.15,2.87,2.87c1.19,0.7,2.53,1.06,4,1.09c0.75-0.01,1.42-0.18,2.01-0.53c0.6-0.35,1.06-0.81,1.41-1.41
	c0.35-0.58,0.51-1.25,0.53-2.01c-0.01-0.75-0.18-1.42-0.53-2.03c-0.35-0.6-0.81-1.08-1.41-1.43c-0.59-0.36-1.25-0.54-2.01-0.55l0,0
	v-20h1.79c0.73-0.01,1.4-0.19,1.99-0.55c0.61-0.35,1.09-0.82,1.46-1.42c0.36-0.59,0.55-1.24,0.56-1.97
	c-0.01-0.75-0.2-1.42-0.56-2.01c-0.37-0.6-0.85-1.06-1.46-1.41C1103,662.34,1102.33,662.17,1101.6,662.16L1101.6,662.16z"/>
<path id="XMLID_813_" class="st2" d="M1145.1,683.09v-17.13c-0.01-0.68-0.19-1.3-0.56-1.88c-0.36-0.57-0.82-1.04-1.41-1.38
	c-0.59-0.35-1.22-0.53-1.9-0.54c-0.72,0.01-1.36,0.19-1.92,0.54c-0.56,0.35-0.99,0.81-1.31,1.38c-0.32,0.57-0.48,1.2-0.49,1.88l0,0
	v17.13c-0.04,1.37-0.39,2.62-1.06,3.72c-0.66,1.1-1.55,1.96-2.68,2.6c-1.12,0.64-2.39,0.98-3.79,0.99
	c-1.37-0.01-2.62-0.35-3.71-0.99c-1.1-0.65-1.96-1.51-2.6-2.6c-0.65-1.1-0.98-2.34-0.99-3.72v-17.13c-0.01-0.68-0.18-1.3-0.5-1.88
	c-0.33-0.57-0.79-1.04-1.36-1.38c-0.56-0.35-1.21-0.53-1.94-0.54c-0.71,0.01-1.34,0.19-1.91,0.54c-0.57,0.35-1.03,0.81-1.36,1.38
	c-0.35,0.57-0.51,1.2-0.53,1.88v17.13c0.01,2.05,0.41,3.98,1.18,5.78c0.78,1.79,1.84,3.37,3.21,4.73c1.36,1.37,2.94,2.44,4.73,3.21
	c1.8,0.78,3.73,1.17,5.78,1.18c2.08-0.01,4.03-0.41,5.84-1.18c1.82-0.78,3.42-1.84,4.81-3.21c1.39-1.36,2.47-2.94,3.26-4.73
	C1144.69,687.06,1145.09,685.14,1145.1,683.09z"/>
<path id="XMLID_812_" class="st2" d="M1175.64,662.23c-1.19-0.01-2.33,0.1-3.4,0.35c-1.08,0.24-2.09,0.57-3.03,1
	c-0.93,0.43-1.8,0.91-2.59,1.45c-0.25,0.18-0.51,0.41-0.78,0.66c-0.26,0.26-0.51,0.51-0.73,0.78v-0.5
	c-0.01-0.71-0.19-1.33-0.55-1.89c-0.35-0.56-0.82-1-1.41-1.34c-0.6-0.32-1.25-0.49-1.98-0.5c-0.7,0.01-1.34,0.18-1.91,0.5
	c-0.57,0.33-1.03,0.78-1.36,1.34c-0.35,0.56-0.51,1.18-0.53,1.89v28.24c0.01,0.7,0.18,1.34,0.53,1.91c0.33,0.57,0.79,1.03,1.36,1.36
	c0.57,0.35,1.21,0.51,1.91,0.53c0.73-0.01,1.39-0.18,1.98-0.53c0.59-0.33,1.06-0.79,1.41-1.36c0.36-0.57,0.54-1.21,0.55-1.91v-13.62
	c0.12-0.35,0.3-0.85,0.54-1.49c0.24-0.66,0.56-1.37,0.96-2.17c0.39-0.79,0.87-1.58,1.44-2.35c0.43-0.68,0.92-1.33,1.46-1.91
	c0.55-0.58,1.16-1.1,1.84-1.53c0.61-0.47,1.27-0.81,1.98-1.03c0.72-0.23,1.49-0.33,2.32-0.33c0.73-0.01,1.37-0.19,1.94-0.54
	c0.57-0.35,1.03-0.81,1.36-1.39c0.32-0.57,0.49-1.19,0.5-1.88c-0.01-0.71-0.18-1.33-0.5-1.89c-0.33-0.56-0.79-1-1.36-1.34
	C1177.01,662.41,1176.36,662.24,1175.64,662.23z"/>
<path id="XMLID_809_" class="st2" d="M1214.98,666.03c-0.01-0.73-0.18-1.37-0.53-1.96c-0.33-0.59-0.79-1.04-1.36-1.39
	c-0.57-0.35-1.21-0.51-1.91-0.53c-0.94,0.02-1.74,0.32-2.4,0.91c-0.66,0.58-1.1,1.33-1.33,2.25c-1.36-0.98-2.84-1.74-4.44-2.31
	c-1.6-0.55-3.3-0.84-5.09-0.85c-2.45,0.01-4.71,0.5-6.76,1.45c-2.07,0.96-3.87,2.26-5.42,3.93c-1.55,1.62-2.75,3.51-3.6,5.66
	c-0.84,2.15-1.27,4.47-1.28,6.95c0.01,2.45,0.44,4.75,1.28,6.9c0.85,2.14,2.04,4.05,3.6,5.71c1.55,1.62,3.36,2.9,5.42,3.82
	c2.05,0.92,4.31,1.4,6.76,1.41l0,0c1.79-0.01,3.49-0.28,5.09-0.81c1.6-0.54,3.08-1.29,4.44-2.27c0.14,0.57,0.39,1.1,0.74,1.57
	c0.36,0.47,0.78,0.82,1.29,1.1c0.5,0.28,1.08,0.41,1.7,0.42c0.7-0.01,1.34-0.18,1.91-0.53c0.57-0.33,1.03-0.79,1.36-1.36
	c0.35-0.57,0.51-1.21,0.53-1.91v-14.05l0,0l0,0V666.03L1214.98,666.03z M1204.59,687.53c-0.87,0.9-1.89,1.59-3.03,2.07
	c-1.16,0.48-2.37,0.73-3.63,0.73c-1.3,0-2.53-0.25-3.68-0.73c-1.16-0.48-2.15-1.17-2.99-2.07c-0.87-0.94-1.54-2.03-2.01-3.29
	c-0.48-1.25-0.72-2.62-0.72-4.1c0-1.52,0.24-2.89,0.72-4.15c0.47-1.25,1.13-2.33,2.01-3.24c0.84-0.97,1.83-1.71,2.99-2.2
	c1.15-0.49,2.38-0.74,3.68-0.74c1.27,0,2.47,0.25,3.63,0.74c1.15,0.49,2.16,1.23,3.03,2.2c0.87,0.91,1.55,1.98,2.04,3.24
	c0.49,1.25,0.74,2.63,0.75,4.15c-0.01,1.48-0.26,2.84-0.75,4.1C1206.14,685.5,1205.46,686.59,1204.59,687.53z"/>
<path id="XMLID_808_" class="st2" d="M1228.17,651.77v42.28c0.01,0.73,0.19,1.39,0.55,1.97c0.35,0.6,0.82,1.08,1.42,1.42
	c0.58,0.36,1.24,0.54,1.97,0.55c0.75-0.01,1.42-0.19,2.03-0.55c0.6-0.35,1.08-0.82,1.43-1.42c0.36-0.59,0.54-1.24,0.55-1.97v-42.28
	c-0.01-0.73-0.19-1.39-0.55-1.98c-0.36-0.58-0.84-1.06-1.43-1.42c-0.61-0.35-1.28-0.53-2.03-0.54c-0.73,0.01-1.39,0.19-1.97,0.54
	c-0.6,0.36-1.08,0.84-1.42,1.42C1228.36,650.38,1228.18,651.04,1228.17,651.77z"/>
<path id="XMLID_807_" class="st2" d="M1297.76,697.99L1297.76,697.99c2.16-0.02,4.22-0.37,6.15-1.06c1.95-0.69,3.69-1.6,5.24-2.74
	c0.55-0.49,0.94-1.04,1.19-1.66c0.24-0.62,0.33-1.25,0.26-1.89c-0.06-0.63-0.29-1.22-0.67-1.76c-0.49-0.57-1.05-0.99-1.68-1.24
	c-0.63-0.25-1.27-0.33-1.91-0.26c-0.66,0.07-1.24,0.31-1.78,0.72c-0.94,0.69-1.98,1.24-3.14,1.66c-1.15,0.41-2.38,0.62-3.67,0.63
	c-1.46-0.01-2.83-0.29-4.11-0.82c-1.28-0.54-2.4-1.28-3.37-2.23c-0.98-0.94-1.74-2.03-2.29-3.26c-0.55-1.23-0.82-2.54-0.84-3.93
	c0.01-1.39,0.29-2.7,0.84-3.94c0.55-1.24,1.31-2.33,2.29-3.28c0.97-0.96,2.09-1.71,3.37-2.26c1.28-0.55,2.65-0.82,4.11-0.84
	c1.33,0.01,2.56,0.22,3.7,0.63c1.13,0.42,2.17,0.97,3.11,1.66c0.56,0.43,1.16,0.68,1.8,0.76c0.65,0.08,1.29,0,1.91-0.25
	c0.62-0.25,1.17-0.66,1.66-1.23c0.38-0.54,0.61-1.14,0.67-1.79c0.07-0.66-0.02-1.29-0.26-1.91c-0.25-0.62-0.65-1.16-1.19-1.6
	c-1.55-1.19-3.3-2.15-5.24-2.85c-1.94-0.71-3.99-1.08-6.15-1.09c-2.5,0.04-4.83,0.51-7.01,1.45c-2.2,0.92-4.12,2.2-5.79,3.83
	c-1.68,1.64-3,3.55-3.94,5.71c-0.96,2.16-1.43,4.49-1.46,7c0.02,2.47,0.5,4.78,1.46,6.93c0.94,2.15,2.26,4.05,3.94,5.67
	c1.67,1.64,3.6,2.91,5.79,3.83C1292.93,697.5,1295.26,697.98,1297.76,697.99z"/>
<path id="XMLID_804_" class="st2" d="M1335.17,698.21L1335.17,698.21c2.39-0.01,4.6-0.5,6.65-1.46c2.05-0.95,3.82-2.29,5.32-3.99
	c1.62-1.59,2.85-3.46,3.71-5.6c0.86-2.15,1.29-4.49,1.3-7.01l0,0c-0.01-2.44-0.44-4.71-1.3-6.81c-0.86-2.1-2.09-4.01-3.71-5.73
	c-1.49-1.7-3.26-3.03-5.32-3.99c-2.05-0.96-4.26-1.44-6.65-1.46c-2.47,0.01-4.74,0.5-6.81,1.46c-2.07,0.96-3.91,2.29-5.52,3.99
	c-1.55,1.72-2.76,3.63-3.63,5.73c-0.86,2.1-1.3,4.37-1.31,6.81c0.01,2.52,0.45,4.86,1.31,7.01c0.87,2.14,2.08,4.01,3.63,5.6
	c1.61,1.7,3.45,3.03,5.52,3.99C1330.43,697.71,1332.7,698.2,1335.17,698.21L1335.17,698.21z M1328.29,672.69
	c0.9-0.8,1.94-1.46,3.09-1.96c1.16-0.49,2.43-0.75,3.79-0.76c1.27,0.01,2.45,0.27,3.57,0.76c1.11,0.5,2.13,1.16,3.02,1.96
	c0.9,0.97,1.59,2.09,2.07,3.34c0.49,1.27,0.73,2.63,0.73,4.11l0,0c0,1.54-0.24,2.94-0.73,4.2c-0.48,1.25-1.17,2.39-2.07,3.39
	c-0.9,0.86-1.91,1.52-3.02,1.97c-1.12,0.45-2.31,0.68-3.57,0.68c-1.36,0-2.63-0.23-3.79-0.68c-1.16-0.45-2.2-1.11-3.09-1.97
	c-0.82-1-1.47-2.14-1.91-3.39c-0.44-1.27-0.67-2.66-0.67-4.2c0-1.48,0.23-2.84,0.67-4.11
	C1326.82,674.78,1327.47,673.66,1328.29,672.69z"/>
<path id="XMLID_803_" class="st2" d="M1360.76,693.05L1360.76,693.05c0.96,0.78,2.07,1.54,3.34,2.28c1.27,0.74,2.69,1.36,4.25,1.86
	c1.58,0.49,3.3,0.75,5.16,0.8l0,0c1.77-0.01,3.43-0.26,5.01-0.76c1.58-0.5,3.01-1.19,4.31-2.1l0,0c0.87-0.62,1.64-1.36,2.32-2.2
	c0.68-0.85,1.21-1.78,1.6-2.82c0.39-1.03,0.59-2.13,0.6-3.3l0,0c0-0.82-0.12-1.65-0.36-2.45c-0.24-0.8-0.57-1.56-1-2.28l0,0
	c-0.62-1-1.38-1.85-2.27-2.54c-0.9-0.69-1.84-1.25-2.82-1.68l0,0c-1.04-0.5-2.11-0.92-3.23-1.25c-1.11-0.33-2.26-0.61-3.44-0.82
	h-0.07l-0.07-0.07l0,0c-1.23-0.21-2.28-0.48-3.18-0.78c-0.9-0.3-1.58-0.62-2.05-0.94l0,0c-0.25-0.14-0.43-0.29-0.55-0.42
	c-0.13-0.12-0.2-0.23-0.24-0.3l0,0c-0.07-0.1-0.11-0.19-0.12-0.26c-0.02-0.07-0.02-0.18-0.02-0.31l0,0
	c-0.01-0.19,0.06-0.43,0.23-0.72c0.16-0.3,0.47-0.61,0.92-0.93l0,0c0.48-0.37,1.09-0.67,1.83-0.92c0.74-0.24,1.57-0.36,2.47-0.37
	l0,0c1.14,0.01,2.23,0.26,3.3,0.76c1.06,0.49,2.16,1.12,3.3,1.89l0,0c0.61,0.41,1.24,0.62,1.91,0.66c0.67,0.05,1.31-0.08,1.91-0.37
	c0.6-0.29,1.09-0.72,1.48-1.29l0,0c0.36-0.61,0.55-1.25,0.56-1.92c0.02-0.67-0.12-1.3-0.41-1.9c-0.3-0.6-0.73-1.09-1.3-1.48l0,0l0,0
	c-0.76-0.55-1.66-1.12-2.71-1.72c-1.04-0.61-2.22-1.12-3.56-1.55c-1.34-0.43-2.83-0.65-4.48-0.67l0,0c-1.65,0-3.23,0.23-4.71,0.68
	c-1.48,0.45-2.85,1.11-4.11,1.97l0,0c-0.8,0.6-1.52,1.3-2.15,2.1c-0.63,0.81-1.14,1.7-1.51,2.66c-0.37,0.98-0.56,2.02-0.57,3.12l0,0
	c0,0.82,0.11,1.62,0.31,2.39c0.22,0.76,0.51,1.48,0.91,2.13l0,0c0.65,0.95,1.4,1.78,2.23,2.45c0.84,0.68,1.74,1.24,2.71,1.71l0,0
	c0.93,0.43,1.93,0.79,2.99,1.09c1.05,0.31,2.14,0.56,3.25,0.78h0.07l0,0l0,0l0,0c1.3,0.26,2.46,0.56,3.46,0.92
	c0.99,0.36,1.76,0.72,2.27,1.09l0,0c0.29,0.18,0.5,0.35,0.66,0.49c0.14,0.14,0.24,0.26,0.28,0.37l0,0c0.07,0.11,0.13,0.2,0.17,0.31
	c0.04,0.1,0.05,0.24,0.05,0.41l0,0c0.01,0.29-0.08,0.61-0.26,0.97c-0.19,0.36-0.54,0.75-1.03,1.18l0,0
	c-0.59,0.37-1.3,0.69-2.14,0.96c-0.85,0.26-1.76,0.39-2.74,0.41l0,0c-0.94,0.01-1.9-0.13-2.87-0.43c-0.98-0.31-1.9-0.71-2.77-1.19
	c-0.86-0.48-1.61-0.99-2.25-1.53l0,0c-0.54-0.45-1.15-0.73-1.8-0.84c-0.67-0.11-1.33-0.05-1.96,0.19c-0.63,0.24-1.17,0.65-1.61,1.22
	l0,0c-0.43,0.54-0.69,1.13-0.79,1.79c-0.11,0.66-0.05,1.29,0.17,1.91C1359.86,692.07,1360.23,692.61,1360.76,693.05z"/>
<path id="XMLID_802_" class="st2" d="M1432.28,669.83c1.34,0.01,2.54,0.35,3.63,1s1.96,1.54,2.6,2.65c0.66,1.11,0.99,2.35,1,3.73
	v16.99c0.01,0.7,0.19,1.34,0.55,1.91c0.35,0.57,0.81,1.03,1.4,1.36c0.58,0.35,1.22,0.51,1.92,0.53c0.7-0.01,1.34-0.18,1.91-0.53
	c0.57-0.33,1.03-0.79,1.36-1.36c0.35-0.57,0.51-1.21,0.53-1.91v-16.99c-0.01-2.09-0.41-4.05-1.17-5.87c-0.76-1.8-1.83-3.4-3.19-4.78
	c-1.36-1.37-2.94-2.45-4.74-3.23c-1.79-0.78-3.73-1.17-5.81-1.18c-1.51,0-2.95,0.2-4.34,0.6c-1.37,0.39-2.65,0.96-3.82,1.7
	c-1.17,0.74-2.2,1.62-3.09,2.65c-1.37-1.55-3.03-2.76-4.96-3.63c-1.92-0.86-4.03-1.3-6.29-1.31c-1.36,0-2.7,0.19-3.99,0.56
	c-1.3,0.37-2.53,0.91-3.68,1.59c-0.3-0.68-0.75-1.22-1.37-1.59c-0.61-0.37-1.3-0.56-2.07-0.56c-0.7,0.01-1.34,0.18-1.91,0.51
	c-0.57,0.33-1.03,0.79-1.36,1.36c-0.35,0.58-0.51,1.24-0.53,2v11.11c0,0,0,0,0,0.01c0,0,0,0.02,0,0.06v16.99
	c0.01,0.65,0.14,1.23,0.42,1.74c0.27,0.53,0.63,0.96,1.1,1.3c0.47,0.36,0.99,0.61,1.57,0.75c0.11-0.04,0.22-0.04,0.33-0.02
	c0.11,0.01,0.24,0.02,0.38,0.02c0.76-0.01,1.47-0.24,2.11-0.67c0.64-0.42,1.14-0.97,1.47-1.62l0,0c0-0.07,0-0.14,0-0.2
	c0-0.07,0-0.12,0-0.16c0.07-0.07,0.11-0.14,0.13-0.21c0.02-0.07,0.05-0.14,0.08-0.22c0,0,0-0.04,0-0.08c0-0.05,0-0.1,0-0.13
	c0-0.07,0.01-0.15,0.04-0.25c0.02-0.1,0.04-0.18,0.04-0.25l0,0v-16.99c0.01-1.37,0.35-2.62,1-3.73c0.65-1.11,1.52-2,2.6-2.65
	c1.09-0.66,2.3-0.99,3.63-1c1.35,0.01,2.58,0.35,3.68,0.98c1.11,0.65,1.98,1.49,2.65,2.58c0.66,1.07,1.01,2.28,1.05,3.61
	c0,0.07,0,0.14,0,0.22v16.99c0.01,0.7,0.2,1.34,0.56,1.91c0.36,0.57,0.84,1.03,1.41,1.36c0.58,0.35,1.22,0.51,1.9,0.53l0,0l0,0
	c0.71-0.01,1.34-0.18,1.91-0.53c0.57-0.33,1.03-0.79,1.36-1.36c0.35-0.57,0.51-1.21,0.53-1.91v-16.99c0-0.07,0-0.14,0-0.22
	c0.06-1.33,0.43-2.53,1.09-3.61c0.67-1.09,1.55-1.94,2.65-2.58C1429.67,670.17,1430.91,669.84,1432.28,669.83z"/>
<path id="XMLID_799_" class="st2" d="M1475.64,697.99c2.54,0,4.87-0.38,7.01-1.16c2.13-0.78,4.06-1.96,5.82-3.57
	c0.54-0.51,0.85-1.06,0.94-1.66c0.08-0.59,0.04-1.15-0.17-1.68c-0.19-0.53-0.45-0.97-0.78-1.31c-0.24-0.29-0.59-0.51-1.02-0.67
	c-0.44-0.17-0.93-0.24-1.46-0.25c-0.53,0-1.05,0.1-1.55,0.27c-0.51,0.18-0.97,0.47-1.35,0.86c-0.61,0.45-1.33,0.82-2.15,1.11
	c-0.84,0.3-1.71,0.5-2.63,0.61c-0.91,0.12-1.8,0.14-2.68,0.07c-0.85-0.07-1.7-0.26-2.57-0.55c-0.86-0.29-1.66-0.67-2.41-1.12
	c-0.75-0.45-1.39-0.98-1.9-1.55c-0.65-0.63-1.17-1.36-1.56-2.21c-0.41-0.84-0.69-1.68-0.87-2.52h22.79
	c1.02-0.01,1.86-0.27,2.53-0.79c0.67-0.51,1.08-1.21,1.2-2.08c0.04-0.08,0.06-0.19,0.06-0.32c0.01-0.13,0.01-0.24,0.01-0.32l0,0l0,0
	c0-0.07,0-0.14,0-0.2c0-0.07,0-0.12,0-0.16c-0.15-2.42-0.7-4.66-1.62-6.68c-0.93-2.03-2.17-3.79-3.73-5.27
	c-1.56-1.48-3.34-2.63-5.38-3.44c-2.02-0.82-4.2-1.23-6.55-1.24c-2.47,0.01-4.75,0.49-6.87,1.43c-2.1,0.93-3.95,2.22-5.53,3.87
	c-1.58,1.65-2.82,3.55-3.7,5.7c-0.9,2.16-1.35,4.46-1.39,6.92c0.04,2.45,0.49,4.75,1.39,6.9c0.88,2.15,2.13,4.04,3.7,5.69
	c1.58,1.64,3.43,2.93,5.53,3.87C1470.89,697.47,1473.17,697.96,1475.64,697.99L1475.64,697.99z M1475.64,668.97
	c1.57,0.13,2.95,0.47,4.19,0.99c1.23,0.53,2.29,1.17,3.18,1.92c0.9,0.75,1.61,1.54,2.15,2.35c0.55,0.82,0.91,1.6,1.09,2.33h-20.28
	c0.14-0.75,0.44-1.54,0.9-2.39c0.45-0.84,1.09-1.64,1.88-2.4c0.79-0.76,1.76-1.4,2.9-1.91
	C1472.79,669.35,1474.13,669.05,1475.64,668.97z"/>
<path id="XMLID_798_" class="st2" d="M1511.19,662.16h-1.79v-10.39c-0.01-0.75-0.18-1.42-0.53-2.01c-0.35-0.6-0.81-1.06-1.41-1.41
	c-0.58-0.35-1.25-0.51-2.01-0.53c-0.75,0.01-1.42,0.18-2.03,0.53c-0.6,0.35-1.08,0.81-1.43,1.41c-0.36,0.59-0.54,1.25-0.55,2.01l0,0
	v10.39h-2.08c-0.75,0.01-1.42,0.18-2.01,0.53c-0.6,0.35-1.06,0.81-1.41,1.41c-0.35,0.59-0.51,1.25-0.53,2.01
	c0.01,0.73,0.18,1.39,0.53,1.97c0.35,0.6,0.81,1.08,1.41,1.42c0.58,0.36,1.25,0.54,2.01,0.55h2.08v20c0.02,1.47,0.38,2.81,1.09,4
	c0.72,1.19,1.67,2.15,2.87,2.87c1.19,0.7,2.53,1.06,4,1.09c0.75-0.01,1.42-0.18,2.01-0.53c0.6-0.35,1.06-0.81,1.41-1.41
	c0.35-0.58,0.51-1.25,0.53-2.01c-0.01-0.75-0.18-1.42-0.53-2.03c-0.35-0.6-0.81-1.08-1.41-1.43c-0.59-0.36-1.25-0.54-2.01-0.55l0,0
	v-20h1.79c0.73-0.01,1.4-0.19,1.99-0.55c0.61-0.35,1.09-0.82,1.46-1.42c0.36-0.59,0.55-1.24,0.56-1.97
	c-0.01-0.75-0.2-1.42-0.56-2.01c-0.37-0.6-0.85-1.06-1.46-1.41C1512.59,662.34,1511.92,662.17,1511.19,662.16L1511.19,662.16z"/>
<path id="XMLID_795_" class="st2" d="M1529.33,662.23c-0.73,0-1.37,0.18-1.96,0.51c-0.59,0.33-1.04,0.8-1.38,1.39
	c-0.35,0.59-0.51,1.27-0.53,2.04v27.95c0.01,0.73,0.18,1.37,0.53,1.96c0.35,0.59,0.8,1.04,1.38,1.39c0.59,0.35,1.23,0.51,1.96,0.53
	c0.75-0.01,1.41-0.18,1.99-0.53c0.57-0.35,1.03-0.8,1.36-1.39c0.33-0.58,0.5-1.23,0.51-1.96v-27.95c-0.01-0.78-0.18-1.46-0.51-2.04
	c-0.33-0.59-0.79-1.05-1.36-1.39C1530.74,662.41,1530.08,662.23,1529.33,662.23L1529.33,662.23z M1533.2,651.69
	c-0.01-0.73-0.18-1.37-0.51-1.96c-0.33-0.59-0.79-1.04-1.36-1.39c-0.58-0.35-1.24-0.51-1.99-0.53c-0.73,0.01-1.37,0.18-1.96,0.53
	c-0.59,0.35-1.04,0.8-1.38,1.39c-0.35,0.58-0.51,1.23-0.53,1.96v1.51c0.01,0.73,0.18,1.39,0.53,1.97c0.35,0.6,0.8,1.08,1.38,1.42
	c0.59,0.36,1.23,0.54,1.96,0.55c0.75-0.01,1.41-0.19,1.99-0.55c0.57-0.35,1.03-0.82,1.36-1.42c0.33-0.59,0.5-1.24,0.51-1.97V651.69z
	"/>
<path id="XMLID_794_" class="st2" d="M1558.85,697.99L1558.85,697.99c2.16-0.02,4.22-0.37,6.15-1.06c1.95-0.69,3.69-1.6,5.24-2.74
	c0.55-0.49,0.94-1.04,1.19-1.66c0.24-0.62,0.33-1.25,0.26-1.89c-0.06-0.63-0.29-1.22-0.67-1.76c-0.49-0.57-1.05-0.99-1.68-1.24
	c-0.63-0.25-1.27-0.33-1.91-0.26c-0.66,0.07-1.24,0.31-1.78,0.72c-0.94,0.69-1.98,1.24-3.14,1.66c-1.15,0.41-2.38,0.62-3.67,0.63
	c-1.46-0.01-2.83-0.29-4.11-0.82c-1.28-0.54-2.4-1.28-3.37-2.23c-0.98-0.94-1.74-2.03-2.29-3.26c-0.55-1.23-0.82-2.54-0.84-3.93
	c0.01-1.39,0.29-2.7,0.84-3.94c0.55-1.24,1.31-2.33,2.29-3.28c0.97-0.96,2.09-1.71,3.37-2.26c1.28-0.55,2.65-0.82,4.11-0.84
	c1.33,0.01,2.56,0.22,3.7,0.63c1.13,0.42,2.17,0.97,3.11,1.66c0.56,0.43,1.16,0.68,1.8,0.76c0.65,0.08,1.29,0,1.91-0.25
	c0.62-0.25,1.17-0.66,1.66-1.23c0.38-0.54,0.61-1.14,0.67-1.79c0.07-0.66-0.02-1.29-0.26-1.91c-0.25-0.62-0.65-1.16-1.19-1.6
	c-1.55-1.19-3.3-2.15-5.24-2.85c-1.94-0.71-3.99-1.08-6.15-1.09c-2.5,0.04-4.83,0.51-7.01,1.45c-2.2,0.92-4.12,2.2-5.79,3.83
	c-1.68,1.64-3,3.55-3.94,5.71c-0.96,2.16-1.43,4.49-1.46,7c0.02,2.47,0.5,4.78,1.46,6.93c0.94,2.15,2.26,4.05,3.94,5.67
	c1.67,1.64,3.6,2.91,5.79,3.83C1554.03,697.5,1556.36,697.98,1558.85,697.99z"/>
<path id="XMLID_793_" class="st2" d="M1580.5,693.05L1580.5,693.05c0.96,0.78,2.07,1.54,3.34,2.28c1.27,0.74,2.69,1.36,4.25,1.86
	c1.58,0.49,3.3,0.75,5.16,0.8l0,0c1.77-0.01,3.43-0.26,5.01-0.76c1.58-0.5,3.01-1.19,4.31-2.1l0,0c0.87-0.62,1.64-1.36,2.32-2.2
	c0.68-0.85,1.21-1.78,1.6-2.82c0.39-1.03,0.58-2.13,0.6-3.3l0,0c0-0.82-0.12-1.65-0.36-2.45c-0.24-0.8-0.57-1.56-1-2.28l0,0
	c-0.62-1-1.38-1.85-2.27-2.54c-0.9-0.69-1.84-1.25-2.82-1.68l0,0c-1.04-0.5-2.11-0.92-3.23-1.25c-1.11-0.33-2.26-0.61-3.44-0.82
	h-0.07l-0.07-0.07l0,0c-1.23-0.21-2.28-0.48-3.18-0.78c-0.9-0.3-1.58-0.62-2.05-0.94l0,0c-0.25-0.14-0.43-0.29-0.55-0.42
	c-0.13-0.12-0.2-0.23-0.24-0.3l0,0c-0.07-0.1-0.11-0.19-0.12-0.26c-0.02-0.07-0.02-0.18-0.02-0.31l0,0
	c-0.01-0.19,0.06-0.43,0.23-0.72c0.16-0.3,0.47-0.61,0.92-0.93l0,0c0.48-0.37,1.09-0.67,1.83-0.92c0.74-0.24,1.57-0.36,2.47-0.37
	l0,0c1.14,0.01,2.23,0.26,3.3,0.76c1.06,0.49,2.16,1.12,3.3,1.89l0,0c0.61,0.41,1.24,0.62,1.91,0.66c0.67,0.05,1.31-0.08,1.91-0.37
	c0.6-0.29,1.09-0.72,1.48-1.29l0,0c0.36-0.61,0.55-1.25,0.56-1.92c0.02-0.67-0.12-1.3-0.41-1.9c-0.3-0.6-0.73-1.09-1.3-1.48l0,0l0,0
	c-0.76-0.55-1.66-1.12-2.71-1.72c-1.04-0.61-2.22-1.12-3.56-1.55c-1.34-0.43-2.83-0.65-4.48-0.67l0,0c-1.65,0-3.23,0.23-4.71,0.68
	c-1.48,0.45-2.85,1.11-4.11,1.97l0,0c-0.8,0.6-1.52,1.3-2.15,2.1c-0.63,0.81-1.14,1.7-1.51,2.66c-0.37,0.98-0.56,2.02-0.57,3.12l0,0
	c0,0.82,0.11,1.62,0.31,2.39c0.22,0.76,0.51,1.48,0.91,2.13l0,0c0.65,0.95,1.4,1.78,2.23,2.45c0.84,0.68,1.74,1.24,2.71,1.71l0,0
	c0.93,0.43,1.94,0.79,2.99,1.09c1.05,0.31,2.14,0.56,3.25,0.78h0.07l0,0l0,0l0,0c1.3,0.26,2.46,0.56,3.46,0.92
	c0.99,0.36,1.76,0.72,2.27,1.09l0,0c0.29,0.18,0.5,0.35,0.66,0.49c0.14,0.14,0.24,0.26,0.28,0.37l0,0c0.07,0.11,0.13,0.2,0.17,0.31
	c0.04,0.1,0.05,0.24,0.05,0.41l0,0c0.01,0.29-0.08,0.61-0.26,0.97c-0.19,0.36-0.54,0.75-1.03,1.18l0,0
	c-0.59,0.37-1.3,0.69-2.14,0.96c-0.85,0.26-1.76,0.39-2.74,0.41l0,0c-0.94,0.01-1.9-0.13-2.87-0.43c-0.98-0.31-1.9-0.71-2.77-1.19
	c-0.86-0.48-1.61-0.99-2.25-1.53l0,0c-0.54-0.45-1.15-0.73-1.8-0.84c-0.67-0.11-1.33-0.05-1.96,0.19c-0.63,0.24-1.17,0.65-1.61,1.22
	l0,0c-0.43,0.54-0.69,1.13-0.79,1.79c-0.11,0.66-0.05,1.29,0.17,1.91C1579.6,692.07,1579.97,692.61,1580.5,693.05z"/>
<path id="XMLID_00000081616461066481468270000006454015262921125541_" class="st2" d="M1868.64,454.61L1868.64,454.61
	c0.96,0.78,2.07,1.54,3.34,2.28c1.27,0.74,2.69,1.36,4.25,1.86c1.58,0.49,3.3,0.75,5.16,0.8l0,0c1.77-0.01,3.43-0.26,5.01-0.76
	c1.58-0.5,3.01-1.19,4.31-2.1l0,0c0.87-0.62,1.64-1.36,2.32-2.2c0.68-0.85,1.21-1.78,1.6-2.82c0.39-1.03,0.58-2.13,0.6-3.3l0,0
	c0-0.82-0.12-1.65-0.36-2.45c-0.24-0.8-0.57-1.56-1-2.28l0,0c-0.62-1-1.38-1.85-2.27-2.54c-0.9-0.69-1.84-1.25-2.82-1.68l0,0
	c-1.04-0.5-2.11-0.92-3.23-1.25c-1.11-0.33-2.26-0.61-3.44-0.82h-0.07l-0.07-0.07l0,0c-1.23-0.21-2.28-0.48-3.18-0.78
	c-0.9-0.3-1.58-0.62-2.05-0.94l0,0c-0.25-0.14-0.43-0.29-0.55-0.42c-0.13-0.12-0.2-0.23-0.24-0.3l0,0c-0.07-0.1-0.11-0.19-0.12-0.26
	c-0.02-0.07-0.02-0.18-0.02-0.31l0,0c-0.01-0.19,0.06-0.43,0.23-0.72c0.16-0.3,0.47-0.61,0.92-0.93l0,0
	c0.48-0.37,1.09-0.67,1.83-0.92c0.74-0.24,1.57-0.36,2.47-0.37l0,0c1.14,0.01,2.23,0.26,3.3,0.76c1.06,0.49,2.16,1.12,3.3,1.89l0,0
	c0.61,0.41,1.24,0.62,1.91,0.66c0.67,0.05,1.31-0.08,1.91-0.37c0.6-0.29,1.09-0.72,1.48-1.29l0,0c0.36-0.61,0.55-1.25,0.56-1.92
	c0.02-0.67-0.12-1.3-0.41-1.9c-0.3-0.6-0.73-1.09-1.3-1.48l0,0l0,0c-0.76-0.55-1.66-1.12-2.71-1.72c-1.04-0.61-2.22-1.12-3.56-1.55
	c-1.34-0.43-2.83-0.65-4.48-0.67l0,0c-1.65,0-3.23,0.23-4.71,0.68c-1.48,0.45-2.85,1.11-4.11,1.97l0,0c-0.8,0.6-1.52,1.3-2.15,2.1
	c-0.63,0.81-1.14,1.7-1.51,2.66c-0.37,0.98-0.56,2.02-0.57,3.12l0,0c0,0.82,0.11,1.62,0.31,2.39c0.22,0.76,0.51,1.48,0.91,2.13l0,0
	c0.65,0.95,1.4,1.78,2.23,2.45c0.84,0.68,1.74,1.24,2.71,1.71l0,0c0.93,0.43,1.94,0.79,2.99,1.09c1.05,0.31,2.14,0.56,3.25,0.78
	h0.07l0,0l0,0l0,0c1.3,0.26,2.46,0.56,3.46,0.92c0.99,0.36,1.76,0.72,2.27,1.09l0,0c0.29,0.18,0.5,0.35,0.66,0.49
	c0.14,0.14,0.24,0.26,0.28,0.37l0,0c0.07,0.11,0.13,0.2,0.17,0.31c0.04,0.1,0.05,0.24,0.05,0.41l0,0c0.01,0.29-0.08,0.61-0.26,0.97
	c-0.19,0.36-0.54,0.75-1.03,1.18l0,0c-0.59,0.37-1.3,0.69-2.14,0.96c-0.85,0.26-1.76,0.39-2.74,0.41l0,0
	c-0.94,0.01-1.9-0.13-2.87-0.43c-0.98-0.31-1.9-0.71-2.77-1.19c-0.86-0.48-1.61-0.99-2.25-1.53l0,0c-0.54-0.45-1.15-0.73-1.8-0.84
	c-0.67-0.11-1.33-0.05-1.96,0.19c-0.63,0.24-1.17,0.65-1.61,1.22l0,0c-0.43,0.54-0.69,1.13-0.79,1.79
	c-0.11,0.66-0.05,1.29,0.17,1.91C1867.74,453.63,1868.11,454.17,1868.64,454.61z"/>
</svg>
