<svg id="d16dab014a7c58ba653f2e85ecbf7397" xmlns="http://www.w3.org/2000/svg" width="1214.376" height="234.746" viewBox="0 0 1214.376 234.746">
  <path id="Caminho_774" data-name="Caminho 774" d="M0,0C.85.02,1.7.03,2.58.05,5.02.1,7.46.17,9.9.24c.72.01,1.45.03,2.19.04A46.3,46.3,0,0,1,25.06,2.69c1.66.33,3.33.65,5,.93a47.487,47.487,0,0,1,12,4.07v2l4,1v2c.6.25,1.2.5,1.81.76,6.23,3.51,9.64,11.47,12.25,17.81,1.22,4.44,1.27,8.54,1.26,13.12.01.85.03,1.7.04,2.58,0,.82.01,1.64.01,2.49V51.7c-.47,2.52-1.47,3.32-3.37,4.99Q56.815,58.8,55.69,61c-3.63,6.66-8.19,11.36-14.05,16.07-1.93,1.6-1.93,1.6-1.58,4.62l8,3v2c.72.08,1.45.16,2.19.25,6.31,1.68,9.93,6.89,13.37,12.12,3.6,6.57,4.85,10.33,3.44,17.63h2c.06,1.93.1,3.87.13,5.81.02,1.08.04,2.16.07,3.27-.2,2.92-.2,2.92-2.2,5.92-.65,1.76-1.28,3.53-1.87,5.31a40.728,40.728,0,0,1-6.13,11.69c-.59.79-1.17,1.59-1.78,2.41a37.489,37.489,0,0,1-7.72,6.65,47.771,47.771,0,0,0-7.64,6.17c-1.86,1.77-1.86,1.77-5.11,2.02-.9-.09-1.81-.17-2.75-.25v2c-2.75,1.38-5.09.98-8.12.84-2.13-.02-2.13-.02-3.88,2.16-4.09,1.35-8.16,1.02-12.41.88l-2.52-.08c-2.71-.07-5.42-.16-8.13-.24q-5.58-.165-11.16-.31l-2.8-.08c-9.09-.23-18.18-.22-27.28-.05-1,.01-2,.03-3.04.04-1.29.02-1.29.02-2.6.05-2.06-.21-2.06-.21-4.06-2.21a49.077,49.077,0,0,1-.24-6.58c-.01-1.02-.01-1.02-.01-2.07-.01-2.3,0-4.59.01-6.89,0-1.65,0-3.29-.01-4.94q0-6.705.02-13.41c.01-4.68,0-9.35,0-14.02q0-11.775.03-23.54.015-13.62.02-27.25,0-13.08.01-26.17c0-3.72.01-7.44.01-11.16q0-6.57.01-13.13c.01-1.61.01-3.22.01-4.83q0-3.285.01-6.57V4.41c.13-2.72.13-2.72,1.13-3.72C-34.11-.97-16.88-.39,0,0ZM-18.94,20.69v2h-3a29.814,29.814,0,0,0-4,2q-.03,8.865-.05,17.72c-.01,2.01-.01,4.02-.02,6.03-.02,2.89-.02,5.78-.03,8.67,0,.9-.01,1.8-.01,2.72v2.55c0,.74-.01,1.47-.01,2.23a27.961,27.961,0,0,0,1.12,6.08c24.72,2.42,24.72,2.42,48-4,.93-.44,1.86-.87,2.82-1.31,3.15-2.44,4.35-5.16,6.18-8.69l2-3c.91-7.5,1.06-14.29-3.65-20.46-.44-.51-.89-1.02-1.35-1.54-.93-1.15-.93-1.15-1.87-2.31-5.6-4.45-12-5.38-18.88-6.32l-5.04-.72c-1.11-.16-1.11-.16-2.23-.31a23.213,23.213,0,0,1-4.98-1.34c-2.57-.07-5.11-.1-7.68-.07-.71.01-1.41.01-2.13.02C-15.48,20.65-17.21,20.67-18.94,20.69Zm-8,7v27h1v-27Zm86,9v16h1v-16Zm-87,19v9h1v-9Zm3,40a24.483,24.483,0,0,0-1.13,8.64c0,.92,0,1.83-.01,2.77.01.98.01,1.96.01,2.97v9.46c.01,3.28,0,6.55,0,9.83v6.21c0,.98,0,1.97-.01,2.98.01.91.01,1.82.01,2.75,0,.8,0,1.6.01,2.43,0,2.04,0,2.04,1.12,3.96q8.46.15,16.92.22c1.91.02,3.82.04,5.74.08,14.7.26,26.69-.25,38.03-10.8,1.14-1.24,1.14-1.24,2.31-2.5.54-.51,1.07-1.02,1.63-1.54,2.2-3.95,1.76-7.95,1.69-12.4v-2.71c0-6.44,0-6.44-2.32-12.35a19.094,19.094,0,0,0-4.12-3.19,41.457,41.457,0,0,1-3.88-2.81v-2c-.59-.05-1.18-.1-1.79-.15-4.4-.42-8.18-.9-12.21-2.85v-1c-6.96-1.29-13.93-1.22-21-1.25l-3.77-.06C-16.78,92.25-16.78,92.25-24.94,95.69Zm-2,4,1,4Zm-1,5v37h1v-37Zm94,4,1,2Zm1,10v5h1v-5Zm-28.62,44.5c-.46.49-.91.99-1.38,1.5a20.187,20.187,0,0,0,4-1l1-2C39.94,161.46,39.94,161.46,38.44,163.19Zm-12.38,3.5,4,1Zm-20,3v1h10v-1Z" transform="translate(121.938 59.313)" fill="#e4b48d"/>
  <path id="Caminho_775" data-name="Caminho 775" d="M0,0,3.4-.06C4.48-.07,5.55-.07,6.65-.08l3-.03c1.19.18,1.19.18,2.41.36,2.61,3.91,2.27,7.19,2.23,11.73v2.74c0,3.05-.02,6.1-.04,9.16-.01,2.18-.01,4.37-.02,6.55-.08,19.95-.4,39.9-.78,59.85-.27,13.99-.43,27.96-.27,41.95q.045,3.12.07,6.26c.01,1.36.02,2.72.04,4.08,0,.66.01,1.33.01,2.01.05,4.52.14,9.04.24,13.56.03,2.33.05,4.67.07,7,.04,1.06.07,2.12.11,3.21.02,6.94.02,6.94-1.91,9.67-3.72,3.28-7.08,3.95-11.93,4.17l-3.67.21c-3.15-.15-3.15-.15-6.15-2.15a31.558,31.558,0,0,1-2.18-4.63c-.35-.81-.69-1.63-1.05-2.47-.25-.63-.51-1.25-.77-1.9-3.35,0-3.89.41-6.44,2.37a37.023,37.023,0,0,1-7.56,4.63l1,2c-.8-.06-1.61-.12-2.44-.19-4.53.24-8.33,1.61-12.56,3.19v2c-10.05,3.35-24.34,1.59-33.77-2.83-3.82-1.91-7.54-4-11.23-6.17v-2c-.64-.27-1.28-.54-1.94-.81-2.06-1.19-2.06-1.19-3.06-4.19-.6-.29-1.21-.59-1.84-.89-2.84-1.46-3.95-3.28-5.72-5.92-.58-.85-1.16-1.71-1.75-2.58a48.2,48.2,0,0,1-6.69-14.61l-1-1c-3.3-20.2-1.76-39.87,10-57a65,65,0,0,1,7-8h2v-2a29.141,29.141,0,0,1,3.88-2.63c1.08-.66,1.08-.66,2.18-1.35,1.94-1.02,1.94-1.02,3.94-1.02v-2c10.46-4.17,19.79-6.84,31-5,.98.09,1.95.18,2.96.27,9.16,1,16.11,4.29,24.04,8.73,1.57.87,3.15,1.75,4.72,2.62.8.45,1.61.89,2.44,1.35.61.34,1.21.68,1.84,1.03V76.3q-.03-13.755-.05-27.51,0-7.065-.02-14.14-.015-6.81-.02-13.63c0-1.74-.01-3.48-.01-5.22q-.015-3.63-.01-7.28c0-.72-.01-1.45-.01-2.2C-13.04-2.36-7.39.03,0,0ZM11.06,4.25l1,4Zm0,8,1,2Zm0,10,1,2Zm0,3,1,4Zm0,6,1,3Zm0,8,1,2Zm0,3,1,2Zm0,4,1,3Zm0,4v5h1v-5Zm0,8v49h1v-49Zm-67,27v1h15v-1Zm-22,13c-4.28,5.71-5.47,9.95-5,17a43.311,43.311,0,0,1-1,5h-2a14.953,14.953,0,0,0,.96,7.35,29.755,29.755,0,0,1,1.79,7.84c1.06,6.21,3.69,10.69,7.25,15.81.6.93,1.2,1.86,1.82,2.81a33.133,33.133,0,0,0,23.46,9.46c.73,0,1.47-.01,2.22-.02l2.23.02c9.56-.03,17.33-3.82,24.27-10.27v-2h2l1-4h2c3.28-5.81,4.75-10.35,5-17,.04-.81.08-1.61.12-2.44a51.687,51.687,0,0,0-5.12-24.56h-2c-.29-.6-.57-1.2-.87-1.81a26.782,26.782,0,0,0-3.13-5.19h-2v-2l-4-1v-2a50.728,50.728,0,0,0-21.12-5c-.94-.06-1.88-.13-2.84-.19C-63.7,85.59-70.72,90.5-77.94,98.25Zm88,9v57h1v-57Zm-94,3,1,3Zm-1,6,1,3Zm25,68v1h12v-1Z" transform="translate(624.938 47.75)" fill="#e4b48d"/>
  <path id="Caminho_776" data-name="Caminho 776" d="M0,0C.89,0,1.77-.01,2.69-.01,4.08,0,4.08,0,5.5.02L8.31-.01C9.64,0,9.64,0,11,0c.81,0,1.63,0,2.47.01C15.5.27,15.5.27,17.5,2.27c.22,2.55.31,5.01.32,7.57.01.78.02,1.56.03,2.36.03,2.59.05,5.17.06,7.76l.06,5.37q.075,7.08.13,14.16.06,7.215.14,14.44.15,14.16.26,28.34a18.684,18.684,0,0,0,4-2c.5-1.49.5-1.49,1-3,5.37-4,5.37-4,8-4v-2c2.48-.5,2.48-.5,5-1v-2c12.98-5.91,28.64-6.19,42.03-1.35,6.65,3.01,13.38,6.6,18.97,11.35v2c1.49.49,1.49.49,3,1a46.326,46.326,0,0,1,3.69,4.87c.62.88,1.24,1.77,1.88,2.68,1.43,2.45,1.43,2.45,1.43,5.45h2c4.27,10.46,7.36,20.72,7.38,32.06v2.12c-.11,5.24-.57,10.01-4.38,13.82-.8,2.17-1.54,4.36-2.25,6.56A59.15,59.15,0,0,1,84.5,180.27a37.317,37.317,0,0,1-4.81,1.62,24.217,24.217,0,0,0-4.19,1.38l-1,2a35.029,35.029,0,0,1-25,0l-1-1c-1.67-.22-1.67-.22-3.38-.44-3.62-.56-3.62-.56-6.62-2.56-.6-.15-1.2-.29-1.81-.44a38.623,38.623,0,0,1-8.19-3.56c-1.11-.56-2.23-1.12-3.38-1.69-.86-.43-1.73-.87-2.62-1.31v-2h-3c-.04.88-.08,1.77-.12,2.68-.89,3.36-1.8,5.28-4.6,7.4-5.27,2.12-11.76,1.82-17.28.92a12.709,12.709,0,0,1-4-4,31.2,31.2,0,0,1-.49-7.19c-.01-.73-.01-1.45-.02-2.2-.01-2.43.01-4.86.02-7.28,0-1.75,0-3.49-.01-5.23-.01-4.73.01-9.46.03-14.19.02-4.94.01-9.88.01-14.83q0-12.45.05-24.9.045-14.415.04-28.82,0-13.845.02-27.69c.01-3.94.02-7.87.02-11.81q0-6.93.03-13.88c.01-1.7.01-3.4.01-5.1q0-3.48.02-6.95c.01-1.3.01-2.6.01-3.94C-6.34.39-4.42.01,0,0ZM97.5,81.27l2,2v-2Zm-54,5v1h7v-1Zm14,0,4,1Zm-32,11.12c-1.02,1.27-2.02,2.57-3,3.88-.55.65-1.11,1.3-1.68,1.97-1.53,2.34-1.65,3.52-1.51,6.28.06,1.23.13,2.47.19,3.75h-2c-2.35,11.55-1.07,24.02,5.3,34.05,1.19,1.69,2.44,3.32,3.7,4.95l2,3c7.91,7.18,14.83,9.17,25.44,9.18.74.02,1.47.03,2.23.04a30.553,30.553,0,0,0,12.33-2.22c.95-.38,1.9-.75,2.88-1.13.7-.29,1.4-.58,2.12-.87v-2c.54-.21,1.07-.42,1.62-.63,7.3-4.22,9.72-9.73,12.38-17.37l1.09-2.24c1.31-3.97,1.29-7.74,1.29-11.89-.01-.84-.01-1.69-.01-2.56a40.9,40.9,0,0,0-7.37-23.31h-2c-.25-.59-.5-1.17-.76-1.77a20.586,20.586,0,0,0-5.12-5.92c-.67-.6-1.35-1.21-2.05-1.83a13.031,13.031,0,0,0-6.07-2.48l-2-1C49.35,85.86,36.3,85.59,25.5,97.39Zm-7,11.88,1,2Zm-3,10v10h1v-10Zm99,1v11h1v-11Zm-1,15,1,2Zm-96,36,1,3Z" transform="translate(663.5 46.734)" fill="#e4b48d"/>
  <path id="Caminho_777" data-name="Caminho 777" d="M0,0,2.49.06,4.93.09C6.45.15,6.45.15,8.01.2c3.24.09,6.48.17,9.81.25l1,33h1q.1,27.375.16,54.74.015,12.705.07,25.42.045,11.085.06,22.16,0,5.865.03,11.73.03,5.52.02,11.05c0,1.98.02,3.97.04,5.96-.03,6.71-.5,11.85-3.38,17.94l-3-1c-3.16.25-6.31.55-9.46.95-3.46.33-5.14.34-7.99-1.72-2-2.88-1.86-4.8-1.55-8.23h-3l-1-2-11,8,1,2c-.82-.06-1.65-.12-2.5-.18-4.38.23-7.45,1.51-11.5,3.18v2c-3.83,1.92-8.53,1.23-12.75,1.25-1.48.04-1.48.04-3,.07-5.58.03-9.36-.31-14.25-3.32-1.66-.34-3.33-.68-5-1l-3-2a28.461,28.461,0,0,0-4-1v-2c-.56-.08-1.12-.17-1.7-.27-7.7-2.45-13.17-10.47-17.42-16.98-.39-.59-.78-1.18-1.18-1.78-2.15-3.45-3.17-5.9-2.7-9.97h-2c-.68-2.81-1.34-5.62-2-8.43-.19-.79-.38-1.57-.57-2.38a57.61,57.61,0,0,1,6.57-42.19c.54-1.11,1.08-2.22,1.63-3.37a31.573,31.573,0,0,1,4.37-6.63h2c.5-1.48.5-1.48,1-3h2c.5-1.48.5-1.48,1-3h2c.5-1.48.5-1.48,1-3a25.752,25.752,0,0,1,3.88-2.93c.7-.49,1.4-.97,2.12-1.47,8.72-4.63,16.54-6.27,26.38-6.1,1.1.02,2.2.03,3.33.04,13.6.34,23.68,4.7,35.29,11.46v2c1.98.5,1.98.5,4,1,.01-1.41.01-1.41.02-2.85q.09-13.335.22-26.67.06-6.855.11-13.7.045-6.615.12-13.23c.01-1.68.02-3.37.03-5.05.01-2.35.04-4.71.07-7.07V9.77C-5.52,5.23-5,1.04,0,0ZM-51.18,85.45v1h6v-1Zm-18,11v2h-2c-5.09,7.68-4.49,15.41-4.31,24.25.01,1.48.02,2.95.03,4.42-.6,9.07-.6,9.07,2.78,16.9.5.47.99.95,1.5,1.43l1,3h2c.99,3.47.99,3.47,2,7h3l1,2c3.79,2.25,3.79,2.25,8,3v2c12.21,2.36,24.66,2.58,35.27-4.51.86-.73.86-.73,1.73-1.49v-2l3-1c9.63-10.28,10.35-21.46,10-35-.68-10.59-6.43-17.87-14-25h-2v-2h-2c-.49-.99-.49-.99-1-2a30.317,30.317,0,0,0-5-1v-2c-4.31-.14-8.62-.23-12.93-.31-1.22-.04-2.43-.08-3.68-.13C-55.16,85.87-62.44,88.41-69.18,96.45Zm-7,14,1,3Zm-1,10,1,3Zm0,4,1,2Zm1,10,1,3Zm21,50v1h18v-1Z" transform="translate(1194.177 47.546)" fill="#e4b48d"/>
  <path id="Caminho_778" data-name="Caminho 778" d="M0,0C.5,1.48.5,1.48,1,3c.59.29,1.17.59,1.78.89C5.72,5.36,7.39,7.36,9.56,9.81c.77.85,1.53,1.71,2.32,2.58C14.9,16.1,16.92,19.36,18,24l2,3v5a21.971,21.971,0,0,0,2,4,24.508,24.508,0,0,1,1.19,8.5c.01.96.03,1.92.04,2.91-.3,3.37-1.86,5.1-3.87,7.74-3.24,2.54-6.13,2.42-10.08,2.38l-2.34.03q-3.825.03-7.65.01c-1.78.02-3.56.03-5.33.05-4.68.04-9.35.05-14.03.06-7.48.02-14.96.08-22.44.13l-7.83.03c-1.6,0-3.21.01-4.81.02h-2.2A44.9,44.9,0,0,0-68,59l1,3c.21.68.43,1.35.65,2.05A80.256,80.256,0,0,0-61,77l1,3,3,1v2l4,1v2c.87.12,1.73.25,2.62.38a24.618,24.618,0,0,1,6.16,1.65C-36.78,90.27-27.59,89.69-20,88l3-2h4V84a31.2,31.2,0,0,1,9-5V77c8.02-1.39,8.02-1.39,11,0a65.516,65.516,0,0,1,5,5l2,2a24.745,24.745,0,0,1,.12,4.62c-.01.82-.03,1.64-.05,2.48-.02.63-.05,1.25-.07,1.9H11L8.62,95.38A15.879,15.879,0,0,1,1,100v2a21.145,21.145,0,0,1-5,5,26.345,26.345,0,0,1-7,0l1,2c-2.94,1.47-5.74,1-9,1a35.758,35.758,0,0,0-6.75,2.06A31.737,31.737,0,0,1-48,110l-3,.06c-3-.06-3-.06-5-2.06-2-.68-4-1.34-6-2-2.01-.97-4.02-1.96-6-3v-2c-.57-.08-1.14-.17-1.73-.25C-77.27,98.26-83.29,88.69-87,82c-8.7-17.41-8.73-35.79-3-54a56.877,56.877,0,0,1,4-8c.33-.71.65-1.41.99-2.14C-84,16-84,16-82,15l1.12-2.12C-73.03.84-58.47-5.61-45-8.75A59.854,59.854,0,0,1,0,0ZM-39,9v1h7V9Zm-7,3c-1.55.09-1.55.09-3.12.19C-56.09,13.65-60.99,19.29-65,25a14.285,14.285,0,0,0-2.19,8.56c.01.77.02,1.53.02,2.32.1,2.31.1,2.31,1.17,5.12q11.265.1,22.53.16,5.235.015,10.46.07c4.01.04,8.02.05,12.03.06,1.25.02,2.51.03,3.8.05h3.52c1.02.01,2.04.01,3.1.02,2.59-.16,2.59-.16,4.43-1.71,1.41-1.7,1.41-1.7.94-4.4C-5.46,34.18-5.72,33.11-6,32c-.34-1.67-.34-1.67-.69-3.38A30.03,30.03,0,0,0-14,17h-3V13c-.91.04-1.81.08-2.75.12C-23,13-23,13-24.66,12.04c-3.56-1.58-7.11-1.59-10.96-1.79-.78-.06-1.56-.11-2.36-.17C-42.46,9.61-42.46,9.61-46,12Zm30,2v2l2-1ZM18,27l1,2Zm-86,5,1,2Zm-1,2,1,2Zm90,8,1,4Zm-39,66,4,1Z" transform="translate(295 121)" fill="#e4b48d"/>
  <path id="Caminho_779" data-name="Caminho 779" d="M0,0Q2.145,1.455,4.25,3l3,2.06c2.27,2.2,2.9,4.01,4,6.94l2,1.88c2.63,2.79,3.08,5.43,4,9.12.34.63.69,1.25,1.04,1.9,1.17,2.56,1.2,4.41,1.19,7.22v3.06c-.02,1.07-.03,2.15-.04,3.26s-.02,2.2-.02,3.34C19.32,52.2,18.86,62.6,18.25,73h2v36c-1.49.5-1.49.5-3,1v2q-3.345.165-6.69.25c-1.24.05-2.48.09-3.76.14-4.17-.46-5.65-1.41-8.55-4.39a22.587,22.587,0,0,1-2.31-4.25c-.33-.71-.65-1.41-.99-2.14-.23-.53-.46-1.06-.7-1.61-3.76.62-6.19,2.35-9.25,4.56-.89.64-1.78,1.28-2.7,1.94-.68.5-1.35.99-2.05,1.5l1,2c-.83-.06-1.65-.12-2.5-.19-4.38.24-7.45,1.52-11.5,3.19v1c-2.6.03-5.21.05-7.81.06l-2.24.03A25.78,25.78,0,0,1-51.75,113c-1.3.09-1.3.09-2.63.19-6.19-.35-12.35-3.63-17.37-7.19v-2l-4-2v-2h-2a46.291,46.291,0,0,1-6-14c-.18-.62-.35-1.25-.53-1.89-1.87-8.4-.16-15.51,3.53-23.11h2c.1-.6.21-1.2.31-1.81A8.871,8.871,0,0,1-74.75,54h3l1-3c4.76-3.23,10.59-5.15,16-7,.75-.27,1.5-.54,2.27-.82a64.911,64.911,0,0,1,17.94-2.97A12.091,12.091,0,0,0-28.75,39c1.6-.14,3.21-.22,4.82-.28.93-.04,1.85-.08,2.81-.11,1.96-.07,3.92-.15,5.88-.22,1.39-.05,1.39-.05,2.81-.11l2.57-.09A5.89,5.89,0,0,0-5.75,37c.49-4.03.87-7.54-1.27-11.12-2.07-2.43-3.86-4.44-6.73-5.88V18c-1.28-.31-2.56-.62-3.87-.94A26.813,26.813,0,0,1-23.75,15c-2.88-.23-5.74-.42-8.63-.56-.8-.05-1.6-.09-2.42-.13q-2.985-.165-5.95-.31v2c-.65.12-1.3.24-1.98.37-9.41,1.46-9.41,1.46-17.02,6.63l-3,1,1,2h-3V24l-3-1q-2.565-2.43-5-5l-2-2c-.37-3.39-.35-5.37,1.31-8.38C-71.75,6-71.75,6-68.75,6l1-3a25.772,25.772,0,0,1,4.63-2c3.07-1.14,6.08-2.3,9.06-3.69A39.927,39.927,0,0,1-43.75-5l3.06-1.06C-28.04-9.74-11.28-6.62,0,0ZM-36.75,12v1h8V12Zm54,19V52h1V31Zm-37,25v1h6V56Zm-12,1v1h12V57Zm-3,1v2c-.59.06-1.18.12-1.79.18-7.68.82-14.03,1.59-20.35,6.47-3.2,4.05-2.67,8.68-2.43,13.63.72,4.71,2.05,7.08,5.54,10.27C-46.16,96-37.92,95.76-28.75,95a52.233,52.233,0,0,0,9-3V90c.75-.22,1.5-.45,2.27-.68,5.99-2.9,9.25-10.73,11.73-16.7,1.5-5.42.16-8.59-2-13.62C-16.73,57.67-25.7,57.91-34.75,58Zm-9,2,4,1Zm-16,12v8h1V72Zm78,15,1,2Zm-15,23v1h10v-1Zm-60,1v1h5v-1Z" transform="translate(943.75 118)" fill="#e4b48d"/>
  <path id="Caminho_780" data-name="Caminho 780" d="M0,0C.82,0,1.65.01,2.5.01,16.81.27,29.57,4.38,40.45,13.78c1.3,1.53,1.3,1.53,1.3,4.53,1.49.5,1.49.5,3,1,2.32,3.78,3.39,6.56,3,11h1c2.12,7.03,2.44,13.75,2.63,21.07.05,1.94.05,1.94.11,3.93.54,20.33.34,40.67.26,61h-3l-3,2c-4.85.67-10.6,1.46-14.93-1.17a16.319,16.319,0,0,1-4.07-9.83c-4.76,0-5.41.84-8.87,3.88a26.735,26.735,0,0,1-11.13,6.12,28.343,28.343,0,0,0-3.69,2.07c-7.2,4.21-15.04,3.83-23.07,2.14-7.21-2-14.52-4.15-20.24-9.21v-2l-3-1c-5.69-4.62-8.47-15.08-9.22-22.08-.36-8.93,2.21-16.28,7.62-23.32a16.411,16.411,0,0,1,5.6-3.6v-2c15-7.78,28.53-11.39,45.56-11.69,1.37-.03,2.73-.06,4.1-.1,4.45-.11,8.89-.21,13.34-.21a12.866,12.866,0,0,0,2-9c-.63-1.35-1.3-2.68-2-4v-3l-2-1c-.73-.63-1.45-1.27-2.2-1.92-3.15-2.34-5.85-3.26-9.61-4.33L6.42,22.05c-.88-.25-1.76-.49-2.67-.74v-2c-3.73.5-5.81.88-9,3a30.413,30.413,0,0,1-4.37.57c-.8.07-1.6.15-2.42.23-.73.06-1.46.13-2.21.2a28.834,28.834,0,0,0-15,7l-1,2a41.366,41.366,0,0,1-6-2l-1-3-2-1a14.892,14.892,0,0,1-4-4,18.723,18.723,0,0,1,0-7C-34.29,4.01-13.68-.1,0,0ZM45.75,26.31l1,3Zm3,15v41h1v-41Zm-36,21v1h6v-1Zm-12,1v1h12v-1Zm-8,4c-1.91-.06-3.83-.13-5.74-.2-5.59.5-10.02,3.93-13.82,7.83-2.05,4.8-1.77,9.22-1.44,14.37h2l2,6h2l1,3c7.86,4.24,17.35,4.33,25.95,2.31a33.032,33.032,0,0,0,14.05-9.31v-2h2q1.56-3.3,3.06-6.62c.3-.62.59-1.24.9-1.87,1.91-4.28,2.35-7.01,1.04-11.51-.65-1.34-1.31-2.67-2-4q-5.9-.315-11.8-.59c-1.99-.09-3.99-.2-5.98-.32-1.26-.05-2.51-.11-3.8-.16-1.16-.06-2.32-.12-3.51-.18C-4.67,64.35-5.12,64.92-7.25,67.31Zm-6,53v1h7v-1Z" transform="translate(379.25 111.688)" fill="#e4b48d"/>
  <path id="Caminho_781" data-name="Caminho 781" d="M0,0C1.76,1.46,1.76,1.46,2.76,4.46l3,1a30.449,30.449,0,0,1,8,16l1.01,2.16c1.26,3.64,1.25,7.04,1.21,10.85.01.79.01,1.58.01,2.39q-.015,3.915-.04,7.81c0,1.81,0,3.62-.01,5.43q0,7.125-.04,14.26c-.03,4.85-.03,9.7-.04,14.56q-.045,14.265-.1,28.54h-3l-3,2c-2.53.36-4.96.6-7.5.75-.68.06-1.36.12-2.05.17-3.79.25-5.2.25-8.45-1.92-1.33-4.14-1.12-8.42-1.06-12.73,0-1.55.01-3.1.02-4.64.01-.81.01-1.62.02-2.45,2.25-33.66,2.25-33.66-5.98-65.18v-2h-2c-1.05-1.17-1.05-1.17-2.13-2.37-4.91-4.49-10.84-4.93-17.27-4.7l-2.16.14c-.75.04-1.5.09-2.27.14-5.97.51-9.02,1.54-13.17,5.79-.77.77-1.53,1.53-2.31,2.32-2.17,3.45-2.9,6.73-3.69,10.68-.17.58-.35,1.16-.52,1.76a35.272,35.272,0,0,0-.54,8.15c0,1.2.01,2.41.02,3.64.01,1.31.03,2.61.04,3.95q.015,7.575,0,15.15V70.9q0,7.4-.1,14.79c-.02,1.59-.03,3.19-.02,4.78q0,3.36-.08,6.72c-.01,1.29-.02,2.57-.03,3.89-1.08,4.71-2.81,5.72-6.77,8.38-3.49,1.17-6.32,1.17-10,1.19-1.24.02-2.48.03-3.75.05-3.25-.24-3.25-.24-6.25-2.24-1.51-4.57-1.19-9.59-1.24-14.36-.01-.93-.03-1.87-.04-2.83q-.06-4.635-.11-9.27-.03-3.225-.08-6.45-.075-6.765-.14-13.52-.1-8.655-.22-17.31l-.15-13.32q-.03-3.195-.08-6.38-.06-4.47-.09-8.94c-.02-.87-.03-1.74-.05-2.64A37.356,37.356,0,0,1-88.24-.54c3.64-2.96,8.11-3.87,12.69-4.5,4.02.61,6.17,1.95,9.31,4.5a16.945,16.945,0,0,1,3,8c4.14-2.37,4.14-2.37,7-6,1.42-.88,2.89-1.71,4.37-2.5,2.65-1.41,5.12-2.83,7.63-4.5C-28.55-10.67-14.07-8.75,0,0ZM-67.24.46l1,3Zm1,3,1,2Zm29,8,4,1Zm50,13v5h1v-5Zm-76,13v16h1v-16Zm-1,16v24h1v-24Zm0,27v11h1v-11Zm0,13v7h1v-7Zm0,8,1,2Z" transform="translate(1066.242 119.535)" fill="#e4b48d"/>
  <path id="Caminho_782" data-name="Caminho 782" d="M0,0C2.33,4.66,2.15,9.76.7,14.73a45.458,45.458,0,0,1-4.39,7.89,21.973,21.973,0,0,1-5,0v1A31.358,31.358,0,0,1-19,24.31c-6.17-.08-9.36,2.12-13.69,6.31-.72.67-.72.67-1.47,1.34-6.88,7.47-6.03,17.99-5.85,27.45.01,1.5.03,3.01.03,4.51.03,3.93.08,7.87.13,11.8q.135,9.48.2,18.96.03,3.3.09,6.61c.01,1.34.02,2.68.04,4.02.01,1.18.03,2.35.05,3.56-.22,2.75-.22,2.75-2.22,4.75l-1-1c-.57,1-1.15,1.99-1.75,3-1.99,2.44-2.96,2.96-6.11,3.47-4.89.05-8.85.08-13.14-2.47v-2h-2c-1.16-2.33-1.13-3.69-1.14-6.28,0-.9-.01-1.8-.02-2.73v-3c0-1.04-.01-2.08-.01-3.16q-.03-5.175-.03-10.36c-.01-2.39-.01-4.78-.02-7.17q-.015-7.53-.02-15.05,0-9.66-.06-19.33-.015-7.41-.02-14.82c0-2.38-.01-4.75-.03-7.13-.01-3.32-.01-6.63,0-9.95-.01-.99-.02-1.98-.03-3,0-.9.01-1.8.02-2.73-.01-.78-.01-1.57-.01-2.37.12-.63.25-1.27.37-1.92,3.7-2.46,6.6-2.36,10.88-2.37,1.06-.04,1.06-.04,2.14-.07,3.66-.02,5.8.33,8.94,2.27,2.52,2.68,2.8,4.56,3.04,8.17,3.79-.57,5.59-2.2,8.31-4.81C-24.97,1.13-11.32-5.79,0,0ZM-41.69,47.62v13h1v-13Zm-1,13v46h1v-46Z" transform="translate(511.688 113.375)" fill="#e4b48d"/>
  <path id="Caminho_783" data-name="Caminho 783" d="M0,0C2.83,2.83,2.41,5.59,2.44,9.38c.03.67.06,1.34.1,2.03.04,3.73-.23,5.27-2.84,8A35.376,35.376,0,0,1-10,23l-3,2a28.281,28.281,0,0,1-4.06-.25C-23.14,24.64-27.43,27.14-32,31c-8.27,10.01-8.47,24-8.65,36.35q-.06,3.66-.15,7.32c-.16,7.32-.23,14.62-.08,21.94.02,1.11.04,2.21.06,3.35.05,2.01.11,4.02.21,6.03.15,6.3.15,6.3-2.39,9.62-3.93,1.82-7.04,1.84-11.31,1.64-.74-.02-1.48-.04-2.25-.05-1.81-.05-3.63-.12-5.44-.2l-1-3h-2c-1.28-4.91-1.14-9.76-1.13-14.79V96.24q-.015-4.86,0-9.72,0-3.375-.01-6.75,0-7.065.01-14.13.015-9.075,0-18.15-.015-6.96,0-13.93,0-3.345-.01-6.69c0-3.11.01-6.23.01-9.34,0-1.39,0-1.39-.01-2.8.01-.85.01-1.7.01-2.57V9.93c.2-2.95.73-4.57,2.94-6.55C-58.92.69-55,.74-50,1a16.16,16.16,0,0,1,9,6c1.06,1.97,2.07,3.96,3,6a17.8,17.8,0,0,0,4-2l1-3c5.26-4,5.26-4,9-4V2C-7.48-3.38-7.48-3.38,0,0Z" transform="translate(854 113)" fill="#e4b48d"/>
  <path id="Caminho_784" data-name="Caminho 784" d="M0,0C2.63,2.63,2.24,4.52,2.25,8.1c-.01.86-.01,1.73-.02,2.61v2.77c0,3.08-.02,6.16-.04,9.23-.01,2.2-.02,4.39-.02,6.59-.12,26.74-.61,53.49-1.1,80.23Q.9,118.785.75,128.05.375,149.02,0,170H-1v-1.76q.03-21.135.05-42.28.015-10.23.03-20.45.015-9.87.01-19.73c.01-2.51.01-5.02.02-7.54V67.71c.01-1.04.01-2.09.01-3.17V59.13C-.92,56.81-.92,56.81-2,54H0q-.105-.81-.21-1.65c-1.04-9.34-.94-18.68-.92-28.07.01-2.93,0-5.87-.01-8.8,0-1.86.01-3.72.01-5.58,0-.88-.01-1.76-.01-2.67C-1.11,1.11-1.11,1.11,0,0Z" transform="translate(637 49)" fill="#e4b48d"/>
  <path id="Caminho_785" data-name="Caminho 785" d="M0,0V3H-82V2l3.07-.03q14.28-.15,28.56-.31,7.35-.075,14.69-.16c4.72-.04,9.44-.1,14.16-.15l5.41-.06q3.78-.03,7.56-.08c.75-.01,1.51-.02,2.29-.02C-2.84,1.44-2.84,1.44,0,0Z" transform="translate(314 177)" fill="#e4b48d"/>
  <path id="Caminho_786" data-name="Caminho 786" d="M0,0H1L0,68l-2-1c-.19-33.5-.19-33.5.44-49.81.04-1.05.08-2.11.12-3.19A88.968,88.968,0,0,1,0,0Z" transform="translate(815 159)" fill="#e4b48d"/>
  <path id="Caminho_787" data-name="Caminho 787" d="M0,0C3.12-.06,6.25-.09,9.38-.12l2.69-.06c.85,0,1.7-.01,2.58-.02,1.18-.01,1.18-.01,2.38-.03C19,0,19,0,21,2,14.14,4.29,6.72,3.39,0,1Z" transform="translate(713 231)" fill="#e4b48d"/>
  <path id="Caminho_788" data-name="Caminho 788" d="M0,0C3.21,4.81,3.18,8.9,3.19,14.5c.01.77.02,1.54.03,2.34.01,3.91,0,5.84-2.22,9.16L0,20H2c-.14-1.81-.29-3.63-.44-5.44-.08-1.01-.16-2.02-.24-3.06C1.27,9.06,1.27,9.06,0,8-.14,5.33-.04,2.68,0,0Z" transform="translate(777 158)" fill="#e4b48d"/>
  <path id="Caminho_789" data-name="Caminho 789" d="M0,0H1V27c-2.37-3.55-2.38-5.53-2.62-9.75-.08-1.19-.15-2.38-.23-3.61C-2,10.09-2.03,6.55-2,3H0Z" transform="translate(1119 158)" fill="#e4b48d"/>
  <path id="Caminho_790" data-name="Caminho 790" d="M0,0C3.29-.06,6.58-.09,9.88-.12l2.83-.06c.9,0,1.8-.01,2.72-.02l2.51-.03C20,0,20,0,22,2,14.32,3.92,7.52,2.95,0,1Z" transform="translate(249 231)" fill="#e4b48d"/>
  <path id="Caminho_791" data-name="Caminho 791" d="M0,0C2.99,3.3,3.36,5.46,3.29,9.86c-.01,1.11-.02,2.23-.03,3.38s-.05,2.32-.07,3.51c-.02,1.17-.03,2.35-.04,3.56C3.11,23.21,3.06,26.1,3,29H2c-.03-.59-.05-1.19-.08-1.8-.11-2.73-.24-5.47-.36-8.2-.04-.93-.08-1.87-.12-2.83C1.2,10.73.76,5.39,0,0Z" transform="translate(960 141)" fill="#e4b48d"/>
  <path id="Caminho_792" data-name="Caminho 792" d="M0,0,4,2C1.5,3.25-.21,3.11-3.01,3.1c-.98-.01-1.97-.01-2.99-.01l-3.12-.03c-1.57,0-1.57,0-3.16-.01C-14.85,3.04-17.43,3.02-20,3l-1-2L0,2Z" transform="translate(1157 231)" fill="#e4b48d"/>
  <path id="Caminho_793" data-name="Caminho 793" d="M0,0A29.962,29.962,0,0,0,9.31-.62C9.87-.75,10.43-.87,11-1l2,2A27.671,27.671,0,0,1,3.5,2.19c-1.14.01-2.29.03-3.47.04C-3,2-3,2-6,0-2.25-1.12-2.25-1.12,0,0Z" transform="translate(366 232)" fill="#e4b48d"/>
  <path id="Caminho_794" data-name="Caminho 794" d="M0,0V1H-21V0C-13.43-2.27-7.68-1.69,0,0Z" transform="translate(728 134)" fill="#e4b48d"/>
  <path id="Caminho_795" data-name="Caminho 795" d="M0,0H28V1H0Z" transform="translate(104 153)" fill="#e4b48d"/>
  <path id="Caminho_796" data-name="Caminho 796" d="M0,0C2.23,3.35,2.27,4.58,2.25,8.5c.01.96.01,1.92.02,2.91C2,14,2,14,0,17-1.38,13.16-.61,9.96,0,6,.04,4,.05,2,0,0Z" transform="translate(316 157)" fill="#e4b48d"/>
  <path id="Caminho_797" data-name="Caminho 797" d="M0,0H17V1H0Z" transform="translate(82 230)" fill="#e4b48d"/>
  <path id="Caminho_798" data-name="Caminho 798" d="M0,0H15V1H0Z" transform="translate(1194 230)" fill="#e4b48d"/>
  <path id="Caminho_799" data-name="Caminho 799" d="M0,0H15V1H0Z" transform="translate(1062 230)" fill="#e4b48d"/>
  <path id="Caminho_800" data-name="Caminho 800" d="M0,0H12V1H0Z" transform="translate(620 230)" fill="#e4b48d"/>
  <path id="Caminho_801" data-name="Caminho 801" d="M0,0H1C.74,2.34.41,4.68,0,7c-.99.5-.99.5-2,1Z" transform="translate(776 189)" fill="#e4b48d"/>
  <path id="Caminho_802" data-name="Caminho 802" d="M0,0,2,1C0,3,0,3-2.62,3.12L-5,3l1.94-.94C-1.06,1.17-1.06,1.17,0,0Z" transform="translate(744 228)" fill="#e4b48d"/>
  <path id="Caminho_803" data-name="Caminho 803" d="M0,0-7,1C-3.38-1.12-3.38-1.12,0,0Z" transform="translate(920 230)" fill="#e4b48d"/>
  <path id="Caminho_804" data-name="Caminho 804" d="M0,0,2,1,0,3A19.505,19.505,0,0,1-4,2,31.074,31.074,0,0,1,0,0Z" transform="translate(388 228)" fill="#e4b48d"/>
  <path id="Caminho_805" data-name="Caminho 805" d="M0,0H1L0,7C-1.04,3.87-.93,3.01,0,0Z" transform="translate(189 191)" fill="#e4b48d"/>
  <path id="Caminho_806" data-name="Caminho 806" d="M0,0,3,1-3,2Z" transform="translate(590 229)" fill="#e4b48d"/>
  <path id="Caminho_807" data-name="Caminho 807" d="M0,0V3L-4,2Z" transform="translate(429 228)" fill="#e4b48d"/>
  <path id="Caminho_808" data-name="Caminho 808" d="M0,0A19.505,19.505,0,0,1,1,4L-1,6Z" transform="translate(818 150)" fill="#e4b48d"/>
  <path id="Caminho_809" data-name="Caminho 809" d="M0,0,1,3-2,5Z" transform="translate(179 119)" fill="#e4b48d"/>
  <path id="Caminho_810" data-name="Caminho 810" d="M0,0,2,1-3,2Z" transform="translate(1168 229)" fill="#e4b48d"/>
  <path id="Caminho_811" data-name="Caminho 811" d="M0,0,1,4c-.99.5-.99.5-2,1Z" transform="translate(773 198)" fill="#e4b48d"/>
  <path id="Caminho_812" data-name="Caminho 812" d="M0,0,2,1-2,3Z" transform="translate(357 184)" fill="#e4b48d"/>
  <path id="Caminho_813" data-name="Caminho 813" d="M0,0,1,4c-.99.5-.99.5-2,1Z" transform="translate(1007 148)" fill="#e4b48d"/>
  <path id="Caminho_814" data-name="Caminho 814" d="M0,0,2,1-2,3Z" transform="translate(243 135)" fill="#e4b48d"/>
  <path id="Caminho_815" data-name="Caminho 815" d="M0,0H1V5H0Z" transform="translate(964 218)" fill="#e4b48d"/>
  <path id="Caminho_816" data-name="Caminho 816" d="M0,0V3L-2,2Z" transform="translate(763 215)" fill="#e4b48d"/>
  <path id="Caminho_817" data-name="Caminho 817" d="M0,0,3,1-1,2Z" transform="translate(362 181)" fill="#e4b48d"/>
  <path id="Caminho_818" data-name="Caminho 818" d="M0,0,3,1-1,2Z" transform="translate(564 135)" fill="#e4b48d"/>
  <path id="Caminho_819" data-name="Caminho 819" d="M0,0H1V5H0Z" transform="translate(513 126)" fill="#e4b48d"/>
  <path id="Caminho_820" data-name="Caminho 820" d="M0,0,4,1Z" transform="translate(995 230)" fill="#e4b48d"/>
  <path id="Caminho_821" data-name="Caminho 821" d="M0,0,4,1Z" transform="translate(982 230)" fill="#e4b48d"/>
  <path id="Caminho_822" data-name="Caminho 822" d="M0,0,4,1Z" transform="translate(413 230)" fill="#e4b48d"/>
  <path id="Caminho_823" data-name="Caminho 823" d="M0,0,1,4Z" transform="translate(472 157)" fill="#e4b48d"/>
  <path id="Caminho_824" data-name="Caminho 824" d="M0,0,4,1Z" transform="translate(100 154)" fill="#e4b48d"/>
  <path id="Caminho_825" data-name="Caminho 825" d="M0,0V0Z" transform="translate(685 152)" fill="#e4b48d"/>
  <path id="Caminho_826" data-name="Caminho 826" d="M0,0,2,1H-1Z" transform="translate(830 139)" fill="#e4b48d"/>
  <path id="Caminho_827" data-name="Caminho 827" d="M0,0,2,1H-1Z" transform="translate(486 139)" fill="#e4b48d"/>
  <path id="Caminho_828" data-name="Caminho 828" d="M0,0,2,1H-1Z" transform="translate(702 136)" fill="#e4b48d"/>
  <path id="Caminho_829" data-name="Caminho 829" d="M0,0V0Z" transform="translate(512 131)" fill="#e4b48d"/>
  <path id="Caminho_830" data-name="Caminho 830" d="M0,0,1,4Z" transform="translate(513 116)" fill="#e4b48d"/>
  <path id="Caminho_831" data-name="Caminho 831" d="M0,0,3,1Z" transform="translate(1161 231)" fill="#e4b48d"/>
  <path id="Caminho_832" data-name="Caminho 832" d="M0,0,3,1Z" transform="translate(808 230)" fill="#e4b48d"/>
  <path id="Caminho_833" data-name="Caminho 833" d="M0,0,3,1Z" transform="translate(793 230)" fill="#e4b48d"/>
  <path id="Caminho_834" data-name="Caminho 834" d="M0,0,3,1Z" transform="translate(676 230)" fill="#e4b48d"/>
  <path id="Caminho_835" data-name="Caminho 835" d="M0,0,3,1Z" transform="translate(662 230)" fill="#e4b48d"/>
  <path id="Caminho_836" data-name="Caminho 836" fill="#e4b48d"/>
  <path id="Caminho_837" data-name="Caminho 837" d="M0,0,3,1Z" transform="translate(927 224)" fill="#e4b48d"/>
  <path id="Caminho_838" data-name="Caminho 838" d="M0,0C.99.5.99.5,2,1c-.99.5-.99.5-2,1Z" transform="translate(297 222)" fill="#e4b48d"/>
  <path id="Caminho_839" data-name="Caminho 839" d="M0,0,1,2-1,1Z" transform="translate(759 219)" fill="#e4b48d"/>
  <path id="Caminho_840" data-name="Caminho 840" d="M0,0,1,2-1,1Z" transform="translate(403 219)" fill="#e4b48d"/>
  <path id="Caminho_841" data-name="Caminho 841" d="M0,0,1,2-1,1Z" transform="translate(769 207)" fill="#e4b48d"/>
  <path id="Caminho_842" data-name="Caminho 842" d="M0,0,1,2-1,1Z" transform="translate(185 203)" fill="#e4b48d"/>
  <path id="Caminho_843" data-name="Caminho 843" fill="#e4b48d"/>
  <path id="Caminho_844" data-name="Caminho 844" fill="#e4b48d"/>
  <path id="Caminho_845" data-name="Caminho 845" d="M0,0,3,1Z" transform="translate(893 182)" fill="#e4b48d"/>
  <path id="Caminho_846" data-name="Caminho 846" fill="#e4b48d"/>
  <path id="Caminho_847" data-name="Caminho 847" d="M0,0,1,2-1,1Z" transform="translate(99 155)" fill="#e4b48d"/>
  <path id="Caminho_848" data-name="Caminho 848" fill="#e4b48d"/>
  <path id="Caminho_849" data-name="Caminho 849" fill="#e4b48d"/>
  <path id="Caminho_850" data-name="Caminho 850" d="M0,0,3,1Z" transform="translate(350 141)" fill="#e4b48d"/>
  <path id="Caminho_851" data-name="Caminho 851" d="M0,0,1,2-1,1Z" transform="translate(1132 139)" fill="#e4b48d"/>
  <path id="Caminho_852" data-name="Caminho 852" d="M0,0,3,1Z" transform="translate(832 138)" fill="#e4b48d"/>
  <path id="Caminho_853" data-name="Caminho 853" d="M0,0,3,1Z" transform="translate(845 135)" fill="#e4b48d"/>
  <path id="Caminho_854" data-name="Caminho 854" d="M0,0,3,1Z" transform="translate(851 134)" fill="#e4b48d"/>
  <path id="Caminho_855" data-name="Caminho 855" d="M0,0,3,1Z" transform="translate(246 134)" fill="#e4b48d"/>
  <path id="Caminho_856" data-name="Caminho 856" d="M0,0,3,1Z" transform="translate(251 132)" fill="#e4b48d"/>
  <path id="Caminho_857" data-name="Caminho 857" d="M0,0,1,2-1,1Z" transform="translate(169 132)" fill="#e4b48d"/>
  <path id="Caminho_858" data-name="Caminho 858" d="M0,0,1,2-1,1Z" transform="translate(175 126)" fill="#e4b48d"/>
  <path id="Caminho_859" data-name="Caminho 859" fill="#e4b48d"/>
  <path id="Caminho_860" data-name="Caminho 860" d="M0,0,2,1Z" transform="translate(583 231)" fill="#e4b48d"/>
  <path id="Caminho_861" data-name="Caminho 861" d="M0,0,2,1Z" transform="translate(632 229)" fill="#e4b48d"/>
  <path id="Caminho_862" data-name="Caminho 862" d="M0,0,2,1Z" transform="translate(1170 228)" fill="#e4b48d"/>
  <path id="Caminho_863" data-name="Caminho 863" fill="#e4b48d"/>
  <path id="Caminho_864" data-name="Caminho 864" d="M0,0,2,1Z" transform="translate(748 227)" fill="#e4b48d"/>
  <path id="Caminho_865" data-name="Caminho 865" d="M0,0,2,1Z" transform="translate(392 227)" fill="#e4b48d"/>
  <path id="Caminho_866" data-name="Caminho 866" fill="#e4b48d"/>
  <path id="Caminho_867" data-name="Caminho 867" d="M0,0,2,1Z" transform="translate(1178 224)" fill="#e4b48d"/>
  <path id="Caminho_868" data-name="Caminho 868" d="M0,0,2,1Z" transform="translate(752 224)" fill="#e4b48d"/>
  <path id="Caminho_869" data-name="Caminho 869" d="M0,0,2,1Z" transform="translate(601 224)" fill="#e4b48d"/>
  <path id="Caminho_870" data-name="Caminho 870" d="M0,0,2,1Z" transform="translate(396 224)" fill="#e4b48d"/>
  <path id="Caminho_871" data-name="Caminho 871" d="M0,0,2,1Z" transform="translate(294 224)" fill="#e4b48d"/>
  <path id="Caminho_872" data-name="Caminho 872" d="M0,0,2,1Z" transform="translate(1182 221)" fill="#e4b48d"/>
  <path id="Caminho_873" data-name="Caminho 873" d="M0,0,2,1Z" transform="translate(166 221)" fill="#e4b48d"/>
  <path id="Caminho_874" data-name="Caminho 874" d="M0,0,2,1Z" transform="translate(933 220)" fill="#e4b48d"/>
  <path id="Caminho_875" data-name="Caminho 875" d="M0,0,2,1Z" transform="translate(607 220)" fill="#e4b48d"/>
  <path id="Caminho_876" data-name="Caminho 876" d="M0,0,2,1Z" transform="translate(171 218)" fill="#e4b48d"/>
  <path id="Caminho_877" data-name="Caminho 877" d="M0,0,2,1Z" transform="translate(176 214)" fill="#e4b48d"/>
  <path id="Caminho_878" data-name="Caminho 878" fill="#e4b48d"/>
  <path id="Caminho_879" data-name="Caminho 879" fill="#e4b48d"/>
  <path id="Caminho_880" data-name="Caminho 880" fill="#e4b48d"/>
  <path id="Caminho_881" data-name="Caminho 881" fill="#e4b48d"/>
  <path id="Caminho_882" data-name="Caminho 882" d="M0,0,2,1Z" transform="translate(1128 201)" fill="#e4b48d"/>
  <path id="Caminho_883" data-name="Caminho 883" fill="#e4b48d"/>
  <path id="Caminho_884" data-name="Caminho 884" d="M0,0,2,1Z" transform="translate(891 183)" fill="#e4b48d"/>
  <path id="Caminho_885" data-name="Caminho 885" fill="#e4b48d"/>
  <path id="Caminho_886" data-name="Caminho 886" d="M0,0,2,1Z" transform="translate(229 180)" fill="#e4b48d"/>
  <path id="Caminho_887" data-name="Caminho 887" d="M0,0,2,1Z" transform="translate(375 177)" fill="#e4b48d"/>
  <path id="Caminho_888" data-name="Caminho 888" fill="#e4b48d"/>
  <path id="Caminho_889" data-name="Caminho 889" fill="#e4b48d"/>
  <path id="Caminho_890" data-name="Caminho 890" fill="#e4b48d"/>
  <path id="Caminho_891" data-name="Caminho 891" fill="#e4b48d"/>
  <path id="Caminho_892" data-name="Caminho 892" fill="#e4b48d"/>
  <path id="Caminho_893" data-name="Caminho 893" fill="#e4b48d"/>
  <path id="Caminho_894" data-name="Caminho 894" d="M0,0,2,1Z" transform="translate(1124 147)" fill="#e4b48d"/>
  <path id="Caminho_895" data-name="Caminho 895" fill="#e4b48d"/>
  <path id="Caminho_896" data-name="Caminho 896" fill="#e4b48d"/>
  <path id="Caminho_897" data-name="Caminho 897" d="M0,0,2,1Z" transform="translate(823 144)" fill="#e4b48d"/>
  <path id="Caminho_898" data-name="Caminho 898" d="M0,0,2,1Z" transform="translate(884 141)" fill="#e4b48d"/>
  <path id="Caminho_899" data-name="Caminho 899" d="M0,0,2,1Z" transform="translate(827 141)" fill="#e4b48d"/>
  <path id="Caminho_900" data-name="Caminho 900" d="M0,0,2,1Z" transform="translate(694 141)" fill="#e4b48d"/>
  <path id="Caminho_901" data-name="Caminho 901" d="M0,0,2,1Z" transform="translate(554 141)" fill="#e4b48d"/>
  <path id="Caminho_902" data-name="Caminho 902" d="M0,0,2,1Z" transform="translate(483 141)" fill="#e4b48d"/>
  <path id="Caminho_903" data-name="Caminho 903" d="M0,0,2,1Z" transform="translate(1015 138)" fill="#e4b48d"/>
  <path id="Caminho_904" data-name="Caminho 904" d="M0,0,2,1Z" transform="translate(888 138)" fill="#e4b48d"/>
  <path id="Caminho_905" data-name="Caminho 905" d="M0,0,2,1Z" transform="translate(558 138)" fill="#e4b48d"/>
  <path id="Caminho_906" data-name="Caminho 906" d="M0,0,2,1Z" transform="translate(488 138)" fill="#e4b48d"/>
  <path id="Caminho_907" data-name="Caminho 907" d="M0,0,2,1Z" transform="translate(356 138)" fill="#e4b48d"/>
  <path id="Caminho_908" data-name="Caminho 908" d="M0,0,2,1Z" transform="translate(239 138)" fill="#e4b48d"/>
  <path id="Caminho_909" data-name="Caminho 909" d="M0,0,2,1Z" transform="translate(890 137)" fill="#e4b48d"/>
  <path id="Caminho_910" data-name="Caminho 910" d="M0,0,2,1Z" transform="translate(561 137)" fill="#e4b48d"/>
  <path id="Caminho_911" data-name="Caminho 911" d="M0,0,2,1Z" transform="translate(359 137)" fill="#e4b48d"/>
  <path id="Caminho_912" data-name="Caminho 912" d="M0,0,2,1Z" transform="translate(1139 135)" fill="#e4b48d"/>
  <path id="Caminho_913" data-name="Caminho 913" d="M0,0,2,1Z" transform="translate(704 135)" fill="#e4b48d"/>
  <path id="Caminho_914" data-name="Caminho 914" d="M0,0,2,1Z" transform="translate(362 135)" fill="#e4b48d"/>
  <path id="Caminho_915" data-name="Caminho 915" d="M0,0,2,1Z" transform="translate(165 135)" fill="#e4b48d"/>
  <path id="Caminho_916" data-name="Caminho 916" d="M0,0,2,1Z" transform="translate(509 134)" fill="#e4b48d"/>
  <path id="Caminho_917" data-name="Caminho 917" d="M0,0,2,1Z" transform="translate(903 132)" fill="#e4b48d"/>
  <path id="Caminho_918" data-name="Caminho 918" fill="#e4b48d"/>
  <path id="Caminho_919" data-name="Caminho 919" fill="#e4b48d"/>
  <path id="Caminho_920" data-name="Caminho 920" fill="#e4b48d"/>
  <path id="Caminho_921" data-name="Caminho 921" fill="#e4b48d"/>
  <path id="Caminho_922" data-name="Caminho 922" fill="#e4b48d"/>
  <path id="Caminho_923" data-name="Caminho 923" fill="#e4b48d"/>
  <path id="Caminho_924" data-name="Caminho 924" fill="#e4b48d"/>
  <path id="Caminho_925" data-name="Caminho 925" fill="#e4b48d"/>
  <path id="Caminho_926" data-name="Caminho 926" fill="#e4b48d"/>
  <path id="Caminho_927" data-name="Caminho 927" fill="#e4b48d"/>
  <path id="Caminho_928" data-name="Caminho 928" fill="#e4b48d"/>
  <path id="Caminho_929" data-name="Caminho 929" fill="#e4b48d"/>
  <path id="Caminho_930" data-name="Caminho 930" fill="#e4b48d"/>
  <path id="Caminho_931" data-name="Caminho 931" fill="#e4b48d"/>
  <path id="Caminho_932" data-name="Caminho 932" fill="#e4b48d"/>
  <path id="Caminho_933" data-name="Caminho 933" fill="#e4b48d"/>
  <path id="Caminho_934" data-name="Caminho 934" fill="#e4b48d"/>
  <path id="Caminho_935" data-name="Caminho 935" fill="#e4b48d"/>
  <path id="Caminho_936" data-name="Caminho 936" fill="#e4b48d"/>
  <path id="Caminho_937" data-name="Caminho 937" fill="#e4b48d"/>
  <path id="Caminho_938" data-name="Caminho 938" fill="#e4b48d"/>
  <path id="Caminho_939" data-name="Caminho 939" fill="#e4b48d"/>
  <path id="Caminho_940" data-name="Caminho 940" fill="#e4b48d"/>
  <path id="Caminho_941" data-name="Caminho 941" fill="#e4b48d"/>
  <path id="Caminho_942" data-name="Caminho 942" fill="#e4b48d"/>
  <path id="Caminho_943" data-name="Caminho 943" fill="#e4b48d"/>
  <path id="Caminho_944" data-name="Caminho 944" fill="#e4b48d"/>
  <path id="Caminho_945" data-name="Caminho 945" fill="#e4b48d"/>
  <path id="Caminho_946" data-name="Caminho 946" fill="#e4b48d"/>
  <path id="Caminho_947" data-name="Caminho 947" fill="#e4b48d"/>
  <path id="Caminho_948" data-name="Caminho 948" fill="#e4b48d"/>
  <path id="Caminho_949" data-name="Caminho 949" fill="#e4b48d"/>
  <path id="Caminho_950" data-name="Caminho 950" fill="#e4b48d"/>
  <path id="Caminho_951" data-name="Caminho 951" fill="#e4b48d"/>
  <path id="Caminho_952" data-name="Caminho 952" fill="#e4b48d"/>
  <path id="Caminho_953" data-name="Caminho 953" fill="#e4b48d"/>
  <path id="Caminho_954" data-name="Caminho 954" fill="#e4b48d"/>
  <path id="Caminho_955" data-name="Caminho 955" fill="#e4b48d"/>
  <path id="Caminho_956" data-name="Caminho 956" fill="#e4b48d"/>
  <path id="Caminho_957" data-name="Caminho 957" fill="#e4b48d"/>
  <path id="Caminho_958" data-name="Caminho 958" fill="#e4b48d"/>
  <path id="Caminho_959" data-name="Caminho 959" fill="#e4b48d"/>
  <path id="Caminho_960" data-name="Caminho 960" fill="#e4b48d"/>
  <path id="Caminho_961" data-name="Caminho 961" fill="#e4b48d"/>
  <path id="Caminho_962" data-name="Caminho 962" fill="#e4b48d"/>
  <path id="Caminho_963" data-name="Caminho 963" fill="#e4b48d"/>
  <path id="Caminho_964" data-name="Caminho 964" fill="#e4b48d"/>
  <path id="Caminho_965" data-name="Caminho 965" fill="#e4b48d"/>
  <path id="Caminho_966" data-name="Caminho 966" fill="#e4b48d"/>
  <path id="Caminho_967" data-name="Caminho 967" fill="#e4b48d"/>
  <path id="Caminho_968" data-name="Caminho 968" fill="#e4b48d"/>
  <path id="Caminho_969" data-name="Caminho 969" fill="#e4b48d"/>
  <path id="Caminho_970" data-name="Caminho 970" fill="#e4b48d"/>
  <path id="Caminho_971" data-name="Caminho 971" fill="#e4b48d"/>
  <path id="Caminho_972" data-name="Caminho 972" fill="#e4b48d"/>
  <path id="Caminho_973" data-name="Caminho 973" fill="#e4b48d"/>
  <path id="Caminho_974" data-name="Caminho 974" fill="#e4b48d"/>
  <path id="Caminho_975" data-name="Caminho 975" fill="#e4b48d"/>
  <path id="Caminho_976" data-name="Caminho 976" fill="#e4b48d"/>
  <path id="Caminho_977" data-name="Caminho 977" fill="#e4b48d"/>
  <path id="Caminho_978" data-name="Caminho 978" fill="#e4b48d"/>
  <path id="Caminho_979" data-name="Caminho 979" fill="#e4b48d"/>
  <path id="Caminho_980" data-name="Caminho 980" fill="#e4b48d"/>
  <path id="Caminho_981" data-name="Caminho 981" fill="#e4b48d"/>
  <path id="Caminho_982" data-name="Caminho 982" fill="#e4b48d"/>
  <path id="Caminho_983" data-name="Caminho 983" fill="#e4b48d"/>
  <path id="Caminho_984" data-name="Caminho 984" fill="#e4b48d"/>
  <path id="Caminho_985" data-name="Caminho 985" fill="#e4b48d"/>
  <path id="Caminho_986" data-name="Caminho 986" fill="#e4b48d"/>
  <path id="Caminho_987" data-name="Caminho 987" fill="#e4b48d"/>
  <path id="Caminho_988" data-name="Caminho 988" fill="#e4b48d"/>
  <path id="Caminho_989" data-name="Caminho 989" fill="#e4b48d"/>
  <path id="Caminho_990" data-name="Caminho 990" fill="#e4b48d"/>
  <path id="Caminho_991" data-name="Caminho 991" fill="#e4b48d"/>
  <path id="Caminho_992" data-name="Caminho 992" fill="#e4b48d"/>
  <path id="Caminho_993" data-name="Caminho 993" fill="#e4b48d"/>
  <path id="Caminho_994" data-name="Caminho 994" fill="#e4b48d"/>
  <path id="Caminho_995" data-name="Caminho 995" fill="#e4b48d"/>
  <path id="Caminho_996" data-name="Caminho 996" fill="#e4b48d"/>
  <path id="Caminho_997" data-name="Caminho 997" fill="#e4b48d"/>
  <path id="Caminho_998" data-name="Caminho 998" fill="#e4b48d"/>
  <path id="Caminho_999" data-name="Caminho 999" fill="#e4b48d"/>
  <path id="Caminho_1000" data-name="Caminho 1000" fill="#e4b48d"/>
  <path id="Caminho_1001" data-name="Caminho 1001" fill="#e4b48d"/>
  <path id="Caminho_1002" data-name="Caminho 1002" fill="#e4b48d"/>
  <path id="Caminho_1003" data-name="Caminho 1003" fill="#e4b48d"/>
  <path id="Caminho_1004" data-name="Caminho 1004" fill="#e4b48d"/>
  <path id="Caminho_1005" data-name="Caminho 1005" fill="#e4b48d"/>
  <path id="Caminho_1006" data-name="Caminho 1006" fill="#e4b48d"/>
  <path id="Caminho_1007" data-name="Caminho 1007" fill="#e4b48d"/>
  <path id="Caminho_1008" data-name="Caminho 1008" fill="#e4b48d"/>
  <path id="Caminho_1009" data-name="Caminho 1009" fill="#e4b48d"/>
  <path id="Caminho_1010" data-name="Caminho 1010" fill="#e4b48d"/>
  <path id="Caminho_1011" data-name="Caminho 1011" fill="#e4b48d"/>
  <path id="Caminho_1012" data-name="Caminho 1012" fill="#e4b48d"/>
  <path id="Caminho_1013" data-name="Caminho 1013" fill="#e4b48d"/>
  <path id="Caminho_1014" data-name="Caminho 1014" fill="#e4b48d"/>
  <path id="Caminho_1015" data-name="Caminho 1015" fill="#e4b48d"/>
  <path id="Caminho_1016" data-name="Caminho 1016" fill="#e4b48d"/>
  <path id="Caminho_1017" data-name="Caminho 1017" fill="#e4b48d"/>
  <path id="Caminho_1018" data-name="Caminho 1018" fill="#e4b48d"/>
  <path id="Caminho_1019" data-name="Caminho 1019" fill="#e4b48d"/>
  <path id="Caminho_1020" data-name="Caminho 1020" fill="#e4b48d"/>
  <path id="Caminho_1021" data-name="Caminho 1021" fill="#e4b48d"/>
  <path id="Caminho_1022" data-name="Caminho 1022" fill="#e4b48d"/>
  <path id="Caminho_1023" data-name="Caminho 1023" fill="#e4b48d"/>
  <path id="Caminho_1024" data-name="Caminho 1024" fill="#e4b48d"/>
  <path id="Caminho_1025" data-name="Caminho 1025" fill="#e4b48d"/>
  <path id="Caminho_1026" data-name="Caminho 1026" fill="#e4b48d"/>
  <path id="Caminho_1027" data-name="Caminho 1027" fill="#e4b48d"/>
  <path id="Caminho_1028" data-name="Caminho 1028" fill="#e4b48d"/>
  <path id="Caminho_1029" data-name="Caminho 1029" fill="#e4b48d"/>
  <path id="Caminho_1030" data-name="Caminho 1030" fill="#e4b48d"/>
  <path id="Caminho_1031" data-name="Caminho 1031" fill="#e4b48d"/>
  <path id="Caminho_1032" data-name="Caminho 1032" fill="#e4b48d"/>
  <path id="Caminho_1033" data-name="Caminho 1033" fill="#e4b48d"/>
  <path id="Caminho_1034" data-name="Caminho 1034" fill="#e4b48d"/>
  <path id="Caminho_1035" data-name="Caminho 1035" fill="#e4b48d"/>
  <path id="Caminho_1036" data-name="Caminho 1036" fill="#e4b48d"/>
  <path id="Caminho_1037" data-name="Caminho 1037" fill="#e4b48d"/>
  <path id="Caminho_1038" data-name="Caminho 1038" fill="#e4b48d"/>
  <path id="Caminho_1039" data-name="Caminho 1039" fill="#e4b48d"/>
  <path id="Caminho_1040" data-name="Caminho 1040" fill="#e4b48d"/>
  <path id="Caminho_1041" data-name="Caminho 1041" fill="#e4b48d"/>
  <path id="Caminho_1042" data-name="Caminho 1042" fill="#e4b48d"/>
  <path id="Caminho_1043" data-name="Caminho 1043" fill="#e4b48d"/>
  <path id="Caminho_1044" data-name="Caminho 1044" fill="#e4b48d"/>
  <path id="Caminho_1045" data-name="Caminho 1045" fill="#e4b48d"/>
  <path id="Caminho_1046" data-name="Caminho 1046" fill="#e4b48d"/>
  <path id="Caminho_1047" data-name="Caminho 1047" fill="#e4b48d"/>
  <path id="Caminho_1048" data-name="Caminho 1048" fill="#e4b48d"/>
  <path id="Caminho_1049" data-name="Caminho 1049" fill="#e4b48d"/>
  <path id="Caminho_1050" data-name="Caminho 1050" fill="#e4b48d"/>
  <path id="Caminho_1051" data-name="Caminho 1051" fill="#e4b48d"/>
  <path id="Caminho_1052" data-name="Caminho 1052" fill="#e4b48d"/>
  <path id="Caminho_1053" data-name="Caminho 1053" fill="#e4b48d"/>
  <path id="Caminho_1054" data-name="Caminho 1054" fill="#e4b48d"/>
  <path id="Caminho_1055" data-name="Caminho 1055" fill="#e4b48d"/>
  <path id="Caminho_1056" data-name="Caminho 1056" fill="#e4b48d"/>
  <path id="Caminho_1057" data-name="Caminho 1057" fill="#e4b48d"/>
  <path id="Caminho_1058" data-name="Caminho 1058" fill="#e4b48d"/>
  <path id="Caminho_1059" data-name="Caminho 1059" fill="#e4b48d"/>
  <path id="Caminho_1060" data-name="Caminho 1060" fill="#e4b48d"/>
  <path id="Caminho_1061" data-name="Caminho 1061" fill="#e4b48d"/>
  <path id="Caminho_1062" data-name="Caminho 1062" fill="#e4b48d"/>
  <path id="Caminho_1063" data-name="Caminho 1063" fill="#e4b48d"/>
  <path id="Caminho_1064" data-name="Caminho 1064" fill="#e4b48d"/>
  <path id="Caminho_1065" data-name="Caminho 1065" fill="#e4b48d"/>
  <path id="Caminho_1066" data-name="Caminho 1066" fill="#e4b48d"/>
  <path id="Caminho_1067" data-name="Caminho 1067" fill="#e4b48d"/>
  <path id="Caminho_1068" data-name="Caminho 1068" fill="#e4b48d"/>
  <path id="Caminho_1069" data-name="Caminho 1069" fill="#e4b48d"/>
  <path id="Caminho_1070" data-name="Caminho 1070" fill="#e4b48d"/>
  <path id="Caminho_1071" data-name="Caminho 1071" fill="#e4b48d"/>
  <path id="Caminho_1072" data-name="Caminho 1072" fill="#e4b48d"/>
  <path id="Caminho_1073" data-name="Caminho 1073" fill="#e4b48d"/>
  <path id="Caminho_1074" data-name="Caminho 1074" fill="#e4b48d"/>
  <path id="Caminho_1075" data-name="Caminho 1075" fill="#e4b48d"/>
  <path id="Caminho_1076" data-name="Caminho 1076" fill="#e4b48d"/>
</svg>
