<svg xmlns="http://www.w3.org/2000/svg" width="1280.53" height="1128" viewBox="0 0 1280.53 1128">
  <g id="email" transform="translate(0.268)">
    <path id="Caminho_336" data-name="Caminho 336" d="M0,0H2.3q3.855-.015,7.71,0c1.86,0,3.72-.01,5.58-.01H47.78q14.7-.015,29.4-.01h33.57c2.7,0,5.41-.01,8.11-.01q42.33-.015,84.66-.01h11.41q25.05,0,50.11-.01h22.92q65.325-.015,130.63-.01h41.74q77.91,0,155.81-.02,19.635,0,39.25-.01h2.45q37.23-.015,74.48-.01h76.63q36.42,0,72.83-.02,36.675,0,73.35,0h12.14q16.7,0,33.38-.01h29.02q8.28.015,16.55,0c5.02-.01,10.04,0,15.06,0,1.8.01,3.61.01,5.41,0,9.49-.03,18.51.26,27.84,2.26,1.66.33,3.33.66,5,1v2c.84.1,1.69.2,2.56.31a46.505,46.505,0,0,1,10.44,3.69c.82.31,1.65.62,2.5.93a86.546,86.546,0,0,1,9.5,5.07q1.98,1.02,4,2v2c.58.28,1.16.56,1.76.86,7.23,3.67,12.93,8.52,18.68,14.2.61.6,1.23,1.2,1.86,1.82,3.18,3.21,5.27,5.74,6.7,10.12q1.965,2.025,4,4a39.282,39.282,0,0,1,2,4c.71,1.14.71,1.14,1.44,2.31a86.516,86.516,0,0,1,4.56,9.69l2,3c.54,1.46,1.04,2.94,1.5,4.43a38.321,38.321,0,0,0,2.53,6.56,26.406,26.406,0,0,1,2.03,6.69c.42,2.94.42,2.94,1.94,5.32.1,1.73.12,3.46.12,5.19.01,1.14.01,2.28.01,3.45v7.89q.015,5.61,0,11.24,0,6.09.01,12.18,0,10.7,0,21.39,0,15.915.01,31.81.015,30.06.01,60.11.015,23.2.01,46.4v16.69q.015,46.665.01,93.31v32.16q0,55.77.02,111.55.03,62.61.03,125.22v16.66q0,26.475.01,52.96.015,26.61,0,53.2,0,15.81.01,31.64.015,10.545,0,21.1v12.04q.015,5.475,0,10.95c0,1.94,0,3.88.01,5.82-.01,1.71-.01,1.71-.01,3.46v2.99a14.608,14.608,0,0,1-2.25,6.59c-.34,1.38-.63,2.78-.88,4.18-1.17,5.66-3.49,10.65-6.13,15.77-1.11,2.3-1.98,4.65-2.87,7.05a20.229,20.229,0,0,1-6.12,9c-1.05,1.63-2.04,3.31-3,5a67.975,67.975,0,0,1-12,15.37l-1.83,1.86c-3.22,3.21-5.77,5.34-10.17,6.77q-2.04,1.965-4,4a56.686,56.686,0,0,1-5,3c-.98.57-.98.57-1.97,1.15a100.531,100.531,0,0,1-14.69,6.94c-2.01.78-4,1.65-5.97,2.53a48.191,48.191,0,0,1-19.44,3.63c-1.16,0-1.16,0-2.35.01q-3.885,0-7.79-.01c-1.89,0-3.78.01-5.66.01q-7.815.015-15.63,0-8.49,0-16.99.01-14.9.015-29.78.01-15.975-.015-31.96,0H963.04q-41.73.03-83.46.02H803.4c-1.55.01-3.1.01-4.65.01h-6.99q-66.15.015-132.31.01h-2.47q-13.665,0-27.32-.01H617.19q-78.915,0-157.82.02-19.89.015-39.77.02h-2.47q-37.725.015-75.45.01H264.07q-36.885,0-73.77.02-38.175.015-76.35,0-4.095-.015-8.2-.01h-2.03q-16.905,0-33.81.01-14.7.015-29.39,0-8.37-.015-16.76,0-7.62.015-15.24,0-2.745-.015-5.49,0c-2.48.01-4.96,0-7.44-.01l-2.14.02a30.29,30.29,0,0,1-12.11-2.65,26.183,26.183,0,0,0-5.31-1.74,165.767,165.767,0,0,1-16.5-6v-2c-.77-.11-1.53-.21-2.31-.32-3.04-.77-3.58-1.49-5.69-3.68-1.15-.7-2.32-1.36-3.5-2a25.128,25.128,0,0,1-6.5-5c-.62-.3-1.24-.59-1.87-.9-3.71-1.92-6.39-4.99-9.32-7.92-.64-.61-1.28-1.23-1.94-1.87-5.7-5.66-5.7-5.66-5.87-10.31l-3-1c-8.98-11.4-13.69-25.35-18-39-.35-.94-.7-1.88-1.05-2.85a28.486,28.486,0,0,1-1.2-8.99c-.01-1.15-.01-2.3-.02-3.48.01-1.26.01-2.52.02-3.81,0-1.36-.01-2.72-.01-4.08-.01-3.75,0-7.5.01-11.25q0-6.105-.01-12.22,0-10.725.01-21.43.015-15.945,0-31.87-.015-26.8.01-53.61,0-26.55.01-53.1V666.71q0-62.85.02-125.7.03-55.875.02-111.75V397.08q0-46.65.01-93.3v-3.35q0-6.675.01-13.34V240.61q0-29.94.02-59.88V149.04q0-10.575.01-21.14V115.84c0-3.65,0-7.31.01-10.96,0-1.94,0-3.89-.01-5.83.01-1.15.01-2.29.01-3.47V92.59a13.973,13.973,0,0,1,1.13-5.46c.35-1.67.68-3.33,1-5h2c-.23-.54-.46-1.08-.69-1.63-.45-3.44,1.08-5.34,2.69-8.37q1.035-3.495,2-7c.64-1.68,1.3-3.35,2-5h2c.1-.77.2-1.53.31-2.32.78-3.03,1.49-3.57,3.69-5.68,1.43-2.29,2.7-4.64,4-7h2c.09-.74.18-1.48.27-2.24.86-3.27,2.02-4.56,4.4-6.94.75-.74,1.5-1.49,2.26-2.26.79-.76,1.57-1.53,2.38-2.31.77-.78,1.55-1.56,2.34-2.37,6-5.93,6-5.93,10.35-6.88l1-2h2v-2l2.31-.82c2.67-.98,2.67-.98,4.19-2.68,1.96-1.97,3.91-2.51,6.5-3.5,1.94-.81,3.87-1.63,5.81-2.44C-27.65,5.78-21,3.08-13.55,1.56A20.8,20.8,0,0,0-9.81.61,47.36,47.36,0,0,1,0,0ZM1163.53,57.13l1,2Zm-1133,19c3.79,4.52,7.7,8.84,11.89,13.01l1.7,1.7q2.79,2.79,5.59,5.58,2.01,2.01,4.02,4.03,5.46,5.445,10.91,10.89,5.715,5.7,11.42,11.41,10.815,10.815,21.63,21.62,12.3,12.27,24.58,24.55,21,20.985,42.01,41.97l1.79,1.79q1.635,1.62,3.25,3.25c9.39,9.37,9.39,9.37,12.47,12.53q1.71,1.74,3.43,3.48c.87.9.87.9,1.76,1.81,1.48,1.5,3.01,2.94,4.55,4.38h2c.22.57.45,1.15.69,1.75,1.2,2.38,1.2,2.38,3.5,4a54.981,54.981,0,0,1,8.16,8.54c1.64,1.96,1.64,1.96,4.65,2.71.68,1.32,1.35,2.66,2,4,1.35,1.53,2.76,3.02,4.21,4.47.83.84,1.66,1.67,2.52,2.53s1.75,1.73,2.64,2.62l2.62,2.64c.84.83,1.67,1.67,2.53,2.53.76.76,1.53,1.52,2.31,2.3a25.068,25.068,0,0,0,6.17,3.91c1.19,1.42,2.38,2.85,3.54,4.31a42.263,42.263,0,0,0,5.08,4.84c4.62,4,8.9,8.28,13.18,12.62q2.475,2.505,4.96,4.99,3.855,3.915,7.72,7.81,3.75,3.795,7.51,7.58c.77.79,1.55,1.57,2.35,2.38.71.72,1.42,1.44,2.16,2.18.63.64,1.26,1.27,1.91,1.93,1.49,1.57,1.49,1.57,3.59,1.36.27.64.53,1.28.81,1.93,1.07,2.4,1.07,2.4,4.19,3.07.7,1.31,1.36,2.65,2,4a35.52,35.52,0,0,0,3.45,3.68c.7.7,1.41,1.4,2.14,2.13.76.75,1.52,1.5,2.3,2.28s1.57,1.56,2.38,2.36q3.765,3.75,7.54,7.48c1.68,1.68,3.37,3.35,5.05,5.03q4.65,4.62,9.3,9.23,4.425,4.395,8.84,8.81l2.5,2.5,72.5,72.5c.76.76,1.53,1.52,2.31,2.31q4.08,4.08,8.14,8.17c1.54,1.56,3.09,3.11,4.64,4.67q1.605,1.605,3.21,3.22,2.31,2.34,4.65,4.67c.92.93,1.84,1.86,2.79,2.81,2.06,2.17,2.06,2.17,4.26,3.15.49.68.99,1.36,1.5,2.06.49.64.99,1.28,1.5,1.94h2c.2.55.41,1.11.62,1.68,1.53,2.58,3.39,4.05,5.72,5.88a53.277,53.277,0,0,1,6.36,6.98c1.26,1.59,1.26,1.59,3.3,2.46.92,1.03,1.81,2.1,2.69,3.18a62.739,62.739,0,0,0,8.7,8.39,48.415,48.415,0,0,1,5.61,6.43h2c.2.55.41,1.11.62,1.68a22.065,22.065,0,0,0,9.38,8.32l.94,2c.95,2.34.95,2.34,4.06,3,.29.59.58,1.19.87,1.81,1.48,2.88,3.59,4.22,6.13,6.19l2,3h2l1,3h2l1,3c3.44,3.82,3.44,3.82,8,6v2h2v2c3.22,2.31,3.22,2.31,7,3v2h2l1,3h2v2h2l1,3h2v2h2l1,3c.65-.65,1.3-1.31,1.97-1.98q5.73-5.73,11.47-11.46,2.655-2.655,5.32-5.31c.95-.96,1.91-1.92,2.87-2.88q63.57-63.51,127.13-127.05l2.14-2.14q23-22.98,45.99-45.97,11.265-11.265,22.54-22.53c1.12-1.12,1.12-1.12,2.26-2.27q36.39-36.375,72.8-72.75,37.41-37.38,74.81-74.78,5.28-5.265,10.55-10.55c.69-.69,1.38-1.38,2.1-2.09q16.74-16.74,33.5-33.48,16.815-16.8,33.62-33.61,9.99-9.99,20-19.98,6.675-6.66,13.33-13.33,3.81-3.81,7.62-7.61,4.095-4.08,8.17-8.18c.8-.79,1.6-1.59,2.43-2.41.72-.72,1.43-1.45,2.17-2.19.63-.62,1.25-1.25,1.89-1.89,1.53-1.48,1.53-1.48,1.32-3.56-20.84-1.13-41.66-1.15-62.52-1.14h-15.2q-13.29-.015-26.58-.01-19.755,0-39.52-.01-37.335-.015-74.67-.01H817.76q-22.635,0-45.29-.01H751.72q-59.055-.015-118.1-.01H595.95q-70.41,0-140.8-.02-17.76,0-35.52-.01h-2.21q-33.69-.015-67.38-.01H280.77q-32.91,0-65.84-.02-34.035-.015-68.09,0-19.635,0-39.27-.01H81.37q-7.47.015-14.95,0c-4.52-.01-9.05,0-13.57,0-1.64.01-3.27.01-4.9,0-2.21-.01-4.42,0-6.63.01H37.61A13.4,13.4,0,0,0,30.53,76.13Zm-55,54v712c4.62-3.97,9.03-7.89,13.3-12.19.6-.6,1.2-1.19,1.81-1.81l5.97-5.97c1.44-1.45,2.88-2.89,4.33-4.34q5.94-5.94,11.88-11.9,6.405-6.42,12.82-12.83l22.2-22.23q16.785-16.815,33.59-33.63,6.75-6.735,13.48-13.49c.5-.5,1-1,1.52-1.51q17.805-17.835,35.63-35.67c.51-.52,1.03-1.04,1.57-1.57q18.195-18.21,36.39-36.43c.52-.52,1.04-1.05,1.58-1.58q3.945-3.96,7.9-7.92l1.58-1.58,3.15-3.15q26.01-26.055,52.03-52.08,3.675-3.675,7.34-7.35l1.46-1.46q11.64-11.64,23.28-23.31,11.685-11.7,23.37-23.39,6.345-6.345,12.67-12.69,5.79-5.8,11.58-11.59c1.4-1.4,2.81-2.81,4.21-4.22,1.89-1.89,3.78-3.79,5.68-5.68.55-.56,1.11-1.12,1.68-1.69,3.77-3.74,3.77-3.74,6-3.74-1.48-5.05-4.48-7.87-8.15-11.44-.6-.6-1.21-1.21-1.84-1.83-1.93-1.92-3.88-3.82-5.82-5.73-1.3-1.29-2.6-2.57-3.9-3.86q-4.38-4.335-8.78-8.64c-1-.99-1.99-2-2.96-3.01-1.15-1.2-2.35-2.35-3.55-3.49h-2c-.27-.64-.54-1.28-.81-1.94-1.08-2.39-1.08-2.39-4.19-3.06q-1.005-2.01-2-4l-3-1v-2h-2c-.27-.62-.54-1.24-.81-1.88-1.15-2.42-1.15-2.42-4.19-4.12-3.88-2.62-3.88-2.62-5-6-1.32-1.02-2.66-2.02-4-3-.81-1.09-.81-1.09-1.63-2.19-.45-.6-.9-1.2-1.37-1.81h-2l-1-2q-2.385-2.025-4.78-4.04c-4.18-3.69-8.05-7.71-11.98-11.67q-2.4-2.445-4.83-4.87-6.855-6.9-13.71-13.82-4.215-4.245-8.43-8.48l-3.2-3.23q-2.22-2.25-4.46-4.49l-2.56-2.58c-1.84-2.04-1.84-2.04-4.05-1.82-.4-.96-.4-.96-.81-1.94-1.08-2.39-1.08-2.39-4.19-3.06q-1-2.01-2-4l-3-1q-1-2.01-2-4l-3-1q-1-2.01-2-4l-3-1v-2a12.943,12.943,0,0,0-3-3h-2v-2a12.943,12.943,0,0,0-3-3h-2v-2a12.943,12.943,0,0,0-3-3h-2v-2a12.943,12.943,0,0,0-3-3h-2v-2a12.943,12.943,0,0,0-3-3h-2v-2a12.943,12.943,0,0,0-3-3h-2v-2a12.943,12.943,0,0,0-3-3h-2v-2a12.943,12.943,0,0,0-3-3h-2v-2a12.943,12.943,0,0,0-3-3h-2v-2a12.943,12.943,0,0,0-3-3h-2v-2a12.943,12.943,0,0,0-3-3h-2v-2a22.19,22.19,0,0,0-3.15-2.78c-6.54-5.57-12.49-11.75-18.54-17.85-1.22-1.23-2.44-2.45-3.67-3.68q-3.36-3.375-6.72-6.76-2.595-2.61-5.19-5.2-4.92-4.92-9.8-9.86-5.025-5.055-10.06-10.1c-2.54-2.56-5.09-5.12-7.62-7.68-2.47-2.48-4.94-4.97-7.41-7.44-1.4-1.41-2.79-2.82-4.19-4.23l-2.56-2.56c-.74-.74-1.49-1.49-2.25-2.26-1.69-1.82-1.69-1.82-3.84-1.6-.27-.6-.54-1.19-.81-1.8a21.635,21.635,0,0,0-4.2-5.45c-.6-.59-1.19-1.18-1.8-1.79s-1.24-1.21-1.88-1.84c-.6-.6-1.2-1.2-1.82-1.81-3.54-3.51-7.19-6.79-10.99-10a38.145,38.145,0,0,1-4.63-4.88,84.8,84.8,0,0,0-7.87-8.43h-2c-.27-.64-.54-1.28-.81-1.94-1.08-2.39-1.08-2.39-4.19-3.06-.67-1.34-1.34-2.67-2-4l-3-1c-.67-1.34-1.34-2.67-2-4l-3-1c-.67-1.34-1.34-2.67-2-4l-3-1v-2c-3.44-3.83-3.44-3.83-8-6-.67-1.34-1.34-2.67-2-4l-3-1-1-3Zm-2,1v711h1v-711Zm1124.62,5.18c-.86.93-1.73,1.86-2.62,2.82l-340,340c-.87.88-1.73,1.77-2.63,2.68a24.673,24.673,0,0,1-5.37,4.32c-.45,3.89-.45,3.89,1.57,5.74.7.56,1.4,1.12,2.12,1.69a117.825,117.825,0,0,1,9.31,8.57c1.24,1.23,1.24,1.23,2.5,2.5,82.5,82.5,165,165,335.12,335.31,2.21,2.53,2.21,2.53,5.38,2.19v-708C1100.36,133.79,1100.36,133.79,1098.15,136.31ZM387.53,540.13l-1.06,2.12a32.068,32.068,0,0,1-7.04,7.2,74.505,74.505,0,0,0-7.28,7.79c-2.09,2.43-4.33,4.66-6.62,6.89-.83.82-1.65,1.65-2.5,2.5-82.5,82.5-165,165-329.81,329.68-1.92,1.65-1.92,1.65-1.69,3.82h1015c.44-3.9.44-3.9-1.58-5.75-1.04-.84-1.04-.84-2.11-1.69a114.3,114.3,0,0,1-9.31-8.56l-2.5-2.5c-165-165-165-165-335.06-335.38-.81-.7-1.61-1.4-2.44-2.12-7.03.74-12.11,8.1-16.38,13.11-2.09,2.43-4.33,4.66-6.62,6.89-.83.82-1.65,1.65-2.5,2.5q-46.26,46.245-92.5,92.5c-.79.86-1.57,1.73-2.38,2.62a17.315,17.315,0,0,1-6.37,4c-1.07.46-2.15.91-3.25,1.38l-1,3c-7.77,5.31-16.18,4.08-25,3v-1c-.94-.02-1.88-.03-2.85-.05-12.06-.46-12.06-.46-17.15-5.95l-2.06-1c-2.87-1.48-4.73-3.68-6.94-6l-2.5-2.5-22.5-22.5c-.7-.7-1.4-1.41-2.13-2.13q-5.685-5.685-11.36-11.4-12.87-12.915-25.75-25.81-7.785-7.8-15.56-15.62l-13.62-13.65q-3.6-3.615-7.2-7.22c-2.67-2.69-5.34-5.36-8.02-8.04-.79-.8-1.58-1.6-2.4-2.42-.73-.73-1.46-1.45-2.21-2.2l-1.92-1.92A21.376,21.376,0,0,0,387.53,540.13Zm179,124-1,2h2Zm-7,5,1,2Zm-17,3,4,1Zm5,0,4,1Zm609,253,1,2h2v-2Zm-27,29,1,2Zm-36,16,4,1Z" transform="translate(100.472 151.874)" fill="#e4b48d"/>
    <path id="Caminho_337" data-name="Caminho 337" d="M0,0H2.3q3.855-.015,7.72,0c1.86,0,3.71-.01,5.57-.01H47.81q14.7-.015,29.42-.01h33.59c2.71,0,5.41-.01,8.12-.01q42.36-.015,84.72-.01h11.41q25.065,0,50.14-.01h22.93q65.34-.015,130.69-.01h41.76q77.955,0,155.92-.02,19.635,0,39.27-.01h2.44Q695.5-.105,732.75-.1H809.4q36.435,0,72.88-.02,36.69,0,73.4,0h12.14q16.71,0,33.41-.01h29.04q8.28.015,16.56,0c5.02-.01,10.04,0,15.06,0,1.81.01,3.61.01,5.42,0,16.59-.05,16.59-.05,24.46,2.26v1h-1104C-7.86.21-5.13-.02,0,0Z" transform="translate(100.227 151.874)" fill="#e4b48d"/>
    <path id="Caminho_338" data-name="Caminho 338" d="M0,0H2.09C4.4-.01,6.71,0,9.02,0h5.04q6.945-.015,13.9,0,7.56,0,15.11-.01H69.56q19.71.015,39.4,0H379.65q17.73,0,35.46.01,70.23,0,140.46-.01H863.12q19.59.015,39.17,0,13.11,0,26.21.01,7.455,0,14.9-.01c19.88-.01,39.71.06,59.57,1.14v1c-19.35,1.3-38.71,1.14-58.09,1.12q-7.605,0-15.22.01H903.02q-19.8-.015-39.61,0H555.94q-70.56-.015-141.13,0H40.19q-7.5-.015-14.99,0-6.81,0-13.62-.01H6.68c-2.22.01-4.43.01-6.65,0H-3.69a61.068,61.068,0,0,1-9.34-1.12v-1A66.948,66.948,0,0,1,0,0Z" transform="translate(145.032 1051.875)" fill="#e4b48d"/>
    <path id="Caminho_339" data-name="Caminho 339" d="M0,0H1L2,711C129.22,583.79,129.22,583.79,259,454c0,3,0,3-1.12,4.48l-1.61,1.58-1.83,1.83c-.67.65-1.34,1.31-2.03,1.98-.7.7-1.4,1.39-2.13,2.11-1.52,1.51-3.05,3.01-4.58,4.52q-3.645,3.57-7.25,7.16-10.29,10.2-20.61,20.37-6.315,6.21-12.59,12.46-3.57,3.525-7.16,7.04l-4.37,4.34-2.03,1.97c-.91.91-.91.91-1.84,1.85-.53.52-1.06,1.04-1.6,1.58-1.43,1.69-1.43,1.69-1.53,4.01-1.12,4.23-4,6.56-7.06,9.57-.67.68-1.34,1.36-2.04,2.05-2.25,2.27-4.52,4.53-6.78,6.78-1.62,1.62-3.24,3.25-4.85,4.87q-6.6,6.615-13.21,13.21-6.915,6.9-13.81,13.81-12.345,12.36-24.7,24.68-11.2,11.175-22.38,22.38-12.975,13-25.98,25.99-6.87,6.885-13.75,13.76-6.45,6.48-12.94,12.93-2.385,2.37-4.75,4.75-3.24,3.255-6.49,6.47c-.63.63-1.25,1.26-1.89,1.92-3.52,3.45-6.2,5.31-11.09,6.55a11.971,11.971,0,0,0-3.11,2.79c-.5.53-1.01,1.06-1.54,1.6-.51.55-1.01,1.1-1.54,1.67C3.36,712.88,3.36,712.88,0,714Z" transform="translate(75 282)" fill="#e4b48d"/>
    <path id="Caminho_340" data-name="Caminho 340" d="M0,0C1.49.93,2.96,1.87,4.44,2.81c.82.52,1.64,1.05,2.49,1.58C9,6,9,6,10,9l2,1,2,1,1,3,2,1,2,1,1,3,2,1,2,1,1,3,2,1,2,1,1,3,2,1,2,1c.5,1.49.5,1.49,1,3,.99.5.99.5,2,1,.99.5.99.5,2,1l1,3c.99.5.99.5,2,1,.99.5.99.5,2,1l1,3c.99.5.99.5,2,1,.99.5.99.5,2,1l1,3c.99.5.99.5,2,1,.99.5.99.5,2,1l1,3c.99.5.99.5,2,1,.99.5.99.5,2,1l1,3c.99.5.99.5,2,1,.99.5.99.5,2,1l1,3,2,1,2,1,1,3,2,1,2,1,1,3,2,1,2,1,1,3,2,1,2,1,1,3,2,1,2,1,1,3,2,1,2,1,1,3,2,1,2,1,1,3,2,1,2,1,1,3,2,1,2,1,1,3,2,1,2,1,1,3,2,1,2,1,1,3,2,1,2,1,1,3,2,1,2,1,1,3,2,1,2,1,1,3,2,1,2,1,1,3,2,1,2,1,1,3,2,1,2,1,1,3,2,1,2,1,1,3,2,1,2,1,1,3,2,1,2,1,1,3,2,1,2,1,1,3,2,1,2,1,1,3,2,1,2,1,1,3,2,1,2,1,1,3,2,1,2,1,1,3,2,1,2,1,1,3,2,1,2,1,1,3,2,1,2,1,1,3,2,1,2,1,1,3,2,1,2,1,1,3,2,1,2,1,1,3,2,1,2,1,1,3,2,1,2,1,1,3,2,1,2,1,1,3,2,1,2,1,1,3,2,1,2,1,1,3,2,1,2,1,1,3,2,1,2,1,1,3,2,1,2,1,1,3,2,1,2,1,1,3,2,1,2,1,1,3,2,1,2,1,1,3,2,1,2,1,1,3,2,1,2,1,1,3,2,1,2,1,1,3,2,1,2,1,1,3,2,1,2,1,1,3,2,1,2,1,1,3,2,1,2,1,1,3,2,1,2,1,1,3,2,1,2,1,1,3,2,1,2,1,1,3,2,1,2,1,1,3,2,1,2,1,1,3,2,1,2,1,1,3,2,1,2,1,1,3,2,.94c2,1.06,2,1.06,2.75,3.18.08.62.16,1.24.25,1.88a22.053,22.053,0,0,1-7.03-4.79c-.58-.57-1.15-1.14-1.74-1.73-.62-.63-1.25-1.26-1.89-1.9-.66-.67-1.33-1.34-2.02-2.02q-3.36-3.36-6.71-6.73c-1.6-1.61-3.2-3.21-4.8-4.82q-5.19-5.175-10.36-10.38-8.175-8.205-16.36-16.39l-22.92-22.98c-.49-.48-.97-.97-1.47-1.47l-1.47-1.47q-10.335-10.365-20.66-20.71c-.72-.73-.72-.73-1.47-1.48q-12.105-12.135-24.22-24.26-8.145-8.16-16.28-16.32l-10.1-10.13q-2.355-2.355-4.7-4.72-3.2-3.195-6.4-6.41c-.94-.94-.94-.94-1.89-1.9A25.475,25.475,0,0,0,181,184v-2l-3-1v-2h-2v-2l-3-1a36.851,36.851,0,0,1-3.25-3.62c-3.42-4.02-7.02-7.78-10.76-11.51l-2.03-2.03q-3.33-3.33-6.67-6.66-2.4-2.415-4.81-4.81-6.5-6.5-13.01-13-6.81-6.795-13.62-13.61Q107.435,109.345,96,97.92L72.48,74.43c-.72-.73-.72-.73-1.46-1.47q-3.645-3.63-7.28-7.27Q35.69,37.655,7.62,9.62C7.05,9.05,6.48,8.48,5.9,7.89c-.49-.49-.99-.98-1.49-1.48L3,5,1.32,3.44C0,2,0,2,0,0Z" transform="translate(848 643)" fill="#e4b48d"/>
    <path id="Caminho_341" data-name="Caminho 341" d="M0,0H1090V1H0Z" transform="translate(95 1127)" fill="#e4b48d"/>
    <path id="Caminho_342" data-name="Caminho 342" d="M0,0H987V1H0Z" transform="translate(135 227)" fill="#e4b48d"/>
    <path id="Caminho_343" data-name="Caminho 343" d="M0,0,2,2-1,3c-.38,1.32-.7,2.66-1,4-2.59,5.34-6.89,9.16-11.05,13.28-.82.82-1.64,1.64-2.49,2.48q-4.05,4.065-8.13,8.1-2.82,2.82-5.64,5.63-6.645,6.645-13.32,13.28Q-50.22,57.33-57.8,64.9-73.385,80.455-89,96l-2-1-3-1Z" transform="translate(432 638)" fill="#e4b48d"/>
    <path id="Caminho_344" data-name="Caminho 344" d="M0,0A162.218,162.218,0,0,1,12,11l5,5,3.79,3.79,2.14,2.14L133,132c.76.76,1.53,1.53,2.32,2.31q4.065,4.08,8.09,8.17c1.54,1.56,3.09,3.11,4.63,4.67,1.06,1.07,2.12,2.15,3.18,3.22,1.54,1.57,3.09,3.12,4.63,4.68l2.78,2.8c2.26,2.33,2.26,2.33,5.37,3.15.29.6.58,1.2.88,1.81,1.49,2.91,3.54,4.21,6.12,6.19a63.117,63.117,0,0,1,7,7.62,22.46,22.46,0,0,0,7,5.38l1,2a51.613,51.613,0,0,0,9.41,9.67,49.524,49.524,0,0,1,6.4,6.71A50.152,50.152,0,0,0,210,208a89.2,89.2,0,0,1,6.38,6.94A52.7,52.7,0,0,0,225,223c1.71,1.71,3.25,3.46,4.81,5.31,2.6,3.06,5.31,5.9,8.19,8.69-3,0-3,0-4.79-1.41-.67-.68-1.34-1.35-2.03-2.04-.78-.76-1.55-1.53-2.35-2.32l-2.58-2.61c-.91-.9-1.81-1.8-2.74-2.73q-3.78-3.765-7.54-7.54c-2.71-2.72-5.42-5.42-8.13-8.13q-7.965-7.95-15.92-15.93-9.255-9.27-18.53-18.54-16.53-16.515-33.04-33.06-16.035-16.065-32.09-32.12Q90.785,93.11,73.33,75.64c-1.24-1.24-2.47-2.48-3.71-3.72l-1.85-1.85L54.84,57.14Q46.965,49.265,39.1,41.38l-8.04-8.04q-4.35-4.35-8.69-8.71c-.86-.85-1.72-1.71-2.6-2.59-.77-.77-1.54-1.55-2.33-2.34l-2.03-2.03C14,16,14,16,14,14c-.64-.27-1.28-.54-1.94-.81C10,12,10,12,9,9c-.58-.29-1.15-.58-1.75-.88C4.21,6.6,2.26,4.51,0,2Z" transform="translate(378 474)" fill="#e4b48d"/>
    <path id="Caminho_345" data-name="Caminho 345" d="M0,0C4.53,3.79,8.85,7.7,13.01,11.89l1.7,1.7q2.79,2.79,5.58,5.59c1.34,1.34,2.69,2.68,4.03,4.03q5.445,5.445,10.89,10.9,5.7,5.715,11.42,11.42,10.8,10.815,21.61,21.64Q80.51,79.455,92.79,91.74q20.985,21,41.97,42.01l1.79,1.79c1.08,1.09,2.17,2.17,3.25,3.26l6.96,6.96c1.77,1.77,3.53,3.54,5.29,5.33a205.317,205.317,0,0,0,16.46,15.45,8.02,8.02,0,0,1,2.45,3.52c1.32,2.46,2.56,2.76,5.04,3.94a50.749,50.749,0,0,1,3.69,4.06C186.72,186.1,194.41,193.5,202,201c-3,0-3,0-4.65-1.27-.6-.61-1.21-1.21-1.83-1.83-.7-.69-1.4-1.39-2.12-2.1-.76-.77-1.53-1.54-2.32-2.34-.81-.81-1.63-1.62-2.47-2.46q-3.39-3.39-6.78-6.79c-2.44-2.45-4.88-4.88-7.32-7.32q-7.185-7.155-14.34-14.34-8.325-8.355-16.67-16.69-14.895-14.88-29.75-29.77Q99.32,101.615,84.86,87.17,69.125,71.45,53.42,55.73q-1.68-1.68-3.35-3.36c-.55-.55-1.1-1.1-1.67-1.66L36.76,39.07q-7.08-7.095-14.17-14.19-3.615-3.63-7.23-7.24Q11.445,13.725,7.53,9.8c-.77-.77-1.54-1.54-2.34-2.33L3.1,5.35c-.6-.6-1.21-1.2-1.83-1.83C0,2,0,2,0,0Z" transform="translate(130 228)" fill="#e4b48d"/>
    <path id="Caminho_346" data-name="Caminho 346" d="M0,0A23.293,23.293,0,0,1,7.51,5.26c.68.68,1.36,1.35,2.06,2.05.74.74,1.48,1.49,2.24,2.26.79.79,1.58,1.58,2.4,2.39q3.99,3.99,7.96,7.98,2.85,2.865,5.71,5.71,6.15,6.15,12.29,12.3,8.865,8.91,17.76,17.8Q72.36,70.165,86.76,84.61q13.995,14.025,28,28.04c.58.58,1.15,1.15,1.74,1.75q4.335,4.335,8.67,8.66Q161.095,159.03,197,195l-1,2-95-95-3.62-3.62q-3.75-3.75-7.48-7.52-2.265-2.265-4.52-4.55c-.77-.77-1.53-1.54-2.32-2.34-.73-.73-1.47-1.47-2.22-2.23-1-1.01-1-1.01-2.02-2.03A18.5,18.5,0,0,0,74,76V74H72V72H70a28.922,28.922,0,0,1-2.72-3.09c-5.26-6.18-11.06-11.84-16.81-17.57-1.97-1.96-3.93-3.93-5.89-5.89q-1.89-1.905-3.8-3.8c-.58-.58-1.15-1.16-1.74-1.75a136.266,136.266,0,0,0-10.75-9.63c-.42-.42-.85-.84-1.29-1.27V27l-3-1a34.675,34.675,0,0,1-3.13-3.5c-4.02-4.75-8.38-9.08-12.81-13.44q-2.3-2.25-4.59-4.52c-.66-.66-1.33-1.32-2.02-1.99C0,1,0,1,0,0Z" transform="translate(132 233)" fill="#e4b48d"/>
    <path id="Caminho_347" data-name="Caminho 347" d="M0,0C4.24,1.65,7.08,4.8,10.21,7.97l1.88,1.88c2.08,2.07,4.15,4.16,6.23,6.24,1.48,1.49,2.97,2.97,4.46,4.46q6.06,6.075,12.12,12.14,6.315,6.345,12.66,12.68,12,12.015,23.98,24.03,13.65,13.68,27.3,27.34Q126.935,124.865,155,153c-3,0-3,0-4.54-1.18-.55-.55-1.1-1.11-1.66-1.68l-1.89-1.89c-.67-.68-1.34-1.37-2.03-2.07s-1.39-1.4-2.1-2.12c-2.23-2.24-4.44-4.49-6.66-6.75-1.48-1.5-2.97-3-4.45-4.5q-4.11-4.14-8.21-8.3-4.215-4.275-8.46-8.51l-4.44-4.44-2.55-2.55L74.07,75.07,70.4,71.4q-3.33-3.315-6.63-6.66c-1.13-1.14-2.26-2.29-3.39-3.43-.58-.58-1.15-1.16-1.74-1.76-.83-.83-.83-.83-1.68-1.69-.5-.5-.99-1-1.51-1.52A18.445,18.445,0,0,0,51,53V51c-.6-.26-1.2-.53-1.82-.8a14.414,14.414,0,0,1-4.99-4.45,46.079,46.079,0,0,0-6.63-6.69,71.819,71.819,0,0,1-8.94-9.18C26.54,27.46,24.29,25.23,22,23c-.87-.89-1.73-1.77-2.62-2.69A19.033,19.033,0,0,0,14,16V14l-3-1A43.414,43.414,0,0,1,7.56,9.19c-1.94-2.3-3.86-4.49-6-6.63L0,1Z" transform="translate(77 282)" fill="#e4b48d"/>
    <path id="Caminho_348" data-name="Caminho 348" d="M0,0C.99.5.99.5,2,1A23.014,23.014,0,0,1-3.16,8.4l-1.98,1.98c-.71.71-1.42,1.42-2.16,2.14-.75.75-1.5,1.51-2.27,2.28q-3.735,3.72-7.47,7.43l-5.17,5.17q-6.81,6.78-13.62,13.57-6.96,6.915-13.9,13.85Q-63.35,68.425-77,82l-2-1c2.62-4.88,2.62-4.88,6-6,.5-.99.5-.99,1-2,1-2,1-2,4-3,.5-.99.5-.99,1-2,1-2,1-2,4-3l1-2c1-2,1-2,4-3l1-2c1-2,1-2,4-3l1-2c1-2,1-2,4-3l1-2c1-2,1-2,4-3,.5-.99.5-.99,1-2,1-2,1-2,4-3,.5-.99.5-.99,1-2,1-2,1-2,4-3,.5-.99.5-.99,1-2,1-2,1-2,4-3l1-2c1-2,1-2,4-3l1-2c1-2,1-2,4-3l1-2c1-2,1-2,4-3l1-2c1-2,1-2,4-3A21.926,21.926,0,0,0-6,6C-3.4,1.13-3.4,1.13,0,0Z" transform="translate(340 732)" fill="#e4b48d"/>
    <path id="Caminho_349" data-name="Caminho 349" d="M0,0C.5,1.49.5,1.49,1,3L5,1C.31,6.64-4.7,11.83-9.9,17c-.83.83-1.67,1.66-2.53,2.52-2.65,2.64-5.29,5.28-7.95,7.92-1.8,1.8-3.6,3.59-5.41,5.39Q-32.39,39.43-39,46l-2-1-3-1Z" transform="translate(382 688)" fill="#e4b48d"/>
    <path id="Caminho_350" data-name="Caminho 350" d="M0,0A127.389,127.389,0,0,1,15,14v2c-4.01-1.61-6.76-4.42-9.75-7.44-.51-.49-1.01-.98-1.54-1.48C2.41,5.78,1.2,4.39,0,3Z" transform="translate(311 513)" fill="#e4b48d"/>
    <path id="Caminho_351" data-name="Caminho 351" d="M0,0-10,10l-2-1c.43-.39.87-.78,1.31-1.19A11.452,11.452,0,0,0-7.56,3.44C-5.57.33-3.62-1.81,0,0Z" transform="translate(95 982)" fill="#e4b48d"/>
    <path id="Caminho_352" data-name="Caminho 352" d="M0,0H19V1H0Z" transform="translate(633 827)" fill="#e4b48d"/>
    <path id="Caminho_353" data-name="Caminho 353" fill="#e4b48d"/>
    <path id="Caminho_354" data-name="Caminho 354" fill="#e4b48d"/>
    <path id="Caminho_355" data-name="Caminho 355" fill="#e4b48d"/>
    <path id="Caminho_356" data-name="Caminho 356" fill="#e4b48d"/>
    <path id="Caminho_357" data-name="Caminho 357" fill="#e4b48d"/>
    <path id="Caminho_358" data-name="Caminho 358" fill="#e4b48d"/>
    <path id="Caminho_359" data-name="Caminho 359" fill="#e4b48d"/>
    <path id="Caminho_360" data-name="Caminho 360" fill="#e4b48d"/>
    <path id="Caminho_361" data-name="Caminho 361" fill="#e4b48d"/>
    <path id="Caminho_362" data-name="Caminho 362" fill="#e4b48d"/>
    <path id="Caminho_363" data-name="Caminho 363" fill="#e4b48d"/>
    <path id="Caminho_364" data-name="Caminho 364" fill="#e4b48d"/>
    <path id="Caminho_365" data-name="Caminho 365" fill="#e4b48d"/>
    <path id="Caminho_366" data-name="Caminho 366" fill="#e4b48d"/>
    <path id="Caminho_367" data-name="Caminho 367" fill="#e4b48d"/>
    <path id="Caminho_368" data-name="Caminho 368" fill="#e4b48d"/>
    <path id="Caminho_369" data-name="Caminho 369" fill="#e4b48d"/>
    <path id="Caminho_370" data-name="Caminho 370" fill="#e4b48d"/>
    <path id="Caminho_371" data-name="Caminho 371" fill="#e4b48d"/>
    <path id="Caminho_372" data-name="Caminho 372" fill="#e4b48d"/>
    <path id="Caminho_373" data-name="Caminho 373" fill="#e4b48d"/>
    <path id="Caminho_374" data-name="Caminho 374" fill="#e4b48d"/>
  </g>
</svg>
