<svg id="mp5" xmlns="http://www.w3.org/2000/svg" xmlns:xlink="http://www.w3.org/1999/xlink" width="150" height="24" viewBox="0 0 150 24">
  <defs>
    <clipPath id="clip-path">
      <rect id="Retângulo_4" data-name="Retângulo 4" width="24" height="24" fill="#59848e"/>
    </clipPath>
    <clipPath id="clip-path-2">
      <rect id="Retângulo_5" data-name="Retângulo 5" width="24" height="24" transform="translate(31.5)" fill="#59848e"/>
    </clipPath>
    <clipPath id="clip-path-3">
      <rect id="Retângulo_6" data-name="Retângulo 6" width="24" height="24" transform="translate(63)" fill="#59848e"/>
    </clipPath>
    <clipPath id="clip-path-4">
      <rect id="Retângulo_7" data-name="Retângulo 7" width="24" height="24" transform="translate(94.5)" fill="#59848e"/>
    </clipPath>
    <clipPath id="clip-path-5">
      <rect id="Retângulo_8" data-name="Retângulo 8" width="24" height="24" transform="translate(126)" fill="#59848e"/>
    </clipPath>
  </defs>
  <g id="Grupo_2" data-name="Grupo 2" clip-path="url(#clip-path)">
    <path id="Caminho_1" data-name="Caminho 1" d="M11.312.837a.75.75,0,0,1,1.376,0l2.626,6.055a1.5,1.5,0,0,0,1.234.9l6.57.626a.75.75,0,0,1,.425,1.309L18.6,14.091a1.5,1.5,0,0,0-.471,1.451l1.435,6.442a.75.75,0,0,1-1.113.809l-5.683-3.355a1.5,1.5,0,0,0-1.525,0L5.555,22.792a.75.75,0,0,1-1.113-.809l1.435-6.442A1.5,1.5,0,0,0,5.4,14.091L.458,9.723A.75.75,0,0,1,.883,8.414l6.57-.626a1.5,1.5,0,0,0,1.234-.9Z" fill="#59848e"/>
  </g>
  <g id="Grupo_3" data-name="Grupo 3" clip-path="url(#clip-path-2)">
    <path id="Caminho_2" data-name="Caminho 2" d="M42.812.837a.75.75,0,0,1,1.376,0l2.626,6.055a1.5,1.5,0,0,0,1.234.9l6.57.626a.75.75,0,0,1,.425,1.309L50.1,14.091a1.5,1.5,0,0,0-.471,1.451l1.435,6.442a.75.75,0,0,1-1.113.809l-5.683-3.355a1.5,1.5,0,0,0-1.525,0l-5.683,3.355a.75.75,0,0,1-1.113-.809l1.435-6.442a1.5,1.5,0,0,0-.471-1.451L31.958,9.723a.75.75,0,0,1,.425-1.309l6.57-.626a1.5,1.5,0,0,0,1.234-.9Z" fill="#59848e"/>
  </g>
  <g id="Grupo_4" data-name="Grupo 4" clip-path="url(#clip-path-3)">
    <path id="Caminho_3" data-name="Caminho 3" d="M74.312.837a.75.75,0,0,1,1.376,0l2.626,6.055a1.5,1.5,0,0,0,1.234.9l6.57.626a.75.75,0,0,1,.425,1.309L81.6,14.091a1.5,1.5,0,0,0-.471,1.451l1.435,6.442a.75.75,0,0,1-1.113.809l-5.683-3.355a1.5,1.5,0,0,0-1.525,0l-5.683,3.355a.75.75,0,0,1-1.113-.809l1.435-6.442a1.5,1.5,0,0,0-.471-1.451L63.458,9.723a.75.75,0,0,1,.425-1.309l6.57-.626a1.5,1.5,0,0,0,1.234-.9Z" fill="#59848e"/>
  </g>
  <g id="Grupo_5" data-name="Grupo 5" clip-path="url(#clip-path-4)">
    <path id="Caminho_4" data-name="Caminho 4" d="M105.812.837a.75.75,0,0,1,1.376,0l2.626,6.055a1.5,1.5,0,0,0,1.234.9l6.57.626a.75.75,0,0,1,.425,1.309L113.1,14.091a1.5,1.5,0,0,0-.471,1.451l1.434,6.442a.75.75,0,0,1-1.113.809l-5.683-3.355a1.5,1.5,0,0,0-1.525,0l-5.683,3.355a.75.75,0,0,1-1.114-.809l1.435-6.442a1.5,1.5,0,0,0-.471-1.451L94.958,9.723a.75.75,0,0,1,.425-1.309l6.57-.626a1.5,1.5,0,0,0,1.234-.9Z" fill="#59848e"/>
  </g>
  <g id="Grupo_6" data-name="Grupo 6" clip-path="url(#clip-path-5)">
    <path id="Caminho_5" data-name="Caminho 5" d="M137.312,1.587a.75.75,0,0,1,1.376,0l2.6,5.991a.75.75,0,0,0,.617.448l6.5.619a.75.75,0,0,1,.425,1.309l-4.895,4.322A.751.751,0,0,0,143.7,15l1.42,6.374a.75.75,0,0,1-1.113.809l-5.624-3.32a.749.749,0,0,0-.762,0l-5.624,3.32a.75.75,0,0,1-1.113-.809L132.3,15a.751.751,0,0,0-.236-.725l-4.895-4.322a.75.75,0,0,1,.425-1.309l6.5-.619a.75.75,0,0,0,.617-.448Z" fill="none" stroke="#59848e" stroke-width="1.5"/>
  </g>
</svg>
