<svg xmlns="http://www.w3.org/2000/svg" width="56.006" height="47.909" viewBox="0 0 56.006 47.909">
  <g id="AdobeStock_470118778" transform="translate(-4.039 -8.021)">
    <path id="Caminho_1" data-name="Caminho 1" d="M24.652,18.07c-1.644-3-6.382-5.311-8.394-6.177a.565.565,0,0,0-.476.022.555.555,0,0,0-.292.389c-.379,1.915-.974,4.835-1.352,6.717a24.339,24.339,0,0,1,9.011,5.073Z" fill="#e4b48d"/>
    <path id="Caminho_2" data-name="Caminho 2" d="M40.5,28.984c.791-7.828-2.631-14.787-7.778-20.964A37.905,37.905,0,0,0,26.84,18.144a28.939,28.939,0,0,0-1.818,8.212c-.372,5.8,1.326,12.1,7.049,18.389C34.084,42.906,39.611,37.194,40.5,28.984Z" fill="#e4b48d"/>
    <path id="Caminho_3" data-name="Caminho 3" d="M50.353,19.021a22.45,22.45,0,0,0-1.806-7.3c-3,.768-6.079,3.148-7.94,4.792a27.247,27.247,0,0,1,1.85,6.231A31.063,31.063,0,0,1,50.353,19.021Z" fill="#e4b48d"/>
    <path id="Caminho_4" data-name="Caminho 4" d="M30.142,45.843c-5.755-6.447-7.5-13.035-7.269-18.962-3.6-4.6-12.941-7.454-18.465-7.453a.334.334,0,0,0-.357.421C6.005,35.893,16.908,45.305,30.142,45.843Z" fill="#e4b48d"/>
    <path id="Caminho_5" data-name="Caminho 5" d="M34.084,45.826c17.059-.571,24.881-14.132,25.961-26.34-5.753.074-13.778,2.792-17.318,5.7C43.674,33.907,37.516,42.941,34.084,45.826Z" fill="#e4b48d"/>
    <path id="Caminho_6" data-name="Caminho 6" d="M33.738,48.022c11.749,6.64,21.877,1.322,25.572-2.985a25.561,25.561,0,0,0-6.7-4.327C47.8,45.253,41.333,47.707,33.738,48.022Z" fill="#e4b48d"/>
    <path id="Caminho_7" data-name="Caminho 7" d="M28.643,51.235l3.44,4.695,3.959-4.446a34.223,34.223,0,0,1-4.078-1.969,31.307,31.307,0,0,1-3.321,1.72Z" fill="#e4b48d"/>
    <path id="Caminho_8" data-name="Caminho 8" d="M11.552,40.472a19.018,19.018,0,0,0-6.739,4.543C8.107,49.084,18.278,55.057,30.2,48.044a29.4,29.4,0,0,1-18.649-7.572Z" fill="#e4b48d"/>
  </g>
</svg>
