<svg xmlns="http://www.w3.org/2000/svg" width="1230.306" height="423.309" viewBox="0 0 1230.306 423.309">
  <g id="_626bfdf6d454dffe03184ffeee7fcdf5" data-name="626bfdf6d454dffe03184ffeee7fcdf5" transform="translate(0.002 0.23)">
    <path id="Caminho_352" data-name="Caminho 352" d="M-43.09,0c12.607.163,12.607.163,17.527,1.182a15.5,15.5,0,0,1,2.883,6.65c.24,1.124.24,1.124.48,2.277.24,1.172.24,1.172.48,2.364.241,1.105.241,1.105.481,2.229,3.171,15.269,4.084,30.711,5.1,46.24.24,3.757.5,7.514.75,11.262,2.527,37.659,3.459,75.288,3.4,113.024q0,6.155.009,12.319c.067,66.217.067,66.217-4.574,86.81C-22.6,312.406-11.8,340.629,2.784,364.3,10.3,375.664,18.2,384.726,30.171,391.318c.97.6,1.941,1.192,2.94,1.807,4.055,1.547,7.245,2.325,11.474,1.076,5.41-5.583,8.4-12.713,10.753-20,.317-.98.644-1.96.971-2.96,6.159-19.92,7.658-41.733,7.63-62.5v-3.469q0-3.618-.01-7.236,0-5.42.01-10.839c0-11.714-.163-23.389-.74-35.083-.4-8.341-.567-16.672-.586-25.022,0-1.614-.019-3.219-.038-4.824-.212-17.383-.212-17.383,3.152-24.1a21.669,21.669,0,0,1,3.843-1.922c7.534,6.409,11.868,13.7,16.394,22.322,1.182,2.22,2.47,4.363,3.786,6.505,1.067-.211,1.067-.211,2.162-.423,11.819-2.085,24.552-3.921,35.314,2.345.586,6.9.586,6.9-1.864,10.215-.971.75-1.941,1.5-2.94,2.277-.875.692-.875.692-1.768,1.4-8.956,6.582-19.69,9.3-30.471,11.31-.778.24-1.557.49-2.354.74-3.066,9.215-2.057,20.919-2.085,30.519,0,2.095-.019,4.2-.039,6.3-.048,5.967-.1,11.935-.106,17.912-.058,17.7-.74,34.718-4.016,52.178-.644,3.555-1.192,7.13-1.72,10.7-2.941,18.45-11.426,37.178-26.627,48.623-6.361,4.334-12.626,4.488-20.179,3.844-21.092-4.939-36.275-27.646-47-44.769-7.774-12.607-7.774-12.607-7.774-16.73h-1.922a42.614,42.614,0,0,1-2.758-4.439c-2.172-3.748-4.41-7.37-6.851-10.935-10.82,3.613-19.084,29.587-23.966,39.177-8.965,17.527-8.965,17.527-15.433,25.205-.538.653-1.076,1.307-1.624,1.989a26.7,26.7,0,0,1-18.555,9.062c-8.754-.548-15.721-5.429-22.1-11.051-.644-.548-1.278-1.105-1.941-1.672-10.282-9.484-15.971-22.1-21.121-34.843-.385-.923-.769-1.855-1.163-2.806-2.085-5.074-3.872-10.224-5.564-15.452l-1.442-4.267c-1.009-3.027-1.931-6.063-2.825-9.129-2.863-9.59-6.649-20.112-12.722-28.145-1.269-1.7-1.269-1.7-1.269-3.623-11.521,1.143-21.736,8.072-29.087,16.826-13.914,17.277-23.841,37.822-33.565,57.646C-241.2,416.763-241.2,416.763-253.3,421.106c-4.661.942-8.649,1.153-12.819-1.345a53.268,53.268,0,0,1-5.439-5.381c-.788-.874-1.585-1.739-2.4-2.643-1.441-2.162-1.441-2.162-1.441-5.045l-1.922-.961c-1.307-2.383-2.537-4.757-3.719-7.207l-1.047-2.124a157.583,157.583,0,0,1-8.9-21.111c-.8-2.383-1.72-4.7-2.671-7.034a186.165,186.165,0,0,1-6.188-18.2,127.255,127.255,0,0,0-4.411-12.146,169.124,169.124,0,0,1-5.679-17.643,117.116,117.116,0,0,0-4.92-14.058,68.449,68.449,0,0,1-2.345-7.62,90.4,90.4,0,0,0-4.238-12.348c-.74-1.8-1.432-3.623-2.085-5.448-6.265-17.364-14.885-30.644-31.634-39.379-32.527-14.183-82.447,3.479-115.224,11.743q-4.007,1.009-8.014,1.97c-24.388,5.89-48.373,13.4-72.387,20.65q-6.731,2.032-13.472,4.055c-13.385,4.007-26.733,8.11-40.022,12.454-44.395,14.5-89.068,28.539-134.1,40.955-4.449,1.22-8.869,2.518-13.28,3.844-9.984,2.979-20.055,5.564-30.154,8.11-1.172.3-1.172.3-2.364.6-47.777,12-97.659,22.332-147,23.965-1.807.067-1.807.067-3.661.125q-19.1.577-38.2.3c-1.047-.01-2.095-.019-3.171-.038a325,325,0,0,1-48.719-4.766c-.894-.144-1.8-.288-2.729-.432-24.5-3.911-55.33-10.455-75.106-26.473v-1.922a89.069,89.069,0,0,1,16.913,1.336q2.752.433,5.515.865c.96.144,1.922.3,2.921.452,91.2,14.193,179.328,8.754,299.021-22.486,5.275-1.489,10.541-2.9,15.855-4.19,9.369-2.287,18.584-5.083,27.828-7.8,4.295-1.268,8.59-2.5,12.9-3.728.817-.231,1.624-.461,2.46-.7q11.286-3.214,22.582-6.332,10.32-2.9,20.6-5.939c9.119-2.681,18.276-5.189,27.463-7.639q9.4-2.508,18.719-5.208c10.964-3.181,22-6.063,33.036-8.965.692-.183,1.394-.365,2.114-.557q1.038-.274,2.1-.548,9.224-2.436,18.421-4.949c14.51-3.921,29.068-7.639,43.636-11.358l8.216-2.1,18.056-4.612c.961-.25,1.912-.49,2.9-.74,8.975-2.3,17.959-4.593,26.954-6.823q8.375-2.09,16.691-4.391c1.807-.49,3.613-.99,5.42-1.48,4.305-1.172,8.61-2.383,12.905-3.584,32.5-9.042,65.593-16.3,96.861.019V227c.576.115,1.143.221,1.739.336,3.44,1.019,5.871,3.469,8.533,5.794.894.778.894.778,1.816,1.566,18.382,16.317,28.318,38.485,35.91,61.355q1.427,4.252,2.873,8.485c4.4,12.886,8.687,25.753,12.194,38.917,4.18,15.509,9.638,30.221,18.854,43.463a14.594,14.594,0,0,1,2.643,5.362c5.189-1.2,7.562-3.488,10.57-7.687,1.124-1.47,1.124-1.47,2.258-2.969a78.534,78.534,0,0,0,7.169-13.309q1.268-2.71,2.546-5.41c.413-.894.827-1.778,1.249-2.691,2.844-6.025,5.842-11.973,8.879-17.9.346-.682.692-1.355,1.047-2.056,10.512-20.573,23.716-43.53,46.758-51.63,6.515-1.739,14.943-2.864,21.112.221,13.376,9.619,18.719,26.031,24.686,40.753,3.19,7.88,6.515,15.673,10.061,23.408.4.9.817,1.8,1.24,2.729,7,17.037,7,17.037,19.958,28.914,4.8,1.374,9.456,1.874,14.116-.24,13.568-10.359,22.111-27.415,27.886-43.328q1.557-4.267,3.228-8.466c.346-.874.692-1.758,1.048-2.652q1.024-2.594,2.056-5.17a67.067,67.067,0,0,0,4.757-26.147v-1.98a29.806,29.806,0,0,0-1.144-9.129,165,165,0,0,1-4.257-18.671,22.274,22.274,0,0,0-1.5-5.17,56.037,56.037,0,0,1-2.047-10.753c-.125-.99-.125-.99-.25-2a72.093,72.093,0,0,1-.586-8.994c.279-2.393.279-2.393-.971-3.421q-.058-2.883,0-5.766H-59.2V227h-.961q-.822-6.746-1.643-13.482c-.183-1.528-.365-3.056-.557-4.574-1.922-15.605-1.922-15.605-1.643-23.264h-.961a248.311,248.311,0,0,1-1.931-32.71,23.473,23.473,0,0,0-.951-8.61c-.086-1.557-.125-3.113-.125-4.68,0-1.422,0-1.422-.009-2.873.009-1.028.009-2.047.009-3.1v-9.878c.01-3.411,0-6.823,0-10.234v-6.5c0-1.528,0-1.528-.009-3.094.009-.951.009-1.9.009-2.883,0-1.259,0-1.259.01-2.537a28.73,28.73,0,0,1,1.076-6.111c0-1.883-.048-3.767-.115-5.641-.144-28.28,7.5-59.049,19.334-84.686C-45.742.221-45.742.221-43.09,0ZM-53.43,18.479l.961,1.922Zm-.961,2.883.961,1.922ZM-59.2,37.7l.961,2.883Zm-.961,4.8.961,1.922Zm19.219,9.609q-1.11,11.6-2.2,23.206-.519,5.391-1.028,10.782c-2.181,22.841-3.719,45.394-3.738,68.351v3.4a420.028,420.028,0,0,0,3.123,54.734c.144,1.124.288,2.249.442,3.4,1.461,11.128,3.363,22.121,5.861,33.056.192.836.384,1.682.576,2.556.192.769.375,1.537.577,2.335.154.673.317,1.336.49,2.028a11.188,11.188,0,0,0,3.584,4.67A59.476,59.476,0,0,0-32.29,249.4a93.754,93.754,0,0,1,.452-10.253c.615-7.1.855-14.212,1.047-21.333.029-.692.048-1.384.067-2.095q.577-20.309.356-40.609c-.01-1.682-.01-1.682-.019-3.392-.154-19.833-1.874-39.388-3.872-59.116q-2.162-21.448-3.613-42.953c-.058-.9-.125-1.807-.183-2.739q-.49-7.394-.961-14.8ZM-64,63.642l.961,1.922Zm25.945,2.883.961,1.922Zm-26.906,2.883v4.8H-64v-4.8Zm-.961,9.609v5.766h.961V79.017ZM-36.133,86.7v6.726h.961V86.7Zm-30.75,9.609.961,3.844Zm31.711,0V104h.961V96.314Zm.961,12.492.961,3.844Zm.961,10.57.961,2.883Zm.961,10.57.961,1.922Zm-34.594,9.609v4.8h.961v-4.8Zm35.554,1.922.961,1.922Zm-34.593,15.375V165.5h.961v-8.648Zm35.554.961v17.3h.961v-17.3Zm-34.594,13.453v5.766H-64v-5.766Zm1.922,21.14.961,1.922Zm32.672,8.648v17.3h.961v-17.3Zm-29.789,14.414v4.8h.961v-4.8Zm-333.441.961,3.844.961Zm362.269,16.336.961,1.922ZM63.8,238.53V244.3h.961V238.53ZM-32.29,244.3l.961,1.922Zm-22.1,12.492.961,3.844Zm119.155,3.844V266.4h.961v-5.766ZM-46.7,295.225l.961,3.844Zm0,11.531.961,3.844Zm-.961,5.766.961,1.922ZM64.764,321.17l.961,2.883ZM63.8,333.662l.961,1.922ZM-1084.5,339.428l3.844.961ZM62.842,341.349l.961,2.883Zm-1104.1,3.844v.961h4.8v-.961Zm132.607,0,3.844.961Zm-123.959.961v.961h6.726v-.961Zm114.349,0v.961h5.766v-.961Zm-101.858.961,3.844.961Zm92.249,0,3.843.961Zm989.752.961.961,2.883Zm-1048.369.961V350h9.609v-.961Zm22.1,0V350h9.609v-.961Zm1025.307,4.8.961,3.844Z" transform="translate(1102.758 -0.23)" fill="#e4b48d"/>
    <path id="Caminho_353" data-name="Caminho 353" transform="translate(0 -0.009)" fill="#e4b48d"/>
    <path id="Caminho_354" data-name="Caminho 354" transform="translate(0 -0.009)" fill="#e4b48d"/>
  </g>
</svg>
