<svg id="_1dcf5aec99eb376b43033674163eeae0" data-name="1dcf5aec99eb376b43033674163eeae0" xmlns="http://www.w3.org/2000/svg" width="365.512" height="58.573" viewBox="0 0 365.512 58.573">
  <path id="Caminho_423" data-name="Caminho 423" d="M-.512-.086Q4.285-.094,9.08-.1c1.485,0,2.967,0,4.452-.009q2.146,0,4.295,0l1.642-.006h2.29c.228,0,.457,0,.694,0,1.562,0,1.562,0,1.879.32.794.02,1.585,0,2.382-.017a3.7,3.7,0,0,1,1.616.3h.7a7.738,7.738,0,0,1,2.7.571,16.48,16.48,0,0,0,2.6.571l.857.286v.571l.857-.286a14.967,14.967,0,0,1,7.676,5.854,12.753,12.753,0,0,1,.891,5.283h.571v4.283c-.283.143-.283.143-.571.286.011.271.023.543.034.822-.034.891-.034.891-.605,1.462l-.286.571c-.28.48-.565.954-.857,1.428-.148.271-.294.543-.445.822a11.747,11.747,0,0,1-5.837,3.747q-.715.283-1.428.571l.286.571h.857v.571c.163-.057.323-.111.488-.171,2.242-.394,5.486,1.928,7.253,3.161,2.6,2.085,3.4,5.348,3.758,8.547.117,1.388.174,2.776.208,4.169h-.571c.006.217.014.434.02.657.006.283.011.568.014.86s.014.563.023.854a2.318,2.318,0,0,1-.628,1.628,5.452,5.452,0,0,0-.571,1.428,10.235,10.235,0,0,1-6,4.283c-.891.186-.891.186-1.142.857a16.235,16.235,0,0,1-1.713.286V55.6c-.323.029-.648.06-.982.089-1.391.154-2.761.386-4.141.625-.217.037-.431.074-.654.114a7.812,7.812,0,0,0-2.219.6c-.694.02-1.376.023-2.07.011l-.645-.009c-.705-.006-1.414-.017-2.119-.029l-1.471-.017-3.084-.043q-1.979-.026-3.958-.049-1.516-.021-3.038-.04c-.485-.009-.971-.014-1.456-.02q-1.019-.013-2.039-.029L8.98,56.8a7.218,7.218,0,0,1-2.353-.343v-.774q.009-9.3.014-18.6,0-4.5.009-9,0-3.919,0-7.839,0-2.077.006-4.152V12.185c0-.48,0-.957,0-1.436V7.684A7.257,7.257,0,0,0,5.485,3.912,10.9,10.9,0,0,0,3.771,2.77L3.2,2.2A8.425,8.425,0,0,0,1.629,2c-.28-.023-.56-.049-.848-.074A1.415,1.415,0,0,0-.512,2.2,3.308,3.308,0,0,1-.512-.086ZM15.193,4.2h-.571q-.009,4.236-.014,8.475c0,1.311,0,2.621-.009,3.932q0,1.9,0,3.8c0,.483,0,.968-.006,1.451v2.025c0,.2,0,.4,0,.611a2.079,2.079,0,0,0,.32,1.7c.817.054,1.628.089,2.444.111.246.006.491.014.742.02.52.017,1.042.031,1.562.043.8.023,1.6.049,2.393.074.505.014,1.008.029,1.513.04l.725.026c.585.011,1.171-.006,1.756-.029l.571-.571c.525-.18,1.057-.346,1.588-.5a12.923,12.923,0,0,0,7.55-6.354,12.009,12.009,0,0,0,.768-4.338c.011-.228.026-.46.04-.7.114-2.25-.662-3.692-1.95-5.531a18.129,18.129,0,0,0-2-1.713L32.041,6.2q-.711-.433-1.428-.857c-.166-.137-.328-.277-.5-.417C26.8,2.661,18.6,1.925,15.193,4.2Zm28.27,4.569.286.571ZM36.61,14.478v1.428H36.9V14.478Zm-.857,4.569.286.571ZM14.622,30.183V52.457l1.713.286.286.571a5.651,5.651,0,0,0,1.268.16,3.5,3.5,0,0,1,1.873.411c.777-.026,1.545-.066,2.319-.126.217-.014.431-.029.654-.046.531-.037,1.065-.074,1.6-.114v.571c.411-.04.822-.083,1.231-.126l.694-.069a4.285,4.285,0,0,0,1.5-.377l.994-.291c3.906-1.151,7.022-2.433,9.2-6.077a13.433,13.433,0,0,0,1.139-5.537c.011-.24.026-.48.04-.728.129-2.656-.751-4.363-2.29-6.516-.171-.183-.34-.366-.517-.554h-.571v-.571l-.517-.231a2.818,2.818,0,0,1-1.037-.768,4.8,4.8,0,0,0-1.873-1l-.857-.571h-.714c-.714,0-.714,0-1.571-.571a3.94,3.94,0,0,0-2.284.286V29.9q-2.484-.009-4.972-.014l-1.69-.009-2.43-.006-.765,0A5,5,0,0,0,14.622,30.183ZM39.18,41.034l.286.571Zm0,.857v1.428h.286V41.891Zm-.286,2.57.286.857ZM22.332,53.884v.286h1.713v-.286Z" transform="translate(93.889 1.228)" fill="#e4b48d"/>
  <path id="Caminho_424" data-name="Caminho 424" d="M-.512-.086Q4.285-.094,9.08-.1c1.485,0,2.967,0,4.452-.009q2.146,0,4.295,0l1.642-.006h2.29c.228,0,.457,0,.694,0,1.562,0,1.562,0,1.879.32.657.02,1.308,0,1.962-.017a1.885,1.885,0,0,1,1.179.3c.637.077,1.276.126,1.916.177a5.761,5.761,0,0,1,1.8.68h.857v.571c.248-.017.494-.034.748-.054a5.228,5.228,0,0,1,2.679.911c.366.188.366.188.737.377,2.679,1.394,4.715,2.878,6.117,5.62a15.243,15.243,0,0,1,.48,2.042,2,2,0,0,0,.377,1.1,19.027,19.027,0,0,1,0,6c-.026.306-.049.611-.074.928-.231,2.8-.231,2.8-1.068,3.641-.089.223-.177.448-.268.68a3.507,3.507,0,0,1-1.748,2.176c-.6.234-.6.234-.785.822-.777,1.388-2.61,1.876-4.052,2.319-.765.28-1.525.568-2.284.857V29.9H30.613l-.286.571-.571-.286c.171.294.343.588.517.891a20.446,20.446,0,0,1,1.768,3.678c.263.26.263.26.528.525A9.541,9.541,0,0,1,34.149,37.5c.788,1.391,1.6,2.758,2.442,4.118a1.588,1.588,0,0,1,.306,1.131l.428.428.428.428v.571l.428.428.428.428V45.6l.463.463c2.393,2.393,2.393,2.393,2.393,3.535l1.142.571v.571l.857.286V51.6c.62.311,1.242.62,1.868.919.251.12.5.24.757.366s.5.243.762.366c.611.348.611.348.9.919.217-.06.437-.117.66-.177.768-.109.768-.109,1.625.463a11.31,11.31,0,0,1,0,2.284l-.711.051c-1.956.148-3.906.314-5.857.52V56.74l-.982.017c-.891,0-1.77-.031-2.659-.106L39.2,56.6a3.9,3.9,0,0,1-1.736-1c-.194-.16-.391-.317-.591-.48s-.388-.331-.585-.5-.391-.328-.594-.5a4.8,4.8,0,0,1-1.085-1.662H34.04c-.525-.643-1.005-1.285-1.482-1.965l-.454-.645c-1.928-2.8-3.567-5.777-5.24-8.732-.834-1.465-1.69-2.916-2.55-4.363-.146-.246-.294-.494-.443-.748q-.42-.707-.857-1.4a6.384,6.384,0,0,1-.682-1.516C22,32.139,22,32.139,20.9,31.04H15.193l-.286,25.7H7.2c-.286-.286-.286-.286-.32-1.077,0-.534,0-.534,0-1.079v-.6q0-1,0-2c0-.477,0-.954,0-1.431,0-1.031,0-2.059,0-3.09.006-1.625.006-3.252.009-4.88q0-5.62.017-11.242.009-5.149.011-10.3,0-2.429.009-4.854,0-1.512,0-3.018c0-.468,0-.934.006-1.4V9.854c0-.537,0-.537,0-1.082a3.132,3.132,0,0,0-.32-1.719L6.912,6.2H6.341c-.029-.206-.06-.411-.089-.625A5.47,5.47,0,0,0,5.2,3.341,4.916,4.916,0,0,0,3.771,2.77L3.2,2.484V1.913l-.768.16a5.986,5.986,0,0,1-2.373-.16c-.283.143-.283.143-.571.286A3.308,3.308,0,0,1-.512-.086Zm15.42,4V26.757l.571.286c.283-.143.283-.143.571-.286v.571c.848-.143.848-.143,1.713-.286l.286.571h6.568l.286-.571c.911-.38,1.839-.7,2.77-1.025a9.41,9.41,0,0,0,2.37-1.545H30.9c.077-.177.154-.354.231-.537.34-.605.34-.605,1.2-1.176.206-.468.394-.948.571-1.428.288-.588.585-1.171.885-1.75a9.578,9.578,0,0,0,.72-3.944c.023-.346.023-.346.046-.7.014-.223.026-.448.037-.68.011-.2.026-.408.037-.617a8.479,8.479,0,0,0-.868-3.158h-.571c-.023-.154-.046-.306-.071-.463a7.834,7.834,0,0,0-1.356-2.393h-.571V7.053a11.369,11.369,0,0,0-1.5-1c-.277-.174-.557-.348-.842-.525A8.855,8.855,0,0,0,26.276,4.34c-.171-.046-.34-.094-.517-.143-.143-.283-.143-.283-.286-.571C22.2,2.507,18.2,3.09,14.908,3.912ZM41.75,8.767l.286.571Zm-7.139,6.568.286,1.142Zm-.286,2.856.286.571Zm-.286.857.286.571Zm-.286.857.286.571Zm-13.707,7.71V27.9h2v-.286Z" transform="translate(140.72 1.228)" fill="#e4b48d"/>
  <path id="Caminho_425" data-name="Caminho 425" d="M-19.921,0H-19c.328,0,.66,0,1,0h1.065q1.439,0,2.878,0c1,0,2.007,0,3.01,0q2.848,0,5.7.006L1.145.02q6.669,0,13.344.014L14.2.605l.857.286-.286.571-.286.857-.571.571-.286.857-.571.571A3.608,3.608,0,0,0,12.2,6.031l-.571.571c-.126.326-.126.326-.251.66a8.742,8.742,0,0,1-1.462,2.2l-.286.857-.571.571c-.089.223-.177.448-.268.68a7.562,7.562,0,0,1-1.159,1.89c-.143.283-.143.283-.286.571a4.9,4.9,0,0,1-.734,1.159A2.538,2.538,0,0,0,5.922,16.6l-.571.571-.286.857-.554.68A7.263,7.263,0,0,0,3.352,20.88l-.571.571c-.143.425-.143.425-.286.857-.383.477-.762.951-1.142,1.428-.143.425-.143.425-.286.857L.5,25.163c-.143.425-.143.425-.286.857l-.571.571c-.143.425-.143.425-.286.857-.283.143-.283.143-.571.286-.043.166-.083.331-.126.5A5.546,5.546,0,0,1-2.93,30.874c-.083.223-.166.448-.251.68a5.6,5.6,0,0,1-1.462,1.89c-.106.38-.2.76-.286,1.142a11.652,11.652,0,0,1-2.284,3.141A7.405,7.405,0,0,0-7.5,38.87l-.571.286c-.063.248-.063.248-.126.5a6.307,6.307,0,0,1-1.017,2.07l-.571.286c-.043.166-.083.331-.126.5a6.886,6.886,0,0,1-1.017,2.07c-.223.388-.223.388-.448.785-.408.643-.408.643-.979.928-.1.477-.194.951-.286,1.428l-.571.571c-.2.377-.391.757-.571,1.142a5.239,5.239,0,0,1-1.142,1.713q-.445.848-.857,1.713l1.131-.006q5.277-.026,10.551-.04,2.711,0,5.426-.02,2.617-.013,5.231-.014c.665,0,1.334-.006,2-.011.931-.006,1.862-.006,2.8-.006l.84-.009.768,0,.668,0c.574.106.574.106,1.431.962v3.712H-26.917c-.643-3.213-.643-3.213.263-4.592.2-.308.391-.617.594-.937l.66-.985c.223-.351.448-.7.671-1.054q.518-.818,1.045-1.636c1.114-1.728,2.15-3.5,3.178-5.274,1.925-3.324,3.9-6.611,5.9-9.886q1.739-2.857,3.427-5.737c1.259-2.153,2.564-4.28,3.861-6.411s2.587-4.272,3.844-6.431C-2.053,12.056-.58,9.655.888,7.25c.106-.171.208-.343.314-.517q.433-.707.86-1.408a9.767,9.767,0,0,0,.72-1.294c-9.189-.14-9.189-.14-18.561-.286v.571h-.571V3.747q-.9.18-1.8.374c-.334.071-.668.14-1.014.211A2.849,2.849,0,0,0-20.92,5.46a13.637,13.637,0,0,1-1.75.8c-.725.46-.822.977-1.105,1.768l-.571.286a13.709,13.709,0,0,0-1.428,5.711c-.177-.046-.354-.094-.537-.143a2.563,2.563,0,0,0-1.176-.143c-.6-1.188-.34-2.744-.34-4.052,0-.32-.009-.643-.011-.974A12.906,12.906,0,0,1-27.2,4.032c.063-.243.128-.483.194-.731A6.936,6.936,0,0,1-23.9.517,14.309,14.309,0,0,1-19.921,0ZM-27.2,4.6l.286.571Zm-.286,1.428.286,1.142Z" transform="translate(289.345 1.108)" fill="#e4b48d"/>
  <path id="Caminho_426" data-name="Caminho 426" d="M-24.66-.072H-23.6l2.853,0q1.495,0,2.99,0,2.823,0,5.651.006,3.217,0,6.436.006,6.618,0,13.236.014V.53l.857.571c-.263.388-.263.388-.534.785a16.715,16.715,0,0,0-1.179,2.07A5.122,5.122,0,0,1,5.563,5.67c-.283.425-.283.425-.571.857s-.283.425-.571.857c-.089.231-.174.46-.266.7A7.7,7.7,0,0,1,2.993,9.953c-.2.377-.388.757-.571,1.142A5.122,5.122,0,0,1,1.28,12.809c-.2.377-.388.757-.571,1.142A5.122,5.122,0,0,1-.434,15.665L-.7,16.2a5.293,5.293,0,0,1-.751,1.2,2.56,2.56,0,0,0-.7,1.408q-.415.583-.857,1.142a3.66,3.66,0,0,0-.857,1.713q-.415.583-.857,1.142l-.571.857-.571.857c-.14.425-.14.425-.286.857l-.571.571c-.14.425-.14.425-.286.857l-.571.571c-.14.425-.14.425-.286.857l-.571.571c-.14.425-.14.425-.286.857l-.571.571c-.14.425-.14.425-.286.857l-.571.571c-.08.214-.163.425-.248.643a13.726,13.726,0,0,1-1.465,2.5c-.294.568-.58,1.137-.857,1.713h-.571c-.074.254-.151.508-.231.768-.774,2.165-.774,2.165-1.768,2.659-.046.188-.094.377-.143.571s-.094.377-.143.571l-.571.286c-.046.188-.094.377-.143.571s-.094.377-.143.571l-.571.286c-.046.188-.094.377-.143.571s-.094.377-.143.571l-.571.286c-.04.166-.08.331-.123.5a6.8,6.8,0,0,1-1.019,2.07l-.445.785c-.411.643-.411.643-.982.928-.04.166-.08.331-.123.5a6.8,6.8,0,0,1-1.019,2.07,3.542,3.542,0,0,0-.857,2l1.134.009,10.551.089q2.711.026,5.426.046,2.613.021,5.231.046c.665.006,1.334.011,2,.014l2.793.026c.28,0,.557,0,.842.006l.768.009c.328,0,.328,0,.668,0a3.979,3.979,0,0,1,1.428.326V56.5a4.3,4.3,0,0,1-2.207.32H5.158l-1.165-.006H2.77L.138,56.808-4.023,56.8q-4.793,0-9.583-.014-4.39-.009-8.781-.014-2.069,0-4.138-.009-1.289,0-2.573,0l-1.194,0c-.543,0-1.085,0-1.628,0-.457,0-.457,0-.922,0a1.647,1.647,0,0,0-1.288.32,3.614,3.614,0,0,1-.286-2.284,17.212,17.212,0,0,1,1.125-1.873c1.3-1.993,2.53-4.029,3.727-6.091q2.6-4.489,5.306-8.918,2.681-4.4,5.3-8.832,2.716-4.6,5.477-9.166l1.345-2.247q2.878-4.81,5.8-9.595c.1-.166.2-.334.306-.505l.831-1.368q.677-1.114,1.345-2.233-3.975-.017-7.953-.029-1.846,0-3.692-.014-1.782-.009-3.567-.011c-.454,0-.905,0-1.359-.006q-.951,0-1.908,0l-1.094-.006A6.685,6.685,0,0,0-26.99,5.1c-.174.031-.351.06-.534.091A4.791,4.791,0,0,0-29.56,6.812c-.257.254-.517.508-.785.768a4.22,4.22,0,0,0-1.214,2.373h-.571l-.286,3.427-2-.286c-.031-1.279-.051-2.556-.071-3.835-.009-.36-.017-.72-.029-1.091a9.877,9.877,0,0,1,1.242-5.64l.286-.571h.571c.171-.177.343-.351.52-.534C-30.006-.415-27.11-.081-24.66-.072Zm-8.9,3.458.286.571Zm-.286.857.286.571Zm-.286,1.142.286.571Zm0,49.687.286.571Z" transform="translate(249.152 1.182)" fill="#e4b48d"/>
  <path id="Caminho_427" data-name="Caminho 427" d="M-59.3,0c2.556.1,2.556.1,3.569.731a6.59,6.59,0,0,1,.86,2.439,2.44,2.44,0,0,0,.711,1.4c.034.217.071.437.109.66a2.446,2.446,0,0,0,.731,1.591,9.6,9.6,0,0,1,1.3,3.569c.049.151.094.306.143.463l.571.286a7.054,7.054,0,0,1,.286,1.108,4.724,4.724,0,0,0,.857,2.033c.054.326.054.326.109.66a2.446,2.446,0,0,0,.731,1.591,9.6,9.6,0,0,1,1.3,3.569c.049.151.094.306.143.463l.571.286a7.054,7.054,0,0,1,.286,1.108,4.724,4.724,0,0,0,.857,2.033c.034.217.071.437.109.66a2.446,2.446,0,0,0,.731,1.591,8.666,8.666,0,0,1,1.159,2.89c.18.386.371.765.571,1.142.2.465.4.934.6,1.4.494,1.137,1.019,2.262,1.545,3.384l.337.734c.111.234.22.468.331.708.1.208.2.42.3.637a2.422,2.422,0,0,0,.777,1.019,2.874,2.874,0,0,1,.685,1.828l.571.286c.094.477.191.951.286,1.428l.571.286c.094.477.191.951.286,1.428l.571.286c.034.217.071.437.109.66.223.959.628,1.222,1.319,1.91.314.485.617.982.911,1.482A12.406,12.406,0,0,0-27.888,53.4v.571l.517-.2A1.113,1.113,0,0,1-26.246,54a2.569,2.569,0,0,1,.357,1.965l-.68.268a9.335,9.335,0,0,0-1.319.588c-.705.034-1.4.054-2.107.054l-.58.009a4.961,4.961,0,0,1-2.738-.634c-.951-.171-1.9-.288-2.856-.411a6.493,6.493,0,0,1-2.57-1.3V53.97l-.857-.286v-.571h-.571c-2.844-3.178-4.612-7.247-6.5-11.031a1.976,1.976,0,0,0-.64-.962c-.762-.037-1.519-.054-2.282-.06l-.725-.009-2.384-.023-1.648-.017-4.349-.043-4.429-.046q-3.23-.034-6.459-.066l-.691-.009c-.937-.009-.937-.009-1.876-.014a5.957,5.957,0,0,0-.394,1.394,3.631,3.631,0,0,1-.605,1.3,5.839,5.839,0,0,0-.714,2.159l-.571.857a12.1,12.1,0,0,0-1.713,4.569,8.874,8.874,0,0,1-.571,1.142l-.3.605c-.186.371-.368.74-.554,1.108l-.268.84a5.1,5.1,0,0,1-.874,1.73,7.789,7.789,0,0,1-1.7.071l-.917-.014A4.539,4.539,0,0,1-83,56.255a60.827,60.827,0,0,1,2.442-6.3q.724-1.666,1.439-3.338l.311-.717c1.188-2.758,2.353-5.528,3.518-8.3q4.069-9.655,8.187-19.286Q-64.692,12.664-62.286,7q.351-.822.7-1.648c.208-.491.417-.985.628-1.476Q-60.128,1.938-59.3,0Zm-.286,1.428L-59.3,2Zm-1.428,3.427.286.571Zm-.857,2,.286.571Zm8.567.857.286.571Zm-9.423,1.142.286.571ZM-63.3,9.994l.286.571Zm-.286.857.286.571Zm3.141,2a8.623,8.623,0,0,0-.857,2.284,14.877,14.877,0,0,1-.857,2l-.286.857c-.191.38-.38.762-.571,1.142l-.286.857c-.191.38-.38.762-.571,1.142l-.286.857q-.278.574-.571,1.142l-.268.537-.3.605c-.191.383-.191.383-.385.774q-.475.947-.962,1.89a28.757,28.757,0,0,0-2.51,6.2,11.636,11.636,0,0,1-1,2.556l-.32.643c-.083.166-.166.331-.251.5a7.6,7.6,0,0,0,2.71.317h.565q.925,0,1.85,0l1.282,0q1.688,0,3.375-.006,1.726,0,3.447-.006,3.38,0,6.759-.014a8.007,8.007,0,0,0,.571-1.428,8.109,8.109,0,0,0-.857-1.713c-.2-.468-.386-.937-.571-1.411q-.57-1.443-1.188-2.864c-.326-.785-.62-1.585-.919-2.382a38.033,38.033,0,0,0-1.856-4.1,18.781,18.781,0,0,1-.965-2.607,24.985,24.985,0,0,0-1.037-2.473c-.52-1.191-.965-2.413-1.416-3.632a4.81,4.81,0,0,0-.9-1.662Zm-4.569,1.428.286.571Zm2.856,1.713.286.857Zm-3.712.286.286.571ZM-49.3,17.419l.286.571Zm-13.707.571.286.857Zm-3.712.286.286.571Zm2.856,1.713.286.857Zm-3.712.286.286.571Zm-.571,1.142.286.571Zm-.286.857.286.571Zm3.712,0,.286.571ZM-69.008,23.7l.286.571Zm-.857,2,.286.571Zm24.558,1.428.286.571Zm-25.415.571.286.571Zm-.857,2,.286.571Zm-.571,1.142.286.571Zm-.286.857.286.571Zm-.571,1.428.286.571Zm-.286.571.286.571Zm3.141.857.286.857Zm-3.712.571.286.571Zm-.857,2,.286.571Zm-.857,2,.286.571Zm-.857,2,.286.571ZM-77,42.262l.286.571Zm-.286.857.286.571Zm-.571,1.428.286.571Zm-.857,2,.286.571Zm-.857,2,.286.571Zm-.571,1.142.286.571Zm-.286.857.286.571Zm-1.428,3.427.286.571Z" transform="translate(120.122 1.428)" fill="#e4b48d"/>
  <path id="Caminho_428" data-name="Caminho 428" d="M-63.585-.029c.194,0,.388-.009.588-.011.554.066.554.066,1.411.637a4.719,4.719,0,0,1,.32,1.122,10.256,10.256,0,0,0,.805,2.553,10.18,10.18,0,0,1,.588,1.356,2.011,2.011,0,0,0,.857,1.251c.166.643.271,1.288.383,1.945a3,3,0,0,0,1.045,1.482,5.359,5.359,0,0,1,.32,1.142,10.389,10.389,0,0,0,.805,2.533,10.181,10.181,0,0,1,.588,1.356,2.01,2.01,0,0,0,.857,1.251,10.252,10.252,0,0,1,.251,1.2,9.8,9.8,0,0,0,1.462,3.372c.2.565.4,1.137.571,1.713q.278.715.571,1.428c.094.251.188.505.286.768a2.047,2.047,0,0,0,.857,1.231,10.252,10.252,0,0,1,.251,1.2,9.54,9.54,0,0,0,1.462,3.372c.191.571.38,1.142.571,1.713.14.129.283.257.428.391a3.144,3.144,0,0,1,.714,1.893l.571.286c.094.474.191.951.286,1.428a7.253,7.253,0,0,0,1.713,2.57l.286.857c.186.383.377.762.571,1.142.151.311.306.623.463.945.174.351.346.7.52,1.054l.26.531a15.819,15.819,0,0,0,1.613,2.61v.571c.331.34.662.677,1.005,1.005A17.156,17.156,0,0,1-39.1,49.23c1.745,2.042,3.4,3.589,6.068,4.195V54l1.428-.286v2c-.271.089-.543.177-.822.266a5.885,5.885,0,0,0-1.462.591c-.777.02-1.545.026-2.319.017l-.654,0-1.6-.014V56.28c-.268-.057-.537-.111-.814-.168l-1.077-.226c-.351-.071-.7-.146-1.065-.22-2.744-.64-2.744-.64-3.864-1.813-.168-.174-.34-.348-.514-.528a1.126,1.126,0,0,1-.377-1.042h-.571c-.48-.64-.922-1.276-1.356-1.945-.129-.2-.257-.394-.388-.594-1.031-1.585-1.95-3.21-2.824-4.886q-.81-1.478-1.622-2.956a2.05,2.05,0,0,1-.377-1.328H-78.149l-.286.857c-.094.177-.188.354-.286.534A8.053,8.053,0,0,0-79.291,44c-.18.48-.368.957-.571,1.428h-.571c-.029.168-.057.337-.086.511a6.675,6.675,0,0,1-1.628,3.487q-.176.994-.286,2A6.864,6.864,0,0,1-83,52.568a10.765,10.765,0,0,0-.84,2.016A2.848,2.848,0,0,1-85,56.28a6.814,6.814,0,0,1-1.571.071c-.274-.006-.548-.009-.831-.014a4.482,4.482,0,0,1-1.6-.343,27.787,27.787,0,0,1,1.428-4l.571-.286q.15-.857.286-1.713c.463-1.291,1.014-2.541,1.553-3.8.143-.346.286-.688.434-1.045.208-.488.208-.488.42-.988.128-.3.254-.6.385-.905.348-.685.348-.685.919-.971q.154-.857.286-1.713c.188-.525.391-1.045.614-1.556.188-.445.188-.445.383-.9.137-.317.277-.634.417-.962s.286-.662.431-1.005q.565-1.319,1.137-2.641c.383-.882.76-1.77,1.139-2.656q.647-1.5,1.291-3c.131-.3.263-.608.4-.919.126-.291.251-.583.38-.885.266-.62.523-1.245.774-1.87.126-.311.251-.623.383-.945.111-.283.223-.563.337-.854.314-.648.314-.648.885-.934.034-.228.069-.454.1-.688a17.851,17.851,0,0,1,1.411-4.009c.123-.286.246-.574.371-.871q.591-1.375,1.185-2.75t1.171-2.727c.248-.583.5-1.162.751-1.745.748-1.736,1.476-3.475,2.167-5.234.266-.537.266-.537.837-.822.109-.568.2-1.142.286-1.713C-65.39-.077-64.556-.02-63.585-.029Zm-2,.911.286.571Zm-.286.857.286.571Zm-.857,2,.286.571ZM-67.3,4.88l.286.571Zm-.286.857.286.571Zm8,1.142.286.571Zm-10.28,4.283.286.571Zm-.571,1.142.286.571Zm3.712.286.286.571Zm-.286.857q-.158.852-.286,1.713l-.571.286c-.1.38-.2.76-.286,1.142-.283.423-.283.423-.571.857-.046.188-.094.377-.143.571a3.231,3.231,0,0,1-.714,1.428c-.046.188-.094.377-.143.571a3.231,3.231,0,0,1-.714,1.428c-.046.188-.094.377-.143.571a3.231,3.231,0,0,1-.714,1.428l-.286.857c-.191.38-.38.76-.571,1.142l-.286.857c-.089.171-.177.34-.268.517a18.253,18.253,0,0,0-.874,2.339c-.494,1.388-.494,1.388-1.142,1.713a8,8,0,0,0-.428,1.356,12.654,12.654,0,0,1-1.571,3.784v.571a7.352,7.352,0,0,0,2.736.291c.286-.006.286-.006.574-.009q.942-.013,1.879-.031l1.3-.023q1.713-.026,3.427-.057l3.5-.057q3.431-.056,6.862-.114a1.981,1.981,0,0,0-.214-2.07c-.848-1.788-1.608-3.607-2.339-5.443-.074-.188-.148-.377-.226-.568-.323-.808-.643-1.613-.962-2.422-.911-2.284-1.836-4.566-2.844-6.811-.939-2.093-1.756-4.238-2.553-6.388C-66.247,12.821-66.247,12.821-67.012,13.447Zm-3.712-.286.286.571ZM-71.3,14.3l.286.571Zm3.712,0,.286.857Zm-4,.857.286.571Zm15.991,1.428.286.571Zm-16.848.571.286.571Zm-1.428,3.427.286.571Zm-.857,2,.286.571Zm-.571,1.142.286.571Zm-.286.857.286.571ZM-51.592,26.3l.286.571Zm-26.271,3.712.286.571Zm-.857,2,.286.571Zm-.571,1.142.286.571Zm-.286.857.286.571Zm23.416,2.284.286.571Zm-25.7,3.141.286.571Zm3.712.571v.286h24.558V40Zm-4.569,1.428.286.571Zm-.857,2,.286.571Zm-.571,1.142.286.571Zm-.286.857.286.571Zm-1.428,3.427.286.571Zm-.857,2,.286.571Zm-.857,2,.286.571ZM-88.143,54l.286.571Zm-.286.857.286.571Z" transform="translate(397.115 1.688)" fill="#e4b48d"/>
  <path id="Caminho_429" data-name="Caminho 429" d="M-17.147-2.54a7.59,7.59,0,0,1,.64,3.567c0,.368,0,.737,0,1.114,0,.405-.006.808-.006,1.211V4.636q0,1.739-.009,3.475,0,1.82,0,3.635,0,3.444-.014,6.882-.009,3.919-.011,7.836-.009,8.057-.029,16.114H-16v.571h-.571c.074.668.168,1.336.286,2l.571.286c.2.377.386.76.571,1.142a3.845,3.845,0,0,0,2.57,2.284,13.621,13.621,0,0,0,2.05.066h.608c.66,0,1.319-.006,1.979-.009.46,0,.917,0,1.376,0q1.808,0,3.615-.014,1.846-.009,3.692-.011,3.619-.009,7.239-.029v.571l.857.286v3.712H-18v-.286H8.553c-.343-.408-.343-.408-1.345-.317-.485,0-.968,0-1.453,0-.394,0-.394,0-.8,0l-1.725,0c-.911.006-1.822.006-2.733.009q-3.4,0-6.8.017-2.861.009-5.728.014-1.345,0-2.687.009c-.554,0-1.108,0-1.662,0l-.748,0c-3.872,0-3.872,0-4.883-.742l-.388-.52c-.131-.171-.263-.34-.4-.514a9.827,9.827,0,0,1-.922-1.682c.143-.283.143-.283.286-.571H-24V-3.4C-18.86-3.682-18.86-3.682-17.147-2.54Z" transform="translate(24 5.11)" fill="#e4b48d"/>
  <path id="Caminho_430" data-name="Caminho 430" d="M-18.676-2.963a6.4,6.4,0,0,1,.64,3.227c0,.36,0,.722,0,1.1,0,.4-.006.8-.006,1.2V3.824q0,1.718-.009,3.435,0,1.795,0,3.589,0,3.4-.014,6.8-.009,3.868-.011,7.739-.009,7.954-.029,15.914h.571v.571H-18.1c.031.423.069.845.109,1.268.017.234.037.468.06.711.037.2.077.391.117.591l.571.286c.034.211.071.425.109.643a4.3,4.3,0,0,0,2.05,2.73,8.047,8.047,0,0,0,3.441.286c.226.017.451.037.682.054a3.237,3.237,0,0,1,.605,2.481c0,.283-.009.568-.014.86-.006.217-.014.434-.02.657q-2.133.009-4.266.014l-1.451.009-2.09.006-.645,0c-3.678,0-3.678,0-4.689-.742-.128-.171-.257-.343-.388-.52s-.263-.34-.4-.514a9.827,9.827,0,0,1-.922-1.682c.143-.283.143-.283.286-.571h-.571c-.026-.306-.026-.306-.051-.614-.037-.394-.037-.394-.074-.8-.023-.26-.046-.523-.069-.791-.023-.643-.023-.643-.377-.939-.029-.628-.037-1.256-.037-1.888v-.6c0-.674,0-1.348,0-2.019V39.345q0-1.966,0-3.929,0-2.052,0-4.1,0-3.444,0-6.888,0-3.988,0-7.976,0-3.418,0-6.833,0-2.043,0-4.089,0-1.919,0-3.841V.275c0-.643,0-1.282,0-1.922V-2.738c.037-.8.037-.8.323-1.082.868-.131,1.748-.174,2.624-.231.243-.023.485-.046.737-.066A4.244,4.244,0,0,1-18.676-2.963Zm-7.139-.571v47.4h.286v-47.4Z" transform="translate(220.564 5.533)" fill="#e4b48d"/>
  <path id="Caminho_431" data-name="Caminho 431" d="M-11.191,0H-2.91c-1.019,3.061-1.019,3.061-2,4l-.286.857c-.5,1.391-.5,1.391-1.142,1.713-.1.477-.191.951-.286,1.428l-.571.571c-.094.234-.188.471-.286.714a2.568,2.568,0,0,1-.857,1.285,6.643,6.643,0,0,0-1.428,3.141c-1.142,1.142-1.142,1.142-1.571,1.553a4.65,4.65,0,0,0-1,1.3,6.274,6.274,0,0,1-1.428,0v.571h-1.713a5.858,5.858,0,0,1,.177-3.512c.109-.348.214-.694.326-1.051s.237-.742.354-1.114.237-.76.354-1.142l.54-1.742c.591-1.888,1.145-3.784,1.693-5.683Zm.286.286.286.571Zm-.571,2,.286.571Zm-.286.857.286.571Zm-.571,2,.286.571ZM-12.619,6l.286.571Zm-.571,2,.286.571Zm-.286.857.286.571Zm-.571,2,.286.571Zm-.286.857.286.571Zm-.571,2,.286.571Zm-.286.857.286.571Z" transform="translate(91.718)" fill="#e4b48d"/>
  <path id="Caminho_432" data-name="Caminho 432" d="M-105.023-.793c-.286.286-.286.286-.971.32h-2c-.394,0-.785,0-1.179,0H-110.4q-1.679,0-3.355,0l-3.5,0q-3.32,0-6.639-.006l-7.556-.006q-7.77,0-15.546-.014V-.793q8.083-.064,16.165-.126l7.507-.06,6.539-.051c1.157-.006,2.31-.017,3.467-.026l3.258-.026,1.2-.009c.545-.006,1.088-.009,1.631-.011l.925-.009A2.131,2.131,0,0,1-105.023-.793Z" transform="translate(362.595 59.047)" fill="#e4b48d"/>
  <path id="Caminho_433" data-name="Caminho 433" d="M0,0H29.7V.286H0Z" transform="translate(227.017 53.97)" fill="#e4b48d"/>
  <path id="Caminho_434" data-name="Caminho 434" d="M0,0H.286V20.846H0Z" transform="translate(108.797 6.282)" fill="#e4b48d"/>
  <path id="Caminho_435" data-name="Caminho 435" d="M0,0H17.99V.286H0Z" transform="translate(101.373 58.254)" fill="#e4b48d"/>
  <path id="Caminho_436" data-name="Caminho 436" d="M0,0H8.281V.286H0Z" transform="translate(201.888 58.254)" fill="#e4b48d"/>
  <path id="Caminho_437" data-name="Caminho 437" d="M0,0H7.71V.286H0Z" transform="translate(147.918 58.254)" fill="#e4b48d"/>
  <path id="Caminho_438" data-name="Caminho 438" d="M0,0H4.854V.286H0Z" transform="translate(194.749 1.142)" fill="#e4b48d"/>
  <path id="Caminho_439" data-name="Caminho 439" d="M0,0H4.569V.286H0Z" transform="translate(0 1.142)" fill="#e4b48d"/>
  <path id="Caminho_440" data-name="Caminho 440" d="M0,0,2.856.571V.857H0Z" transform="translate(308.401 57.682)" fill="#e4b48d"/>
  <path id="Caminho_441" data-name="Caminho 441" d="M0,0H.286V3.712H0Z" transform="translate(210.455 54.541)" fill="#e4b48d"/>
  <path id="Caminho_442" data-name="Caminho 442" d="M0,0H2.284V.286H0Z" transform="translate(38.265 58.254)" fill="#e4b48d"/>
  <path id="Caminho_443" data-name="Caminho 443" d="M0,0H2.284V.286H0Z" transform="translate(114.223 4.569)" fill="#e4b48d"/>
  <path id="Caminho_444" data-name="Caminho 444" d="M0,0H2V.286H0Z" transform="translate(332.388 1.142)" fill="#e4b48d"/>
  <path id="Caminho_445" data-name="Caminho 445" d="M0,0H2V.286H0Z" transform="translate(61.395 1.142)" fill="#e4b48d"/>
  <path id="Caminho_446" data-name="Caminho 446" d="M0,0H1.713V.286H0Z" transform="translate(119.648 58.254)" fill="#e4b48d"/>
  <path id="Caminho_447" data-name="Caminho 447" d="M0,0H.286V1.713H0Z" transform="translate(141.922 41.977)" fill="#e4b48d"/>
  <path id="Caminho_448" data-name="Caminho 448" d="M0,0H1.713V.286H0Z" transform="translate(161.339 4.569)" fill="#e4b48d"/>
  <path id="Caminho_449" data-name="Caminho 449" d="M0,0H.286V1.428H0Z" transform="translate(108.797 51.686)" fill="#e4b48d"/>
  <path id="Caminho_450" data-name="Caminho 450" d="M-1.429,0V.857L-2,.571Z" transform="translate(81.956 14.849)" fill="#e4b48d"/>
  <path id="Caminho_451" data-name="Caminho 451" d="M-1.429,0l.286.571L-2,.286Z" transform="translate(313.542 57.968)" fill="#e4b48d"/>
  <path id="Caminho_452" data-name="Caminho 452" d="M0,0,.286,1.142Z" transform="translate(261.57 56.54)" fill="#e4b48d"/>
  <path id="Caminho_453" data-name="Caminho 453" d="M0,0,1.142.286Z" transform="translate(215.595 14.849)" fill="#e4b48d"/>
  <path id="Caminho_454" data-name="Caminho 454" d="M0,0,.571.571H0Z" transform="translate(37.408 57.968)" fill="#e4b48d"/>
  <path id="Caminho_455" data-name="Caminho 455" d="M0,0,.857.286Z" transform="translate(356.374 57.682)" fill="#e4b48d"/>
  <path id="Caminho_456" data-name="Caminho 456" d="M0,0,.857.286Z" transform="translate(125.645 57.682)" fill="#e4b48d"/>
  <path id="Caminho_457" data-name="Caminho 457" d="M0,0,.857.286Z" transform="translate(85.667 57.682)" fill="#e4b48d"/>
  <path id="Caminho_458" data-name="Caminho 458" d="M0,0,.857.286Z" transform="translate(355.232 57.397)" fill="#e4b48d"/>
  <path id="Caminho_459" data-name="Caminho 459" fill="#e4b48d"/>
  <path id="Caminho_460" data-name="Caminho 460" fill="#e4b48d"/>
  <path id="Caminho_461" data-name="Caminho 461" fill="#e4b48d"/>
  <path id="Caminho_462" data-name="Caminho 462" d="M0,0,.857.286Z" transform="translate(77.957 16.562)" fill="#e4b48d"/>
  <path id="Caminho_463" data-name="Caminho 463" fill="#e4b48d"/>
  <path id="Caminho_464" data-name="Caminho 464" d="M0,0,.857.286Z" transform="translate(156.77 5.14)" fill="#e4b48d"/>
  <path id="Caminho_465" data-name="Caminho 465" d="M0,0,.857.286Z" transform="translate(119.648 5.14)" fill="#e4b48d"/>
  <path id="Caminho_466" data-name="Caminho 466" d="M0,0,.857.286Z" transform="translate(109.939 5.14)" fill="#e4b48d"/>
  <path id="Caminho_467" data-name="Caminho 467" d="M0,0,.571.286Z" transform="translate(201.032 58.254)" fill="#e4b48d"/>
  <path id="Caminho_468" data-name="Caminho 468" d="M0,0,.571.286Z" transform="translate(187.611 58.254)" fill="#e4b48d"/>
  <path id="Caminho_469" data-name="Caminho 469" d="M0,0,.571.286Z" transform="translate(183.327 58.254)" fill="#e4b48d"/>
  <path id="Caminho_470" data-name="Caminho 470" d="M0,0,.571.286Z" transform="translate(182.471 58.254)" fill="#e4b48d"/>
  <path id="Caminho_471" data-name="Caminho 471" d="M0,0,.571.286Z" transform="translate(40.835 58.254)" fill="#e4b48d"/>
  <path id="Caminho_472" data-name="Caminho 472" d="M0,0,.571.286Z" transform="translate(188.753 57.968)" fill="#e4b48d"/>
  <path id="Caminho_473" data-name="Caminho 473" d="M0,0,.571.286Z" transform="translate(181.328 57.968)" fill="#e4b48d"/>
  <path id="Caminho_474" data-name="Caminho 474" d="M0,0,.571.286Z" transform="translate(124.217 57.968)" fill="#e4b48d"/>
  <path id="Caminho_475" data-name="Caminho 475" d="M0,0,.571.286Z" transform="translate(87.095 57.968)" fill="#e4b48d"/>
  <path id="Caminho_476" data-name="Caminho 476" d="M0,0,.571.286Z" transform="translate(364.656 57.682)" fill="#e4b48d"/>
  <path id="Caminho_477" data-name="Caminho 477" d="M0,0,.571.286Z" transform="translate(198.176 57.682)" fill="#e4b48d"/>
  <path id="Caminho_478" data-name="Caminho 478" d="M0,0,.571.286Z" transform="translate(179.901 57.682)" fill="#e4b48d"/>
  <path id="Caminho_479" data-name="Caminho 479" d="M0,0,.571.286Z" transform="translate(93.948 57.682)" fill="#e4b48d"/>
  <path id="Caminho_480" data-name="Caminho 480" d="M0,0,.571.286Z" transform="translate(3.141 57.682)" fill="#e4b48d"/>
  <path id="Caminho_481" data-name="Caminho 481" d="M0,0,.571.286Z" transform="translate(84.525 57.397)" fill="#e4b48d"/>
  <path id="Caminho_482" data-name="Caminho 482" d="M0,0,.571.286Z" transform="translate(128.786 57.111)" fill="#e4b48d"/>
  <path id="Caminho_483" data-name="Caminho 483" d="M0,0,.571.286Z" transform="translate(129.643 56.826)" fill="#e4b48d"/>
  <path id="Caminho_484" data-name="Caminho 484" d="M0,0,.571.286Z" transform="translate(131.642 56.255)" fill="#e4b48d"/>
  <path id="Caminho_485" data-name="Caminho 485" fill="#e4b48d"/>
  <path id="Caminho_486" data-name="Caminho 486" d="M0,0,.571.286Z" transform="translate(134.212 55.112)" fill="#e4b48d"/>
  <path id="Caminho_487" data-name="Caminho 487" fill="#e4b48d"/>
  <path id="Caminho_488" data-name="Caminho 488" fill="#e4b48d"/>
  <path id="Caminho_489" data-name="Caminho 489" fill="#e4b48d"/>
  <path id="Caminho_490" data-name="Caminho 490" fill="#e4b48d"/>
  <path id="Caminho_491" data-name="Caminho 491" fill="#e4b48d"/>
  <path id="Caminho_492" data-name="Caminho 492" fill="#e4b48d"/>
  <path id="Caminho_493" data-name="Caminho 493" fill="#e4b48d"/>
  <path id="Caminho_494" data-name="Caminho 494" fill="#e4b48d"/>
  <path id="Caminho_495" data-name="Caminho 495" d="M0,0,.571.286Z" transform="translate(124.788 32.268)" fill="#e4b48d"/>
  <path id="Caminho_496" data-name="Caminho 496" d="M0,0,.571.286Z" transform="translate(122.218 31.697)" fill="#e4b48d"/>
  <path id="Caminho_497" data-name="Caminho 497" d="M0,0,.571.286Z" transform="translate(119.934 31.411)" fill="#e4b48d"/>
  <path id="Caminho_498" data-name="Caminho 498" d="M0,0,.571.286Z" transform="translate(172.191 31.126)" fill="#e4b48d"/>
  <path id="Caminho_499" data-name="Caminho 499" d="M0,0,.571.286Z" transform="translate(173.904 30.555)" fill="#e4b48d"/>
  <path id="Caminho_500" data-name="Caminho 500" fill="#e4b48d"/>
  <path id="Caminho_501" data-name="Caminho 501" d="M0,0,.571.286Z" transform="translate(175.903 29.698)" fill="#e4b48d"/>
  <path id="Caminho_502" data-name="Caminho 502" fill="#e4b48d"/>
  <path id="Caminho_503" data-name="Caminho 503" fill="#e4b48d"/>
  <path id="Caminho_504" data-name="Caminho 504" fill="#e4b48d"/>
  <path id="Caminho_505" data-name="Caminho 505" fill="#e4b48d"/>
  <path id="Caminho_506" data-name="Caminho 506" fill="#e4b48d"/>
  <path id="Caminho_507" data-name="Caminho 507" fill="#e4b48d"/>
  <path id="Caminho_508" data-name="Caminho 508" fill="#e4b48d"/>
  <path id="Caminho_509" data-name="Caminho 509" fill="#e4b48d"/>
  <path id="Caminho_510" data-name="Caminho 510" fill="#e4b48d"/>
  <path id="Caminho_511" data-name="Caminho 511" fill="#e4b48d"/>
  <path id="Caminho_512" data-name="Caminho 512" fill="#e4b48d"/>
  <path id="Caminho_513" data-name="Caminho 513" d="M0,0,.571.286Z" transform="translate(269.28 5.711)" fill="#e4b48d"/>
  <path id="Caminho_514" data-name="Caminho 514" d="M0,0,.571.286Z" transform="translate(121.933 5.711)" fill="#e4b48d"/>
  <path id="Caminho_515" data-name="Caminho 515" d="M0,0,.571.286Z" transform="translate(155.914 5.426)" fill="#e4b48d"/>
  <path id="Caminho_516" data-name="Caminho 516" d="M0,0,.571.286Z" transform="translate(120.79 5.426)" fill="#e4b48d"/>
  <path id="Caminho_517" data-name="Caminho 517" d="M0,0,.571.286Z" transform="translate(272.135 5.14)" fill="#e4b48d"/>
  <path id="Caminho_518" data-name="Caminho 518" d="M0,0,.571.286Z" transform="translate(225.304 5.14)" fill="#e4b48d"/>
  <path id="Caminho_519" data-name="Caminho 519" d="M0,0,.571.286Z" transform="translate(159.055 4.854)" fill="#e4b48d"/>
  <path id="Caminho_520" data-name="Caminho 520" d="M0,0,.571.286Z" transform="translate(118.506 4.854)" fill="#e4b48d"/>
  <path id="Caminho_521" data-name="Caminho 521" fill="#e4b48d"/>
  <path id="Caminho_522" data-name="Caminho 522" d="M0,0,.571.286Z" transform="translate(143.064 3.427)" fill="#e4b48d"/>
  <path id="Caminho_523" data-name="Caminho 523" fill="#e4b48d"/>
  <path id="Caminho_524" data-name="Caminho 524" fill="#e4b48d"/>
  <path id="Caminho_525" data-name="Caminho 525" fill="#e4b48d"/>
  <path id="Caminho_526" data-name="Caminho 526" fill="#e4b48d"/>
  <path id="Caminho_527" data-name="Caminho 527" fill="#e4b48d"/>
  <path id="Caminho_528" data-name="Caminho 528" fill="#e4b48d"/>
  <path id="Caminho_529" data-name="Caminho 529" fill="#e4b48d"/>
  <path id="Caminho_530" data-name="Caminho 530" fill="#e4b48d"/>
  <path id="Caminho_531" data-name="Caminho 531" fill="#e4b48d"/>
  <path id="Caminho_532" data-name="Caminho 532" fill="#e4b48d"/>
  <path id="Caminho_533" data-name="Caminho 533" fill="#e4b48d"/>
  <path id="Caminho_534" data-name="Caminho 534" fill="#e4b48d"/>
  <path id="Caminho_535" data-name="Caminho 535" fill="#e4b48d"/>
  <path id="Caminho_536" data-name="Caminho 536" fill="#e4b48d"/>
  <path id="Caminho_537" data-name="Caminho 537" fill="#e4b48d"/>
  <path id="Caminho_538" data-name="Caminho 538" fill="#e4b48d"/>
  <path id="Caminho_539" data-name="Caminho 539" fill="#e4b48d"/>
  <path id="Caminho_540" data-name="Caminho 540" fill="#e4b48d"/>
  <path id="Caminho_541" data-name="Caminho 541" fill="#e4b48d"/>
  <path id="Caminho_542" data-name="Caminho 542" fill="#e4b48d"/>
  <path id="Caminho_543" data-name="Caminho 543" fill="#e4b48d"/>
  <path id="Caminho_544" data-name="Caminho 544" fill="#e4b48d"/>
  <path id="Caminho_545" data-name="Caminho 545" fill="#e4b48d"/>
  <path id="Caminho_546" data-name="Caminho 546" fill="#e4b48d"/>
  <path id="Caminho_547" data-name="Caminho 547" fill="#e4b48d"/>
  <path id="Caminho_548" data-name="Caminho 548" fill="#e4b48d"/>
  <path id="Caminho_549" data-name="Caminho 549" fill="#e4b48d"/>
  <path id="Caminho_550" data-name="Caminho 550" fill="#e4b48d"/>
  <path id="Caminho_551" data-name="Caminho 551" fill="#e4b48d"/>
  <path id="Caminho_552" data-name="Caminho 552" fill="#e4b48d"/>
  <path id="Caminho_553" data-name="Caminho 553" fill="#e4b48d"/>
  <path id="Caminho_554" data-name="Caminho 554" fill="#e4b48d"/>
  <path id="Caminho_555" data-name="Caminho 555" fill="#e4b48d"/>
  <path id="Caminho_556" data-name="Caminho 556" fill="#e4b48d"/>
  <path id="Caminho_557" data-name="Caminho 557" fill="#e4b48d"/>
  <path id="Caminho_558" data-name="Caminho 558" fill="#e4b48d"/>
  <path id="Caminho_559" data-name="Caminho 559" fill="#e4b48d"/>
  <path id="Caminho_560" data-name="Caminho 560" fill="#e4b48d"/>
  <path id="Caminho_561" data-name="Caminho 561" fill="#e4b48d"/>
  <path id="Caminho_562" data-name="Caminho 562" fill="#e4b48d"/>
  <path id="Caminho_563" data-name="Caminho 563" fill="#e4b48d"/>
  <path id="Caminho_564" data-name="Caminho 564" fill="#e4b48d"/>
  <path id="Caminho_565" data-name="Caminho 565" fill="#e4b48d"/>
  <path id="Caminho_566" data-name="Caminho 566" fill="#e4b48d"/>
  <path id="Caminho_567" data-name="Caminho 567" fill="#e4b48d"/>
  <path id="Caminho_568" data-name="Caminho 568" fill="#e4b48d"/>
  <path id="Caminho_569" data-name="Caminho 569" fill="#e4b48d"/>
  <path id="Caminho_570" data-name="Caminho 570" fill="#e4b48d"/>
  <path id="Caminho_571" data-name="Caminho 571" fill="#e4b48d"/>
  <path id="Caminho_572" data-name="Caminho 572" fill="#e4b48d"/>
  <path id="Caminho_573" data-name="Caminho 573" fill="#e4b48d"/>
  <path id="Caminho_574" data-name="Caminho 574" fill="#e4b48d"/>
  <path id="Caminho_575" data-name="Caminho 575" fill="#e4b48d"/>
  <path id="Caminho_576" data-name="Caminho 576" fill="#e4b48d"/>
  <path id="Caminho_577" data-name="Caminho 577" fill="#e4b48d"/>
  <path id="Caminho_578" data-name="Caminho 578" fill="#e4b48d"/>
  <path id="Caminho_579" data-name="Caminho 579" fill="#e4b48d"/>
  <path id="Caminho_580" data-name="Caminho 580" fill="#e4b48d"/>
  <path id="Caminho_581" data-name="Caminho 581" fill="#e4b48d"/>
  <path id="Caminho_582" data-name="Caminho 582" fill="#e4b48d"/>
  <path id="Caminho_583" data-name="Caminho 583" fill="#e4b48d"/>
  <path id="Caminho_584" data-name="Caminho 584" fill="#e4b48d"/>
  <path id="Caminho_585" data-name="Caminho 585" fill="#e4b48d"/>
  <path id="Caminho_586" data-name="Caminho 586" fill="#e4b48d"/>
  <path id="Caminho_587" data-name="Caminho 587" fill="#e4b48d"/>
  <path id="Caminho_588" data-name="Caminho 588" fill="#e4b48d"/>
  <path id="Caminho_589" data-name="Caminho 589" fill="#e4b48d"/>
  <path id="Caminho_590" data-name="Caminho 590" fill="#e4b48d"/>
  <path id="Caminho_591" data-name="Caminho 591" fill="#e4b48d"/>
  <path id="Caminho_592" data-name="Caminho 592" fill="#e4b48d"/>
  <path id="Caminho_593" data-name="Caminho 593" fill="#e4b48d"/>
  <path id="Caminho_594" data-name="Caminho 594" fill="#e4b48d"/>
  <path id="Caminho_595" data-name="Caminho 595" fill="#e4b48d"/>
  <path id="Caminho_596" data-name="Caminho 596" fill="#e4b48d"/>
  <path id="Caminho_597" data-name="Caminho 597" fill="#e4b48d"/>
  <path id="Caminho_598" data-name="Caminho 598" fill="#e4b48d"/>
  <path id="Caminho_599" data-name="Caminho 599" fill="#e4b48d"/>
  <path id="Caminho_600" data-name="Caminho 600" fill="#e4b48d"/>
  <path id="Caminho_601" data-name="Caminho 601" fill="#e4b48d"/>
  <path id="Caminho_602" data-name="Caminho 602" fill="#e4b48d"/>
  <path id="Caminho_603" data-name="Caminho 603" fill="#e4b48d"/>
  <path id="Caminho_604" data-name="Caminho 604" fill="#e4b48d"/>
  <path id="Caminho_605" data-name="Caminho 605" fill="#e4b48d"/>
  <path id="Caminho_606" data-name="Caminho 606" fill="#e4b48d"/>
  <path id="Caminho_607" data-name="Caminho 607" fill="#e4b48d"/>
  <path id="Caminho_608" data-name="Caminho 608" fill="#e4b48d"/>
  <path id="Caminho_609" data-name="Caminho 609" fill="#e4b48d"/>
  <path id="Caminho_610" data-name="Caminho 610" fill="#e4b48d"/>
  <path id="Caminho_611" data-name="Caminho 611" fill="#e4b48d"/>
  <path id="Caminho_612" data-name="Caminho 612" fill="#e4b48d"/>
  <path id="Caminho_613" data-name="Caminho 613" fill="#e4b48d"/>
  <path id="Caminho_614" data-name="Caminho 614" fill="#e4b48d"/>
  <path id="Caminho_615" data-name="Caminho 615" fill="#e4b48d"/>
  <path id="Caminho_616" data-name="Caminho 616" fill="#e4b48d"/>
  <path id="Caminho_617" data-name="Caminho 617" fill="#e4b48d"/>
  <path id="Caminho_618" data-name="Caminho 618" fill="#e4b48d"/>
  <path id="Caminho_619" data-name="Caminho 619" fill="#e4b48d"/>
  <path id="Caminho_620" data-name="Caminho 620" fill="#e4b48d"/>
  <path id="Caminho_621" data-name="Caminho 621" fill="#e4b48d"/>
  <path id="Caminho_622" data-name="Caminho 622" fill="#e4b48d"/>
  <path id="Caminho_623" data-name="Caminho 623" fill="#e4b48d"/>
  <path id="Caminho_624" data-name="Caminho 624" fill="#e4b48d"/>
  <path id="Caminho_625" data-name="Caminho 625" fill="#e4b48d"/>
  <path id="Caminho_626" data-name="Caminho 626" fill="#e4b48d"/>
  <path id="Caminho_627" data-name="Caminho 627" fill="#e4b48d"/>
  <path id="Caminho_628" data-name="Caminho 628" fill="#e4b48d"/>
  <path id="Caminho_629" data-name="Caminho 629" fill="#e4b48d"/>
  <path id="Caminho_630" data-name="Caminho 630" fill="#e4b48d"/>
  <path id="Caminho_631" data-name="Caminho 631" fill="#e4b48d"/>
  <path id="Caminho_632" data-name="Caminho 632" fill="#e4b48d"/>
  <path id="Caminho_633" data-name="Caminho 633" fill="#e4b48d"/>
  <path id="Caminho_634" data-name="Caminho 634" fill="#e4b48d"/>
  <path id="Caminho_635" data-name="Caminho 635" fill="#e4b48d"/>
  <path id="Caminho_636" data-name="Caminho 636" fill="#e4b48d"/>
  <path id="Caminho_637" data-name="Caminho 637" fill="#e4b48d"/>
  <path id="Caminho_638" data-name="Caminho 638" fill="#e4b48d"/>
  <path id="Caminho_639" data-name="Caminho 639" fill="#e4b48d"/>
  <path id="Caminho_640" data-name="Caminho 640" fill="#e4b48d"/>
  <path id="Caminho_641" data-name="Caminho 641" fill="#e4b48d"/>
  <path id="Caminho_642" data-name="Caminho 642" fill="#e4b48d"/>
  <path id="Caminho_643" data-name="Caminho 643" fill="#e4b48d"/>
  <path id="Caminho_644" data-name="Caminho 644" fill="#e4b48d"/>
  <path id="Caminho_645" data-name="Caminho 645" fill="#e4b48d"/>
  <path id="Caminho_646" data-name="Caminho 646" fill="#e4b48d"/>
  <path id="Caminho_647" data-name="Caminho 647" fill="#e4b48d"/>
  <path id="Caminho_648" data-name="Caminho 648" fill="#e4b48d"/>
  <path id="Caminho_649" data-name="Caminho 649" fill="#e4b48d"/>
  <path id="Caminho_650" data-name="Caminho 650" fill="#e4b48d"/>
  <path id="Caminho_651" data-name="Caminho 651" fill="#e4b48d"/>
  <path id="Caminho_652" data-name="Caminho 652" fill="#e4b48d"/>
  <path id="Caminho_653" data-name="Caminho 653" fill="#e4b48d"/>
  <path id="Caminho_654" data-name="Caminho 654" fill="#e4b48d"/>
  <path id="Caminho_655" data-name="Caminho 655" fill="#e4b48d"/>
  <path id="Caminho_656" data-name="Caminho 656" fill="#e4b48d"/>
  <path id="Caminho_657" data-name="Caminho 657" fill="#e4b48d"/>
  <path id="Caminho_658" data-name="Caminho 658" fill="#e4b48d"/>
  <path id="Caminho_659" data-name="Caminho 659" fill="#e4b48d"/>
  <path id="Caminho_660" data-name="Caminho 660" fill="#e4b48d"/>
  <path id="Caminho_661" data-name="Caminho 661" fill="#e4b48d"/>
  <path id="Caminho_662" data-name="Caminho 662" fill="#e4b48d"/>
  <path id="Caminho_663" data-name="Caminho 663" fill="#e4b48d"/>
  <path id="Caminho_664" data-name="Caminho 664" fill="#e4b48d"/>
  <path id="Caminho_665" data-name="Caminho 665" fill="#e4b48d"/>
  <path id="Caminho_666" data-name="Caminho 666" fill="#e4b48d"/>
  <path id="Caminho_667" data-name="Caminho 667" fill="#e4b48d"/>
  <path id="Caminho_668" data-name="Caminho 668" fill="#e4b48d"/>
  <path id="Caminho_669" data-name="Caminho 669" fill="#e4b48d"/>
  <path id="Caminho_670" data-name="Caminho 670" fill="#e4b48d"/>
  <path id="Caminho_671" data-name="Caminho 671" fill="#e4b48d"/>
  <path id="Caminho_672" data-name="Caminho 672" fill="#e4b48d"/>
  <path id="Caminho_673" data-name="Caminho 673" fill="#e4b48d"/>
  <path id="Caminho_674" data-name="Caminho 674" fill="#e4b48d"/>
  <path id="Caminho_675" data-name="Caminho 675" fill="#e4b48d"/>
  <path id="Caminho_676" data-name="Caminho 676" fill="#e4b48d"/>
  <path id="Caminho_677" data-name="Caminho 677" fill="#e4b48d"/>
  <path id="Caminho_678" data-name="Caminho 678" fill="#e4b48d"/>
  <path id="Caminho_679" data-name="Caminho 679" fill="#e4b48d"/>
  <path id="Caminho_680" data-name="Caminho 680" fill="#e4b48d"/>
  <path id="Caminho_681" data-name="Caminho 681" fill="#e4b48d"/>
  <path id="Caminho_682" data-name="Caminho 682" fill="#e4b48d"/>
  <path id="Caminho_683" data-name="Caminho 683" fill="#e4b48d"/>
  <path id="Caminho_684" data-name="Caminho 684" fill="#e4b48d"/>
  <path id="Caminho_685" data-name="Caminho 685" fill="#e4b48d"/>
  <path id="Caminho_686" data-name="Caminho 686" fill="#e4b48d"/>
  <path id="Caminho_687" data-name="Caminho 687" fill="#e4b48d"/>
  <path id="Caminho_688" data-name="Caminho 688" fill="#e4b48d"/>
  <path id="Caminho_689" data-name="Caminho 689" fill="#e4b48d"/>
  <path id="Caminho_690" data-name="Caminho 690" fill="#e4b48d"/>
  <path id="Caminho_691" data-name="Caminho 691" fill="#e4b48d"/>
  <path id="Caminho_692" data-name="Caminho 692" fill="#e4b48d"/>
  <path id="Caminho_693" data-name="Caminho 693" fill="#e4b48d"/>
  <path id="Caminho_694" data-name="Caminho 694" fill="#e4b48d"/>
  <path id="Caminho_695" data-name="Caminho 695" fill="#e4b48d"/>
  <path id="Caminho_696" data-name="Caminho 696" fill="#e4b48d"/>
  <path id="Caminho_697" data-name="Caminho 697" fill="#e4b48d"/>
  <path id="Caminho_698" data-name="Caminho 698" fill="#e4b48d"/>
  <path id="Caminho_699" data-name="Caminho 699" fill="#e4b48d"/>
  <path id="Caminho_700" data-name="Caminho 700" fill="#e4b48d"/>
  <path id="Caminho_701" data-name="Caminho 701" fill="#e4b48d"/>
  <path id="Caminho_702" data-name="Caminho 702" fill="#e4b48d"/>
  <path id="Caminho_703" data-name="Caminho 703" fill="#e4b48d"/>
  <path id="Caminho_704" data-name="Caminho 704" fill="#e4b48d"/>
  <path id="Caminho_705" data-name="Caminho 705" fill="#e4b48d"/>
  <path id="Caminho_706" data-name="Caminho 706" fill="#e4b48d"/>
  <path id="Caminho_707" data-name="Caminho 707" fill="#e4b48d"/>
  <path id="Caminho_708" data-name="Caminho 708" fill="#e4b48d"/>
  <path id="Caminho_709" data-name="Caminho 709" fill="#e4b48d"/>
  <path id="Caminho_710" data-name="Caminho 710" fill="#e4b48d"/>
  <path id="Caminho_711" data-name="Caminho 711" fill="#e4b48d"/>
  <path id="Caminho_712" data-name="Caminho 712" fill="#e4b48d"/>
  <path id="Caminho_713" data-name="Caminho 713" fill="#e4b48d"/>
  <path id="Caminho_714" data-name="Caminho 714" fill="#e4b48d"/>
  <path id="Caminho_715" data-name="Caminho 715" fill="#e4b48d"/>
  <path id="Caminho_716" data-name="Caminho 716" fill="#e4b48d"/>
  <path id="Caminho_717" data-name="Caminho 717" fill="#e4b48d"/>
  <path id="Caminho_718" data-name="Caminho 718" fill="#e4b48d"/>
  <path id="Caminho_719" data-name="Caminho 719" fill="#e4b48d"/>
  <path id="Caminho_720" data-name="Caminho 720" fill="#e4b48d"/>
  <path id="Caminho_721" data-name="Caminho 721" fill="#e4b48d"/>
  <path id="Caminho_722" data-name="Caminho 722" fill="#e4b48d"/>
  <path id="Caminho_723" data-name="Caminho 723" fill="#e4b48d"/>
  <path id="Caminho_724" data-name="Caminho 724" fill="#e4b48d"/>
  <path id="Caminho_725" data-name="Caminho 725" fill="#e4b48d"/>
  <path id="Caminho_726" data-name="Caminho 726" fill="#e4b48d"/>
  <path id="Caminho_727" data-name="Caminho 727" fill="#e4b48d"/>
  <path id="Caminho_728" data-name="Caminho 728" fill="#e4b48d"/>
  <path id="Caminho_729" data-name="Caminho 729" fill="#e4b48d"/>
  <path id="Caminho_730" data-name="Caminho 730" fill="#e4b48d"/>
  <path id="Caminho_731" data-name="Caminho 731" fill="#e4b48d"/>
  <path id="Caminho_732" data-name="Caminho 732" fill="#e4b48d"/>
  <path id="Caminho_733" data-name="Caminho 733" fill="#e4b48d"/>
  <path id="Caminho_734" data-name="Caminho 734" fill="#e4b48d"/>
  <path id="Caminho_735" data-name="Caminho 735" fill="#e4b48d"/>
  <path id="Caminho_736" data-name="Caminho 736" fill="#e4b48d"/>
  <path id="Caminho_737" data-name="Caminho 737" fill="#e4b48d"/>
  <path id="Caminho_738" data-name="Caminho 738" fill="#e4b48d"/>
  <path id="Caminho_739" data-name="Caminho 739" fill="#e4b48d"/>
  <path id="Caminho_740" data-name="Caminho 740" fill="#e4b48d"/>
  <path id="Caminho_741" data-name="Caminho 741" fill="#e4b48d"/>
  <path id="Caminho_742" data-name="Caminho 742" fill="#e4b48d"/>
  <path id="Caminho_743" data-name="Caminho 743" fill="#e4b48d"/>
  <path id="Caminho_744" data-name="Caminho 744" fill="#e4b48d"/>
  <path id="Caminho_745" data-name="Caminho 745" fill="#e4b48d"/>
  <path id="Caminho_746" data-name="Caminho 746" fill="#e4b48d"/>
  <path id="Caminho_747" data-name="Caminho 747" fill="#e4b48d"/>
  <path id="Caminho_748" data-name="Caminho 748" fill="#e4b48d"/>
  <path id="Caminho_749" data-name="Caminho 749" fill="#e4b48d"/>
  <path id="Caminho_750" data-name="Caminho 750" fill="#e4b48d"/>
  <path id="Caminho_751" data-name="Caminho 751" fill="#e4b48d"/>
  <path id="Caminho_752" data-name="Caminho 752" fill="#e4b48d"/>
  <path id="Caminho_753" data-name="Caminho 753" fill="#e4b48d"/>
  <path id="Caminho_754" data-name="Caminho 754" fill="#e4b48d"/>
  <path id="Caminho_755" data-name="Caminho 755" fill="#e4b48d"/>
  <path id="Caminho_756" data-name="Caminho 756" fill="#e4b48d"/>
  <path id="Caminho_757" data-name="Caminho 757" fill="#e4b48d"/>
  <path id="Caminho_758" data-name="Caminho 758" fill="#e4b48d"/>
  <path id="Caminho_759" data-name="Caminho 759" fill="#e4b48d"/>
  <path id="Caminho_760" data-name="Caminho 760" fill="#e4b48d"/>
  <path id="Caminho_761" data-name="Caminho 761" fill="#e4b48d"/>
  <path id="Caminho_762" data-name="Caminho 762" fill="#e4b48d"/>
  <path id="Caminho_763" data-name="Caminho 763" fill="#e4b48d"/>
  <path id="Caminho_764" data-name="Caminho 764" fill="#e4b48d"/>
  <path id="Caminho_765" data-name="Caminho 765" fill="#e4b48d"/>
  <path id="Caminho_766" data-name="Caminho 766" fill="#e4b48d"/>
  <path id="Caminho_767" data-name="Caminho 767" fill="#e4b48d"/>
  <path id="Caminho_768" data-name="Caminho 768" fill="#e4b48d"/>
  <path id="Caminho_769" data-name="Caminho 769" fill="#e4b48d"/>
  <path id="Caminho_770" data-name="Caminho 770" fill="#e4b48d"/>
  <path id="Caminho_771" data-name="Caminho 771" fill="#e4b48d"/>
  <path id="Caminho_772" data-name="Caminho 772" fill="#e4b48d"/>
  <path id="Caminho_773" data-name="Caminho 773" fill="#e4b48d"/>
</svg>
