<svg xmlns="http://www.w3.org/2000/svg" width="1280.788" height="1238" viewBox="0 0 1280.788 1238">
  <g id="location" transform="translate(0.528)">
    <path id="Caminho_375" data-name="Caminho 375" d="M0,0C1.84,0,1.84,0,3.72-.01,6.3-.01,8.89,0,11.47,0c3.9.02,7.8,0,11.69-.01C40.01-.02,56.02.78,72.48,4.54c3.64.84,7.3,1.53,10.98,2.2a22.958,22.958,0,0,1,4.61,1.5,53.918,53.918,0,0,0,8.2,2.4,131.392,131.392,0,0,1,21,7.19c4.05,1.72,8.18,3.09,12.37,4.44v2c1.05.18,2.1.37,3.19.56,5.39,1.32,9.96,4.07,14.76,6.78a26.754,26.754,0,0,0,5.82,2.75c2.23.91,2.23.91,4.23,2.91,1.52.9,3.07,1.77,4.63,2.62.81.45,1.63.89,2.47,1.35.63.34,1.26.68,1.9,1.03v2c.81.2,1.61.41,2.44.62a45.416,45.416,0,0,1,12.56,7.38v2c1.49-.5,1.49-.5,3-1,.33.72.66,1.44,1,2.18,2.38,3.34,4.82,4.74,8.36,6.7.81.55.81.55,1.64,1.12v2c.88.38.88.38,1.78.78a22.052,22.052,0,0,1,5.78,4.72,35.738,35.738,0,0,0,6.44,5.5c.93,1.01,1.83,2.06,2.7,3.13A182.322,182.322,0,0,0,225.6,93.1l1.97,1.94,1.79,1.73c1.28,1.5,1.28,1.5,1.28,3.5h2c1.49,2.97,1.49,2.97,3,6h2c1.03,1.64,2.02,3.32,3,5,1.58,1.99,3.17,3.97,4.79,5.93,1.48,2.52,1.43,4.2,1.21,7.07.57.18,1.13.37,1.71.57,3.3,2.06,4.93,5.05,6.92,8.3.39.63.78,1.25,1.19,1.9a84.177,84.177,0,0,1,4.33,7.55c.84,1.87.84,1.87,2.85,3.68,2.04,4.24,3.45,8.23,3,13h2c5.11,7.66,8.21,16.28,11,25,6.09.22,11.16-.02,17-2,14.01-4.5,14.01-4.5,19-2v-2c.75-.13,1.5-.25,2.27-.37,6.61-1.08,13.17-2.29,19.73-3.63q3.75-.765,7.5-1.5l3.91-.79c1.18-.23,2.37-.47,3.59-.71.88-.18,1.75-.36,2.66-.54q5.46-1.08,10.93-2.18c2.61-.52,5.22-1.05,7.83-1.57,2.04-.41,4.09-.81,6.13-1.21,1.12-.22,1.12-.22,2.26-.44.79-.15,1.57-.3,2.37-.46,2.27-.49,4.49-1.03,6.73-1.62,16.46-4.17,33.91-4.94,50.35-.01a126.112,126.112,0,0,0,15.8,2.88,74.013,74.013,0,0,1,12.94,3.15c3.13.6,6.28,1.05,9.44,1.5a113.15,113.15,0,0,1,16.56,3.5,30.05,30.05,0,0,0,4.13.43,106.153,106.153,0,0,1,14.55,2.81c3.1.71,6.18,1.26,9.32,1.76,5.33.84,10.53,2.03,15.78,3.28,3.07.68,6.12,1.23,9.22,1.72,6.41,1.01,12.68,2.51,19,4q3.84.885,7.69,1.75c1.16.26,2.32.52,3.51.79,2.75.73,2.75.73,4.8-.54v2c.57.03,1.14.07,1.73.11a109.732,109.732,0,0,1,18.58,3.36c2.65.8,2.65.8,4.69-.47v2c.61.04,1.21.09,1.84.14,9.6.86,18.8,2.97,28.18,5.17,6.36,1.46,12.77,2.48,19.21,3.49a83.68,83.68,0,0,1,10.15,2.17,134.134,134.134,0,0,0,14.75,2.96c7.38,1.25,14.65,2.62,21.93,4.41,4.45.99,8.94,1.61,13.46,2.23,2.48.43,2.48.43,3.48,1.43,1.34.27,2.69.49,4.04.68.83.12,1.66.25,2.51.37l5.22.75a75.476,75.476,0,0,1,13.23,3.2c3.15.6,6.32,1.05,9.5,1.5a84.171,84.171,0,0,1,15.5,3.5c3.15.6,6.32,1.05,9.5,1.5a83.987,83.987,0,0,1,15.5,3.5c2.94.55,5.91.96,8.88,1.37,22.07,3.28,22.07,3.28,30.12,7.63l3,1a14.833,14.833,0,0,1,4,5c.62.08,1.24.16,1.88.25,2.12.75,2.12.75,3.68,3.68.48,1.01.95,2.02,1.44,3.07l3,2c1.05,2.31,2.06,4.64,3,7l1,1c.1,1.97.13,3.94.13,5.91,0,1.3,0,2.6.01,3.94-.01,1.46-.01,2.92-.01,4.38v4.63q.015,6.42.01,12.83c-.01,4.64,0,9.28,0,13.92q.015,12.21.01,24.43v36.32q.015,34.32.02,68.64v52.99q0,7.6.01,15.22v3.83q0,53.265.01,106.54v34.66q0,64.71.02,129.43,0,16.3.01,32.61v2.03q.015,54.165.01,108.33v19.02q0,30.24.01,60.49.015,30.36.01,60.74-.015,18.06.01,36.13,0,12.045-.01,24.09,0,6.87.01,13.75,0,6.255-.01,12.49c0,1.51,0,3.01.01,4.52q0,3.03-.01,6.08v3.42c-.25,2.63-.25,2.63-2.25,4.63-.47,1.13-.95,2.26-1.44,3.43-1.39,3.18-2.04,4.43-4.56,6.57-.76.78-1.53,1.56-2.31,2.37-5.85,5.71-11.1,10.22-19.42,10.95-1.28-.02-2.57-.05-3.89-.07-.69-.02-1.38-.03-2.09-.04-18.5-.42-18.5-.42-21.29-3.21a15.166,15.166,0,0,0-4-.07c-3.8.16-3.8.16-6-.93-3.34-.49-6.68-.9-10.03-1.31-2.97-.69-2.97-.69-4.97-3.69a12.091,12.091,0,0,0-4.31-.07,63.927,63.927,0,0,1-18.69-1.93l-2-3a12.091,12.091,0,0,0-4.31-.07,63.927,63.927,0,0,1-18.69-1.93l-2-3a12.091,12.091,0,0,0-4.31-.07,63.927,63.927,0,0,1-18.69-1.93l-2-3a12.091,12.091,0,0,0-4.31-.07,63.927,63.927,0,0,1-18.69-1.93l-2-3a12.091,12.091,0,0,0-4.31-.07,71.3,71.3,0,0,1-18.69-1.93l-2-2a19.692,19.692,0,0,0-4.56-.07c-1.48.06-2.96.09-4.44.07l-1-1c-3.32-.5-6.66-.91-10-1.31-3-.69-3-.69-5-3.69a12.091,12.091,0,0,0-4.31-.07,71.3,71.3,0,0,1-18.69-1.93l-2-2a19.692,19.692,0,0,0-4.56-.07c-1.48.06-2.96.09-4.44.07l-1-1c-3.32-.5-6.66-.91-10-1.31-3-.69-3-.69-5-3.69a12.091,12.091,0,0,0-4.31-.07,71.3,71.3,0,0,1-18.69-1.93l-2-2a19.692,19.692,0,0,0-4.56-.07c-1.48.06-2.96.09-4.44.07l-1-1c-3.32-.54-6.66-.97-10-1.41-3-.59-3-.59-5-2.59a19.692,19.692,0,0,0-4.56-.07c-1.48.06-2.96.09-4.44.07l-1-1c-3.32-.54-6.66-.97-10-1.41-3-.59-3-.59-5-2.59a19.693,19.693,0,0,0-4.56-.07c-1.48.06-2.96.09-4.44.07l-1-1c-3.32-.54-6.66-.97-10-1.41-3-.59-3-.59-5-2.59a19.693,19.693,0,0,0-4.56-.07c-1.48.06-2.96.09-4.44.07l-1-1c-3.32-.54-6.66-.97-10-1.41-3-.59-3-.59-5-2.59a19.693,19.693,0,0,0-4.56-.07c-1.48.06-2.96.09-4.44.07l-1-1c-3.32-.54-6.66-.97-10-1.41-3-.59-3-.59-5-2.59a72.3,72.3,0,0,0-7.37.25l-2.04.12a21.57,21.57,0,0,0-9.59,2.63c-6.92,1.17-14,1.13-21,1l-1,3a103.958,103.958,0,0,1-24,2l-1,3a103.958,103.958,0,0,1-24,2l-1,3c-1.26.19-1.26.19-2.55.4-1.1.17-2.2.35-3.32.53-1.64.26-1.64.26-3.31.53-2.76.39-2.76.39-4.82,1.54-2.17.27-4.34.44-6.52.62a14.463,14.463,0,0,0-5.18,1.32c-5,1.6-10.12,2.18-15.31,2.91a56.814,56.814,0,0,0-9.99,2.15c-4.88,1.62-9.93,2.13-15.01,2.85a56.814,56.814,0,0,0-9.99,2.15c-4.88,1.62-9.93,2.13-15.01,2.85a56.814,56.814,0,0,0-9.99,2.15c-4.88,1.62-9.93,2.13-15.01,2.85a56.814,56.814,0,0,0-9.99,2.15c-4.88,1.62-9.93,2.13-15.01,2.85a56.814,56.814,0,0,0-9.99,2.15c-4.88,1.62-9.93,2.13-15.01,2.85a56.814,56.814,0,0,0-9.99,2.15c-4.88,1.62-9.93,2.13-15.01,2.85a67.8,67.8,0,0,0-12.99,3.15,106.96,106.96,0,0,1-20,1l-1,3c-1.26.19-1.26.19-2.55.4-1.1.17-2.2.35-3.32.53-1.64.26-1.64.26-3.31.53-2.76.39-2.76.39-4.82,1.54-2.17.27-4.34.44-6.52.62a14.463,14.463,0,0,0-5.18,1.32c-5,1.6-10.12,2.18-15.31,2.91a73.668,73.668,0,0,0-12.99,3.15c-3.13.6-6.28,1.05-9.44,1.5-1.64.23-3.29.47-4.93.71-.72.11-1.44.21-2.19.31a26.984,26.984,0,0,0-5.79,1.52c-6.12,1.6-12.18,1.01-18.46.77-1.35-.03-2.7-.07-4.05-.1-1.9-.06-1.9-.06-3.85-.13l-3.51-.12c-1.38-.23-1.38-.23-2.78-.46l-2-3a15.409,15.409,0,0,0-4.87-.07,57.669,57.669,0,0,1-18.13-1.93l-2-3a15.409,15.409,0,0,0-4.87-.07,57.669,57.669,0,0,1-18.13-1.93l-2-3a15.409,15.409,0,0,0-4.87-.07,64.359,64.359,0,0,1-18.13-1.93l-2-2v-1c-.65.02-1.31.04-1.98.07a77,77,0,0,1-21.02-2.07l-2-2v-1c-.65.02-1.31.04-1.98.07a77,77,0,0,1-21.02-2.07l-2-2v-1c-.65.02-1.31.04-1.98.07-7.42.14-16.24.31-23.02-3.07-1.5-.21-3-.37-4.5-.5-4.28-.39-4.28-.39-6.5-1.5-1.99-.37-4-.7-6-1-5.78-.89-5.78-.89-8-2-1.5-.21-3-.37-4.5-.5-4.28-.39-4.28-.39-6.5-1.5-1.99-.37-4-.7-6-1-5.78-.89-5.78-.89-8-2-1.5-.21-3-.37-4.5-.5-4.28-.39-4.28-.39-6.5-1.5-1.99-.37-4-.7-6-1-5.78-.89-5.78-.89-8-2-1.5-.21-3-.37-4.5-.5-4.28-.39-4.28-.39-6.5-1.5-2.49-.28-4.99-.45-7.49-.63a9.979,9.979,0,0,1-4.51-1.37c-2.45-1.23-4.46-1.38-7.19-1.57-4.71-.34-4.71-.34-5.81-1.43-2.48-.29-4.96-.45-7.46-.63a19.7,19.7,0,0,1-6.54-2.37,32.71,32.71,0,0,0-5.19-.57c-4.71-.34-4.71-.34-5.81-1.43-2.48-.29-4.96-.45-7.46-.63a19.7,19.7,0,0,1-6.54-2.37,32.71,32.71,0,0,0-5.19-.57c-4.71-.34-4.71-.34-5.81-1.43-2.48-.29-4.96-.45-7.46-.63a19.7,19.7,0,0,1-6.54-2.37,32.71,32.71,0,0,0-5.19-.57c-4.71-.34-4.71-.34-5.81-1.43-2.48-.29-4.96-.45-7.46-.63a19.7,19.7,0,0,1-6.54-2.37,32.71,32.71,0,0,0-5.19-.57c-4.71-.34-4.71-.34-5.81-1.43-2.48-.29-4.96-.45-7.46-.63a9.953,9.953,0,0,1-4.55-1.38c-2.42-1.21-4.29-1.3-6.99-1.43-11.23-.9-20.85-3.42-29-11.56l-2-1c-1-.99-1.95-2.02-2.87-3.07-.5-.54-.99-1.09-1.5-1.66-6-8.37-6.2-15.28-6.13-25.37,0-1.55-.01-3.1-.02-4.65q-.015-6.405.01-12.81.015-6.96-.01-13.92-.015-12.21,0-24.41.03-18.15.01-36.29-.03-32.415,0-64.82.015-28.35.01-56.72V842.5q0-53.265.02-106.52v-2.03q0-16.3.02-32.61.03-64.665.01-129.33V537.39q-.015-54.15.01-108.32V410.05q.015-28.335,0-56.69,0-32.22.02-64.44.015-18.045.01-36.09-.015-12.045.01-24.08.015-6.87,0-13.74-.015-6.24.02-12.49c0-1.49,0-2.99-.01-4.49-.04-9.15.28-15.1,5.39-22.76h2c.12-.79.25-1.57.38-2.38.62-2.62.62-2.62,2.62-4.62.8-.31,1.61-.62,2.44-.94,2.55-.86,2.55-.86,3.97-2.53,5.14-4.96,13.42-5.02,20.15-4.91.87.01,1.73.02,2.62.02a114.169,114.169,0,0,1,23.82,3.36c1.58.35,3.17.7,4.75,1.06.67.15,1.35.31,2.04.47,2.77.58,5.54,1.02,8.34,1.47a109.643,109.643,0,0,1,12.87,3c1.83.32,3.65.62,5.48.91,6.12,1,12.2,2.17,18.27,3.4,1.6.32,1.6.32,3.23.65q8.295,1.665,16.56,3.4c1.58.33,1.58.33,3.19.67,1.98.42,3.97.84,5.95,1.27,5.94,1.25,11.89,2.31,17.89,3.24a11.306,11.306,0,0,1,4.43,1.46c1.87.07,3.75.08,5.63.06l3.03-.03,2.34-.03c.18-.66.36-1.31.55-1.98a69.044,69.044,0,0,1,5.45-14.02q1.035-2.49,2-5h2c-.04-.77-.08-1.53-.12-2.32.12-2.68.12-2.68,2.12-5.68.39-1.66.73-3.33,1-5h2v-2h2l1-5h2v-5l2-1c.31-.79.62-1.57.94-2.38,1.09-2.69,2.06-3.62,4.06-5.62.52-1.04,1.03-2.07,1.56-3.13,1.44-2.87,1.44-2.87,3.44-3.87.31-.79.62-1.57.94-2.38,1.1-2.72,2.04-3.6,4.06-5.62.69-1.18,1.35-2.37,2-3.57,2-3.43,2-3.43,5-5.43a19.114,19.114,0,0,0,2.91-4.96,23.648,23.648,0,0,1,4.57-5.79c.72-.71,1.43-1.43,2.16-2.17.77-.76,1.53-1.53,2.33-2.31.78-.8,1.57-1.59,2.39-2.4q2.49-2.5,5.01-5,3.84-3.84,7.67-7.68l4.86-4.86c.77-.77,1.53-1.54,2.32-2.33.72-.71,1.43-1.42,2.17-2.15.62-.62,1.25-1.25,1.9-1.89,2.32-1.98,4.84-2.51,7.71-3.46v-2a63.106,63.106,0,0,1,11-8l2-2c.8-.31,1.61-.62,2.44-.94a13.981,13.981,0,0,0,5.56-4.06c1.63-1.06,3.31-2.05,5-3,.73-.43,1.47-.86,2.22-1.31.79-.45,1.59-.91,2.41-1.38.75-.44,1.51-.88,2.28-1.33,2.09-.98,2.09-.98,5.09-.98l1-3h4v-2q2.34-1.275,4.69-2.5c.87-.47,1.74-.93,2.63-1.41a14.878,14.878,0,0,1,7.68-1.09v-2c.62-.25,1.24-.49,1.87-.74,4.36-1.72,8.65-3.5,12.88-5.51a17.813,17.813,0,0,1,10.25-1.75v-2a77.14,77.14,0,0,1,16-4c1.4-.46,2.8-.94,4.19-1.44a75.008,75.008,0,0,1,13.91-3.1c2.48-.4,4.89-.89,7.34-1.46A134.55,134.55,0,0,1,0,0ZM-14.36,75.27l-1,3c-1.28.19-1.28.19-2.59.4-1.1.17-2.21.35-3.35.53-1.65.26-1.65.26-3.34.53-2.62.25-2.62.25-3.72,1.54-1.15.12-2.31.24-3.5.37a38.163,38.163,0,0,0-9.12,2.19,23.328,23.328,0,0,1-10.38,1.44l-1,3a69.828,69.828,0,0,1-11.12,4.25,83.022,83.022,0,0,0-17.88,8.75l-1,2c-.68.26-1.36.53-2.06.81a51.343,51.343,0,0,0-9.17,5.16c-2.38,1.38-3.98,1.03-6.77,1.03.5,1.98.5,1.98,1,4-.76.43-1.53.86-2.31,1.31-2.65,1.5-2.65,1.5-4.25,3.37-1.44,1.32-1.44,1.32-5.44,1.32v3c-.82.34-.82.34-1.67.68-4.78,2.7-8.44,7.09-12.29,10.96-1.59,1.6-3.19,3.17-4.8,4.75l-3.06,3.06c-.92.92-1.84,1.84-2.79,2.78a36.248,36.248,0,0,0-5.39,8.77,24.846,24.846,0,0,1-4,2l-2,3a30.975,30.975,0,0,1-4,2l2,2c-.49.61-.99,1.23-1.5,1.87-1.69,1.96-1.69,1.96-1.5,4.13-1.48.49-1.48.49-3,1h2q-1.56,2.625-3.12,5.27c-1.03,1.7-1.03,1.7-.88,3.73-1.48.49-1.48.49-3,1l-1,5h-2a106.34,106.34,0,0,0-4.44,11.43,77.771,77.771,0,0,1-5.56,12.57l-2-1v2.37a36,36,0,0,1-1.66,10.65c-.53,2.18-.53,2.18.66,4.98h-2c-.31,1.09-.62,2.18-.94,3.31-.64,2.24-1.32,4.47-2.06,6.69-.22,2.05-.41,4.12-.56,6.18-.09,1.09-.17,2.18-.26,3.3-.09,1.24-.09,1.24-.18,2.52h-3q-.12,10.83-.16,21.68-.03,3.69-.07,7.38-.045,5.28-.06,10.58c-.02,1.11-.03,2.21-.05,3.35v3.1c-.01.9-.01,1.8-.02,2.73.12.72.24,1.44.36,2.18l3,2a28.055,28.055,0,0,1,.56,5.5c0,4.25,0,4.25,2.44,7.5.4,1.98.74,3.99,1,6h2c-.02.61-.05,1.23-.07,1.86-.02.81-.04,1.62-.05,2.45-.04,1.2-.04,1.2-.07,2.42.03,2.55.03,2.55,2.19,5.27.69,2.23,1.33,4.48,1.94,6.75a74.285,74.285,0,0,0,3.69,11.18,63.334,63.334,0,0,1,3.37,10.07h2c-.08.66-.16,1.32-.25,2,.29,3.52,1.45,5.59,3.1,8.66a87.544,87.544,0,0,1,4.22,11.11c.72,2.39.72,2.39,2.93,3.23a49.615,49.615,0,0,1,1.63,5.56c.39,1.52.39,1.52.78,3.06.2.79.39,1.57.59,2.38h2l-1,4,2,1c.73,1.64,1.39,3.31,2,5,.37.92.74,1.85,1.13,2.81.43,1.08.43,1.08.87,2.19h2c.5,3.46.5,3.46,1,7h2v6h2c.52,2.06,1.02,4.1,1.44,6.18.18.6.37,1.2.56,1.82l2,1c.69,1.65,1.35,3.32,2,5,.74,1.23.74,1.23,1.5,2.5a21.471,21.471,0,0,1,2.44,4.93,16.388,16.388,0,0,0,3.12,5.63,18.123,18.123,0,0,1,2.94,6.94c.48.47.95.94,1.44,1.43,1.98,1.99,2.56,3.95,3.56,6.57.5.82.99,1.65,1.5,2.5a47.813,47.813,0,0,1,3.5,7.5,85.5,85.5,0,0,0,6,11c1.01,2.33,1.96,4.68,2.9,7.03,1,2.31,1,2.31,4.1,2.97a16.329,16.329,0,0,1,1.19,4.06q.24,1.1.48,2.22c.11.57.22,1.13.33,1.72h2c.31,1.45.31,1.45.63,2.93,1.17,4.24,3.47,7.43,6.03,10.95a17.947,17.947,0,0,1,2.34,6.12l2,1c.27.68.54,1.36.81,2.06,1.71,4.21,3.99,9.83,8.19,11.94.23.97.45,1.93.69,2.93,1.16,4.62,3.91,7.98,6.75,11.73a14.289,14.289,0,0,1,2.56,6.34h2c.1.78.21,1.56.31,2.37.47,2.96.47,2.96,3.69,4.63q1.05,2.475,2,5c1.52,2.36,3.13,4.63,4.76,6.91,1.24,2.09,1.24,2.09,1.24,5.09l2,1c.31.82.62,1.65.94,2.5.35.82.7,1.65,1.06,2.5l3,1c.74,1.97,1.39,3.98,2,6q1.455,3.015,3,6l1.06,2.18a26.32,26.32,0,0,0,2.94,4.82h2c.1.78.21,1.56.31,2.37.47,2.96.47,2.96,3.69,4.63.68,1.66,1.35,3.32,2,5,.5.49.99.99,1.5,1.5,1.5,1.5,1.5,1.5,2.4,3.8a47.557,47.557,0,0,0,5.76,9.51,19.127,19.127,0,0,1,2.34,6.19c.99.74.99.74,2,1.5,2,1.5,2,1.5,2.75,3.68.08.6.17,1.2.25,1.82h2c.1.78.21,1.56.31,2.37.47,2.96.47,2.96,3.69,4.63.68,1.66,1.35,3.32,2,5,.5.49.99.99,1.5,1.5,1.5,1.5,1.5,1.5,2.5,4.06.86,2.75.86,2.75,4,4.44.68,1.66,1.35,3.32,2,5,.48.47.95.94,1.44,1.43,2.2,2.2,3.26,4.77,4.56,7.57a6.768,6.768,0,0,0,4-1c2.3-3.76,2.3-3.76,3-8h2c.27-.77.54-1.53.81-2.32a15.868,15.868,0,0,1,4.19-5.68c.52-1.04,1.03-2.07,1.56-3.13,1.44-2.87,1.44-2.87,3.44-3.87a84.57,84.57,0,0,0,3-8h2c.25-.71.5-1.41.75-2.13a34.228,34.228,0,0,1,7.25-10.87c.31-.81.62-1.61.94-2.44,1.06-2.56,1.06-2.56,2.5-3.94,2.37-2.47,3.26-5.42,4.5-8.57,1.06-2.05,1.06-2.05,4.06-4.05.68-1.67,1.35-3.33,2-5l3-3c.35-1.33.69-2.67,1-4l2-1c.31-.79.62-1.57.94-2.38,1.06-2.62,1.06-2.62,2.69-4.19,1.83-1.58,1.83-1.58,1.37-5.43h2c2.2-3.81,2.2-3.81,3-8h2c.27-.73.54-1.45.81-2.19a28.614,28.614,0,0,1,2.82-5.5c1.54-2.15,1.54-2.15,1.37-4.31l3-1v-4c.64-.25,1.28-.5,1.94-.75,2.24-1.05,2.24-1.05,2.69-3.25.12-.66.24-1.32.37-2l2-2c.68-1.67,1.34-3.34,2-5,.54-.89,1.07-1.78,1.63-2.69,1.54-2.15,1.54-2.15,1.37-4.31l3-1v-4h2c.27-.74.54-1.48.82-2.24a34.968,34.968,0,0,1,4.06-7.01,63.214,63.214,0,0,0,6.24-11.74,58.347,58.347,0,0,1,3.88-7.01v-2h2l1-5h2a43.313,43.313,0,0,0,3-10l3-1c.72-1.65,1.38-3.32,2-5l2-2v-4h2c2.03-3.73,3-5.67,3-10l3-1a21.288,21.288,0,0,0,2-4.82,24.564,24.564,0,0,1,3.63-7.32c1.67-1.88,1.67-1.88,1.37-4.86h2c.12-.64.25-1.28.38-1.94.31-1.02.31-1.02.62-2.06l2-1v-5h2l1-5h2v-5h2l1-5h2v-5h2c.27-.61.53-1.21.81-1.83.35-.8.7-1.6,1.07-2.42.34-.79.69-1.58,1.05-2.4.97-2.14,2.02-4.24,3.07-6.35q.975-2.19,1.94-4.38c1.19-2.71,2.42-5.31,3.81-7.94,1.53-2.79,1.53-2.79,1.25-6.68h2a56.737,56.737,0,0,0,3.88-8.69,100.669,100.669,0,0,1,5.1-11.73c1.27-2.74,1.27-2.74,1.02-6.58l2-1-1-2h2c.29-1.18.29-1.18.59-2.38l.79-3.06c.25-1.01.51-2.02.77-3.06.85-2.5.85-2.5,2.85-3.5.76-2.15,1.44-4.32,2.06-6.5,1.85-6.41,1.85-6.41,2.94-7.5.04-1.67.04-3.34,0-5l2-1a29.431,29.431,0,0,0,3-15h2l1-11h2v-9h2c2.73-22.03,2.83-43.12-1-65-.33-2-.67-4-1-6h-2c.21-.71.41-1.41.63-2.13.46-3.54-.44-5.52-1.63-8.87-.63-2.11-1.25-4.21-1.87-6.32a99.283,99.283,0,0,0-5.05-13.27c-2.26-5.04-4.13-10.25-6.08-15.41h-2c-.27-1.08-.54-2.15-.81-3.25a20.682,20.682,0,0,0-4.19-7.75q-1.32-2.265-2.56-4.57c-1.4-2.58-2.81-4.99-4.44-7.43h-2c-.21-.85-.41-1.7-.62-2.57-1.73-4.32-4.28-7.04-7.38-10.43-.68-.87-1.36-1.74-2.06-2.63a32.486,32.486,0,0,0-4.44-4.87,37.831,37.831,0,0,1-4.69-5.32c-.59-.72-1.19-1.44-1.81-2.18h-2v-2a26.865,26.865,0,0,0-3.56-3.25c-.74-.63-1.47-1.25-2.23-1.9-1.09-.92-1.09-.92-2.21-1.85-1.15-1-2.29-2-3.44-3-3.32-2.85-6.76-5.54-10.22-8.2q-2.385-1.845-4.74-3.7c-6.26-5.35-6.26-5.35-13.66-8.54-1.94-.56-1.94-.56-3.65-2.4-2.76-2.6-5.44-3.79-8.91-5.29-6.18-2.68-6.18-2.68-8.38-4.87q-3-.54-6-1c-3.81-1.22-4.72-1.58-7-5a16.471,16.471,0,0,0-4.94-.63c-7.13-.44-7.13-.44-10.06-3.37-2.33-.05-4.67-.05-7,0l-1-1c-1.56-.16-3.12-.28-4.69-.38a24,24,0,0,1-11.31-3.62v-1Zm-22,5v1h7v-1Zm101,0,4,1Zm-129,10,4,1Zm326,56,1,3Zm-404,4v3l2-1v-2Zm-89,1,1,2Zm79,11,1,3Zm-18,33,1,3,2-1v-2Zm-8,28,1,2Zm-169,22v801c8.25,1.9,16.46,3.74,24.75,5.37,2.19.44,4.39.87,6.58,1.31,1.11.21,2.21.43,3.35.66q7.92,1.56,15.82,3.16c2.08.41,4.17.83,6.25,1.25l18.75,3.75c1.02.2,2.05.41,3.1.62q4.71.93,9.4,1.88c1.09.21,2.17.43,3.29.65l6.6,1.32q3.2.645,6.41,1.28,6.6,1.335,13.22,2.66c6.3,1.27,12.62,2.49,18.95,3.62,6.5,1.19,12.95,2.56,19.41,3.97,4.32.93,8.62,1.76,13,2.43,4.64.74,9.14,1.81,13.68,3a185.486,185.486,0,0,0,20.22,3.92c6.35.95,12.58,2.27,18.84,3.73,5.66,1.3,11.31,2.25,17.07,3.02,2.31.4,2.31.4,3.31,1.4,2.83.47,5.66.9,8.5,1.31,6.52.97,12.91,2.16,19.31,3.75a169.584,169.584,0,0,0,19.25,3.51,69.609,69.609,0,0,1,9.94,2.43c3.04.53,6.09,1.01,9.15,1.49a38.582,38.582,0,0,1,6.54,1.63,26.639,26.639,0,0,0,8.02.93c.8-.01,1.61-.02,2.44-.02l1.85-.03q.18-64.56.26-129.1,0-7.635.02-15.25v-3.06q.03-24.57.11-49.13.06-25.215.08-50.42.015-15.54.07-31.1.045-10.665.03-21.33-.015-6.165.03-12.31.03-5.64.01-11.28c-.01-1.99.01-3.99.04-5.99-.07-7.68-1.18-12.76-5.65-19.03-.75-1.15-1.5-2.3-2.25-3.44-.58-.85-1.15-1.69-1.75-2.56l-1-2h-2c-.27-.93-.54-1.86-.81-2.82-1.18-3.15-1.92-3.93-4.19-6.18a36.936,36.936,0,0,1-1.94-3.88,43.185,43.185,0,0,0-6.06-9.12c-.96-1.67-1.92-3.34-2.86-5.02-1.35-2.36-2.79-4.64-4.26-6.92-.5-.77-1-1.55-1.51-2.34-.45-.57-.9-1.14-1.37-1.72h-2c-.1-.73-.2-1.46-.3-2.21a18.77,18.77,0,0,0-3.89-7.48c-2.44-3.36-4.71-6.73-6.81-10.31-2.02-3.45-4.17-6.7-6.5-9.94a86.223,86.223,0,0,1-6.31-10.25,156.773,156.773,0,0,0-9.59-15.42c-2.75-4.04-5.21-8.14-7.6-12.39-.99-1.49-.99-1.49-2-3h-2c-.11-.73-.22-1.46-.34-2.22a22.592,22.592,0,0,0-3.28-7.41c-.55-.88-1.09-1.75-1.65-2.66q-1.68-2.625-3.37-5.25c-3.59-5.56-6.98-11.2-10.23-16.96-.59-1.05-.59-1.05-1.2-2.11a48.194,48.194,0,0,1-3.93-8.39h-2v-2h-2c-.19-1.46-.19-1.46-.37-2.94-.21-1.01-.42-2.02-.63-3.06l-2-1c-.87-1.56-1.67-3.15-2.44-4.75a116.442,116.442,0,0,0-5.56-10.25c-.47-.97-.95-1.94-1.44-2.94a28.258,28.258,0,0,0-3.5-5.94,57.923,57.923,0,0,1-3.93-6.87c-1.5-3.08-3.15-5.97-4.94-8.88a179.842,179.842,0,0,1-8.48-16.08,91.065,91.065,0,0,0-5.71-9.29c-.78-1.45-1.54-2.9-2.25-4.38-.33-.69-.67-1.38-1.01-2.09-.25-.5-.49-1.01-.74-1.53h-2c-.06-.83-.12-1.65-.19-2.5-.9-3.9-2.43-6.34-4.61-9.63a35.472,35.472,0,0,1-3.2-6.87c-1.91-4.08-4.01-8.04-6.25-11.94-2.9-5.15-5.35-10.5-7.81-15.86-1.57-3.41-3.19-6.72-5.08-9.96a39.137,39.137,0,0,1-3.48-7.56c-1.08-3.66-1.08-3.66-3.38-5.68-.7-1.55-1.33-3.11-1.94-4.69-2.7-7.03-5.75-13.84-9-20.63-2.91-6.15-5.64-12.32-8.06-18.68-2.24-5.71-4.55-11.35-7.17-16.9a39.167,39.167,0,0,1-1.83-7.1c-.61-1.93-1.25-3.85-1.94-5.75-.34-.97-.67-1.93-1.02-2.93-.81-2.48-.81-2.48-3.04-3.32.09-.96.09-.96.19-1.94-.3-4.94-2.12-9.4-3.95-13.97a97.323,97.323,0,0,1-4.49-15.75c-.53-2.38-1.11-4.76-1.71-7.12-1.19-4.73-2.15-9.5-3.1-14.29-.18-.86-.35-1.72-.53-2.6-.17-.84-.33-1.69-.51-2.56-.15-.75-.3-1.5-.45-2.27a108.856,108.856,0,0,1-1.7-17.74c-.03-1.56-.06-3.12-.1-4.67-.04-2.44-.09-4.87-.13-7.3-.04-2.36-.09-4.73-.14-7.09-.01-.73-.02-1.46-.03-2.21-.09-3.69-.25-5.34-2.35-8.49a16.742,16.742,0,0,0-4.87-.57,20,20,0,0,1-9.13-2.43,32.714,32.714,0,0,0-5.19-.57c-4.71-.34-4.71-.34-5.81-1.43-2.48-.29-4.96-.45-7.46-.63a19.7,19.7,0,0,1-6.54-2.37,32.714,32.714,0,0,0-5.19-.57c-4.71-.34-4.71-.34-5.81-1.43-2.48-.29-4.96-.45-7.46-.63a9.65,9.65,0,0,1-4.54-1.4c-2.54-1.24-4.44-1.17-7.25-1.1l-2.7.06c-.68.02-1.35.04-2.05.07l-1-2Zm13,0v1h6v-1Zm695,0-1,3c-8.05,1.29-15.84,2.33-24,2l-1,3c-8.05,1.29-15.84,2.33-24,2l-1,3c-.82.09-1.64.19-2.48.29-1.08.15-2.16.3-3.27.46-1.07.13-2.13.27-3.23.42-3.7,1.01-4.78,1.71-7.02,4.83a53.679,53.679,0,0,0-.57,9.98c-.02.96-.03,1.93-.05,2.93-.04,3.09-.05,6.18-.07,9.27s-.06,6.21-.1,9.31c-.02,1.93-.04,3.86-.05,5.79,0,.86-.01,1.73-.02,2.63,0,.76,0,1.53-.01,2.32-.13,1.77-.13,1.77-1.13,2.77-.28,2.54-.45,5.09-.62,7.65-.38,2.35-.38,2.35-2.38,4.35a30.537,30.537,0,0,0-.44,5.12,34.654,34.654,0,0,1-2.81,11.85,38.609,38.609,0,0,0-1.69,6.96,44.135,44.135,0,0,1-4.05,11.63,68.948,68.948,0,0,0-3.3,11.83c-.71,2.61-.71,2.61-2.71,5.61a27.222,27.222,0,0,0-1,3.93,30.791,30.791,0,0,1-3,8.07v2l-3,1c.22.52.45,1.05.68,1.59.48,3.55-.92,5.67-2.49,8.84-3.62,6.49-3.62,6.49-5.19,13.57l-3,1q.375.795.75,1.62c.39,3.65-1.67,5.46-3.75,8.38-.72,1.64-1.4,3.3-2,5l-2-1v2.37a44.612,44.612,0,0,1-1,9.63h-2a43.021,43.021,0,0,0-3,10h-2a43.021,43.021,0,0,0-3,10h-2c-.26.67-.53,1.35-.8,2.04-.36.89-.71,1.79-1.07,2.71-.35.88-.7,1.76-1.06,2.67a48.4,48.4,0,0,1-2.17,4.77,8.078,8.078,0,0,0-1.34,3.99c-.18.6-.37,1.2-.56,1.82l-3,1v4l-2,1c-.16.82-.33,1.65-.5,2.5-.16.82-.33,1.65-.5,2.5l-2,1a37.373,37.373,0,0,0-3,10h-2a43.021,43.021,0,0,0-3,10h-2a43.022,43.022,0,0,0-3,10h-2c-.36,1.01-.36,1.01-.73,2.04-1.88,4.99-3.42,8.23-7.27,11.96a51.968,51.968,0,0,0-5,13h-2c-.39,1.01-.78,2.02-1.19,3.06a43.238,43.238,0,0,1-5.68,9.3,28.621,28.621,0,0,0-3.13,6.64l-2,2v2l-1,2a27.826,27.826,0,0,1-4,1v2l2,1c-.49.43-.99.86-1.5,1.31-1.83,1.68-1.83,1.68-1.5,4.69h-2c-.45,1.13-.91,2.26-1.37,3.43-1.63,3.57-1.63,3.57-3.63,4.57-1.13,2.54-2.04,5.11-2.94,7.75-.35.74-.7,1.48-1.06,2.25l-3,1c-.18,1.2-.18,1.2-.37,2.43-.21.85-.42,1.69-.63,2.57l-2,1c-.72,1.98-1.38,3.98-2,6-.97,2.92-1.65,4.65-3.87,6.81-2.48,2.55-3.66,5.07-5.1,8.28a19.229,19.229,0,0,1-4.03,4.91,56.986,56.986,0,0,0-2.94,8.25c-.35.9-.7,1.81-1.06,2.75l-3,1q-1.545,2.97-3,6l-3,3v3h-2c-.45,1.13-.91,2.26-1.37,3.43-1.63,3.57-1.63,3.57-3.63,4.57-.46,1.17-.46,1.17-.94,2.37-1.08,2.67-2.07,3.64-4.06,5.63a24.653,24.653,0,0,0-2.37,7.68c-.21.77-.42,1.53-.63,2.32-1.33.66-2.67,1.33-4,2q-1.575,2.955-3,6-1.47,1.53-3,3l-1.06,2.12c-.94,1.88-.94,1.88-2.94,2.88-.25,1.23-.25,1.23-.5,2.5-.25,1.23-.25,1.23-.5,2.5l-2,1c-.31.8-.62,1.6-.94,2.43-1.06,2.57-1.06,2.57-4.06,4.57q-1.53,3.48-3,7l-2,1c-.46,1.2-.46,1.2-.94,2.43-1.06,2.57-1.06,2.57-4.06,4.57l-1,3c-1,3-1,3-4,5-.73,1.64-1.39,3.31-2,5q-1.47,3-3,6h-3c-.49,1.98-.49,1.98-1,4h-3c.21.61.41,1.23.63,1.87.12.7.24,1.4.37,2.13l-2,2c-.71,1.65-1.38,3.31-2,5h-3l-1,4h-3c.19.55.37,1.11.56,1.68a7.885,7.885,0,0,1-.03,4.59,42.6,42.6,0,0,0-.64,8.59c0,1.18.01,2.36.01,3.58,0,1.29.01,2.58.02,3.91,0,1.39.01,2.78.01,4.17q.015,5.73.04,11.46.03,6.18.04,12.36.03,10.71.07,21.41.06,15.48.1,30.96.09,25.11.17,50.22.09,24.39.17,48.79c0,1,0,2,.01,3.03q.015,7.545.05,15.09.195,62.58.42,125.16h9v-2l3.06.12c3.86.04,3.86.04,7.13-1.06,5.22-1.46,10.42-1.73,15.81-2.06v-2l3.13.12c3.73.07,3.73.07,6.56-1.06,5-1.61,10.09-1.74,15.31-2.06v-2l3.13.12c3.73.07,3.73.07,6.56-1.06,5-1.61,10.09-1.74,15.31-2.06v-2l3.13.12c3.73.07,3.73.07,6.56-1.06,5-1.61,10.09-1.74,15.31-2.06v-2l3.06.06a74.352,74.352,0,0,0,10.94-1.06v-2h10v-2l3,.06a84.658,84.658,0,0,0,12-1.06v-2h11v-2l3.06.06a74.352,74.352,0,0,0,10.94-1.06v-2h11v-2l3.06.06a74.352,74.352,0,0,0,10.94-1.06v-2h11v-2l3.06.06a74.352,74.352,0,0,0,10.94-1.06v-2h11v-2l3.06.06a74.352,74.352,0,0,0,10.94-1.06v-2h11v-2l3.06.06a74.352,74.352,0,0,0,10.94-1.06v-2h11v-2l3.06.06a74.352,74.352,0,0,0,10.94-1.06v-2h11v-2l3.13.12c3.73-.12,8.07-.32,10.87-3.12.1-1.75.13-3.5.12-5.25.01-1.15.01-2.3.01-3.48,0-1.28,0-2.56-.01-3.88,0-1.36.01-2.72.01-4.09q0-5.67-.01-11.34v-12.31q.015-10.8,0-21.6-.015-16.05-.01-32.11.015-27.015,0-54.02-.015-26.76-.01-53.51v-3.36q-.015-8.43-.01-16.87,0-59.82-.01-119.63-.015-58.125-.02-116.24v-3.62q-.015-17.97-.01-35.96,0-36.63-.01-73.25v-3.41q-.015-112.53-.04-225.07a81.84,81.84,0,0,0-13.44-1.07l-3.18.03Zm94,0c-1.29,2.59-1.13,4.45-1.13,7.35v11.42c-.01,3.77-.01,7.53,0,11.3q0,6.135-.01,12.27-.015,10.77-.01,21.54.015,16.005,0,32.01-.015,30.255-.02,60.5v60.13c-.01,1.11-.01,2.23-.01,3.37q0,46.965-.01,93.91v3.58q0,8.985.01,17.96v10.82q0,56.145-.03,112.28-.015,63.015-.02,126.03V846.5q0,26.67-.01,53.32-.015,26.775-.01,53.53.015,15.93,0,31.85-.015,10.62,0,21.24v12.12q-.015,5.5,0,11.01c0,1.95-.01,3.91-.01,5.87,0,1.14.01,2.29.01,3.47v3.01c.02,2.54.02,2.54,2.25,4.35,1.98.57,3.99,1.06,6,1.5,1.77.38,1.77.38,3.57.78,1.14.23,2.27.47,3.43.72,1.25.26,1.25.26,2.52.53,3.87.79,7.74,1.51,11.62,2.22.73.13,1.46.27,2.21.4,1.46.27,2.92.53,4.38.79,5.16.94,5.16.94,6.27,2.06,1.41.16,2.83.27,4.25.37a105.452,105.452,0,0,1,15.46,2.87c3.09.71,6.16,1.26,9.29,1.76,5.33.84,10.53,2.03,15.78,3.28,3.07.68,6.12,1.23,9.22,1.72,5.33.84,10.53,2.03,15.78,3.28,3.07.68,6.12,1.23,9.22,1.72,5.34.84,10.56,2.02,15.82,3.27,3.89.89,7.81,1.61,11.74,2.3,2.49.43,4.96.92,7.44,1.43q2.835.57,5.69,1.12c.95.19,1.9.38,2.88.57,2.44.53,2.44.53,4.43-.69v2c1.24.14,2.48.28,3.75.43a71.016,71.016,0,0,1,10.6,2.21,190.066,190.066,0,0,0,21.56,4.22c5.91.9,11.64,2.1,17.43,3.58a12.886,12.886,0,0,0,5.23.55,18.564,18.564,0,0,1,6.93,1.44,79.841,79.841,0,0,0,14.56,3.43c9.4,1.6,18.73,3.21,28,5.48,4.45.99,8.94,1.61,13.46,2.23,2.48.43,2.48.43,3.48,1.43,3.67.66,7.35,1.24,11.04,1.8a73.635,73.635,0,0,1,10.48,2.29c4.33,1.28,4.33,1.28,12.48.91v-800l-4-2-2-2a15.159,15.159,0,0,0-4-.07c-3.8.16-3.8.16-6-.93-3.34-.49-6.68-.9-10.03-1.31-2.97-.69-2.97-.69-4.97-3.69a12.092,12.092,0,0,0-4.31-.07,63.929,63.929,0,0,1-18.69-1.93l-2-3a12.092,12.092,0,0,0-4.31-.07,63.929,63.929,0,0,1-18.69-1.93l-2-3a12.092,12.092,0,0,0-4.31-.07,71.3,71.3,0,0,1-18.69-1.93l-2-2a19.684,19.684,0,0,0-4.56-.07c-1.48.06-2.96.09-4.44.07l-1-1c-3.32-.54-6.66-.97-10-1.41-3-.59-3-.59-5-2.59a19.684,19.684,0,0,0-4.56-.07c-1.48.06-2.96.09-4.44.07l-1-1c-3.32-.5-6.66-.91-10-1.31-3-.69-3-.69-5-3.69a12.092,12.092,0,0,0-4.31-.07,63.929,63.929,0,0,1-18.69-1.93c-.99-1.49-.99-1.49-2-3a12.092,12.092,0,0,0-4.31-.07,63.929,63.929,0,0,1-18.69-1.93c-.99-1.49-.99-1.49-2-3a12.092,12.092,0,0,0-4.31-.07,71.3,71.3,0,0,1-18.69-1.93l-2-2a19.684,19.684,0,0,0-4.56-.07c-1.48.06-2.96.09-4.44.07-.49-.5-.49-.5-1-1-3.32-.54-6.66-.97-10-1.41-3-.59-3-.59-5-2.59a19.684,19.684,0,0,0-4.56-.07c-1.48.06-2.96.09-4.44.07-.49-.5-.49-.5-1-1-3.32-.54-6.66-.97-10-1.41-3-.59-3-.59-5-2.59a19.684,19.684,0,0,0-4.56-.07c-1.48.06-2.96.09-4.44.07-.49-.5-.49-.5-1-1-3.32-.54-6.66-.97-10-1.41-3-.59-3-.59-5-2.59a21.317,21.317,0,0,0-5.12.37c-.91.11-1.82.22-2.76.34-1.05.14-1.05.14-2.12.29l-1-2Zm13,0v1h8v-1Zm-816,1v798h1v-798Zm38,4v1h7v-1Zm803,0v1h6v-1Zm-778,5v1h7v-1Zm803,0v1h6v-1Zm25,5v1h8v-1Zm-324,8v15h1v-15Zm424,12v1h8v-1Zm25,5v1h8v-1Zm100,20v1h7v-1Zm-481,15v11h1l1-11Zm-465,1,1,2Zm3,12,1,3Zm460,0v5h1v-5Zm-455,15,1,3Zm445,18,1,4Zm-435,7,1,2Zm10,24,1,2Zm32,64,1,3Zm338,31,1,2Zm-285,65,1,2Zm37,62,1,2Zm173,7,1,2Zm-96,12,1,2Zm-59,9,1,2Zm17,27,1,2Zm64,68-1,3,3-1v-2Zm-10,15-1,3,3-1v-2Zm-7,17v335h1v-335Zm-441,341v1h9v-1Zm805,0v1h8v-1Zm-778,5v1h7v-1Zm803,0v1h6v-1Zm-778,5v1h7v-1Zm803,0v1h6v-1Zm-778,5v1h7v-1Zm803,0v1h6v-1Zm-778,5v1h7v-1Zm803,0v1h8v-1Zm-778,5v1h7v-1Zm803,0v1h8v-1Zm-778,5v1h7v-1Zm25,5v1h7v-1Zm803,0v1h8v-1Zm-778,5v1h7v-1Zm25,5v1h7v-1Zm803,0v1h8v-1Zm150,30v1h7v-1Z" transform="translate(422.359 41.734)" fill="#e4b48d"/>
    <path id="Caminho_376" data-name="Caminho 376" d="M0,0C1.15,0,1.15,0,2.31-.01,3.93-.02,5.54-.02,7.16-.02c2.43,0,4.86-.02,7.29-.04C26.4-.1,37.42.98,48.81,4.79c1.06.35,1.06.35,2.15.7q2.55.825,5.1,1.68v2c1.03.27,2.06.53,3.12.81a48.469,48.469,0,0,1,9.88,4.19c1.09.57,1.09.57,2.2,1.16,4.23,2.28,8.26,4.53,11.8,7.84v2c.97.27,1.94.53,2.94.81,1.01.39,2.02.78,3.06,1.19l1,3c.56.27,1.11.53,1.69.81a26.389,26.389,0,0,1,8.31,7.19v2l3,1c1.03,1.64,2.03,3.32,3,5,.88,1.03,1.78,2.05,2.69,3.06,2.31,2.94,2.31,2.94,2.31,6.94h2c.4,1.08.4,1.08.81,2.19a21.552,21.552,0,0,0,2.69,5.31,50.146,50.146,0,0,1,3.5,7.5c.49.76.99,1.52,1.5,2.31,1.94,3.49,2.59,6.8,3.5,10.69l1,1c.33,2.33.67,4.66,1,7l1,1c.1,1.56.13,3.12.13,4.69,0,.99,0,1.99.01,3.02-.01,1.63-.01,1.63-.01,3.29v10.38c-.01,3.6,0,7.2.01,10.81q-.015,3.4-.01,6.81c0,1.08.01,2.17.01,3.29-.01,1.49-.01,1.49-.01,3.02v2.68c-.13,2.01-.13,2.01-1.13,3.01-.35,1.36-.66,2.74-.94,4.12-.85,4.02-1.89,7.94-3.06,11.88h-2c-.13.72-.25,1.44-.38,2.19a42.931,42.931,0,0,1-2.62,7.81h-2q-.18,1.08-.36,2.19a39.215,39.215,0,0,1-10.31,18.24,22.3,22.3,0,0,0-3.33,5.57h-2c-.21.53-.41,1.07-.63,1.62-2.22,3.84-5.22,7.72-9.57,9.05-.89.16-.89.16-1.8.33v2c-1.35.93-2.7,1.86-4.1,2.71a23.051,23.051,0,0,0-4.59,3.67c-3.56,3-7.46,4.8-11.69,6.68-1.44.66-2.89,1.31-4.33,1.97l-2.15.97c-2.83,1.32-5.61,2.72-8.4,4.15-4.8,2.34-9.49,3.13-14.74,3.85l-1,1c-1.56.11-3.11.15-4.67.16l-3.02.03c-1.62,0-1.62,0-3.28.01-1.1.01-2.2.01-3.34.02-2.34.01-4.68.01-7.02.02-3.59.01-7.18.04-10.77.07-2.27.01-4.54.01-6.8.02l-3.28.03c-.99,0-1.99,0-3.02-.01-.88.01-1.76.01-2.67.02-.7-.13-1.41-.25-2.13-.37l-2-3c-1.88.03-3.75.07-5.62.13-10.18-.55-20.49-7.53-29.38-12.13v-2l-3-1a68.157,68.157,0,0,1-8.75-5c-.8-.52-1.6-1.03-2.42-1.56-.61-.48-1.21-.95-1.83-1.44v-2c-.54-.21-1.07-.41-1.63-.63a30.383,30.383,0,0,1-8.37-7.37v-2h-2c-.13-.64-.25-1.28-.38-1.94-.2-.68-.41-1.36-.62-2.06l-2-1a22.374,22.374,0,0,1-3-3v-2h-2c-.46-.95-.91-1.9-1.38-2.88-1.42-3.13-1.42-3.13-3.62-5.12-.4-1.99-.74-3.99-1-6h-2c-1.13-2.71-2.25-5.42-3.38-8.13-.31-.76-.63-1.52-.96-2.3-.46-1.12-.46-1.12-.93-2.27-.29-.68-.57-1.36-.86-2.06-5.06-13.03-6.34-25.65-6.15-39.48q.045-3.63.04-7.26c.01-1.55.02-3.11.04-4.67,0-.71,0-1.43.01-2.16.19-13.08,5.35-25.68,10.19-37.67h2c.19-.71.39-1.42.58-2.15.26-.92.53-1.84.79-2.79.26-.92.51-1.83.78-2.78.85-2.28.85-2.28,2.85-3.28.45-1.12.91-2.23,1.37-3.38,1.67-3.72,2.49-4.37,5.63-6.62q.6-1.32,1.23-2.67c2.15-4.06,4.83-6.83,8.08-10.02.84-.85.84-.85,1.69-1.72a35.483,35.483,0,0,1,11-7.59l2.56-2.56c2.56-2.57,4.13-3.16,7.44-4.44,2.82-1.55,5.6-3.15,8.38-4.76,2.62-1.24,2.62-1.24,6.62-1.24v-2c4.42-2.48,8.01-3.33,13-4,2.29-.7,4.54-1.47,6.79-2.28C-10.11.25-5.27.01,0,0ZM109.06,52.17l1,2Zm-109,23-1,3a17.026,17.026,0,0,1-3.75,1.5,51.443,51.443,0,0,0-12.25,6.5l-2-1v2c-.99.49-.99.49-2,1v2c-2.46,5.5-2.46,5.5-4.63,7.5-2.05,2.24-2.04,4.56-2.37,7.5l-3,1c-.09,3.79-.14,7.58-.19,11.37-.02,1.08-.05,2.16-.08,3.28,0,1.03-.01,2.06-.02,3.12-.02.95-.04,1.91-.05,2.89.11.77.22,1.54.34,2.34l3,2a21.973,21.973,0,0,1,0,5h2c.27.6.53,1.19.81,1.81a7.574,7.574,0,0,0,2.75,3.69c1.44,1.5,1.44,1.5,1.76,3.4.94,2.89,2.38,3.58,4.93,5.16,1.23.77,1.23.77,2.48,1.56l2.27,1.38c.82.55,1.65,1.11,2.5,1.69,5.11,2.68,10.65,4.87,16.5,4.31v1a33.843,33.843,0,0,0,15.12-2.35,7.93,7.93,0,0,1,3.88-.65v-2c.72-.06,1.44-.13,2.19-.19,3.66-1.06,5.17-3.11,7.81-5.81,1.33-.5,1.33-.5,2.69-1,2.53-.78,2.53-.78,3.31-3.31.33-.89.66-1.78,1-2.69.8-.72,1.61-1.45,2.44-2.19,3.06-3.37,3.81-6.13,4.93-10.46a21.791,21.791,0,0,1,1.82-4.98c2.83-8.29-.34-18.01-3.63-25.75-3.54-6.62-3.54-6.62-9.56-10.62v-2c-3.46-3.31-7.2-6.04-11.88-7.19-3.12-.81-3.12-.81-5.12-3.81a16.089,16.089,0,0,0-5.23-.29l-3.12.02c-1.08.03-2.16.05-3.28.08-1.08.01-2.17.03-3.29.04Q4.09,75.08.06,75.17Zm124,14,1,2Zm-81,54,1,2Zm66,38,1,2Z" transform="translate(427.941 201.832)" fill="#e4b48d"/>
    <path id="Caminho_377" data-name="Caminho 377" d="M0,0H1V797H0Z" transform="translate(877 289)" fill="#e4b48d"/>
    <path id="Caminho_378" data-name="Caminho 378" d="M0,0H3L4,336l6,1v1c-6.05.2-6.05.2-8,0-2-2-2-2-2.25-4.4v-3.09c0-1.18,0-2.35-.01-3.56.01-1.3.01-2.61.02-3.95,0-1.38,0-2.77-.01-4.16,0-3.83.01-7.65.02-11.48.01-4.12,0-8.24,0-12.36q0-10.725.02-21.44.015-15.495.02-30.99.015-25.14.04-50.28.03-24.42.04-48.85v-3.03q0-7.56.01-15.1Q-.07,62.655,0,0Z" transform="translate(475 816)" fill="#e4b48d"/>
    <path id="Caminho_379" data-name="Caminho 379" d="M0,0C1.13-.01,2.26-.01,3.42-.02H7.11c1.25-.01,2.51-.01,3.81-.01,2.66-.01,5.33-.01,7.99-.01q5.085,0,10.17-.03c3.26-.01,6.52-.01,9.78-.02l3.65-.02A80.1,80.1,0,0,1,62.38,2.15v1h-73c1-2,1-2,2.71-2.62A47.513,47.513,0,0,1,0,0Z" transform="translate(414.62 41.855)" fill="#e4b48d"/>
    <path id="Caminho_380" data-name="Caminho 380" d="M0,0,2,1-34,37l-2-3q6.72-6.8,13.45-13.56c1.53-1.54,3.05-3.08,4.58-4.62q3.285-3.315,6.58-6.62l2.06-2.09c.64-.65,1.28-1.29,1.94-1.95.84-.84.84-.84,1.69-1.7A18.423,18.423,0,0,1,0,0Z" transform="translate(260 107)" fill="#e4b48d"/>
    <path id="Caminho_381" data-name="Caminho 381" d="M0,0A21.55,21.55,0,0,1,7.56,5.5,35.34,35.34,0,0,0,14,11c.93,1.01,1.83,2.06,2.7,3.13,3.49,4.17,7.3,7.98,11.18,11.81.68.68,1.37,1.37,2.08,2.07Q32.48,30.515,35,33c-3,0-3,0-4.9-1.71q-2.04-2.22-4.06-4.44c-1.84-1.96-1.84-1.96-3.98-2.33-3.09-.78-4.75-2.68-7.06-4.83-.85-.78-1.69-1.56-2.56-2.37-.81-.76-1.61-1.53-2.44-2.32-.75-.71-1.51-1.42-2.29-2.14C6,11,6,11,5.56,8.62,4.74,4.79,2.62,2.89,0,0Z" transform="translate(618 107)" fill="#e4b48d"/>
    <path id="Caminho_382" data-name="Caminho 382" d="M0,0H2.35C3.98,0,5.62.01,7.26.03c2.48.02,4.97.02,7.45.01,1.6.01,3.19.01,4.79.02h2.22a53.476,53.476,0,0,1,14.3,2.3v1h-48C-7.57.05-5.22-.06,0,0Z" transform="translate(427.984 201.637)" fill="#e4b48d"/>
    <path id="Caminho_383" data-name="Caminho 383" d="M0,0V1H-29l1-2A57.471,57.471,0,0,1,0,0Z" transform="translate(857 204)" fill="#e4b48d"/>
    <path id="Caminho_384" data-name="Caminho 384" d="M0,0V1H-26c1-2,1-2,2.64-2.61C-15.65-2.88-7.34-2.8,0,0Z" transform="translate(54 204)" fill="#e4b48d"/>
    <path id="Caminho_385" data-name="Caminho 385" d="M0,0,2.11.36A119.9,119.9,0,0,1-7.15,8.84c-1.56,1.37-3.03,2.84-4.49,4.33-2.25,2.19-2.25,2.19-5.25,3.19,1.68-4.23,4.68-7.08,7.82-10.25C-8.55,5.56-8.03,5-7.49,4.43-5.03,1.93-3.55.44,0,0Z" transform="translate(364.887 227.641)" fill="#e4b48d"/>
    <path id="Caminho_386" data-name="Caminho 386" d="M0,0H36V1H0Z" transform="translate(422 437)" fill="#e4b48d"/>
    <path id="Caminho_387" data-name="Caminho 387" d="M0,0H1V36H0Z" transform="translate(557 302)" fill="#e4b48d"/>
    <path id="Caminho_388" data-name="Caminho 388" d="M0,0H1V35H0Z" transform="translate(717 306)" fill="#e4b48d"/>
    <path id="Caminho_389" data-name="Caminho 389" d="M0,0A22.679,22.679,0,0,1,7.75,5.62L9.61,7.54c.69.72.69.72,1.39,1.46l-1,3Q7.495,9.57,5,7.12c-.93-.9-1.86-1.8-2.81-2.74C0,2,0,2,0,0Z" transform="translate(640 131)" fill="#e4b48d"/>
    <path id="Caminho_390" data-name="Caminho 390" d="M0,0H21V1H0Z" transform="translate(408 118)" fill="#e4b48d"/>
    <path id="Caminho_391" data-name="Caminho 391" d="M0,0H19V1H0Z" transform="translate(429 1237)" fill="#e4b48d"/>
    <path id="Caminho_392" data-name="Caminho 392" d="M0,0H10V1H0Z" transform="translate(533 1218)" fill="#e4b48d"/>
    <path id="Caminho_393" data-name="Caminho 393" d="M0,0H10V1H0Z" transform="translate(758 1173)" fill="#e4b48d"/>
    <path id="Caminho_394" data-name="Caminho 394" d="M0,0H10V1H0Z" transform="translate(783 1168)" fill="#e4b48d"/>
    <path id="Caminho_395" data-name="Caminho 395" d="M0,0H10V1H0Z" transform="translate(808 1163)" fill="#e4b48d"/>
    <path id="Caminho_396" data-name="Caminho 396" d="M0,0H10V1H0Z" transform="translate(758 293)" fill="#e4b48d"/>
    <path id="Caminho_397" data-name="Caminho 397" d="M0,0H9V1H0Z" transform="translate(387 1228)" fill="#e4b48d"/>
    <path id="Caminho_398" data-name="Caminho 398" d="M0,0H9V1H0Z" transform="translate(362 1223)" fill="#e4b48d"/>
    <path id="Caminho_399" data-name="Caminho 399" d="M0,0H9V1H0Z" transform="translate(337 1218)" fill="#e4b48d"/>
    <path id="Caminho_400" data-name="Caminho 400" d="M0,0H9V1H0Z" transform="translate(312 1213)" fill="#e4b48d"/>
    <path id="Caminho_401" data-name="Caminho 401" d="M0,0H9V1H0Z" transform="translate(1089 1208)" fill="#e4b48d"/>
    <path id="Caminho_402" data-name="Caminho 402" d="M0,0H9V1H0Z" transform="translate(287 1208)" fill="#e4b48d"/>
    <path id="Caminho_403" data-name="Caminho 403" d="M0,0H9V1H0Z" transform="translate(1039 1198)" fill="#e4b48d"/>
    <path id="Caminho_404" data-name="Caminho 404" d="M0,0H9V1H0Z" transform="translate(989 1188)" fill="#e4b48d"/>
    <path id="Caminho_405" data-name="Caminho 405" d="M0,0H9V1H0Z" transform="translate(1039 318)" fill="#e4b48d"/>
    <path id="Caminho_406" data-name="Caminho 406" d="M0,0H9V1H0Z" transform="translate(1014 313)" fill="#e4b48d"/>
    <path id="Caminho_407" data-name="Caminho 407" d="M0,0H9V1H0Z" transform="translate(989 308)" fill="#e4b48d"/>
    <path id="Caminho_408" data-name="Caminho 408" d="M0,0H9V1H0Z" transform="translate(733 298)" fill="#e4b48d"/>
    <path id="Caminho_409" data-name="Caminho 409" d="M0,0H9V1H0Z" transform="translate(783 288)" fill="#e4b48d"/>
    <path id="Caminho_410" data-name="Caminho 410" d="M0,0H8V1H0Z" transform="translate(413 1233)" fill="#e4b48d"/>
    <path id="Caminho_411" data-name="Caminho 411" d="M0,0H8V1H0Z" transform="translate(1190 1228)" fill="#e4b48d"/>
    <path id="Caminho_412" data-name="Caminho 412" d="M0,0H8V1H0Z" transform="translate(1165 1223)" fill="#e4b48d"/>
    <path id="Caminho_413" data-name="Caminho 413" d="M0,0H8V1H0Z" transform="translate(1140 1218)" fill="#e4b48d"/>
    <path id="Caminho_414" data-name="Caminho 414" d="M0,0H8V1H0Z" transform="translate(1115 1213)" fill="#e4b48d"/>
    <path id="Caminho_415" data-name="Caminho 415" d="M0,0H8V1H0Z" transform="translate(1165 343)" fill="#e4b48d"/>
    <path id="Caminho_416" data-name="Caminho 416" d="M0,0H8V1H0Z" transform="translate(1140 338)" fill="#e4b48d"/>
    <path id="Caminho_417" data-name="Caminho 417" d="M0,0H8V1H0Z" transform="translate(1115 333)" fill="#e4b48d"/>
    <path id="Caminho_418" data-name="Caminho 418" d="M0,0H1V8H0Z" transform="translate(398 308)" fill="#e4b48d"/>
    <path id="Caminho_419" data-name="Caminho 419" d="M0,0H7V1H0Z" transform="translate(1231 1237)" fill="#e4b48d"/>
    <path id="Caminho_420" data-name="Caminho 420" d="M0,0H7V1H0Z" transform="translate(428 278)" fill="#e4b48d"/>
    <path id="Caminho_421" data-name="Caminho 421" d="M0,0H1V6H0Z" transform="translate(712 363)" fill="#e4b48d"/>
    <path id="Caminho_422" data-name="Caminho 422" d="M0,0H6V1H0Z" transform="translate(445 278)" fill="#e4b48d"/>
    <path id="Caminho_423" data-name="Caminho 423" d="M0,0H6V1H0Z" transform="translate(408 120)" fill="#e4b48d"/>
    <path id="Caminho_424" data-name="Caminho 424" d="M0,0H5V1H0Z" transform="translate(408 433)" fill="#e4b48d"/>
    <path id="Caminho_425" data-name="Caminho 425" d="M0,0H1V5H0Z" transform="translate(242 349)" fill="#e4b48d"/>
    <path id="Caminho_426" data-name="Caminho 426" d="M0,0H1V5H0Z" transform="translate(242 278)" fill="#e4b48d"/>
    <path id="Caminho_427" data-name="Caminho 427" d="M0,0H5V1H0Z" transform="translate(466 120)" fill="#e4b48d"/>
    <path id="Caminho_428" data-name="Caminho 428" d="M0,0,4,1Z" transform="translate(845 1160)" fill="#e4b48d"/>
    <path id="Caminho_429" data-name="Caminho 429" d="M0,0,4,1Z" transform="translate(42 1160)" fill="#e4b48d"/>
    <path id="Caminho_430" data-name="Caminho 430" d="M0,0,1,4Z" transform="translate(707 384)" fill="#e4b48d"/>
    <path id="Caminho_431" data-name="Caminho 431" d="M0,0,4,1Z" transform="translate(945 300)" fill="#e4b48d"/>
    <path id="Caminho_432" data-name="Caminho 432" d="M0,0,1,4Z" transform="translate(240 291)" fill="#e4b48d"/>
    <path id="Caminho_433" data-name="Caminho 433" d="M0,0,4,1Z" transform="translate(895 290)" fill="#e4b48d"/>
    <path id="Caminho_434" data-name="Caminho 434" d="M0,0,4,1Z" transform="translate(504 128)" fill="#e4b48d"/>
    <path id="Caminho_435" data-name="Caminho 435" d="M0,0,3,1Z" transform="translate(394 1230)" fill="#e4b48d"/>
    <path id="Caminho_436" data-name="Caminho 436" d="M0,0,3,1Z" transform="translate(369 1225)" fill="#e4b48d"/>
    <path id="Caminho_437" data-name="Caminho 437" d="M0,0,3,1Z" transform="translate(533 1220)" fill="#e4b48d"/>
    <path id="Caminho_438" data-name="Caminho 438" d="M0,0,3,1Z" transform="translate(1096 1210)" fill="#e4b48d"/>
    <path id="Caminho_439" data-name="Caminho 439" d="M0,0,3,1Z" transform="translate(1071 1205)" fill="#e4b48d"/>
    <path id="Caminho_440" data-name="Caminho 440" d="M0,0,3,1Z" transform="translate(1046 1200)" fill="#e4b48d"/>
    <path id="Caminho_441" data-name="Caminho 441" d="M0,0,3,1Z" transform="translate(1021 1195)" fill="#e4b48d"/>
    <path id="Caminho_442" data-name="Caminho 442" d="M0,0,3,1Z" transform="translate(996 1190)" fill="#e4b48d"/>
    <path id="Caminho_443" data-name="Caminho 443" d="M0,0,3,1Z" transform="translate(971 1185)" fill="#e4b48d"/>
    <path id="Caminho_444" data-name="Caminho 444" d="M0,0,3,1Z" transform="translate(168 1185)" fill="#e4b48d"/>
    <path id="Caminho_445" data-name="Caminho 445" d="M0,0,3,1Z" transform="translate(946 1180)" fill="#e4b48d"/>
    <path id="Caminho_446" data-name="Caminho 446" d="M0,0,3,1Z" transform="translate(143 1180)" fill="#e4b48d"/>
    <path id="Caminho_447" data-name="Caminho 447" d="M0,0,3,1Z" transform="translate(921 1175)" fill="#e4b48d"/>
    <path id="Caminho_448" data-name="Caminho 448" d="M0,0,3,1Z" transform="translate(758 1175)" fill="#e4b48d"/>
    <path id="Caminho_449" data-name="Caminho 449" d="M0,0,3,1Z" transform="translate(118 1175)" fill="#e4b48d"/>
    <path id="Caminho_450" data-name="Caminho 450" d="M0,0,3,1Z" transform="translate(896 1170)" fill="#e4b48d"/>
    <path id="Caminho_451" data-name="Caminho 451" d="M0,0,3,1Z" transform="translate(783 1170)" fill="#e4b48d"/>
    <path id="Caminho_452" data-name="Caminho 452" d="M0,0,3,1Z" transform="translate(93 1170)" fill="#e4b48d"/>
    <path id="Caminho_453" data-name="Caminho 453" d="M0,0,3,1Z" transform="translate(871 1165)" fill="#e4b48d"/>
    <path id="Caminho_454" data-name="Caminho 454" d="M0,0,3,1Z" transform="translate(808 1165)" fill="#e4b48d"/>
    <path id="Caminho_455" data-name="Caminho 455" d="M0,0,3,1Z" transform="translate(68 1165)" fill="#e4b48d"/>
    <path id="Caminho_456" data-name="Caminho 456" fill="#e4b48d"/>
    <path id="Caminho_457" data-name="Caminho 457" fill="#e4b48d"/>
    <path id="Caminho_458" data-name="Caminho 458" fill="#e4b48d"/>
    <path id="Caminho_459" data-name="Caminho 459" d="M0,0,3,1Z" transform="translate(1096 330)" fill="#e4b48d"/>
    <path id="Caminho_460" data-name="Caminho 460" d="M0,0,3,1Z" transform="translate(1071 325)" fill="#e4b48d"/>
    <path id="Caminho_461" data-name="Caminho 461" d="M0,0,3,1Z" transform="translate(1046 320)" fill="#e4b48d"/>
    <path id="Caminho_462" data-name="Caminho 462" d="M0,0,3,1Z" transform="translate(1021 315)" fill="#e4b48d"/>
    <path id="Caminho_463" data-name="Caminho 463" d="M0,0,3,1Z" transform="translate(996 310)" fill="#e4b48d"/>
    <path id="Caminho_464" data-name="Caminho 464" d="M0,0,3,1Z" transform="translate(971 305)" fill="#e4b48d"/>
    <path id="Caminho_465" data-name="Caminho 465" d="M0,0,3,1Z" transform="translate(143 300)" fill="#e4b48d"/>
    <path id="Caminho_466" data-name="Caminho 466" d="M0,0,3,1Z" transform="translate(921 295)" fill="#e4b48d"/>
    <path id="Caminho_467" data-name="Caminho 467" d="M0,0,3,1Z" transform="translate(758 295)" fill="#e4b48d"/>
    <path id="Caminho_468" data-name="Caminho 468" d="M0,0,3,1Z" transform="translate(118 295)" fill="#e4b48d"/>
    <path id="Caminho_469" data-name="Caminho 469" d="M0,0,3,1Z" transform="translate(93 290)" fill="#e4b48d"/>
    <path id="Caminho_470" data-name="Caminho 470" fill="#e4b48d"/>
    <path id="Caminho_471" data-name="Caminho 471" d="M0,0,3,1Z" transform="translate(371 128)" fill="#e4b48d"/>
    <path id="Caminho_472" data-name="Caminho 472" d="M0,0,2,1Z" transform="translate(1222 1235)" fill="#e4b48d"/>
    <path id="Caminho_473" data-name="Caminho 473" d="M0,0,2,1Z" transform="translate(420 1235)" fill="#e4b48d"/>
    <path id="Caminho_474" data-name="Caminho 474" d="M0,0,2,1Z" transform="translate(1197 1230)" fill="#e4b48d"/>
    <path id="Caminho_475" data-name="Caminho 475" d="M0,0,2,1Z" transform="translate(484 1230)" fill="#e4b48d"/>
    <path id="Caminho_476" data-name="Caminho 476" d="M0,0,2,1Z" transform="translate(1172 1225)" fill="#e4b48d"/>
    <path id="Caminho_477" data-name="Caminho 477" d="M0,0,2,1Z" transform="translate(509 1225)" fill="#e4b48d"/>
    <path id="Caminho_478" data-name="Caminho 478" d="M0,0,2,1Z" transform="translate(1147 1220)" fill="#e4b48d"/>
    <path id="Caminho_479" data-name="Caminho 479" d="M0,0,2,1Z" transform="translate(344 1220)" fill="#e4b48d"/>
    <path id="Caminho_480" data-name="Caminho 480" d="M0,0,2,1Z" transform="translate(1122 1215)" fill="#e4b48d"/>
    <path id="Caminho_481" data-name="Caminho 481" d="M0,0,2,1Z" transform="translate(559 1215)" fill="#e4b48d"/>
    <path id="Caminho_482" data-name="Caminho 482" d="M0,0,2,1Z" transform="translate(584 1210)" fill="#e4b48d"/>
    <path id="Caminho_483" data-name="Caminho 483" d="M0,0,2,1Z" transform="translate(294 1210)" fill="#e4b48d"/>
    <path id="Caminho_484" data-name="Caminho 484" d="M0,0,2,1Z" transform="translate(609 1205)" fill="#e4b48d"/>
    <path id="Caminho_485" data-name="Caminho 485" d="M0,0,2,1Z" transform="translate(269 1205)" fill="#e4b48d"/>
    <path id="Caminho_486" data-name="Caminho 486" d="M0,0,2,1Z" transform="translate(634 1200)" fill="#e4b48d"/>
    <path id="Caminho_487" data-name="Caminho 487" d="M0,0,2,1Z" transform="translate(244 1200)" fill="#e4b48d"/>
    <path id="Caminho_488" data-name="Caminho 488" d="M0,0,2,1Z" transform="translate(659 1195)" fill="#e4b48d"/>
    <path id="Caminho_489" data-name="Caminho 489" d="M0,0,2,1Z" transform="translate(219 1195)" fill="#e4b48d"/>
    <path id="Caminho_490" data-name="Caminho 490" d="M0,0,2,1Z" transform="translate(684 1190)" fill="#e4b48d"/>
    <path id="Caminho_491" data-name="Caminho 491" d="M0,0,2,1Z" transform="translate(194 1190)" fill="#e4b48d"/>
    <path id="Caminho_492" data-name="Caminho 492" d="M0,0,2,1Z" transform="translate(709 1185)" fill="#e4b48d"/>
    <path id="Caminho_493" data-name="Caminho 493" d="M0,0,2,1Z" transform="translate(734 1180)" fill="#e4b48d"/>
    <path id="Caminho_494" data-name="Caminho 494" d="M0,0,2,1Z" transform="translate(833 1160)" fill="#e4b48d"/>
    <path id="Caminho_495" data-name="Caminho 495" fill="#e4b48d"/>
    <path id="Caminho_496" data-name="Caminho 496" fill="#e4b48d"/>
    <path id="Caminho_497" data-name="Caminho 497" fill="#e4b48d"/>
    <path id="Caminho_498" data-name="Caminho 498" fill="#e4b48d"/>
    <path id="Caminho_499" data-name="Caminho 499" fill="#e4b48d"/>
    <path id="Caminho_500" data-name="Caminho 500" fill="#e4b48d"/>
    <path id="Caminho_501" data-name="Caminho 501" fill="#e4b48d"/>
    <path id="Caminho_502" data-name="Caminho 502" fill="#e4b48d"/>
    <path id="Caminho_503" data-name="Caminho 503" fill="#e4b48d"/>
    <path id="Caminho_504" data-name="Caminho 504" fill="#e4b48d"/>
    <path id="Caminho_505" data-name="Caminho 505" fill="#e4b48d"/>
    <path id="Caminho_506" data-name="Caminho 506" fill="#e4b48d"/>
    <path id="Caminho_507" data-name="Caminho 507" fill="#e4b48d"/>
    <path id="Caminho_508" data-name="Caminho 508" fill="#e4b48d"/>
    <path id="Caminho_509" data-name="Caminho 509" fill="#e4b48d"/>
    <path id="Caminho_510" data-name="Caminho 510" fill="#e4b48d"/>
    <path id="Caminho_511" data-name="Caminho 511" fill="#e4b48d"/>
    <path id="Caminho_512" data-name="Caminho 512" fill="#e4b48d"/>
    <path id="Caminho_513" data-name="Caminho 513" fill="#e4b48d"/>
    <path id="Caminho_514" data-name="Caminho 514" fill="#e4b48d"/>
    <path id="Caminho_515" data-name="Caminho 515" fill="#e4b48d"/>
    <path id="Caminho_516" data-name="Caminho 516" fill="#e4b48d"/>
    <path id="Caminho_517" data-name="Caminho 517" fill="#e4b48d"/>
    <path id="Caminho_518" data-name="Caminho 518" fill="#e4b48d"/>
    <path id="Caminho_519" data-name="Caminho 519" fill="#e4b48d"/>
    <path id="Caminho_520" data-name="Caminho 520" fill="#e4b48d"/>
    <path id="Caminho_521" data-name="Caminho 521" d="M0,0,2,1Z" transform="translate(466 435)" fill="#e4b48d"/>
    <path id="Caminho_522" data-name="Caminho 522" fill="#e4b48d"/>
    <path id="Caminho_523" data-name="Caminho 523" fill="#e4b48d"/>
    <path id="Caminho_524" data-name="Caminho 524" fill="#e4b48d"/>
    <path id="Caminho_525" data-name="Caminho 525" fill="#e4b48d"/>
    <path id="Caminho_526" data-name="Caminho 526" fill="#e4b48d"/>
    <path id="Caminho_527" data-name="Caminho 527" fill="#e4b48d"/>
    <path id="Caminho_528" data-name="Caminho 528" fill="#e4b48d"/>
    <path id="Caminho_529" data-name="Caminho 529" fill="#e4b48d"/>
    <path id="Caminho_530" data-name="Caminho 530" fill="#e4b48d"/>
    <path id="Caminho_531" data-name="Caminho 531" fill="#e4b48d"/>
    <path id="Caminho_532" data-name="Caminho 532" d="M0,0,2,1Z" transform="translate(1197 350)" fill="#e4b48d"/>
    <path id="Caminho_533" data-name="Caminho 533" d="M0,0,2,1Z" transform="translate(1172 345)" fill="#e4b48d"/>
    <path id="Caminho_534" data-name="Caminho 534" d="M0,0,2,1Z" transform="translate(1147 340)" fill="#e4b48d"/>
    <path id="Caminho_535" data-name="Caminho 535" d="M0,0,2,1Z" transform="translate(1122 335)" fill="#e4b48d"/>
    <path id="Caminho_536" data-name="Caminho 536" fill="#e4b48d"/>
    <path id="Caminho_537" data-name="Caminho 537" fill="#e4b48d"/>
    <path id="Caminho_538" data-name="Caminho 538" d="M0,0,2,1Z" transform="translate(733 300)" fill="#e4b48d"/>
    <path id="Caminho_539" data-name="Caminho 539" fill="#e4b48d"/>
    <path id="Caminho_540" data-name="Caminho 540" d="M0,0,2,1Z" transform="translate(783 290)" fill="#e4b48d"/>
    <path id="Caminho_541" data-name="Caminho 541" fill="#e4b48d"/>
    <path id="Caminho_542" data-name="Caminho 542" fill="#e4b48d"/>
    <path id="Caminho_543" data-name="Caminho 543" fill="#e4b48d"/>
    <path id="Caminho_544" data-name="Caminho 544" fill="#e4b48d"/>
    <path id="Caminho_545" data-name="Caminho 545" fill="#e4b48d"/>
    <path id="Caminho_546" data-name="Caminho 546" fill="#e4b48d"/>
    <path id="Caminho_547" data-name="Caminho 547" fill="#e4b48d"/>
    <path id="Caminho_548" data-name="Caminho 548" d="M0,0,2,1Z" transform="translate(520 135)" fill="#e4b48d"/>
    <path id="Caminho_549" data-name="Caminho 549" d="M0,0,2,1Z" transform="translate(358 135)" fill="#e4b48d"/>
    <path id="Caminho_550" data-name="Caminho 550" d="M0,0,2,1Z" transform="translate(492 125)" fill="#e4b48d"/>
    <path id="Caminho_551" data-name="Caminho 551" d="M0,0,2,1Z" transform="translate(386 125)" fill="#e4b48d"/>
    <path id="Caminho_552" data-name="Caminho 552" fill="#e4b48d"/>
    <path id="Caminho_553" data-name="Caminho 553" fill="#e4b48d"/>
    <path id="Caminho_554" data-name="Caminho 554" fill="#e4b48d"/>
    <path id="Caminho_555" data-name="Caminho 555" fill="#e4b48d"/>
    <path id="Caminho_556" data-name="Caminho 556" fill="#e4b48d"/>
    <path id="Caminho_557" data-name="Caminho 557" fill="#e4b48d"/>
    <path id="Caminho_558" data-name="Caminho 558" fill="#e4b48d"/>
    <path id="Caminho_559" data-name="Caminho 559" fill="#e4b48d"/>
    <path id="Caminho_560" data-name="Caminho 560" fill="#e4b48d"/>
    <path id="Caminho_561" data-name="Caminho 561" fill="#e4b48d"/>
    <path id="Caminho_562" data-name="Caminho 562" fill="#e4b48d"/>
    <path id="Caminho_563" data-name="Caminho 563" fill="#e4b48d"/>
    <path id="Caminho_564" data-name="Caminho 564" fill="#e4b48d"/>
    <path id="Caminho_565" data-name="Caminho 565" fill="#e4b48d"/>
    <path id="Caminho_566" data-name="Caminho 566" fill="#e4b48d"/>
    <path id="Caminho_567" data-name="Caminho 567" fill="#e4b48d"/>
    <path id="Caminho_568" data-name="Caminho 568" fill="#e4b48d"/>
    <path id="Caminho_569" data-name="Caminho 569" fill="#e4b48d"/>
    <path id="Caminho_570" data-name="Caminho 570" fill="#e4b48d"/>
    <path id="Caminho_571" data-name="Caminho 571" fill="#e4b48d"/>
    <path id="Caminho_572" data-name="Caminho 572" fill="#e4b48d"/>
    <path id="Caminho_573" data-name="Caminho 573" fill="#e4b48d"/>
    <path id="Caminho_574" data-name="Caminho 574" fill="#e4b48d"/>
    <path id="Caminho_575" data-name="Caminho 575" fill="#e4b48d"/>
    <path id="Caminho_576" data-name="Caminho 576" fill="#e4b48d"/>
    <path id="Caminho_577" data-name="Caminho 577" fill="#e4b48d"/>
    <path id="Caminho_578" data-name="Caminho 578" fill="#e4b48d"/>
    <path id="Caminho_579" data-name="Caminho 579" fill="#e4b48d"/>
    <path id="Caminho_580" data-name="Caminho 580" fill="#e4b48d"/>
    <path id="Caminho_581" data-name="Caminho 581" fill="#e4b48d"/>
    <path id="Caminho_582" data-name="Caminho 582" fill="#e4b48d"/>
    <path id="Caminho_583" data-name="Caminho 583" fill="#e4b48d"/>
    <path id="Caminho_584" data-name="Caminho 584" fill="#e4b48d"/>
    <path id="Caminho_585" data-name="Caminho 585" fill="#e4b48d"/>
    <path id="Caminho_586" data-name="Caminho 586" fill="#e4b48d"/>
    <path id="Caminho_587" data-name="Caminho 587" fill="#e4b48d"/>
    <path id="Caminho_588" data-name="Caminho 588" fill="#e4b48d"/>
    <path id="Caminho_589" data-name="Caminho 589" fill="#e4b48d"/>
    <path id="Caminho_590" data-name="Caminho 590" fill="#e4b48d"/>
    <path id="Caminho_591" data-name="Caminho 591" fill="#e4b48d"/>
    <path id="Caminho_592" data-name="Caminho 592" fill="#e4b48d"/>
    <path id="Caminho_593" data-name="Caminho 593" fill="#e4b48d"/>
    <path id="Caminho_594" data-name="Caminho 594" fill="#e4b48d"/>
    <path id="Caminho_595" data-name="Caminho 595" fill="#e4b48d"/>
    <path id="Caminho_596" data-name="Caminho 596" fill="#e4b48d"/>
    <path id="Caminho_597" data-name="Caminho 597" fill="#e4b48d"/>
    <path id="Caminho_598" data-name="Caminho 598" fill="#e4b48d"/>
    <path id="Caminho_599" data-name="Caminho 599" fill="#e4b48d"/>
    <path id="Caminho_600" data-name="Caminho 600" fill="#e4b48d"/>
    <path id="Caminho_601" data-name="Caminho 601" fill="#e4b48d"/>
    <path id="Caminho_602" data-name="Caminho 602" fill="#e4b48d"/>
    <path id="Caminho_603" data-name="Caminho 603" fill="#e4b48d"/>
    <path id="Caminho_604" data-name="Caminho 604" fill="#e4b48d"/>
    <path id="Caminho_605" data-name="Caminho 605" fill="#e4b48d"/>
    <path id="Caminho_606" data-name="Caminho 606" fill="#e4b48d"/>
    <path id="Caminho_607" data-name="Caminho 607" fill="#e4b48d"/>
    <path id="Caminho_608" data-name="Caminho 608" fill="#e4b48d"/>
    <path id="Caminho_609" data-name="Caminho 609" fill="#e4b48d"/>
    <path id="Caminho_610" data-name="Caminho 610" fill="#e4b48d"/>
    <path id="Caminho_611" data-name="Caminho 611" fill="#e4b48d"/>
    <path id="Caminho_612" data-name="Caminho 612" fill="#e4b48d"/>
    <path id="Caminho_613" data-name="Caminho 613" fill="#e4b48d"/>
    <path id="Caminho_614" data-name="Caminho 614" fill="#e4b48d"/>
    <path id="Caminho_615" data-name="Caminho 615" fill="#e4b48d"/>
    <path id="Caminho_616" data-name="Caminho 616" fill="#e4b48d"/>
    <path id="Caminho_617" data-name="Caminho 617" fill="#e4b48d"/>
    <path id="Caminho_618" data-name="Caminho 618" fill="#e4b48d"/>
    <path id="Caminho_619" data-name="Caminho 619" fill="#e4b48d"/>
    <path id="Caminho_620" data-name="Caminho 620" fill="#e4b48d"/>
    <path id="Caminho_621" data-name="Caminho 621" fill="#e4b48d"/>
    <path id="Caminho_622" data-name="Caminho 622" fill="#e4b48d"/>
    <path id="Caminho_623" data-name="Caminho 623" fill="#e4b48d"/>
    <path id="Caminho_624" data-name="Caminho 624" fill="#e4b48d"/>
    <path id="Caminho_625" data-name="Caminho 625" fill="#e4b48d"/>
    <path id="Caminho_626" data-name="Caminho 626" fill="#e4b48d"/>
    <path id="Caminho_627" data-name="Caminho 627" fill="#e4b48d"/>
    <path id="Caminho_628" data-name="Caminho 628" fill="#e4b48d"/>
    <path id="Caminho_629" data-name="Caminho 629" fill="#e4b48d"/>
    <path id="Caminho_630" data-name="Caminho 630" fill="#e4b48d"/>
    <path id="Caminho_631" data-name="Caminho 631" fill="#e4b48d"/>
    <path id="Caminho_632" data-name="Caminho 632" fill="#e4b48d"/>
    <path id="Caminho_633" data-name="Caminho 633" fill="#e4b48d"/>
    <path id="Caminho_634" data-name="Caminho 634" fill="#e4b48d"/>
    <path id="Caminho_635" data-name="Caminho 635" fill="#e4b48d"/>
    <path id="Caminho_636" data-name="Caminho 636" fill="#e4b48d"/>
    <path id="Caminho_637" data-name="Caminho 637" fill="#e4b48d"/>
    <path id="Caminho_638" data-name="Caminho 638" fill="#e4b48d"/>
    <path id="Caminho_639" data-name="Caminho 639" fill="#e4b48d"/>
    <path id="Caminho_640" data-name="Caminho 640" fill="#e4b48d"/>
    <path id="Caminho_641" data-name="Caminho 641" fill="#e4b48d"/>
    <path id="Caminho_642" data-name="Caminho 642" fill="#e4b48d"/>
    <path id="Caminho_643" data-name="Caminho 643" fill="#e4b48d"/>
    <path id="Caminho_644" data-name="Caminho 644" fill="#e4b48d"/>
    <path id="Caminho_645" data-name="Caminho 645" fill="#e4b48d"/>
    <path id="Caminho_646" data-name="Caminho 646" fill="#e4b48d"/>
    <path id="Caminho_647" data-name="Caminho 647" fill="#e4b48d"/>
    <path id="Caminho_648" data-name="Caminho 648" fill="#e4b48d"/>
    <path id="Caminho_649" data-name="Caminho 649" fill="#e4b48d"/>
    <path id="Caminho_650" data-name="Caminho 650" fill="#e4b48d"/>
    <path id="Caminho_651" data-name="Caminho 651" fill="#e4b48d"/>
    <path id="Caminho_652" data-name="Caminho 652" fill="#e4b48d"/>
    <path id="Caminho_653" data-name="Caminho 653" fill="#e4b48d"/>
    <path id="Caminho_654" data-name="Caminho 654" fill="#e4b48d"/>
    <path id="Caminho_655" data-name="Caminho 655" fill="#e4b48d"/>
    <path id="Caminho_656" data-name="Caminho 656" fill="#e4b48d"/>
    <path id="Caminho_657" data-name="Caminho 657" fill="#e4b48d"/>
    <path id="Caminho_658" data-name="Caminho 658" fill="#e4b48d"/>
    <path id="Caminho_659" data-name="Caminho 659" fill="#e4b48d"/>
    <path id="Caminho_660" data-name="Caminho 660" fill="#e4b48d"/>
    <path id="Caminho_661" data-name="Caminho 661" fill="#e4b48d"/>
    <path id="Caminho_662" data-name="Caminho 662" fill="#e4b48d"/>
    <path id="Caminho_663" data-name="Caminho 663" fill="#e4b48d"/>
    <path id="Caminho_664" data-name="Caminho 664" fill="#e4b48d"/>
    <path id="Caminho_665" data-name="Caminho 665" fill="#e4b48d"/>
    <path id="Caminho_666" data-name="Caminho 666" fill="#e4b48d"/>
    <path id="Caminho_667" data-name="Caminho 667" fill="#e4b48d"/>
    <path id="Caminho_668" data-name="Caminho 668" fill="#e4b48d"/>
    <path id="Caminho_669" data-name="Caminho 669" fill="#e4b48d"/>
    <path id="Caminho_670" data-name="Caminho 670" fill="#e4b48d"/>
    <path id="Caminho_671" data-name="Caminho 671" fill="#e4b48d"/>
    <path id="Caminho_672" data-name="Caminho 672" fill="#e4b48d"/>
    <path id="Caminho_673" data-name="Caminho 673" fill="#e4b48d"/>
    <path id="Caminho_674" data-name="Caminho 674" fill="#e4b48d"/>
    <path id="Caminho_675" data-name="Caminho 675" fill="#e4b48d"/>
    <path id="Caminho_676" data-name="Caminho 676" fill="#e4b48d"/>
    <path id="Caminho_677" data-name="Caminho 677" fill="#e4b48d"/>
  </g>
</svg>
