<svg id="L_Oréal_logo" data-name="L&apos;Oréal_logo" xmlns="http://www.w3.org/2000/svg" width="800" height="144.748" viewBox="0 0 800 144.748">
  <path id="polyline3" d="M435.229,135.009H538.465V122.4H452.927V82.049h64.249V69.29H452.927V32.115h85.538V19.551H435.229V135.009" fill="#e4b48d"/>
  <path id="polyline5" d="M488.878.887,474.9,16.589,518.778.887h-29.9" fill="#e4b48d"/>
  <path id="polyline7" d="M711.773,122.4V19.551H695.637V135.009H800V122.4H711.773" fill="#e4b48d"/>
  <path id="path9" d="M605.359,19.551,546.652,135.009H566.5l15.019-29.884h70.41l15.147,29.884h19.639L627.957,19.551h-22.6m-16.413,71.1L616.61,35.505,644.6,90.653Z" fill="#e4b48d"/>
  <path id="path11" d="M379.21,86.73c26.451-7.058,29.021-26.739,28.887-33.775-1.579-20.626-15.476-33.4-40.447-33.4H294.88V135.009h16.589V86.576h47.375L393.7,135.009h20.909s-25.082-32.6-35.4-48.279m-13.825-13.8H311.469V33.217h55.8c12.846,0,20.072,6,22.675,13.615,1.722,5.222.618,12.077-2.231,16.744C383.045,71.292,374.187,72.934,365.385,72.934Z" fill="#e4b48d"/>
  <path id="path13" d="M195.188,0c-46.828,0-78.745,33.017-78.745,72.979,0,42.07,35.257,71.769,78.745,71.769,43.459,0,78.7-29.275,78.7-71.769C273.89,33.017,241.578,0,195.188,0m-.562,130.416c-32.4,0-59.092-26.035-59.092-57.4,0-31.32,25.434-58.6,60.348-58.6a58.6,58.6,0,0,1,59.078,58.6C254.96,104.38,227.01,130.416,194.626,130.416Z" fill="#e4b48d"/>
  <path id="polyline15" d="M74.663,60.4h11.97L108.36,19.551H90.876L74.663,60.4" fill="#e4b48d"/>
  <path id="polyline17" d="M16.145,122.4V19.551H0V135.009H104.359V122.4H16.145" fill="#e4b48d"/>
</svg>
