<svg xmlns="http://www.w3.org/2000/svg" width="1280.769" height="1280.894" viewBox="0 0 1280.769 1280.894">
  <g id="phone" transform="translate(0.25 0.62)">
    <path id="Caminho_1" data-name="Caminho 1" d="M0,0,1,2c.72-.32,1.44-.65,2.19-.98A21.256,21.256,0,0,1,11-.31l2.93-.04,3.14-.02L20.34-.4l6.85-.03c3.47-.01,6.93-.06,10.4-.11,2.23-.01,4.45-.01,6.67-.02l3.11-.06A33.251,33.251,0,0,1,71,9c2.39,2.72,3.85,4.56,5,8l3,1a34.9,34.9,0,0,1,2,5c.52,1.03,1.03,2.06,1.56,3.12,1.78,4.04,1.93,8.06,2.13,12.43.16,2.7.16,2.7,2.31,5.45a25.847,25.847,0,0,1,.12,4.69c-.01.81-.03,1.61-.05,2.45-.03.92-.03.92-.07,1.86h2c.05.76.1,1.52.15,2.3.11,1.49.11,1.49.23,3.01.06.99.13,1.97.21,2.99.25,2.92.25,2.92,2.41,5.7a37.746,37.746,0,0,1,.12,5.69c-.01.99-.03,1.99-.05,3.01-.02.76-.05,1.52-.07,2.3h2a24.712,24.712,0,0,1,1.5,6.56c.29,3.29.29,3.29,1.5,5.44.07,1.71.08,3.42.06,5.12-.01.92-.02,1.83-.02,2.76-.02,1.05-.02,1.05-.04,2.12h2c.05.76.1,1.52.15,2.3.11,1.49.11,1.49.23,3.01.06.99.13,1.97.21,2.99.25,2.92.25,2.92,2.41,5.7a25.847,25.847,0,0,1,.12,4.69c-.01.81-.03,1.61-.05,2.45-.03.92-.03.92-.07,1.86h2c.05.76.1,1.52.15,2.3.11,1.49.11,1.49.23,3.01.06.99.13,1.97.21,2.99.25,2.92.25,2.92,2.41,5.7a37.746,37.746,0,0,1,.12,5.69c-.01.99-.03,1.99-.05,3.01-.03,1.14-.03,1.14-.07,2.3h2a24.712,24.712,0,0,1,1.5,6.56c.29,3.29.29,3.29,1.5,5.44.07,1.71.08,3.42.06,5.12-.01.92-.02,1.83-.02,2.76-.02,1.05-.02,1.05-.04,2.12h2c.05.76.1,1.52.15,2.3.11,1.49.11,1.49.23,3.01.06.99.13,1.97.21,2.99.25,2.92.25,2.92,2.41,5.7a25.847,25.847,0,0,1,.12,4.69c-.01.81-.03,1.61-.05,2.45-.03.92-.03.92-.07,1.86h2c.05.76.1,1.52.15,2.3.11,1.49.11,1.49.23,3.01.06.99.13,1.97.21,2.99.25,2.92.25,2.92,2.41,5.7a37.746,37.746,0,0,1,.12,5.69c-.01.99-.03,1.99-.05,3.01-.03,1.14-.03,1.14-.07,2.3h2a24.712,24.712,0,0,1,1.5,6.56c.29,3.29.29,3.29,1.5,5.44.07,1.71.08,3.42.06,5.12-.01.92-.02,1.83-.02,2.76-.02,1.05-.02,1.05-.04,2.12h2c.05.76.1,1.52.15,2.3.11,1.49.11,1.49.23,3.01.06.99.13,1.97.21,2.99.25,2.92.25,2.92,2.41,5.7a25.847,25.847,0,0,1,.12,4.69c-.01.81-.03,1.61-.05,2.45-.03.92-.03.92-.07,1.86h2c.05.76.1,1.52.15,2.3.11,1.49.11,1.49.23,3.01.06.99.13,1.97.21,2.99.25,2.92.25,2.92,2.41,5.7a37.745,37.745,0,0,1,.12,5.69c-.01.99-.03,1.99-.05,3.01-.02.76-.05,1.52-.07,2.3h2a24.712,24.712,0,0,1,1.5,6.56c.29,3.29.29,3.29,1.5,5.44.07,1.71.08,3.42.06,5.12-.01,1.37-.01,1.37-.02,2.76-.02,1.05-.02,1.05-.04,2.12h2c.05.76.1,1.52.15,2.3.11,1.49.11,1.49.23,3.01.06.99.13,1.97.21,2.99.25,2.92.25,2.92,2.41,5.7.2,2.83.28,5.54.25,8.38.01.75.02,1.51.02,2.28-.01,4.23-.33,7.48-2.27,11.34h-3l3,2-3,1c.08.7.17,1.4.25,2.12-.33,3.84-1.99,5.82-4.25,8.88l-2,3h-2v2a34.075,34.075,0,0,1-3.39,3.02c-5.03,4.29-9.67,8.91-14.33,13.59-.95.94-1.89,1.89-2.84,2.84q-3.825,3.81-7.64,7.64-3.99,4.02-8,8.02-7.575,7.575-15.13,15.15-8.625,8.64-17.24,17.26Q47.715,450.25,30,468c.33.91.66,1.81,1,2.75C32,474,32,474,32,478l3,1c1.71,3.32,2,5.18,2,9l3,1v4h2v5l3,1a25.006,25.006,0,0,1,2.44,4.06c.43.81.86,1.62,1.3,2.46q2.2,4.335,4.36,8.7c1.18,2.34,2.52,4.56,3.9,6.78.52.87,1.03,1.73,1.56,2.62,1.1,1.82,2.26,3.61,3.44,5.38v4c.62.23,1.24.45,1.88.69,2.8,1.73,3.01,3.25,4.12,6.31a69.5,69.5,0,0,0,6.19,8.56A13.076,13.076,0,0,1,77,556h2c.67,1.33,1.33,2.67,2,4,.8,1.55.8,1.55,1.62,3.12C84,566,84,566,84,568l3,1v4c.6.21,1.2.41,1.81.62,3,1.89,3.7,4.21,5.19,7.38.84.8.84.8,1.69,1.62C97,584,97,584,97,588c.6.23,1.2.45,1.81.69,2.81,1.68,3.74,3.4,5.19,6.31.33,1.33.67,2.67,1,4l2,1c7.49,6.78,7.49,6.78,8.46,11,.83,3.06,2.93,4.42,5.26,6.44C122,619,122,619,122,623c.6.27,1.2.54,1.81.81,3.44,1.87,4.86,3.51,6.57,7.07,1.77,3.41,3.88,5.44,6.62,8.12a31.217,31.217,0,0,1,4,8h2a44.55,44.55,0,0,1,5.44,7.5c1.55,2.69,1.55,2.69,4.25,5.19C155,662,155,662,155,664c.64.23,1.28.45,1.94.69,1.02.65,1.02.65,2.06,1.31.33,1.67.67,3.33,1,5,.59.29,1.17.59,1.78.89,2.76,1.38,4.26,3.1,6.28,5.42.67.76,1.35,1.52,2.04,2.3a25.337,25.337,0,0,1,3.27,4.79,33.532,33.532,0,0,0,5.54,6.63c.74.73,1.48,1.46,2.25,2.21l2.34,2.26q2.31,2.22,4.59,4.47c.68.65,1.36,1.31,2.06,1.98A41.61,41.61,0,0,1,195,709c1.66,1.34,3.33,2.68,5,4,.89,1,1.75,2.02,2.6,3.06,3.91,4.62,8.17,8.87,12.45,13.15l2.58,2.6c1.79,1.79,3.58,3.59,5.38,5.38q4.125,4.14,8.24,8.29c1.75,1.74,3.49,3.49,5.23,5.23.83.84,1.65,1.67,2.5,2.52.76.76,1.52,1.52,2.31,2.3,1,1.01,1,1.01,2.03,2.04,1.57,1.65,1.57,1.65,3.68,1.43.43.74.87,1.49,1.31,2.25A19.96,19.96,0,0,0,257,769v2c.56.23,1.11.45,1.69.69,3.93,2.23,6.77,5.75,9.89,8.99,4.8,4.95,9.44,9.28,15.35,12.91a44.342,44.342,0,0,1,7.66,7.09c1.33,1.55,1.33,1.55,3.41,1.32v2l3,1v2c.59.27,1.19.55,1.8.83a25.4,25.4,0,0,1,5.45,3.92c3.18,2.8,6.49,5.35,9.9,7.87,1.56,1.17,3.09,2.39,4.6,3.63A12.85,12.85,0,0,0,324,826a37.22,37.22,0,0,1,7,5q2.34,1.845,4.69,3.69c.76.6,1.53,1.2,2.32,1.82A13.193,13.193,0,0,0,342,839v2c.6.27,1.2.54,1.81.81a9.674,9.674,0,0,1,3.57,2.63c2.24,2.15,4.84,3.2,7.62,4.56a45.052,45.052,0,0,1,5.41,4.31c5.02,4.57,10.56,7.62,16.59,10.69v2c.54.27,1.08.53,1.64.8,2.74,1.39,5.42,2.85,8.11,4.32,1.48.81,1.48.81,2.98,1.64,1.13.61,1.13.61,2.27,1.24v2c.54.26,1.08.52,1.63.79,2.83,1.45,5.56,3.04,8.31,4.65,1.02.59,2.04,1.19,3.09,1.81.98.57,1.96,1.15,2.97,1.75l2.5,1.47c1.82,1.11,3.61,2.27,5.37,3.46,3.33,2.2,6.72,4.18,10.19,6.13,5.57,3.15,11.06,6.3,16.32,9.94A57.6,57.6,0,0,0,454,912c1.34.65,2.68,1.31,4,2v2c.55.11,1.09.22,1.65.33,7.11,2.02,13.77,6.33,20.23,9.86,1.34.73,1.34.73,2.71,1.48,1.95,1.08,3.87,2.2,5.79,3.33,2.56,1.28,2.56,1.28,5.01.32a25.526,25.526,0,0,0,7.05-5.4c.86-.85,1.72-1.71,2.6-2.59,1.39-1.4,1.39-1.4,2.81-2.84l2.99-2.99c2.71-2.71,5.4-5.42,8.1-8.13,2.82-2.85,5.66-5.68,8.49-8.52q8.04-8.055,16.08-16.14,9.105-9.165,18.24-18.31,15.615-15.66,31.21-31.33c1.66-1.66,3.31-3.33,4.97-4.99,1.24-1.25,2.47-2.5,3.69-3.77,2.7-2.82,4.41-3.97,8.38-4.31v-2c5.62-3,5.62-3,9-3l1-2v2h3v-2q4.215-.045,8.44-.06l2.43-.03c2.04-.01,4.09.04,6.13.09l1,1q3.09.315,6.18.61a130.317,130.317,0,0,1,13.1,2.77A10.905,10.905,0,0,0,663,820v2c1.58-.09,1.58-.09,3.19-.19,6.13,0,11.9,1.71,17.81,3.19q11.5,2.73,23.06,5.19,1.23.27,2.49.54c.78.17,1.56.33,2.36.5.69.15,1.38.3,2.1.45,2.31.43,2.31.43,5.99.32v2l13,1v2c.64-.01,1.28-.02,1.93-.04.83,0,1.66-.01,2.51-.02.82-.01,1.64-.03,2.49-.04,2.07.1,2.07.1,3.07,1.1,1.99.37,4,.7,6,1,5.89.89,5.89.89,7,2,3.49.66,6.98,1.24,10.48,1.81A76.357,76.357,0,0,1,779,846a26.485,26.485,0,0,0,4.06.44,103.8,103.8,0,0,1,15.22,2.94A10.905,10.905,0,0,0,803,850v2c.64-.01,1.28-.02,1.93-.04.83,0,1.66-.01,2.51-.02.82-.01,1.64-.03,2.49-.04,2.07.1,2.07.1,3.07,1.1,1.99.37,4,.7,6,1,5.89.89,5.89.89,7,2,3.49.66,6.98,1.24,10.48,1.81A76.357,76.357,0,0,1,849,861a26.485,26.485,0,0,0,4.06.44,103.8,103.8,0,0,1,15.22,2.94A10.905,10.905,0,0,0,873,865v2c.64-.01,1.28-.02,1.93-.04.83,0,1.66-.01,2.51-.02.82-.01,1.64-.03,2.49-.04,2.07.1,2.07.1,3.07,1.1,1.99.37,4,.7,6,1,5.89.89,5.89.89,7,2,3.49.66,6.98,1.24,10.48,1.81A81.2,81.2,0,0,1,919,876q2.925.405,5.88.62c.96.08,1.93.15,2.92.23.73.05,1.45.1,2.2.15v2c1.22.1,2.43.21,3.69.31C944.15,880.69,951.97,890.8,959,898a7.688,7.688,0,0,1-2,3h3c3.6,5.62,3.42,10.65,3.36,17.09v3.23c0,2.25-.01,4.49-.02,6.74-.03,3.43-.02,6.86-.02,10.29q0,3.27-.02,6.56V948c-.05,5.1-.38,9.21-2.3,14-.21,2.04-.35,4.08-.44,6.12a78.189,78.189,0,0,1-2.84,16.22,39.6,39.6,0,0,0-1.25,5.38A11.635,11.635,0,0,1,955,994c-.23,1.87-.41,3.75-.56,5.62-.09,1.01-.17,2.01-.26,3.04-.09,1.16-.09,1.16-.18,2.34h-2c.06,1.83.06,1.83.12,3.69A19.5,19.5,0,0,1,950,1018c-.36,1.33-.7,2.66-1,4h-2c.06,1.18.12,2.35.19,3.56.02,4.5-1.29,7.41-3.19,11.44v3h-2v4h-2c.02.95.04,1.9.06,2.88C940,1050,940,1050,939,1052h-2v5h-2c-.06.95-.12,1.9-.19,2.88-.74,5.22-3.35,9.52-5.81,14.12q-1.26,2.49-2.5,5c-.41.82-.82,1.63-1.24,2.48q-1.3,2.61-2.58,5.23c-.43.88-.86,1.76-1.3,2.67-.39.79-.77,1.58-1.17,2.39A38.052,38.052,0,0,1,916,1098h-1v3l-3,1v5h-2c-.08.74-.16,1.48-.25,2.25-.91,3.33-2.27,4.41-4.75,6.75-1.05,1.64-2.04,3.31-3,5q-1.245,2.07-2.5,4.12c-.4.67-.8,1.33-1.22,2.01A23.679,23.679,0,0,1,894,1132h-2c-.04.68-.08,1.36-.12,2.06-1.07,3.57-2.8,5.42-5.31,8.1a13.753,13.753,0,0,0-2.93,4.22c-2.65,4.23-6.36,7.37-9.95,10.8A55.185,55.185,0,0,0,867,1166c-4.39,5.78-9.99,12.66-17,15-.67,1.33-1.34,2.66-2,4a27.287,27.287,0,0,1-3.69,2.81,64.343,64.343,0,0,0-9.86,8.87C833,1198,833,1198,831,1198v2a30.2,30.2,0,0,1-3.75,2.38,27.814,27.814,0,0,0-6.5,4.93C819,1209,819,1209,815,1209c-.23.58-.45,1.15-.69,1.75-2.58,4.42-6.99,6.72-11.31,9.25-1.49,1.02-1.49,1.02-3,2.06a21.744,21.744,0,0,1-5.69,3c-2.37.78-2.37.78-3.87,2.56C789,1229,789,1229,785,1229l-1,3-5,1-1,3c-3.49,1.75-6.07,3-10,3v2c-6.62,3-6.62,3-10,3v2a107.421,107.421,0,0,1-10.06,4,21.827,21.827,0,0,0-6.06,2.62C739,1254,739,1254,735,1254v2c-.99.27-1.97.53-2.99.8l-3.89,1.08c-.65.17-1.3.34-1.97.52-3.96,1.1-3.96,1.1-7.15,3.6-2.13.57-4.28,1.06-6.44,1.5-3.86.79-6.26,1.3-9.56,3.5-2.63.57-5.22,1.07-7.88,1.5A57.4,57.4,0,0,0,682,1272c-2.67.49-5.3.73-8,1v1c-.74.05-1.47.1-2.23.15-.98.07-1.95.15-2.96.23-1.44.1-1.44.1-2.92.21a11.3,11.3,0,0,0-5.35,1.42c-4.02,1.57-8.1,1.45-12.38,1.65-3.08.17-3.08.17-5.4,1.35-3.47,1.25-6.36,1.24-10.06,1.25-.71,0-1.43.01-2.17.01-2.35.01-4.71,0-7.07,0h-4.92q-5.16,0-10.31-.01-6.615-.015-13.22.01c-3.38.01-6.77,0-10.16,0h-4.88c-2.26.01-4.53,0-6.8-.01-1.29,0-2.58,0-3.91-.01A14.494,14.494,0,0,1,562,1278c-2.28-.24-4.58-.4-6.88-.5-4.73-.2-8.72-.66-13.12-2.5l-1-2-1.7-.06c-2.54-.1-5.07-.21-7.61-.32l-2.67-.09-2.57-.12-2.37-.09C522,1272,522,1272,519,1270a20.669,20.669,0,0,0-4.19-.62c-1.88-.19-1.88-.19-3.81-.38v-1c-.63-.11-1.26-.22-1.91-.33a73.09,73.09,0,0,1-14.23-3.95c-1.75-.68-3.55-1.2-5.36-1.72-3.21-.92-6.26-2.01-9.37-3.2-3.67-1.38-7.4-2.58-11.13-3.8v-3c-1.99.03-3.97.07-5.96.1-2.04-.1-2.04-.1-5.04-1.1v-2c-.93-.08-1.86-.16-2.81-.25-7.44-1.06-14.61-4.23-21.19-7.75a57,57,0,0,0-13-5v-2h-5v-2c-.93-.06-1.86-.12-2.81-.19-5.47-.74-10.28-3.41-15.19-5.81v-2c-.72-.13-1.44-.26-2.18-.39-8.03-1.73-15.23-5.16-22.31-9.24A57.409,57.409,0,0,0,366,1211v-2h-5v-2l-5-1v-2h-5v-2l-5-1v-2h-5v-2l-5-1v-2h-5v-2c-1.08-.19-1.08-.19-2.19-.38A42.178,42.178,0,0,1,321,1189v-2c-.78-.14-1.57-.29-2.38-.44A12.94,12.94,0,0,1,314,1185v-3l-3,1a39.8,39.8,0,0,1-9.25-5.44c-4.19-3.11-8.87-4.8-13.75-6.56v-2c-.78-.08-1.57-.16-2.38-.25-2.62-.75-2.62-.75-3.93-2.81-.23-.64-.46-1.28-.69-1.94h-5v-2l-5-1v-2c-.76-.1-1.53-.21-2.31-.31-2.98-.76-3.63-1.54-5.69-3.69-1.65-.71-3.32-1.37-5-2-5.85-2.7-5.85-2.7-7-5q-2.46-1.08-5-2v-2h-3l-1-2c-.62-.14-1.24-.29-1.88-.44-2.54-.67-3.33-1.69-5.12-3.56-1.32-.7-2.65-1.37-4-2a43.971,43.971,0,0,1-5-3v-2h-5c-.23-.64-.45-1.28-.69-1.94-1.15-2.33-1.15-2.33-3.87-2.68-.81-.13-1.61-.25-2.44-.38l-1-2c-1.91-.94-3.81-1.87-5.73-2.79-4.64-2.47-9.57-5.1-11.27-10.21-1.02.19-1.02.19-2.06.38-3.87-.5-5.37-2.19-8.16-4.79a36.34,36.34,0,0,0-5.22-3.84c-.84-.58-1.69-1.15-2.56-1.75v-2c-.74-.1-1.47-.2-2.23-.3-3.1-.78-4.59-1.85-7.02-3.89a106.351,106.351,0,0,0-9.44-6.93,97.87,97.87,0,0,1-12.28-9.68c-3.62-3.27-6.46-5.44-11.03-7.2a91.037,91.037,0,0,1-9-8h-2c-4-4-4-4-5.31-6-1.54-2.16-1.54-2.16-3.94-2.81-3.5-1.51-5.4-3.74-8-6.47a15.547,15.547,0,0,0-4.69-3.66,53.374,53.374,0,0,1-9.13-8.26A21.139,21.139,0,0,0,88,1032a95.526,95.526,0,0,1-12-11v-2c-.74-.08-1.47-.17-2.23-.25-3.38-.91-4.63-2.19-7.02-4.71-.77-.8-1.55-1.6-2.34-2.43s-1.59-1.68-2.41-2.55q-2.37-2.49-4.75-4.96c-1.04-1.11-1.04-1.11-2.11-2.24A19.754,19.754,0,0,0,48,998a13.687,13.687,0,0,1-3-3v-2c-.57-.24-1.13-.48-1.71-.73a30.024,30.024,0,0,1-6.89-5.64c-.9-.91-1.81-1.81-2.74-2.74l-2.94-2.97q-1.515-1.53-3.04-3.05-4.005-4.02-7.99-8.04-4.035-4.08-8.09-8.14-7.155-7.17-14.28-14.36-6.06-6.09-12.18-12.12-2.73-2.7-5.45-5.4c-.93-.91-1.87-1.83-2.82-2.77-.88-.87-1.76-1.75-2.67-2.65-.81-.79-1.61-1.59-2.44-2.41C-30,920-30,920-30,918h-2a31.222,31.222,0,0,1-2.69-3.5c-5.56-7.64-11.97-14.24-18.76-20.79A61.788,61.788,0,0,1-60,885q-2.22-2.31-4.56-4.5A34.589,34.589,0,0,1-72,870c-2.14-2.29-4.38-4.44-6.64-6.61a80.821,80.821,0,0,1-7.95-9.74L-88,852h-2c-.33-1.15-.66-2.31-1-3.5-1.7-4.56-4.38-7.15-7.88-10.44-4.7-4.58-8.43-9.95-12-15.44a106.8,106.8,0,0,0-7.68-10.18C-128,801.09-128,801.09-128,797l-3-1c-.95-1.59-1.89-3.2-2.77-4.83A122.986,122.986,0,0,0-146,774c-3-3.64-3-3.64-3-7l-3-1a55.06,55.06,0,0,1-3.69-5.94c-.62-1.08-1.24-2.16-1.88-3.27C-159,754-159,754-159,752l-3-1a24.4,24.4,0,0,1-2.5-3.75c-.43-.72-.86-1.45-1.31-2.2-.39-.67-.78-1.35-1.19-2.05-1.57-2.64-3.15-5.21-4.88-7.75-1.59-2.44-2.99-4.82-4.37-7.37-2-3.67-4.21-7.11-6.56-10.57-3.62-5.36-6.87-10.87-10.04-16.51-2.83-5.03-5.78-9.98-8.74-14.94-2.3-3.89-4.41-7.81-6.41-11.86-.6-.89-1.2-1.77-1.81-2.69-4.6-6.96-8.3-14.46-11.99-21.93-1.11-2.21-2.29-4.36-3.51-6.5-2.69-4.78-5.1-9.67-7.53-14.58q-3.57-7.185-7.41-14.24c-2.52-4.66-4.9-9.34-6.96-14.23a26.433,26.433,0,0,0-1.89-3.88C-250,594-250,594-250,591h-2c-.29-.96-.29-.96-.59-1.93-.26-.83-.52-1.66-.79-2.51-.25-.82-.51-1.64-.77-2.49-.66-2.25-.66-2.25-2.85-3.07-.7-1.83-1.31-3.69-1.88-5.56a73.178,73.178,0,0,0-5-12.23c-2.32-4.59-4.23-9.37-6.23-14.1q-1.47-3.465-2.95-6.92-1.065-2.5-2.13-5c-.33-.78-.66-1.55-1.01-2.35-1.93-4.56-3.63-9.14-5.11-13.86a23.4,23.4,0,0,0-2.38-5.36C-285,513-285,513-285,510h-2c-.12-.74-.25-1.49-.38-2.25A27.165,27.165,0,0,0-290,501c-.48-1.34-.94-2.7-1.38-4.06q-1.635-5.07-3.5-10.06c-4.19-11.5-7.88-23.08-11.12-34.88-.18-.65-.36-1.29-.54-1.96-.56-1.99-1.1-3.98-1.65-5.98-.32-1.18-.64-2.37-.98-3.59a49.452,49.452,0,0,1-1.32-6.97,23.069,23.069,0,0,0-1.47-6.67,107.047,107.047,0,0,1-2.6-16.14q-.375-3.255-.76-6.49c-.1-.95-.21-1.9-.32-2.88A7.393,7.393,0,0,0-317,397c-.1-2.29-.14-4.58-.15-6.86,0-.71,0-1.42-.01-2.14,0-2.34-.01-4.68-.01-7.02,0-1.63,0-3.25-.01-4.88,0-3.4-.01-6.81-.01-10.22q0-6.555-.03-13.1c-.01-3.36-.01-6.71-.01-10.07,0-1.61,0-3.22-.01-4.83q-.015-3.375,0-6.76c0-1.28-.01-2.56-.01-3.88A13.426,13.426,0,0,1-315,320l-2-1h2V305h2c-.18-.71-.37-1.42-.55-2.14a21.829,21.829,0,0,1,.43-8.55c.18-.95.36-1.9.55-2.88A13.494,13.494,0,0,1-311,287q.48-2.715.88-5.44a111.571,111.571,0,0,1,6.37-23.41,78.649,78.649,0,0,0,2.19-8.03,87.477,87.477,0,0,1,4.65-13.92,35.423,35.423,0,0,0,2.03-5.76C-294,228-294,228-292,227v-5h2c.11-.7.23-1.4.35-2.12a49.161,49.161,0,0,1,3.09-8.88c1.56-3.65,3.1-7.31,4.56-11h2c.11-.72.23-1.44.35-2.18a32,32,0,0,1,3.09-7.94c.43-.85.86-1.7,1.31-2.58A46.5,46.5,0,0,1-272,182h2l1-5h2v-5h2l1-3-1-1c1.14-1.33,1.14-1.33,2.31-2.69a42.922,42.922,0,0,0,4.38-6.19c.43-.7.86-1.4,1.31-2.12h2c.04-.7.08-1.4.12-2.12,1.08-3.54,2.75-4.94,5.4-7.41A28.519,28.519,0,0,0-245,141q2.49-3,5-6c.56-.91,1.11-1.81,1.69-2.75a79.311,79.311,0,0,1,10.07-10.98A17.884,17.884,0,0,0-224,116a97.927,97.927,0,0,1,8.48-9.61c.83-.84,1.67-1.67,2.53-2.53s1.73-1.72,2.61-2.61l2.65-2.65c.83-.83,1.66-1.67,2.52-2.52l2.3-2.3A11.245,11.245,0,0,1-199,91a102.188,102.188,0,0,0,12.5-11.76A20.043,20.043,0,0,1-179,75c.66-.83,1.32-1.65,2-2.5,2-2.5,2-2.5,4.38-3.44A13.281,13.281,0,0,0-167,65a17.556,17.556,0,0,1,8-5l1.56-1.62C-156,57-156,57-152,57c.34-.96.34-.96.69-1.94C-150,53-150,53-147.38,52.25c.79-.08,1.57-.16,2.38-.25V50q1.11-.405,2.25-.81A28.862,28.862,0,0,0-136,45c3.51-2.37,4.63-3,9-3V40a43.167,43.167,0,0,1,10-3V35c.64-.12,1.28-.25,1.94-.38.68-.2,1.36-.41,2.06-.62l1-2h5V30a122.486,122.486,0,0,1,13.98-5.25c2.29-.76,2.29-.76,5.02-2.75a49.932,49.932,0,0,1,6,0V20a48.5,48.5,0,0,1,9.31-2.5c1.33-.25,1.33-.25,2.69-.5l1-2,1,1V15q6.48-1.74,12.97-3.46c1.88-.5,3.75-1,5.63-1.51,1.06-.28,2.12-.56,3.21-.84.96-.26,1.91-.51,2.9-.77C-41,8-41,8-39,9V7h9l1-2c2.68-.45,5.3-.8,8-1.06,4.9-.09,4.9-.09,9-1.94,2.02-.07,4.04-.08,6.06-.06,1.11.01,2.21.02,3.35.02.85.02,1.71.03,2.59.04ZM5,83c-3.29.27-6.58.44-9.87.62-3.02.19-3.02.19-5.06,1.35a20.02,20.02,0,0,1-6.4,1.88c-.8.13-1.6.26-2.42.39s-1.65.25-2.5.38-1.68.27-2.55.41q-3.09.5-6.2.97v2c-.96.07-.96.07-1.94.15A64.739,64.739,0,0,0-47,94v2l-8,1v2h-5v2c-1.05.12-2.1.25-3.19.38A32.333,32.333,0,0,0-72,104v2c-.72.12-1.44.25-2.19.38A42.178,42.178,0,0,0-82,109v2c-1.05.15-1.05.15-2.12.31a35.192,35.192,0,0,0-11.76,5.63c-2.41,1.59-4.76,3.02-7.31,4.37-.65.35-1.3.7-1.98,1.05C-107,123-107,123-110,122l-1,3,1,1a49.541,49.541,0,0,1-8.56,6,31.574,31.574,0,0,0-7.44,6c-.74.43-1.49.87-2.25,1.31A55.479,55.479,0,0,0-139,148v2c-.86.21-1.73.42-2.62.64-4.17,1.68-6.41,3.94-9.44,7.17-.51.52-1.01,1.05-1.53,1.58q-1.485,1.545-2.97,3.11c-1.4,1.46-2.86,2.86-4.31,4.26-2.36,1.97-2.36,1.97-2.13,4.24l-4,1,1,2-1,1c-.48.56-.96,1.13-1.45,1.71a57.293,57.293,0,0,1-8.36,8.48c-2.53,2.1-3.07,3.78-4.19,6.81l-3,2v2l-3,1,1,3a16.338,16.338,0,0,1-2.69,3.38c-.55.61-1.11,1.22-1.68,1.85-.54.58-1.07,1.17-1.63,1.77-2.64,3.07-4.16,5.07-5,9l-2,1c-.31.82-.62,1.65-.94,2.5-.35.82-.7,1.65-1.06,2.5l-3,1c.23.6.45,1.2.69,1.81.31,2.19.31,2.19-.94,3.88C-205,230-205,230-208,231c.5.99.5.99,1,2l-1,2q-.945,2.34-1.88,4.69c-1.22,3.08-2.47,6.15-3.81,9.19a17.629,17.629,0,0,0-1.87,5.5c-.22.8-.22.8-.44,1.62l-2,1a61.989,61.989,0,0,0-1.34,6.19c-.22.6-.44,1.19-.66,1.81l-3,1,1,2-1,3q-.06,3,0,6h-2c-1.14,2.29-1.1,3.59-1.06,6.12.02,1.28.04,2.56.06,3.88h-2c-2.18,9.92-2.18,9.92-3,20h-2c-.05.98-.1,1.95-.15,2.96-.07,1.27-.15,2.54-.23,3.85-.06,1.27-.13,2.53-.21,3.83C-234,321-234,321-236,324a42.031,42.031,0,0,0-.2,6.86c.01.66.01,1.32.01,2,.01,2.11.04,4.22.07,6.33.01,1.43.01,2.86.02,4.29.02,3.51.06,7.01.1,10.52h-2v7h2c-.01.98-.02,1.97-.03,2.98-.04,3.65-.06,7.3-.08,10.95-.01,1.58-.02,3.16-.04,4.74-.03,2.28-.04,4.55-.05,6.82-.01.7-.02,1.41-.03,2.14,0,3.69.12,5.21,2.23,8.37a63.416,63.416,0,0,1,.62,6.69c.08,1.18.15,2.36.23,3.57.08,1.36.08,1.36.15,2.74h2c-.02.76-.05,1.52-.07,2.3-.03,1.49-.03,1.49-.05,3.01-.04,1.48-.04,1.48-.08,2.99-.01,2.92-.01,2.92,2.2,5.7a33.847,33.847,0,0,1,.62,4.69c.08.81.15,1.61.23,2.45.08.92.08.92.15,1.86h2c.15,1.49.15,1.49.31,3a40.477,40.477,0,0,0,2.8,9.54c1.6,4.41,2.72,8.96,3.93,13.48.74,3.06.74,3.06,2.96,4.98.56,1.58,1.05,3.19,1.5,4.81A95.649,95.649,0,0,0-211,479c.36,1.33.7,2.66,1,4h2v5h2c.15,1.55.15,1.55.31,3.12A31.221,31.221,0,0,0-202,501c.77,2.32,1.39,4.64,2,7h2v5h2c.13.73.26,1.46.39,2.21,1.92,8.79,6.51,17,10.73,24.88.88,1.91.88,1.91,1.38,5.1.16.93.33,1.85.5,2.81l2,1a27.826,27.826,0,0,1,1,4h2v5l2,1a36.062,36.062,0,0,1,1.62,4.56c.27.83.53,1.66.79,2.51.2.63.39,1.27.59,1.93h2l3,10h2l3,10h2c.19,1.08.19,1.08.38,2.19A42.177,42.177,0,0,0-158,598h2c.19.71.39,1.42.59,2.15.26.92.52,1.84.79,2.79.38,1.37.38,1.37.77,2.77.62,2.46.62,2.46,2.85,3.29a27.826,27.826,0,0,1,1,4h2c-.06.76-.12,1.53-.19,2.31.23,3.2.92,3.61,3.19,5.69v3l1,2h3c.12.54.25,1.07.38,1.62A83.864,83.864,0,0,0-138,636l2,1a30.185,30.185,0,0,1,4.06,8.25c.63,2.89.63,2.89,2.94,3.75.33,1.33.67,2.67,1,4l2,1c.31.83.62,1.65.94,2.5.35.83.7,1.65,1.06,2.5l3,1c.1.7.21,1.4.31,2.12A35.938,35.938,0,0,0-117,671h2c.29,1.13.58,2.27.88,3.44.37,1.17.74,2.35,1.12,3.56l2,1c.12.6.25,1.2.38,1.81.82,2.9,2.48,4.11,4.62,6.19a41.437,41.437,0,0,1,2,4c3.45,6.03,7.07,12.08,12,17,1.12,2.5,2.02,5.04,2.94,7.62A12.328,12.328,0,0,0-85,721h2l.94,2.88A20.252,20.252,0,0,0-80,729h3c.25.89.5,1.77.75,2.69A26.136,26.136,0,0,0-71,740c.67,1.33,1.33,2.67,2,4l1.5,1.5a8.221,8.221,0,0,1,2.38,3.31c1.59,3.1,3.89,5.52,6.12,8.19.77,1.36.77,1.36,1.56,2.75,1.24,2.38,1.24,2.38,3.5,3.19C-52,764-52,764-51.12,766.69c1.28,3.77,3.02,5.74,5.66,8.63a21.475,21.475,0,0,1,3.21,4.62c.41.68.82,1.36,1.25,2.06h2v2h2c.27.58.54,1.16.82,1.75a41.5,41.5,0,0,0,4.06,6.19c.52.69,1.05,1.39,1.6,2.11,1.22,1.56,2.46,3.1,3.71,4.64a27.4,27.4,0,0,1,3.31,4.93c1.6,2.54,3.1,3.63,5.5,5.38a43.71,43.71,0,0,1,5.31,7.31,71.506,71.506,0,0,0,11,12.94C0,831,0,831,.73,832.73c1.88,3.35,4.57,5.74,7.33,8.39,5.82,5.64,5.82,5.64,6.94,7.88h2c.25.74.5,1.47.75,2.23A21.249,21.249,0,0,0,23,858.31l2.12,2.12c1.73,1.78,1.73,1.78,3.88,1.57.24.56.47,1.13.71,1.71a29.06,29.06,0,0,0,5.85,6.91c4.34,4.19,4.34,4.19,5.44,6.38h2l1,3h2v2h2l1,3h2c.09,1.14.09,1.14.19,2.31,1.08,3.57,2.65,3.88,5.81,5.69q1.515,2.49,3,5h3v3h3c.09.87.09.87.19,1.75,1.16,3.21,3.02,4.37,5.81,6.25a12.416,12.416,0,0,0,4,1v2h2l1,3h2v2h2l1,3h2v2a29.165,29.165,0,0,0,3.62,3.25,101.445,101.445,0,0,1,7.76,7.19c2.25,2.79,2.25,2.79,4.62,2.56.25.6.5,1.2.75,1.81,1.44,2.53,2.89,3.52,5.25,5.19.7.72,1.4,1.44,2.12,2.19,1.69,2.04,1.69,2.04,3.88,1.81v2a28.189,28.189,0,0,0,3.56,3.19,107.586,107.586,0,0,1,8.13,7.56A29.111,29.111,0,0,0,134,965h2v2a61.6,61.6,0,0,0,13,10c2.56,2.44,4.97,4.97,7.38,7.56a34.051,34.051,0,0,0,7.92,5.4c2.62,1.6,4.57,3.85,6.7,6.04l3,1c1.69,1.64,3.35,3.31,5,5a85.107,85.107,0,0,0,8,6,43.22,43.22,0,0,1,5.62,4.19c2.19,1.93,2.19,1.93,4.57,2.31.6.16,1.19.33,1.81.5.28.61.55,1.21.84,1.84,1.44,2.68,2.96,3.62,5.54,5.22,2.33,1.47,4.59,2.91,6.77,4.59,1.78,1.49,1.78,1.49,4.04,1.85.6.16,1.19.33,1.81.5l1,3c1.67,1.02,3.36,2.03,5.09,2.95a56.625,56.625,0,0,1,5.22,3.3c2.43,1.93,2.43,1.93,4.69,1.75l1,3a28.638,28.638,0,0,0,4,2c1.6,1.08,3.18,2.19,4.75,3.31,3.68,2.61,7.4,5.08,11.25,7.44,2.23,1.4,4.43,2.85,6.62,4.31.76.5,1.51,1.01,2.28,1.52,1.78,1.2,3.54,2.43,5.29,3.67a13.763,13.763,0,0,0,6.12,2.81c.89.31,1.78.62,2.69.94l1,3a25.316,25.316,0,0,0,4.88,2.5A23.7,23.7,0,0,1,292,1080a27.62,27.62,0,0,0,4,2.19c.68.34,1.36.69,2.06,1.04,2.06.95,2.06.95,4.94.77l1,3a22.264,22.264,0,0,0,4.62,2.44,103.329,103.329,0,0,1,15.57,8.81c2.82,2.1,2.82,2.1,6.81,1.75v2c1.06.52,2.12,1.04,3.22,1.57,13.02,6.42,13.02,6.42,18.91,10.27,7.45,4.66,7.45,4.66,15.87,6.16v2c.61.3,1.21.61,1.84.92l12.78,6.39c.82.41,1.63.81,2.46,1.23l6.93,3.48c1.44.72,2.87,1.45,4.3,2.17,1.03.52,1.03.52,2.07,1.04A114.759,114.759,0,0,0,410,1142c1.42.62,2.84,1.24,4.25,1.88,1.18.52,1.18.52,2.37,1.06,1.18.52,1.18.52,2.38,1.06l2.12.94c5.63,2.48,11.2,5.07,16.77,7.69,3,1.32,6,2.35,9.11,3.37.97.49,1.94.99,2.94,1.5a19.521,19.521,0,0,0,6.62,2.5c3.44,1,3.44,1,5.69,2.37a67.073,67.073,0,0,0,10.19,4.69c.96.39.96.39,1.94.78,3.84,1.51,7.71,2.87,11.62,4.16,1.36.59,1.36.59,2.75,1.19.74.27,1.49.53,2.25.81l2-1v2a122.216,122.216,0,0,0,16.87,6.03c2.44.76,4.77,1.57,7.13,2.53a86.846,86.846,0,0,0,13.95,3.69,25.27,25.27,0,0,1,5.42,1.73,39.9,39.9,0,0,0,7.75,2.06c.96.16,1.91.33,2.9.51s1.97.34,2.98.51c1.96.35,3.92.69,5.88,1.04.86.15,1.72.3,2.61.45,1.69.3,3.38.63,5.06.97,11.5,2.24,23.51,2.67,35.2,2.67h2.76c4.07.37,4.07.37,7.49-1.19v1q2.625.045,5.25.06c.97.01,1.95.03,2.95.04a11.309,11.309,0,0,0,4.71-.59,31.113,31.113,0,0,1,6.38-.79c.8-.04,1.59-.08,2.41-.11,1.67-.08,3.34-.15,5.01-.22,3.97.2,3.97.2,7.29-1.39,2.52-.4,5.03-.75,7.56-1.06.71-.09,1.42-.18,2.16-.28L658,1194v-2h10v-2l2.75.06A24.192,24.192,0,0,0,678,1189v-2c1.05.06,2.1.12,3.19.19,4.08-.2,5.49-1,8.81-3.19a36.87,36.87,0,0,1,5-1c1.67-.33,3.33-.67,5-1v-2c1.3-.17,1.3-.17,2.62-.35a42.949,42.949,0,0,0,9.44-3.09c1.5-.65,1.5-.65,3.04-1.31,1.43-.62,1.43-.62,2.9-1.25q2.49-1.005,5-2v-2l5-1v-2c.66-.06,1.32-.12,2-.19,3.54-.96,6.02-2.6,9.04-4.65a10.126,10.126,0,0,1,4.14-1.69c.6-.16,1.2-.31,1.82-.47l1-2c1.18-.46,1.18-.46,2.38-.94,2.63-.86,2.63-.86,4.18-2.62C754,1153,754,1153,756,1152.56c2.18-.39,2.18-.39,3.44-2.5,1.56-2.06,1.56-2.06,3.94-3,3.35-1.36,5.1-3.48,7.62-6.06,1.13-.63,1.13-.63,2.28-1.28,4.03-2.55,7.02-5.96,10.26-9.43,3.95-4.09,3.95-4.09,6.89-5.23a18.423,18.423,0,0,0,6.6-4.69c.73-.73,1.46-1.45,2.21-2.2s1.49-1.51,2.26-2.29l2.26-2.23a62.287,62.287,0,0,0,10.15-12.91c1.98-3.16,4.76-5.42,7.52-7.88,2-1.96,2-1.96,1.57-5.86.6-.27,1.2-.54,1.81-.81a13.272,13.272,0,0,0,6.5-6.88,42.064,42.064,0,0,1,4.81-7.37c2.29-2.94,3.64-5.12,3.88-8.94h2c2.74-2.95,3-3.77,3-8l3-1v-4h2a43.165,43.165,0,0,0,3-10h2c.27-.7.54-1.4.81-2.12a40.72,40.72,0,0,1,2.75-5.76A29.327,29.327,0,0,0,861,1022h2v-5h2a75.1,75.1,0,0,0,3-15h2c.14-.91.29-1.82.44-2.75,1.19-6.88,1.19-6.88,2.56-8.25q.06-3,0-6h2c.05-.61.1-1.21.15-1.84a133.167,133.167,0,0,1,3.46-20.61c.19-.78.38-1.56.58-2.36.18-.69.36-1.38.54-2.08.45-2.61.45-2.61-.73-7.11-4.95-1.49-4.95-1.49-10-3v-1c-.9-.06-1.81-.12-2.74-.18-1.18-.09-2.36-.17-3.57-.26-1.17-.08-2.35-.16-3.55-.24A19.068,19.068,0,0,1,853,945l-2-3a10.127,10.127,0,0,0-4.06-.12,73.761,73.761,0,0,1-9.75-.26c-.71-.06-1.42-.13-2.15-.21a10.49,10.49,0,0,1-4.01-1.41,16.377,16.377,0,0,0-6.65-1.56c-4.19-.34-4.19-.34-6.38-1.44-2.37-.39-4.75-.74-7.12-1.06-1.29-.18-2.57-.36-3.89-.54-.99-.13-1.97-.26-2.99-.4l-1-3c-1.19-.06-2.38-.12-3.61-.18-1.57-.09-3.14-.17-4.7-.26l-2.38-.12-2.3-.12c-1.04-.06-1.04-.06-2.11-.11A9.71,9.71,0,0,1,781,928c-1.83.03-3.67.07-5.5.12A43.074,43.074,0,0,1,759,924c-1.5-.2-3-.36-4.5-.5-4.28-.39-4.28-.39-6.5-1.5-2.37-.39-4.75-.74-7.12-1.06-1.29-.18-2.57-.36-3.89-.54-.99-.13-1.97-.26-2.99-.4l-1-3c-1.19-.06-2.38-.12-3.61-.18-1.57-.09-3.14-.17-4.7-.26l-2.38-.12-2.3-.12c-.69-.04-1.39-.08-2.11-.11A9.71,9.71,0,0,1,711,913c-1.83.03-3.67.07-5.5.12A43.074,43.074,0,0,1,689,909c-1.33-.18-2.66-.32-4-.44a121.121,121.121,0,0,1-12.69-2.08c-2.76-.57-5.53-1.04-8.31-1.48l-1-3c-3.25-.2-6.5-.38-9.75-.56-.92-.06-1.84-.11-2.79-.17l-2.69-.15c-.82-.05-1.64-.09-2.48-.14-3.22.03-5.44.21-7.84,2.49-.5.63-1.01,1.26-1.53,1.92-4.56,5.44-9.55,10.4-14.57,15.42q-1.575,1.59-3.17,3.19-4.275,4.29-8.57,8.59c-1.78,1.79-3.57,3.58-5.35,5.37q-8.4,8.4-16.79,16.81-9.675,9.675-19.34,19.39-7.485,7.515-14.98,15.02-4.485,4.47-8.94,8.96-4.185,4.215-8.39,8.4-1.545,1.545-3.08,3.09-2.1,2.115-4.21,4.2c-.78.79-1.56,1.57-2.37,2.38A10.375,10.375,0,0,1,520,1019v2a64.313,64.313,0,0,1-34,0v-2h-5v-2c-.64-.12-1.28-.25-1.94-.38-.68-.2-1.36-.41-2.06-.62l-1-2h-5v-2c-.64-.12-1.28-.25-1.94-.38-.68-.2-1.36-.41-2.06-.62l-1-2h-5v-2c-.64-.12-1.28-.25-1.94-.38-.68-.2-1.36-.41-2.06-.62l-1-2h-5v-2c-.64-.12-1.28-.25-1.94-.38-.68-.2-1.36-.41-2.06-.62l-1-2h-5v-2c-.64-.12-1.28-.25-1.94-.38-.68-.2-1.36-.41-2.06-.62l-1-2a34.7,34.7,0,0,0-4.81-2c-8.34-3.15-8.34-3.15-11.19-6-.72-.27-1.44-.54-2.19-.81a36.909,36.909,0,0,1-7.77-4.82,73.839,73.839,0,0,0-9.9-5.26A11.34,11.34,0,0,1,396,972c-.83-.31-1.65-.62-2.5-.94C391,970,391,970,389,967a28.7,28.7,0,0,0-6-1v-2c-1.22-.41-2.43-.83-3.69-1.25A28.655,28.655,0,0,1,370,957a162.314,162.314,0,0,0-15.29-9.22A19.779,19.779,0,0,1,349,942a21.393,21.393,0,0,0-6-1v-2c-1.39-.62-1.39-.62-2.81-1.25-3.16-1.73-4.13-2.95-6.19-5.75-1.33-.34-2.66-.68-4-1l-4-4c-.62-.14-1.24-.29-1.88-.44-4.1-1.08-7.23-4.52-9.93-7.68-2.82-2.42-5.6-3.07-9.17-3.97-2.02-.91-2.02-.91-3.29-3-.36-.95-.36-.95-.73-1.91h-2l-1-3h-2l-2.38-2.44c-2.26-2.65-2.26-2.65-4.55-3.02-2.61-.68-3.84-1.84-5.82-3.66-.69-.63-1.39-1.26-2.1-1.9-.71-.66-1.42-1.31-2.15-1.98-5.13-4.81-5.13-4.81-11.06-8.5-3.47-1.77-5.56-4.01-8.22-6.8A48.092,48.092,0,0,0,252,873c-1.1-1.06-2.19-2.15-3.25-3.25L246,867h-2c-.23-.62-.45-1.24-.69-1.88-1.12-2.31-1.12-2.31-3.5-2.93-3.62-1.53-5.62-3.86-8.26-6.73-1.44-1.69-1.44-1.69-3.55-1.46v-2q-2.07-1.335-4.15-2.66c-3.77-2.73-6.88-6.25-10.1-9.59q-2.13-2.2-4.27-4.39c-.62-.65-1.24-1.29-1.88-1.95-1.5-1.63-1.5-1.63-3.6-1.41l-1-3c-.74-.29-1.49-.58-2.25-.88-3.41-1.39-5.2-3.5-7.75-6.12l-3-1c-.67-1.33-1.33-2.67-2-4l-3-1c-.69-1.32-1.35-2.66-2-4-1.28-1.45-2.62-2.84-3.99-4.2-1.23-1.23-1.23-1.23-2.49-2.48l-2.69-2.65-4.2-4.17c-1.96-1.95-3.92-3.89-5.89-5.84q-5.13-5.07-10.25-10.16-2.73-2.715-5.46-5.41c-3.65-3.62-7.22-7.23-10.51-11.2-1.25-1.43-1.25-1.43-2.52-2.89h-2c-.29-.78-.58-1.57-.88-2.38-.97-2.72-.97-2.72-3.12-4.62-1.21-1.45-1.21-1.45-2.44-2.94a172.349,172.349,0,0,0-12.07-12.41A40.052,40.052,0,0,1,109,733c-1.31-1.4-2.67-2.75-4.06-4.06A24.818,24.818,0,0,1,99,721q-1.455-1.545-3-3c-1.52-1.74-3.01-3.51-4.5-5.28a29.509,29.509,0,0,0-3.11-3.3,11.76,11.76,0,0,1-2.64-3.61A63.4,63.4,0,0,0,78.71,697a48.312,48.312,0,0,1-4.02-5.44c-1.44-2.64-1.44-2.64-3.69-3.56-.96-1.35-1.87-2.73-2.75-4.12a66.922,66.922,0,0,0-6.31-8.44,57.778,57.778,0,0,1-6.86-9.84c-1-1.77-1-1.77-3.08-2.6q-1.545-2.475-3-5c-.62-.93-1.24-1.86-1.88-2.81-2.1-3.16-4.05-6.38-5.97-9.65-.38-.51-.76-1.02-1.15-1.54H38c-.27-.57-.54-1.14-.82-1.72a66.053,66.053,0,0,0-4.12-6.72c-1.57-2.31-3.1-4.63-4.53-7.03-1.57-2.6-3.27-5.06-5.03-7.53-2.32-3.26-4.45-6.56-6.5-10-.93-1.38-1.87-2.76-2.81-4.12a133.973,133.973,0,0,1-7.8-13.5A24.22,24.22,0,0,0,2,588q-1.38-2.34-2.62-4.75c-2.88-5.4-5.96-10.63-9.13-15.86-6.14-10.13-6.14-10.13-8.75-15.45a25.822,25.822,0,0,0-3.38-5.69,92.911,92.911,0,0,1-5.87-10.79,38.231,38.231,0,0,0-2.67-4.81c-1.94-3.25-3.6-6.63-5.27-10.03q-4.005-8.1-8.31-16.06c-2.93-5.42-5.68-10.92-8.31-16.5l-.99-2.08c-2.14-4.58-3.96-9.23-5.7-13.98-.39-.91-.78-1.81-1.19-2.75A44.264,44.264,0,0,1-60,449c.34-2.33.68-4.66,1-7h2v-5c.56-.24,1.12-.48,1.7-.72a31.66,31.66,0,0,0,7.06-5.75l1.41-1.38q2.325-2.295,4.64-4.61c1.11-1.1,2.23-2.2,3.34-3.29q5.475-5.415,10.92-10.85c1.26-1.24,2.51-2.49,3.77-3.74q8.835-8.775,17.66-17.57,10.17-10.155,20.4-20.25,7.905-7.815,15.77-15.67,4.695-4.7,9.42-9.35c2.97-2.92,5.91-5.86,8.85-8.82,1.07-1.07,2.16-2.15,3.25-3.21,6.83-6.33,6.83-6.33,9.98-14.81a54.228,54.228,0,0,0-1.06-9.69c-.32-1.49-.32-1.49-.65-3-.35-1.54-.35-1.54-.71-3.1-.23-1.07-.47-2.14-.71-3.24q-2-9.06-4.36-18.02c-1.07-4.59-1.83-9.23-2.59-13.88A115.027,115.027,0,0,0,48,253c-.72-3.32-1.35-6.66-2-10-3.02-15.28-3.02-15.28-6.62-30.44-1.44-5.45-2.39-10.96-3.29-16.51A115.028,115.028,0,0,0,33,183c-.72-3.32-1.35-6.66-2-10-3.02-15.28-3.02-15.28-6.62-30.44-1.44-5.45-2.39-10.96-3.29-16.51A106.617,106.617,0,0,0,18,113c-.32-1.43-.61-2.87-.88-4.31-.97-5.06-2.07-10.1-3.18-15.13-.18-.79-.35-1.59-.53-2.4A90.036,90.036,0,0,0,11,82C7.95,81.84,7.95,81.84,5,83Zm-133,53-1,2h2Zm-4,1,1,2Zm-48,52,1,2Zm-15,18,1,2,1-2ZM61,317l1,3Zm84,20,1,2Zm-8,20-1,2h2ZM-203,502l1,4ZM85,569l1,2Zm10,15,1,2ZM-108,686l1,2Zm30,45,1,2ZM683,907l4,1Zm22,5v1h6v-1Zm45,10v1h7v-1Zm25,5v1h6v-1Zm48,10,4,1Zm132,43v7h1v-7Zm-15,57,1,2Zm2,0,1,2Zm-42,80,1,2Zm2,0,1,2Zm-12,17,1,2Zm-4,4,1,2Zm-41,45v2l2-1Zm-69,49v3l2-2Z" transform="translate(317)" fill="#e4b48d"/>
    <path id="Caminho_2" data-name="Caminho 2" d="M0,0Q12.825-.03,25.66-.05c3.97-.01,7.94-.01,11.92-.03Q43.325-.1,49.07-.09C50.53-.1,52-.1,53.46-.11H59.6c1.17-.01,2.33-.01,3.53-.01A14.309,14.309,0,0,1,69,1c2.27.16,4.54.28,6.81.38,7.98.4,15.84,1.44,23.74,2.6.89.13,1.79.26,2.71.4.8.12,1.59.24,2.41.36A57.808,57.808,0,0,0,112,5V7c1.13-.06,2.27-.12,3.44-.19,7.63.01,15.1,1.74,22.56,3.19.87.17,1.75.33,2.65.5l8.1,1.56c.85.16,1.69.33,2.56.49A58.119,58.119,0,0,1,163,16c1.57.38,3.16.71,4.75,1,.87.17,1.74.33,2.64.5.86.17,1.72.33,2.61.5a117.454,117.454,0,0,1,15.75,4.28A66.521,66.521,0,0,0,195.56,24,73.31,73.31,0,0,1,208,28c4.96,1.92,9.88,3.55,15,5,10.25,3.29,10.25,3.29,14.69,5.09A36.081,36.081,0,0,0,245,40v2c.7.12,1.4.25,2.12.38,9.09,1.97,17.42,6.31,25.79,10.22,1.81.82,3.64,1.61,5.49,2.33,4.36,1.79,8.52,4.01,12.72,6.15A116.8,116.8,0,0,0,302,66c3.36,1.6,6.57,3.33,9.75,5.25,1.61.87,1.61.87,3.25,1.75l2-1v3c.52.08,1.03.17,1.56.25,4.38,1.35,8.16,3.97,12.05,6.35.89.54,1.78,1.09,2.7,1.65.84.52,1.69,1.04,2.55,1.58,2.03,1.33,2.03,1.33,4.14,1.17v2l2.11.77a65.778,65.778,0,0,1,9.14,4.98c.57.35,1.14.71,1.72,1.07,4.1,2.56,8.1,5.23,12.09,7.93A74.681,74.681,0,0,0,373,107c2,2,2,2,3,4,.74.29,1.49.58,2.25.88,3.7,1.51,6.93,3.47,8.75,7.12,1.33.34,2.66.68,4,1l2,2q1.89,1.455,3.81,2.88c2.34,1.73,4.62,3.47,6.88,5.31a21.911,21.911,0,0,0,4.87,3.31c3.21,1.97,5.74,4.1,7.44,7.5.75.28,1.5.56,2.28.84,3.24,1.38,4.89,3.1,7.28,5.66a22.447,22.447,0,0,0,6.4,5.47c2.9,1.46,4.83,3.71,7.04,6.03q4.545,4.635,9.12,9.25c.82.83,1.63,1.66,2.46,2.51.78.78,1.56,1.57,2.37,2.38.7.72,1.41,1.43,2.14,2.17,1.9,1.9,1.9,1.9,4.91,2.69l1,3h2v3h2v2h2a29.449,29.449,0,0,1,2.72,3.11c3.5,4.11,7.24,7.89,11.09,11.66l1.86,1.83q3.87,3.795,7.75,7.57,2.865,2.79,5.7,5.6l1.79,1.71c1.44,1.43,2.78,2.97,4.09,4.52v4c.87.39.87.39,1.77.79a24.927,24.927,0,0,1,5.98,4.65c.61.59,1.23,1.19,1.86,1.81C513,235,513,235,513,238a23.523,23.523,0,0,0,3.88,3.38A17.281,17.281,0,0,1,523,250c1.11,1.18,2.26,2.32,3.44,3.44A28.284,28.284,0,0,1,533,263l3,2c.31.78.62,1.57.94,2.38.91,2.74.91,2.74,3.12,4.68C542,274,542,274,542.44,275.94c.67,2.46,1.56,3.31,3.44,5A27.661,27.661,0,0,1,553,291.56c1.32,3.23,3.35,5.64,5.54,8.33A32.2,32.2,0,0,1,565,313c1.29,1.37,2.63,2.71,4,4q1.53,2.985,3,6c.66.82,1.32,1.65,2,2.5,3.28,4.1,5,7.2,5,12.5h2c2.03,3.73,3,5.67,3,10l3,1c1.71,3.32,2,5.18,2,9l3,1c1.71,3.32,2,5.18,2,9h2c2.03,3.73,3,5.67,3,10h2c.31,1.13.62,2.27.94,3.44.69,3.35.69,3.35,2.06,4.56.04,1.67.04,3.33,0,5l3,1a23.781,23.781,0,0,1,1.5,4.69A48.811,48.811,0,0,0,613,408c-.99.5-.99.5-2,1l3,1a36.995,36.995,0,0,1,1.94,5.94,108.185,108.185,0,0,0,4.25,12.5A36.342,36.342,0,0,1,623,439h1a120.3,120.3,0,0,1,3.43,11.93,56.694,56.694,0,0,0,2.13,6.07,29.345,29.345,0,0,1,2,8.31c.17,3.77.17,3.77,2.44,6.69.36,2.02.5,4.01.66,6.06.26,2.26.26,2.26,2.34,4.94v6l2,3a61.011,61.011,0,0,1,0,8h2c.05.76.1,1.52.15,2.3.07.99.15,1.99.23,3.01.06.99.13,1.97.21,2.99.25,2.92.25,2.92,2.41,5.7a37.741,37.741,0,0,1,.12,5.69c-.01.99-.03,1.99-.05,3.01-.03,1.14-.03,1.14-.07,2.3h2c.05.88.1,1.76.15,2.67.07,1.16.15,2.32.23,3.52.06,1.15.13,2.29.21,3.48.24,3.24.24,3.24,1.44,5.71,1.41,3.81,1.18,7.41,1.09,11.43,0,.79-.01,1.58-.02,2.39-.03,1.93-.06,3.87-.1,5.8h2a34.06,34.06,0,0,1,1.25,8.34c.03.81.06,1.63.1,2.47.06,1.7.11,3.4.17,5.1.05,1.23.05,1.23.1,2.49.04,1.11.04,1.11.08,2.24a12.114,12.114,0,0,0,1.3,5.11,30.569,30.569,0,0,1,1.29,9.6c.01,1.24.03,2.48.04,3.76,0,1.33,0,2.67.01,4.01,0,1.39.01,2.78.02,4.16q.015,4.35.01,8.7c0,3.71.03,7.41.06,11.11q.03,4.3.03,8.59c0,1.37.01,2.73.02,4.1.14,13.11.14,13.11-4.48,19.22h-2v2.5c-1.46,5.11-4.77,8.36-9,11.5a24.969,24.969,0,0,1-5,1v2c-6.53,3.57-12.61,3.48-19.94,3.44l-3.46.06c-7.8-.01-13.84-.74-19.6-6.5-.94-.44-.94-.44-1.91-.89-7.56-4-12.61-13.85-15.44-21.54-1.41-5.6-1.19-11.45-1.27-17.19-.06-2.58-.11-5.16-.17-7.73-.02-1.13-.03-2.27-.05-3.43A79.535,79.535,0,0,0,572,613c-.13-2.21-.22-4.43-.28-6.64-.06-1.85-.06-1.85-.11-3.74q-.12-3.9-.22-7.78c-.03-1.23-.07-2.46-.11-3.73-.03-1.13-.06-2.25-.09-3.41-.01-2.67-.01-2.67-1.19-4.7-.2-1.44-.34-2.88-.47-4.32-.57-6.18-1.29-12.33-2.03-18.49-.13-1.11-.26-2.21-.39-3.35-.13-1.07-.26-2.14-.39-3.23-.12-.96-.23-1.92-.35-2.91A58.441,58.441,0,0,0,564,540c-.13-2.67-.04-5.32,0-8l-2-1a34.21,34.21,0,0,1-.88-4.88c-.86-5.73-1.94-11.39-3.12-17.06-.25-1.22-.25-1.22-.5-2.47A62.43,62.43,0,0,0,554,495c-.8-3.01-1.51-6.03-2.22-9.06a23.8,23.8,0,0,0-1.79-5.46,53.786,53.786,0,0,1-2.37-8.17,86.4,86.4,0,0,0-4.58-13.67c-1.2-3.05-2.12-6.13-3.04-9.26a62.308,62.308,0,0,0-4.94-12.18,82.458,82.458,0,0,1-3.44-8.89c-4.82-13.79-11.7-26.78-18.39-39.75-2.64-5.13-4.95-9.92-6.23-15.56h-2c-.23-.64-.45-1.28-.69-1.94a96.677,96.677,0,0,0-5.14-9.9,32.128,32.128,0,0,1-2.36-5.16c-.63-2.18-.63-2.18-2.81-3-1.03-1.55-2-3.14-2.94-4.75-.75-1.29-.75-1.29-1.52-2.61-.51-.87-1.02-1.74-1.54-2.64a58.328,58.328,0,0,0-4.69-7.12C482,334,482,334,482,331l-3-1q-1.545-2.97-3-6c-.49-.5-.99-.99-1.5-1.5-1.5-1.5-1.5-1.5-2.88-4.31a35.393,35.393,0,0,0-5.16-7.49,127.615,127.615,0,0,1-10.52-13.89,47.122,47.122,0,0,0-6.58-7.38,13.525,13.525,0,0,1-2.74-3.81c-2.04-3.3-4.64-5.64-7.49-8.26a29.324,29.324,0,0,1-4.15-5.87c-3.47-5.62-8.1-10.02-12.77-14.64L419.36,254q-2.97-2.97-5.94-5.92c-2.55-2.52-5.08-5.06-7.61-7.59q-2.94-2.94-5.88-5.86c-1.39-1.39-2.77-2.78-4.16-4.17-.85-.83-1.69-1.67-2.56-2.53-.74-.73-1.49-1.47-2.25-2.23-1.95-1.91-1.95-1.91-4.96-2.7v-2c-.97-.47-1.94-.95-2.94-1.44-4.35-2.46-7.48-5.87-10.92-9.45A46.676,46.676,0,0,0,364,204a46.932,46.932,0,0,1-5-5v-2l-2.56-.12c-4.65-1.19-7-3.67-10.44-6.88-1.9-1.58-3.8-3.14-5.71-4.7C339,184,339,184,339,182c-1.05.15-1.05.15-2.12.31-4.08-.44-5.87-2.62-8.88-5.31-1.33-.68-2.66-1.35-4-2l-3-3c-2.65-1.66-5.35-3.2-8.08-4.72-1.04-.59-2.09-1.17-3.17-1.78-1.06-.59-2.11-1.18-3.2-1.78C304,162,304,162,303,159a14.133,14.133,0,0,0-4-1.31c-4.57-1.38-7.89-3.5-11.77-6.22a50.468,50.468,0,0,0-8.63-4.33c-5.64-2.47-11.1-5.36-16.6-8.14q-2.97-1.5-5.96-2.96a90.857,90.857,0,0,1-8.42-4.54A89.54,89.54,0,0,0,235,126v-2c-.87.06-1.73.12-2.62.19-3.92-.22-5.95-1.34-9.38-3.19-2.02-.81-4.05-1.56-6.1-2.3-2.32-.85-4.61-1.77-6.9-2.7v-2h-7v-2l-2.88.06C197,112,197,112,195,111v-2c-.8.06-1.61.12-2.44.19A31.906,31.906,0,0,1,180,106l-2-3a28.985,28.985,0,0,0-6.38-.5c-4.55-.12-7.26-.26-10.62-3.5V98l-3.38.12A65.243,65.243,0,0,1,143,96c-.86-.18-1.72-.36-2.6-.54-6.27-1.33-6.27-1.33-7.4-2.46-3.32-.54-6.66-.97-10-1.4-3-.6-3-.6-5-2.6a22.439,22.439,0,0,0-4.94-.06A19.869,19.869,0,0,1,105,88c-3.64-.46-7.28-.86-10.93-1.25C88.2,86.1,88.2,86.1,86,85c-2.48-.21-4.95-.37-7.44-.5C71.4,84.13,71.4,84.13,68,83c-1.63-.14-3.26-.22-4.9-.28-.99-.04-1.99-.07-3.01-.11-1.61-.06-1.61-.06-3.25-.11l-3.34-.12q-7.065-.27-14.15-.5c-3.44-.13-6.88-.25-10.32-.38-1.08-.04-2.15-.07-3.26-.11-.99-.03-1.98-.07-3-.11l-2.65-.09A7.7,7.7,0,0,1,16,80q-3.315-.195-6.62-.31C2.36,79.24-2.88,78.12-8,73c-.63-.29-1.26-.59-1.9-.89C-18.42,67.59-23.12,56.64-26,48c-.5-10.37-.84-19.99,5-29,.27-.78.54-1.55.82-2.35a22.673,22.673,0,0,1,5.49-7.34l2.3-2.32C-8.61,3.84-4.78,2.82,0,2ZM3,77v1H14V77Zm70,5v1H85V82Zm37,5v1h8V87Zm24,5v1h6V92Zm172,69,2,2v-2ZM574,329l1,2Zm33,68,1,2Zm7,19,1,4Z" transform="translate(625)" fill="#e4b48d"/>
    <path id="Caminho_3" data-name="Caminho 3" d="M0,0H7.04c2.36.01,4.73,0,7.1,0,7.88-.01,15.73.14,23.6.58L39.95.7c5.06.31,5.06.31,6.19,1.43,2.06.29,4.12.52,6.19.72,1.91.19,1.91.19,3.86.39l4.07.39,7.88.78c1.76.18,1.76.18,3.56.35,10.17,1.1,10.17,1.1,11.44,2.37,1.47.16,2.95.28,4.43.38a57.171,57.171,0,0,1,13.24,2.9,62.657,62.657,0,0,0,12.14,2.29c.79.08,1.58.16,2.39.25l1.8.18v2l1.9.12a42.074,42.074,0,0,1,13.77,3c3.06,1.16,6.17,2.01,9.33,2.88,5.13,1.44,10.04,3.07,15,5,1.45.49,2.91.97,4.37,1.44,4.04,1.33,7.97,2.86,11.91,4.47,1.9.77,3.82,1.5,5.75,2.21a184.657,184.657,0,0,1,20.87,9.33c2.67,1.34,5.32,2.46,8.1,3.55,1.32.65,2.63,1.32,3.93,2a59.491,59.491,0,0,0,10.07,4v2h3l1,2c1.66.74,3.32,1.47,5.01,2.12a60.326,60.326,0,0,1,6.99,3.88c.76.46,1.53.92,2.32,1.4,1.66.99,3.31,1.99,4.97,2.98q2.76,1.65,5.54,3.28c.9.52,1.8,1.05,2.73,1.59.83.48,1.65.96,2.5,1.46,1.94,1.29,1.94,1.29,2.94,3.29,1.31.72,2.65,1.37,4,2,1.92,1.04,3.83,2.08,5.75,3.13.98.54,1.97,1.08,2.98,1.63l2.27,1.24v2c.83.4.83.4,1.68.82a90.75,90.75,0,0,1,23.79,17.72,22.822,22.822,0,0,0,5.21,3.65c1.64.9,1.64.9,3.32,1.81v2c.59.26,1.17.52,1.78.79,3.03,1.66,5,3.95,7.34,6.46a12.347,12.347,0,0,0,4.29,3.17,36.419,36.419,0,0,1,7.46,6.4,109.724,109.724,0,0,0,8.81,8.31,67.31,67.31,0,0,1,8.41,8.72c2.85,3.21,5.96,6.13,9.09,9.07,1.92,2.2,2.13,3.34,2.82,6.08a22.651,22.651,0,0,0,3.93,3.5c3.86,3.08,3.86,3.08,5.13,5.66.85,2.2.85,2.2,3.94,2.84q1.545,2.985,3,6c.98,1.02,1.97,2.03,3,3v2c.59.23,1.19.46,1.81.69,2.84,1.7,3.53,3.43,5.19,6.31,1.72,2.31,3.49,4.56,5.28,6.82.85,1.08.85,1.08,1.72,2.18.85,1.01.85,1.01,1.72,2.03,1.28,1.97,1.28,1.97,1.28,5.97.59.21,1.19.42,1.81.63,3,1.88,3.7,4.21,5.19,7.37.83.81.83.81,1.68,1.63,1.32,1.37,1.32,1.37,1.32,5.37.62.23,1.23.46,1.87.69,2.8,1.73,3.01,3.25,4.13,6.31q1.95,3.03,4,6c1,1.67,2,3.33,3,5l2,3v4l3,1c1.08,1.96,2.06,3.97,3,6q1.08,2.055,2.19,4.1c.39.72.77,1.44,1.17,2.18.8,1.48,1.6,2.97,2.41,4.45a56.22,56.22,0,0,1,6.23,17.27h2v5h2a76.743,76.743,0,0,1,5,12c.49,1.16.99,2.31,1.5,3.5a105.627,105.627,0,0,1,4.56,13.32c.61,3.02.61,3.02,1.94,4.18q.06,3.51,0,7l3,1c.1.83.2,1.65.31,2.5a53.165,53.165,0,0,0,2.86,9.3,84.336,84.336,0,0,1,4.83,19.2l1,1c.22,2,.44,3.99.62,5.99.3,2.32.3,2.32,2.38,5.01a40.582,40.582,0,0,1,.12,5.69c-.02.99-.03,1.99-.05,3.01-.03.76-.05,1.52-.07,2.3h2c1.09,3.29,1,5.66.84,9.07.03,2.26.03,2.26,2.16,4.93a55.774,55.774,0,0,1,.12,6.69c-.02,1.18-.03,2.36-.05,3.57-.04,1.36-.04,1.36-.07,2.74h2c.05,1.32.09,2.63.15,3.98.07,1.74.15,3.47.22,5.21.03.86.06,1.73.1,2.62.05,1.26.05,1.26.11,2.55.03.77.07,1.54.1,2.33a8.735,8.735,0,0,0,1.32,4.59,22.637,22.637,0,0,1,1.27,8.61c.01,1.16.02,2.32.03,3.52v3.78c0,1.93,0,1.93.01,3.9.01,2.72.01,5.45,0,8.17,0,3.48.01,6.95.04,10.43.02,3.33.01,6.66.01,10,.01,1.24.02,2.48.03,3.77-.06,10.59-.06,10.59-3.39,15.54-.37.69-.73,1.38-1.11,2.09a38.192,38.192,0,0,1-11.89,12.91h-3v2c-6.53,3.57-12.61,3.49-19.94,3.44l-3.46.06c-7.81,0-13.84-.74-19.6-6.5-.94-.44-.94-.44-1.91-.88-8.51-4.52-13.21-15.48-16.09-24.12q-.2-2.895-.25-5.79c-.03-1.18-.06-2.35-.1-3.57-.03-1.26-.06-2.52-.09-3.82-.29-9.86-.74-19.68-1.56-29.5-.13-1.53-.13-1.53-.25-3.08-.28-4.77-.28-4.77-1.75-9.24-.19-1.43-.33-2.87-.44-4.31-.37-4.14-.95-8.21-1.63-12.31a70.727,70.727,0,0,1-.93-14.38h-2c-.14-1-.27-2-.41-3.03-.55-3.85-1.27-7.65-2.03-11.47-.37-1.87-.37-1.87-.75-3.78a86.86,86.86,0,0,0-4.5-14.97c-1.31-3.75-1.31-3.75-.31-6.75h-2c-.11-.58-.22-1.16-.34-1.75a47.211,47.211,0,0,0-4.66-13.25c-.16-.78-.32-1.56-.48-2.37a37.57,37.57,0,0,0-2.37-7.38c-.54-1.31-.54-1.31-1.08-2.65-.76-1.82-1.52-3.65-2.28-5.47-.35-.87-.71-1.74-1.08-2.64-.49-1.18-.49-1.18-.99-2.39-.72-2.1-.72-2.1-.72-5.1l-2-1c-1.12-2.17-2.14-4.33-3.13-6.56-.62-1.37-1.25-2.74-1.88-4.11-.32-.71-.65-1.42-.99-2.16a265.613,265.613,0,0,0-15-28.17c-.64-1.13-1.28-2.27-1.94-3.43a222.155,222.155,0,0,0-16.89-25,103.816,103.816,0,0,1-7.17-10.57c-.89-1.11-1.8-2.19-2.75-3.25-2.35-2.67-4.54-5.41-6.69-8.25a69.218,69.218,0,0,0-7.31-8.18c-2.95-2.82-4.49-5.62-6.25-9.32l-3-1v-3h-3q-1.53-2.475-3-5l-3-1-1-3a39.812,39.812,0,0,0-10-8c-1.36-1.31-2.69-2.65-4-4-1.94-1.74-3.9-3.44-5.87-5.15q-2.055-1.77-4.08-3.57c-4.55-4.04-9.25-7.84-14.05-11.58-2-1.7-2-1.7-3-3.7-.87-.18-.87-.18-1.75-.37-3.08-.86-4.84-2.56-7.25-4.63-.93-.7-1.86-1.4-2.82-2.12-.72-.62-1.44-1.24-2.18-1.88v-2c-1.15-.18-1.15-.18-2.32-.37-2.68-.63-2.68-.63-5.68-2.63v-2c-1.15-.18-1.15-.18-2.32-.37-2.68-.63-2.68-.63-5.68-2.63v-2c-.7-.08-1.41-.16-2.13-.25a20.151,20.151,0,0,1-7.11-3.59,106.014,106.014,0,0,0-11.76-6.16q-4.32-2.145-8.63-4.31c-1.41-.7-2.82-1.41-4.22-2.11-1.04-.52-2.08-1.04-3.15-1.58v-2c-.73-.12-1.45-.24-2.19-.37a42.965,42.965,0,0,1-7.81-2.63v-2h-5v-2l-8-1v-2c-.71-.12-1.42-.25-2.14-.38a94.443,94.443,0,0,1-19.74-6.8,31.659,31.659,0,0,0-10.12-2.82q-6-1.995-12-4v-3l-1,2a20.3,20.3,0,0,1-8-1c-2.31-.49-4.63-.95-6.94-1.4-2.06-.6-2.06-.6-4.06-2.6v-1l-1.76-.06c-2.64-.09-5.29-.2-7.93-.31-.91-.03-1.82-.06-2.76-.1a32.709,32.709,0,0,1-12.55-2.53c-2.61-.26-5.14-.46-7.75-.56-7.13-.32-7.13-.32-8.25-1.44-3.08-.22-6.14-.38-9.22-.5l-2.8-.12c-2.98-.13-5.95-.25-8.92-.38q-5.865-.24-11.72-.5l-2.74-.1c-.84-.04-1.67-.08-2.54-.12l-2.24-.09a7.506,7.506,0,0,1-3.82-1.19q-3.315-.195-6.63-.31c-7.02-.45-12.25-1.56-17.37-6.69l-1.91-.88c-8.51-4.52-13.21-15.48-16.09-24.12-.5-10.37-.85-19.99,5-29,.27-.77.54-1.55.82-2.35a22.354,22.354,0,0,1,5.49-7.33l2.3-2.33a21.06,21.06,0,0,1,7.39-3.99c.97-.51,1.94-1.03,2.93-1.56C-11.46.01-5.95-.02,0,0ZM-12.86,78.13v1h12v-1Zm63,5v1h10v-1Zm342,122,1,2Zm22,35,1,2Zm10,17,1,2Z" transform="translate(639.863 158.867)" fill="#e4b48d"/>
    <path id="Caminho_4" data-name="Caminho 4" d="M0,0H6.05c2.04.01,4.08,0,6.12,0,8.7-.01,17.29.39,25.95,1.13v2l2.03-.1c12.13-.34,23.89,2.03,35.49,5.42,2.55.7,5.08,1.21,7.67,1.68a54.973,54.973,0,0,1,10.48,3.15c4.27,1.56,8.68,2.68,13.07,3.89a78.081,78.081,0,0,1,8.26,2.96v2c1.22.11,2.44.21,3.69.32a19.442,19.442,0,0,1,9.31,3.68c2.36,1.06,4.73,2.06,7.11,3.04,1.89.96,1.89.96,2.89,2.96,1.67.34,3.34.67,5,1,4.37,1.99,8.51,4.39,12.68,6.74,2.25,1.22,4.52,2.34,6.82,3.45,3.5,1.81,3.5,1.81,4.5,3.81,1.98,1.06,3.98,2.05,6,3,7.25,3.48,7.25,3.48,9,7,.75.29,1.49.58,2.26.88a26.671,26.671,0,0,1,7.74,5.12c.59.49,1.17.99,1.77,1.49,4.83,4.09,4.83,4.09,6.75,6.09,1.61,1.67,1.61,1.67,4.61,3.05,5.14,2.82,8.88,7.17,12.87,11.37a90.255,90.255,0,0,0,8.26,7.63c2.74,2.37,2.74,2.37,3.74,5.37h2a37.144,37.144,0,0,1,3.26,3.57c.61.72,1.23,1.44,1.87,2.19.62.74,1.24,1.48,1.87,2.24,1.11,1.32,2.21,2.63,3.32,3.94.7.85.7.85,1.42,1.72,1.24,1.48,1.24,1.48,3.26,2.34.4.87.79,1.74,1.19,2.63,1.97,3.66,4.2,5.87,7.18,8.71a29.624,29.624,0,0,1,4.63,6.66c.71.68,1.41,1.36,2.13,2.07,1.87,1.93,1.87,1.93,2.31,3.87.47,2.39.47,2.39,3.13,4.56,2.43,2.5,2.43,2.5,2.43,6.5,1,.33,1.99.66,3,1q1.05,2.49,2,5,1.47,1.53,3,3c1.96,3.09,2.21,5.38,2,9,1,.33,1.99.66,3,1a33.087,33.087,0,0,1,3,5c.47.87.47.87.94,1.76a141.2,141.2,0,0,1,6.12,13.92,38.167,38.167,0,0,0,2.63,5.64,20.648,20.648,0,0,1,2.31,9.68h2v5h2c.27.97.54,1.93.81,2.92.53,1.9.53,1.9,1.07,3.83.35,1.26.7,2.51,1.05,3.8a44.2,44.2,0,0,0,3.07,7.45c.39,1.99.73,3.99,1,6h1v8h2c.05.62.1,1.23.15,1.87.08.8.15,1.61.23,2.45.07.8.14,1.6.21,2.42.31,2.54.31,2.54,2.41,5.26a39.038,39.038,0,0,1,.13,5.69c-.02.99-.04,1.99-.05,3.01-.03.76-.05,1.52-.08,2.3h2c.05,1.11.1,2.22.15,3.36.08,1.47.15,2.93.23,4.39.05,1.1.05,1.1.09,2.21.18,4.13.18,4.13,1.54,7.98,1.2,2.49,1.25,4.26,1.27,7.01.01.98.02,1.96.03,2.98v3.19c0,1.09,0,2.18.01,3.3,0,2.31.01,4.61,0,6.92q0,5.28.05,10.56v6.72c.01,1.05.02,2.1.03,3.18-.04,5.52-.33,9.41-3.4,14.2-.36.69-.72,1.38-1.1,2.09a38.221,38.221,0,0,1-11.9,12.91h-3v2c-6.52,3.57-12.6,3.49-19.93,3.44l-3.46.06c-7.81,0-13.85-.74-19.61-6.5-.94-.44-.94-.44-1.9-.88-8.51-4.52-13.21-15.48-16.1-24.12-.13-1.68-.22-3.36-.28-5.04-.03-.99-.07-1.98-.11-3.01s-.07-2.07-.11-3.13a161.124,161.124,0,0,0-1.02-16.15,70.52,70.52,0,0,1-.54-10.17c.01-1.04.02-2.08.03-3.15.02-1.16.02-1.16.03-2.35h-2c-.04-1.14-.09-2.28-.14-3.46-.08-1.49-.15-2.98-.23-4.47-.05-1.14-.05-1.14-.09-2.29-.11-1.93-.31-3.86-.54-5.78-.66-.33-1.31-.66-2-1v-8h-2c-.1-.95-.2-1.89-.31-2.87-1.09-7.64-3.83-14.99-6.69-22.13-.37-.93-.74-1.85-1.12-2.81-2.36-5.78-4.9-11.39-7.75-16.94-1-1.99-1.9-4-2.75-6.06a57,57,0,0,0-4.38-8.19c-.38-.63-.76-1.26-1.16-1.91a100.462,100.462,0,0,0-7.84-11.09c-1.51-2.42-2.93-4.87-4.31-7.37a63.123,63.123,0,0,0-6-7.65c-2.53-2.97-4.84-6.11-7.17-9.25-.5-.57-1-1.14-1.52-1.73h-2c-.39-.68-.78-1.36-1.18-2.06a39.889,39.889,0,0,0-7.39-8.39c-1.43-1.55-1.43-1.55-1.43-3.55-.68-.16-1.36-.33-2.06-.5a16.449,16.449,0,0,1-6.18-5.18c-3.76-4.52-8.05-7.85-12.76-11.32-4.88-3.76-4.88-3.76-6-6-.57-.12-1.15-.24-1.74-.37-3.05-.85-4.86-2.6-7.26-4.63l-3-2v-2c-.76.06-1.52.13-2.31.19-3.24-.23-3.56-.88-5.69-3.19a33.8,33.8,0,0,0-5-2v-2c-1.08-.17-1.08-.17-2.18-.35a31.907,31.907,0,0,1-7.82-3.02l-2.5-1.28c-1.68-.9-3.33-1.87-4.94-2.89a40.568,40.568,0,0,0-8.37-3.46c-3.53-1.13-7.03-2.28-10.5-3.62a47.622,47.622,0,0,0-7.19-2.38,46.679,46.679,0,0,1-7.18-2.5c-4.48-1.74-9.04-2.38-13.78-3.07a10.8,10.8,0,0,1-4.54-1.43c-1.49-.2-2.99-.36-4.5-.5-4.27-.39-4.27-.39-6.5-1.5-2.37-.21-4.74-.37-7.12-.5l-2.13-.12c-2.25-.13-4.5-.25-6.75-.38q-4.425-.24-8.87-.5c-1.32-.07-2.63-.14-3.99-.22-3.14-.28-3.14-.28-5.14-1.28q-3.3-.195-6.62-.31c-7.02-.45-12.25-1.56-17.38-6.69-.62-.29-1.25-.59-1.9-.89-6.05-3.2-10.12-10.15-13.1-16.11-.57-1.13-1.15-2.27-1.74-3.43-3.04-8.47-2.24-20.23.74-28.57.95-1.69,1.95-3.37,3-5,.28-.77.55-1.55.83-2.35a22.354,22.354,0,0,1,5.49-7.33l2.3-2.33a21.1,21.1,0,0,1,7.38-3.99c.97-.51,1.94-1.03,2.94-1.56C-10.74.13-5.67.01,0,0ZM-11.88,78.13v1h11v-1Zm50,5v1h8v-1Zm246,91,1,2Zm27,169c-.32.66-.66,1.32-1,2h2C311.8,344.47,311.46,343.81,311.12,343.13Z" transform="translate(638.875 318.867)" fill="#e4b48d"/>
    <path id="Caminho_5" data-name="Caminho 5" d="M0,0H1V16l-2-1ZM-3,16l2,2c-4.56,5.32-9.27,10.41-14.25,15.34-.65.66-1.31,1.31-1.98,1.99q-3.1,3.09-6.21,6.17-2.115,2.115-4.24,4.23Q-32.84,50.86-38,56l-2-1a23.54,23.54,0,0,1,5.44-7.67l2.12-2.12c.76-.74,1.51-1.49,2.29-2.26s1.55-1.54,2.35-2.33q3.7-3.69,7.42-7.37,2.52-2.505,5.04-5Q-9.175,22.115-3,16Z" transform="translate(378 307)" fill="#e4b48d"/>
    <path id="Caminho_6" data-name="Caminho 6" d="M0,0H7.04c2.36.01,4.73,0,7.1,0,10.36-.01,20.66.41,31,1.13.49.99.49.99,1,2h-59l-1-2A69.975,69.975,0,0,1,0,0Z" transform="translate(639.863 158.867)" fill="#e4b48d"/>
    <path id="Caminho_7" data-name="Caminho 7" d="M0,0C.59.22,1.18.45,1.78.68q-6.93,7-13.88,13.99c-1.57,1.58-3.15,3.17-4.72,4.76q-3.39,3.42-6.79,6.84l-2.12,2.15-2,2c-.58.58-1.16,1.17-1.75,1.77a21.733,21.733,0,0,1-5.74,3.49c0-3.6.53-3.91,2.97-6.39.65-.66,1.29-1.32,1.96-2.01l2.15-2.15c.72-.73,1.45-1.46,2.19-2.21q2.3-2.325,4.61-4.62,3.54-3.54,7.04-7.12c1.49-1.5,2.98-2.99,4.47-4.49.7-.71,1.41-1.43,2.13-2.17l2-1.97c.86-.87.86-.87,1.75-1.76C-2.22-.32-2.22-.32,0,0Z" transform="translate(297.218 403.321)" fill="#e4b48d"/>
    <path id="Caminho_8" data-name="Caminho 8" d="M0,0A28.157,28.157,0,0,1,10.57,8.04c3.93,4.62,8.19,8.88,12.48,13.17.85.86,1.7,1.72,2.58,2.6,1.79,1.79,3.58,3.59,5.38,5.38q4.125,4.14,8.24,8.29c1.75,1.74,3.49,3.49,5.23,5.23.83.84,1.65,1.67,2.5,2.52.76.76,1.52,1.52,2.31,2.3.67.67,1.34,1.34,2.03,2.04C52.89,51.22,52.89,51.22,55,51c.41.72.83,1.44,1.25,2.19C58.41,56.66,60.78,58.5,64,61l-2,2Q49.865,50.91,37.75,38.8q-5.625-5.625-11.26-11.24-5.43-5.4-10.85-10.83c-1.39-1.38-2.77-2.76-4.16-4.14L5.69,6.8c-.58-.57-1.16-1.15-1.76-1.74C0,1.11,0,1.11,0,0Z" transform="translate(509 708)" fill="#e4b48d"/>
    <path id="Caminho_9" data-name="Caminho 9" d="M0,0C2.05,0,4.1-.02,6.15-.04A129.7,129.7,0,0,1,31.02,2.19v1h-49l-1-2C-12.65-.02-6.41,0,0,0Z" transform="translate(644.983 318.815)" fill="#e4b48d"/>
    <path id="Caminho_10" data-name="Caminho 10" d="M0,0A260.764,260.764,0,0,1,19.06,17.96q1.725,1.74,3.47,3.47l9.06,9.09q4.62,4.65,9.27,9.29Q49.935,48.9,59,58c-.5.99-.5.99-1,2C36,38,36,38,33.32,35.28a24.542,24.542,0,0,0-4.7-4.09,43.613,43.613,0,0,1-5.66-5.71C17.78,19.5,12.07,14.06,6.41,8.54c-.82-.82-1.65-1.63-2.5-2.47-.75-.73-1.5-1.47-2.28-2.23C0,2,0,2,0,0Z" transform="translate(510 710)" fill="#e4b48d"/>
    <path id="Caminho_11" data-name="Caminho 11" d="M0,0,4,1-25,30l-2-1c1.63-4.05,4.5-6.84,7.52-9.89l1.65-1.68c1.14-1.16,2.29-2.31,3.44-3.47Q-11.75,11.3-9.14,8.6c1.12-1.12,2.23-2.25,3.35-3.37.52-.54,1.04-1.08,1.58-1.63A31.651,31.651,0,0,1,0,0Z" transform="translate(330 368)" fill="#e4b48d"/>
    <path id="Caminho_12" data-name="Caminho 12" d="M0,0A162.016,162.016,0,0,1,14.18,13.3c2.27,2.34,3.67,3.65,6.82,4.7l1,3h2v3h2v2h2a35.665,35.665,0,0,1,3.1,3.47c3.89,4.58,8.06,8.81,12.34,13.03.73.73,1.46,1.45,2.21,2.2,1.78,1.77,3.57,3.54,5.35,5.3-3,0-3,0-5.18-1.81-.85-.85-1.7-1.69-2.57-2.56-.47-.47-.93-.93-1.42-1.41-1.55-1.54-3.08-3.1-4.62-4.65-1.07-1.07-2.15-2.14-3.22-3.21q-3.375-3.375-6.72-6.76-4.32-4.335-8.65-8.66-3.315-3.315-6.63-6.65L8.8,11.1Q6.565,8.88,4.36,6.63C3.51,5.79,2.67,4.94,1.8,4.06,0,2,0,2,0,0Z" transform="translate(1064 160)" fill="#e4b48d"/>
    <path id="Caminho_13" data-name="Caminho 13" d="M0,0H4V2H6A17.741,17.741,0,0,1,9,5V7h2a17.268,17.268,0,0,1,4.33,5.34,37.746,37.746,0,0,0,5.9,7.09c.8.79,1.61,1.59,2.43,2.41.84.81,1.67,1.63,2.53,2.47.84.84,1.69,1.67,2.56,2.54Q31.87,29.925,35,33c-.5.99-.5.99-1,2-.82-.83-1.64-1.65-2.49-2.51q-4.59-4.62-9.2-9.23c-1.32-1.33-2.65-2.66-3.97-4-1.91-1.91-3.82-3.83-5.73-5.74-.58-.6-1.17-1.19-1.77-1.8A82.9,82.9,0,0,0,3.15,4.78C1,3,1,3,0,0Z" transform="translate(389 910)" fill="#e4b48d"/>
    <path id="Caminho_14" data-name="Caminho 14" d="M0,0C-3.56,7.78-12.12,17.68-20.14,20.85c-.92.07-.92.07-1.86.15l-2-2c.74-.25,1.48-.5,2.24-.76a19.94,19.94,0,0,0,6.9-5.15c.74-.76,1.48-1.53,2.24-2.31s1.52-1.59,2.31-2.4q2.28-2.37,4.57-4.73l2.03-2.12C-2,0-2,0,0,0Z" transform="translate(1129 1106)" fill="#e4b48d"/>
    <path id="Caminho_15" data-name="Caminho 15" d="M0,0,2,1Q-1.36,4.45-4.75,7.88c-.95.97-.95.97-1.92,1.97-.62.62-1.24,1.25-1.88,1.89-.56.58-1.13,1.15-1.71,1.75A21.8,21.8,0,0,1-16,17c0-3,0-3,1.15-4.52.78-.78.78-.78,1.59-1.58.57-.57,1.14-1.15,1.73-1.74l1.84-1.78c.89-.9.89-.9,1.81-1.82C-3.4,1.13-3.4,1.13,0,0Z" transform="translate(278 422)" fill="#e4b48d"/>
    <path id="Caminho_16" data-name="Caminho 16" d="M0,0C5.38.31,7.82,3.35,11.31,7.06c.83.85.83.85,1.67,1.72Q15.005,10.88,17,13l-1,2c-4.31-1.66-7.09-4.83-10.25-8.06C5.2,6.38,4.64,5.83,4.07,5.26,0,1.14,0,1.14,0,0Z" transform="translate(1259 885)" fill="#e4b48d"/>
    <path id="Caminho_17" data-name="Caminho 17" d="M0,0A23.9,23.9,0,0,1,8.22,6.1c.79.8,1.57,1.6,2.38,2.43s1.63,1.67,2.46,2.53q2.415,2.49,4.85,4.98c.71.73,1.43,1.47,2.16,2.23C21.98,20.22,21.98,20.22,25,21a41.366,41.366,0,0,1,2,6C20.84,21.9,15.2,16.35,9.56,10.69L6.77,7.9,4.13,5.26,1.72,2.85C0,1,0,1,0,0Z" transform="translate(335 856)" fill="#e4b48d"/>
    <path id="Caminho_18" data-name="Caminho 18" d="M0,0,4,1-10,15l-2-1c1.59-3.81,4.01-6.37,6.88-9.31.86-.91,1.72-1.81,2.61-2.74C-1.27.98-1.27.98,0,0Z" transform="translate(330 368)" fill="#e4b48d"/>
    <path id="Caminho_19" data-name="Caminho 19" d="M0,0C3.77,1.56,6.11,3.91,8.94,6.81l2.52,2.58,5.18,5.33a13.462,13.462,0,0,0,5.17,3.9c.72.46,1.45.91,2.19,1.38v3c-3.65-1.54-5.98-3.74-8.77-6.54-.89-.89-1.77-1.78-2.69-2.7-1.38-1.4-1.38-1.4-2.79-2.82C8.81,9.99,7.86,9.05,6.91,8.1,0,1.14,0,1.14,0,0Z" transform="translate(403 922)" fill="#e4b48d"/>
    <path id="Caminho_20" data-name="Caminho 20" d="M0,0,2,1c-.31.6-.62,1.2-.94,1.81A21.918,21.918,0,0,0-1,8c-2,.67-4,1.33-6,2a22.184,22.184,0,0,0-4,4l-2-1Z" transform="translate(828 915)" fill="#e4b48d"/>
    <path id="Caminho_21" data-name="Caminho 21" d="M0,0,3,2-7,12l-2-1C-6.62,6.51-3.64,3.48,0,0Z" transform="translate(102 106)" fill="#e4b48d"/>
    <path id="Caminho_22" data-name="Caminho 22" d="M0,0,3,1C-.33,5.18-3.21,8.47-8,11l-2,2c.52-4.1,2.65-5.96,5.56-8.75l2.51-2.42C-1.3,1.22-.66.62,0,0Z" transform="translate(615 165)" fill="#e4b48d"/>
    <path id="Caminho_23" data-name="Caminho 23" d="M0,0H1V36H0Z" transform="translate(1120 612)" fill="#e4b48d"/>
    <path id="Caminho_24" data-name="Caminho 24" d="M0,0,4,1l-9,9L-7,9A22.11,22.11,0,0,1,0,0Z" transform="translate(295 403)" fill="#e4b48d"/>
    <path id="Caminho_25" data-name="Caminho 25" d="M0,0,2,1C-.12,5.13-2.02,6.73-6,9c-1.7,1.63-3.38,3.29-5,5l-2-1Z" transform="translate(868 875)" fill="#e4b48d"/>
    <path id="Caminho_26" data-name="Caminho 26" d="M0,0,2,1C-.12,5.13-2.02,6.73-6,9c-1.7,1.63-3.38,3.29-5,5l-2-1Z" transform="translate(903 840)" fill="#e4b48d"/>
    <path id="Caminho_27" data-name="Caminho 27" d="M0,0H1V30H0Z" transform="translate(960 618)" fill="#e4b48d"/>
    <path id="Caminho_28" data-name="Caminho 28" d="M0,0H16V1H0Z" transform="translate(1232 680)" fill="#e4b48d"/>
    <path id="Caminho_29" data-name="Caminho 29" d="M0,0H16V1H0Z" transform="translate(1072 680)" fill="#e4b48d"/>
    <path id="Caminho_30" data-name="Caminho 30" d="M0,0H16V1H0Z" transform="translate(912 680)" fill="#e4b48d"/>
    <path id="Caminho_31" data-name="Caminho 31" d="M0,0H1V13H0Z" transform="translate(82 381)" fill="#e4b48d"/>
    <path id="Caminho_32" data-name="Caminho 32" d="M0,0H1V12H0Z" transform="translate(82 324)" fill="#e4b48d"/>
    <path id="Caminho_33" data-name="Caminho 33" d="M0,0H1V10H0Z" transform="translate(1117 579)" fill="#e4b48d"/>
    <path id="Caminho_34" data-name="Caminho 34" d="M0,0H1V9H0Z" transform="translate(957 590)" fill="#e4b48d"/>
    <path id="Caminho_35" data-name="Caminho 35" d="M0,0H9V1H0Z" transform="translate(632 400)" fill="#e4b48d"/>
    <path id="Caminho_36" data-name="Caminho 36" d="M0,0H9V1H0Z" transform="translate(632 240)" fill="#e4b48d"/>
    <path id="Caminho_37" data-name="Caminho 37" d="M0,0H9V1H0Z" transform="translate(632 80)" fill="#e4b48d"/>
    <path id="Caminho_38" data-name="Caminho 38" d="M0,0H8V1H0Z" transform="translate(850 1273)" fill="#e4b48d"/>
    <path id="Caminho_39" data-name="Caminho 39" d="M0,0H8V1H0Z" transform="translate(909 1197)" fill="#e4b48d"/>
    <path id="Caminho_40" data-name="Caminho 40" d="M0,0H8V1H0Z" transform="translate(1160 943)" fill="#e4b48d"/>
    <path id="Caminho_41" data-name="Caminho 41" d="M0,0H8V1H0Z" transform="translate(718 248)" fill="#e4b48d"/>
    <path id="Caminho_42" data-name="Caminho 42" d="M0,0H7V1H0Z" transform="translate(1043 918)" fill="#e4b48d"/>
    <path id="Caminho_43" data-name="Caminho 43" d="M0,0H7V1H0Z" transform="translate(973 903)" fill="#e4b48d"/>
    <path id="Caminho_44" data-name="Caminho 44" d="M0,0H1V7H0Z" transform="translate(1112 547)" fill="#e4b48d"/>
    <path id="Caminho_45" data-name="Caminho 45" d="M0,0H6V1H0Z" transform="translate(1114 933)" fill="#e4b48d"/>
    <path id="Caminho_46" data-name="Caminho 46" d="M0,0H1V6H0Z" transform="translate(1275 553)" fill="#e4b48d"/>
    <path id="Caminho_47" data-name="Caminho 47" d="M0,0H1V6H0Z" transform="translate(1272 532)" fill="#e4b48d"/>
    <path id="Caminho_48" data-name="Caminho 48" d="M0,0H1V6H0Z" transform="translate(462 315)" fill="#e4b48d"/>
    <path id="Caminho_49" data-name="Caminho 49" d="M0,0H1V6H0Z" transform="translate(447 245)" fill="#e4b48d"/>
    <path id="Caminho_50" data-name="Caminho 50" d="M0,0H1V6H0Z" transform="translate(432 175)" fill="#e4b48d"/>
    <path id="Caminho_51" data-name="Caminho 51" d="M0,0H1V6H0Z" transform="translate(417 105)" fill="#e4b48d"/>
    <path id="Caminho_52" data-name="Caminho 52" d="M0,0H6V1H0Z" transform="translate(780 98)" fill="#e4b48d"/>
    <path id="Caminho_53" data-name="Caminho 53" d="M0,0H1V6H0Z" transform="translate(402 35)" fill="#e4b48d"/>
    <path id="Caminho_54" data-name="Caminho 54" d="M0,0H1V5H0Z" transform="translate(1272 994)" fill="#e4b48d"/>
    <path id="Caminho_55" data-name="Caminho 55" d="M0,0H1V5H0Z" transform="translate(1267 506)" fill="#e4b48d"/>
    <path id="Caminho_56" data-name="Caminho 56" d="M0,0H1V5H0Z" transform="translate(1262 484)" fill="#e4b48d"/>
    <path id="Caminho_57" data-name="Caminho 57" d="M0,0H1V5H0Z" transform="translate(87 416)" fill="#e4b48d"/>
    <path id="Caminho_58" data-name="Caminho 58" d="M0,0H1V5H0Z" transform="translate(452 269)" fill="#e4b48d"/>
    <path id="Caminho_59" data-name="Caminho 59" d="M0,0H1V5H0Z" transform="translate(437 199)" fill="#e4b48d"/>
    <path id="Caminho_60" data-name="Caminho 60" d="M0,0H1V5H0Z" transform="translate(422 129)" fill="#e4b48d"/>
    <path id="Caminho_61" data-name="Caminho 61" d="M0,0H5V1H0Z" transform="translate(798 103)" fill="#e4b48d"/>
    <path id="Caminho_62" data-name="Caminho 62" d="M0,0H1V5H0Z" transform="translate(407 59)" fill="#e4b48d"/>
    <path id="Caminho_63" data-name="Caminho 63" d="M0,0,1,4Z" transform="translate(1275 981)" fill="#e4b48d"/>
    <path id="Caminho_64" data-name="Caminho 64" d="M0,0,1,4Z" transform="translate(1115 565)" fill="#e4b48d"/>
    <path id="Caminho_65" data-name="Caminho 65" d="M0,0,1,4Z" transform="translate(952 565)" fill="#e4b48d"/>
    <path id="Caminho_66" data-name="Caminho 66" d="M0,0,1,4Z" transform="translate(1107 525)" fill="#e4b48d"/>
    <path id="Caminho_67" data-name="Caminho 67" d="M0,0,1,4Z" transform="translate(1257 465)" fill="#e4b48d"/>
    <path id="Caminho_68" data-name="Caminho 68" d="M0,0,1,4Z" transform="translate(85 308)" fill="#e4b48d"/>
    <path id="Caminho_69" data-name="Caminho 69" d="M0,0,1,4Z" transform="translate(87 299)" fill="#e4b48d"/>
    <path id="Caminho_70" data-name="Caminho 70" d="M0,0,1,4Z" transform="translate(457 292)" fill="#e4b48d"/>
    <path id="Caminho_71" data-name="Caminho 71" d="M0,0,1,4Z" transform="translate(455 283)" fill="#e4b48d"/>
    <path id="Caminho_72" data-name="Caminho 72" d="M0,0,1,4Z" transform="translate(92 279)" fill="#e4b48d"/>
    <path id="Caminho_73" data-name="Caminho 73" d="M0,0,4,1Z" transform="translate(697 245)" fill="#e4b48d"/>
    <path id="Caminho_74" data-name="Caminho 74" d="M0,0,1,4Z" transform="translate(442 222)" fill="#e4b48d"/>
    <path id="Caminho_75" data-name="Caminho 75" d="M0,0,1,4Z" transform="translate(440 213)" fill="#e4b48d"/>
    <path id="Caminho_76" data-name="Caminho 76" d="M0,0,1,4Z" transform="translate(427 152)" fill="#e4b48d"/>
    <path id="Caminho_77" data-name="Caminho 77" d="M0,0,1,4Z" transform="translate(425 143)" fill="#e4b48d"/>
    <path id="Caminho_78" data-name="Caminho 78" d="M0,0,4,1Z" transform="translate(707 85)" fill="#e4b48d"/>
    <path id="Caminho_79" data-name="Caminho 79" d="M0,0,1,4Z" transform="translate(412 82)" fill="#e4b48d"/>
    <path id="Caminho_80" data-name="Caminho 80" d="M0,0,1,4Z" transform="translate(410 73)" fill="#e4b48d"/>
    <path id="Caminho_81" data-name="Caminho 81" d="M0,0,3,1Z" transform="translate(856 1275)" fill="#e4b48d"/>
    <path id="Caminho_82" data-name="Caminho 82" d="M0,0,3,1Z" transform="translate(1073 925)" fill="#e4b48d"/>
    <path id="Caminho_83" data-name="Caminho 83" fill="#e4b48d"/>
    <path id="Caminho_84" data-name="Caminho 84" fill="#e4b48d"/>
    <path id="Caminho_85" data-name="Caminho 85" fill="#e4b48d"/>
    <path id="Caminho_86" data-name="Caminho 86" fill="#e4b48d"/>
    <path id="Caminho_87" data-name="Caminho 87" fill="#e4b48d"/>
    <path id="Caminho_88" data-name="Caminho 88" d="M0,0,3,1Z" transform="translate(741 90)" fill="#e4b48d"/>
    <path id="Caminho_89" data-name="Caminho 89" d="M0,0,3,1Z" transform="translate(309 85)" fill="#e4b48d"/>
    <path id="Caminho_90" data-name="Caminho 90" d="M0,0,2,1Z" transform="translate(981 1275)" fill="#e4b48d"/>
    <path id="Caminho_91" data-name="Caminho 91" d="M0,0,2,1Z" transform="translate(1004 1270)" fill="#e4b48d"/>
    <path id="Caminho_92" data-name="Caminho 92" d="M0,0,2,1Z" transform="translate(834 1270)" fill="#e4b48d"/>
    <path id="Caminho_93" data-name="Caminho 93" d="M0,0,2,1Z" transform="translate(783 1253)" fill="#e4b48d"/>
    <path id="Caminho_94" data-name="Caminho 94" d="M0,0,2,1Z" transform="translate(929 1197)" fill="#e4b48d"/>
    <path id="Caminho_95" data-name="Caminho 95" d="M0,0,2,1Z" transform="translate(904 1197)" fill="#e4b48d"/>
    <path id="Caminho_96" data-name="Caminho 96" fill="#e4b48d"/>
    <path id="Caminho_97" data-name="Caminho 97" fill="#e4b48d"/>
    <path id="Caminho_98" data-name="Caminho 98" fill="#e4b48d"/>
    <path id="Caminho_99" data-name="Caminho 99" d="M0,0,2,1Z" transform="translate(704 968)" fill="#e4b48d"/>
    <path id="Caminho_100" data-name="Caminho 100" d="M0,0,2,1Z" transform="translate(1167 945)" fill="#e4b48d"/>
    <path id="Caminho_101" data-name="Caminho 101" d="M0,0,2,1Z" transform="translate(664 943)" fill="#e4b48d"/>
    <path id="Caminho_102" data-name="Caminho 102" d="M0,0,2,1Z" transform="translate(1144 940)" fill="#e4b48d"/>
    <path id="Caminho_103" data-name="Caminho 103" d="M0,0,2,1Z" transform="translate(649 933)" fill="#e4b48d"/>
    <path id="Caminho_104" data-name="Caminho 104" d="M0,0,2,1Z" transform="translate(1097 930)" fill="#e4b48d"/>
    <path id="Caminho_105" data-name="Caminho 105" d="M0,0,2,1Z" transform="translate(1027 915)" fill="#e4b48d"/>
    <path id="Caminho_106" data-name="Caminho 106" d="M0,0,2,1Z" transform="translate(1004 910)" fill="#e4b48d"/>
    <path id="Caminho_107" data-name="Caminho 107" fill="#e4b48d"/>
    <path id="Caminho_108" data-name="Caminho 108" fill="#e4b48d"/>
    <path id="Caminho_109" data-name="Caminho 109" fill="#e4b48d"/>
    <path id="Caminho_110" data-name="Caminho 110" fill="#e4b48d"/>
    <path id="Caminho_111" data-name="Caminho 111" fill="#e4b48d"/>
    <path id="Caminho_112" data-name="Caminho 112" fill="#e4b48d"/>
    <path id="Caminho_113" data-name="Caminho 113" fill="#e4b48d"/>
    <path id="Caminho_114" data-name="Caminho 114" fill="#e4b48d"/>
    <path id="Caminho_115" data-name="Caminho 115" fill="#e4b48d"/>
    <path id="Caminho_116" data-name="Caminho 116" fill="#e4b48d"/>
    <path id="Caminho_117" data-name="Caminho 117" fill="#e4b48d"/>
    <path id="Caminho_118" data-name="Caminho 118" fill="#e4b48d"/>
    <path id="Caminho_119" data-name="Caminho 119" fill="#e4b48d"/>
    <path id="Caminho_120" data-name="Caminho 120" fill="#e4b48d"/>
    <path id="Caminho_121" data-name="Caminho 121" fill="#e4b48d"/>
    <path id="Caminho_122" data-name="Caminho 122" fill="#e4b48d"/>
    <path id="Caminho_123" data-name="Caminho 123" fill="#e4b48d"/>
    <path id="Caminho_124" data-name="Caminho 124" fill="#e4b48d"/>
    <path id="Caminho_125" data-name="Caminho 125" fill="#e4b48d"/>
    <path id="Caminho_126" data-name="Caminho 126" fill="#e4b48d"/>
    <path id="Caminho_127" data-name="Caminho 127" fill="#e4b48d"/>
    <path id="Caminho_128" data-name="Caminho 128" d="M0,0,2,1Z" transform="translate(778 445)" fill="#e4b48d"/>
    <path id="Caminho_129" data-name="Caminho 129" fill="#e4b48d"/>
    <path id="Caminho_130" data-name="Caminho 130" fill="#e4b48d"/>
    <path id="Caminho_131" data-name="Caminho 131" fill="#e4b48d"/>
    <path id="Caminho_132" data-name="Caminho 132" d="M0,0,2,1Z" transform="translate(684 405)" fill="#e4b48d"/>
    <path id="Caminho_133" data-name="Caminho 133" fill="#e4b48d"/>
    <path id="Caminho_134" data-name="Caminho 134" fill="#e4b48d"/>
    <path id="Caminho_135" data-name="Caminho 135" fill="#e4b48d"/>
    <path id="Caminho_136" data-name="Caminho 136" fill="#e4b48d"/>
    <path id="Caminho_137" data-name="Caminho 137" fill="#e4b48d"/>
    <path id="Caminho_138" data-name="Caminho 138" fill="#e4b48d"/>
    <path id="Caminho_139" data-name="Caminho 139" fill="#e4b48d"/>
    <path id="Caminho_140" data-name="Caminho 140" d="M0,0,2,1Z" transform="translate(762 260)" fill="#e4b48d"/>
    <path id="Caminho_141" data-name="Caminho 141" fill="#e4b48d"/>
    <path id="Caminho_142" data-name="Caminho 142" fill="#e4b48d"/>
    <path id="Caminho_143" data-name="Caminho 143" fill="#e4b48d"/>
    <path id="Caminho_144" data-name="Caminho 144" fill="#e4b48d"/>
    <path id="Caminho_145" data-name="Caminho 145" d="M0,0,2,1Z" transform="translate(252 102)" fill="#e4b48d"/>
    <path id="Caminho_146" data-name="Caminho 146" fill="#e4b48d"/>
    <path id="Caminho_147" data-name="Caminho 147" d="M0,0,2,1Z" transform="translate(288 90)" fill="#e4b48d"/>
    <path id="Caminho_148" data-name="Caminho 148" fill="#e4b48d"/>
    <path id="Caminho_149" data-name="Caminho 149" fill="#e4b48d"/>
    <path id="Caminho_150" data-name="Caminho 150" fill="#e4b48d"/>
    <path id="Caminho_151" data-name="Caminho 151" fill="#e4b48d"/>
    <path id="Caminho_152" data-name="Caminho 152" fill="#e4b48d"/>
    <path id="Caminho_153" data-name="Caminho 153" fill="#e4b48d"/>
    <path id="Caminho_154" data-name="Caminho 154" fill="#e4b48d"/>
    <path id="Caminho_155" data-name="Caminho 155" fill="#e4b48d"/>
    <path id="Caminho_156" data-name="Caminho 156" fill="#e4b48d"/>
    <path id="Caminho_157" data-name="Caminho 157" fill="#e4b48d"/>
    <path id="Caminho_158" data-name="Caminho 158" fill="#e4b48d"/>
    <path id="Caminho_159" data-name="Caminho 159" fill="#e4b48d"/>
    <path id="Caminho_160" data-name="Caminho 160" fill="#e4b48d"/>
    <path id="Caminho_161" data-name="Caminho 161" fill="#e4b48d"/>
    <path id="Caminho_162" data-name="Caminho 162" fill="#e4b48d"/>
    <path id="Caminho_163" data-name="Caminho 163" fill="#e4b48d"/>
    <path id="Caminho_164" data-name="Caminho 164" fill="#e4b48d"/>
    <path id="Caminho_165" data-name="Caminho 165" fill="#e4b48d"/>
    <path id="Caminho_166" data-name="Caminho 166" fill="#e4b48d"/>
    <path id="Caminho_167" data-name="Caminho 167" fill="#e4b48d"/>
    <path id="Caminho_168" data-name="Caminho 168" fill="#e4b48d"/>
    <path id="Caminho_169" data-name="Caminho 169" fill="#e4b48d"/>
    <path id="Caminho_170" data-name="Caminho 170" fill="#e4b48d"/>
    <path id="Caminho_171" data-name="Caminho 171" fill="#e4b48d"/>
    <path id="Caminho_172" data-name="Caminho 172" fill="#e4b48d"/>
    <path id="Caminho_173" data-name="Caminho 173" fill="#e4b48d"/>
    <path id="Caminho_174" data-name="Caminho 174" fill="#e4b48d"/>
    <path id="Caminho_175" data-name="Caminho 175" fill="#e4b48d"/>
    <path id="Caminho_176" data-name="Caminho 176" fill="#e4b48d"/>
    <path id="Caminho_177" data-name="Caminho 177" fill="#e4b48d"/>
    <path id="Caminho_178" data-name="Caminho 178" fill="#e4b48d"/>
    <path id="Caminho_179" data-name="Caminho 179" fill="#e4b48d"/>
    <path id="Caminho_180" data-name="Caminho 180" fill="#e4b48d"/>
    <path id="Caminho_181" data-name="Caminho 181" fill="#e4b48d"/>
    <path id="Caminho_182" data-name="Caminho 182" fill="#e4b48d"/>
    <path id="Caminho_183" data-name="Caminho 183" fill="#e4b48d"/>
    <path id="Caminho_184" data-name="Caminho 184" fill="#e4b48d"/>
    <path id="Caminho_185" data-name="Caminho 185" fill="#e4b48d"/>
    <path id="Caminho_186" data-name="Caminho 186" fill="#e4b48d"/>
    <path id="Caminho_187" data-name="Caminho 187" fill="#e4b48d"/>
    <path id="Caminho_188" data-name="Caminho 188" fill="#e4b48d"/>
    <path id="Caminho_189" data-name="Caminho 189" fill="#e4b48d"/>
    <path id="Caminho_190" data-name="Caminho 190" fill="#e4b48d"/>
    <path id="Caminho_191" data-name="Caminho 191" fill="#e4b48d"/>
    <path id="Caminho_192" data-name="Caminho 192" fill="#e4b48d"/>
    <path id="Caminho_193" data-name="Caminho 193" fill="#e4b48d"/>
    <path id="Caminho_194" data-name="Caminho 194" fill="#e4b48d"/>
    <path id="Caminho_195" data-name="Caminho 195" fill="#e4b48d"/>
    <path id="Caminho_196" data-name="Caminho 196" fill="#e4b48d"/>
    <path id="Caminho_197" data-name="Caminho 197" fill="#e4b48d"/>
    <path id="Caminho_198" data-name="Caminho 198" fill="#e4b48d"/>
    <path id="Caminho_199" data-name="Caminho 199" fill="#e4b48d"/>
    <path id="Caminho_200" data-name="Caminho 200" fill="#e4b48d"/>
    <path id="Caminho_201" data-name="Caminho 201" fill="#e4b48d"/>
    <path id="Caminho_202" data-name="Caminho 202" fill="#e4b48d"/>
    <path id="Caminho_203" data-name="Caminho 203" fill="#e4b48d"/>
    <path id="Caminho_204" data-name="Caminho 204" fill="#e4b48d"/>
    <path id="Caminho_205" data-name="Caminho 205" fill="#e4b48d"/>
    <path id="Caminho_206" data-name="Caminho 206" fill="#e4b48d"/>
    <path id="Caminho_207" data-name="Caminho 207" fill="#e4b48d"/>
    <path id="Caminho_208" data-name="Caminho 208" fill="#e4b48d"/>
    <path id="Caminho_209" data-name="Caminho 209" fill="#e4b48d"/>
    <path id="Caminho_210" data-name="Caminho 210" fill="#e4b48d"/>
    <path id="Caminho_211" data-name="Caminho 211" fill="#e4b48d"/>
    <path id="Caminho_212" data-name="Caminho 212" fill="#e4b48d"/>
    <path id="Caminho_213" data-name="Caminho 213" fill="#e4b48d"/>
    <path id="Caminho_214" data-name="Caminho 214" fill="#e4b48d"/>
    <path id="Caminho_215" data-name="Caminho 215" fill="#e4b48d"/>
    <path id="Caminho_216" data-name="Caminho 216" fill="#e4b48d"/>
    <path id="Caminho_217" data-name="Caminho 217" fill="#e4b48d"/>
    <path id="Caminho_218" data-name="Caminho 218" fill="#e4b48d"/>
    <path id="Caminho_219" data-name="Caminho 219" fill="#e4b48d"/>
    <path id="Caminho_220" data-name="Caminho 220" fill="#e4b48d"/>
    <path id="Caminho_221" data-name="Caminho 221" fill="#e4b48d"/>
    <path id="Caminho_222" data-name="Caminho 222" fill="#e4b48d"/>
    <path id="Caminho_223" data-name="Caminho 223" fill="#e4b48d"/>
    <path id="Caminho_224" data-name="Caminho 224" fill="#e4b48d"/>
    <path id="Caminho_225" data-name="Caminho 225" fill="#e4b48d"/>
    <path id="Caminho_226" data-name="Caminho 226" fill="#e4b48d"/>
    <path id="Caminho_227" data-name="Caminho 227" fill="#e4b48d"/>
    <path id="Caminho_228" data-name="Caminho 228" fill="#e4b48d"/>
    <path id="Caminho_229" data-name="Caminho 229" fill="#e4b48d"/>
    <path id="Caminho_230" data-name="Caminho 230" fill="#e4b48d"/>
    <path id="Caminho_231" data-name="Caminho 231" fill="#e4b48d"/>
    <path id="Caminho_232" data-name="Caminho 232" fill="#e4b48d"/>
    <path id="Caminho_233" data-name="Caminho 233" fill="#e4b48d"/>
    <path id="Caminho_234" data-name="Caminho 234" fill="#e4b48d"/>
    <path id="Caminho_235" data-name="Caminho 235" fill="#e4b48d"/>
    <path id="Caminho_236" data-name="Caminho 236" fill="#e4b48d"/>
    <path id="Caminho_237" data-name="Caminho 237" fill="#e4b48d"/>
    <path id="Caminho_238" data-name="Caminho 238" fill="#e4b48d"/>
    <path id="Caminho_239" data-name="Caminho 239" fill="#e4b48d"/>
    <path id="Caminho_240" data-name="Caminho 240" fill="#e4b48d"/>
    <path id="Caminho_241" data-name="Caminho 241" fill="#e4b48d"/>
    <path id="Caminho_242" data-name="Caminho 242" fill="#e4b48d"/>
    <path id="Caminho_243" data-name="Caminho 243" fill="#e4b48d"/>
    <path id="Caminho_244" data-name="Caminho 244" fill="#e4b48d"/>
    <path id="Caminho_245" data-name="Caminho 245" fill="#e4b48d"/>
    <path id="Caminho_246" data-name="Caminho 246" fill="#e4b48d"/>
    <path id="Caminho_247" data-name="Caminho 247" fill="#e4b48d"/>
    <path id="Caminho_248" data-name="Caminho 248" fill="#e4b48d"/>
    <path id="Caminho_249" data-name="Caminho 249" fill="#e4b48d"/>
    <path id="Caminho_250" data-name="Caminho 250" fill="#e4b48d"/>
    <path id="Caminho_251" data-name="Caminho 251" fill="#e4b48d"/>
    <path id="Caminho_252" data-name="Caminho 252" fill="#e4b48d"/>
    <path id="Caminho_253" data-name="Caminho 253" fill="#e4b48d"/>
    <path id="Caminho_254" data-name="Caminho 254" fill="#e4b48d"/>
    <path id="Caminho_255" data-name="Caminho 255" fill="#e4b48d"/>
    <path id="Caminho_256" data-name="Caminho 256" fill="#e4b48d"/>
    <path id="Caminho_257" data-name="Caminho 257" fill="#e4b48d"/>
    <path id="Caminho_258" data-name="Caminho 258" fill="#e4b48d"/>
    <path id="Caminho_259" data-name="Caminho 259" fill="#e4b48d"/>
    <path id="Caminho_260" data-name="Caminho 260" fill="#e4b48d"/>
    <path id="Caminho_261" data-name="Caminho 261" fill="#e4b48d"/>
    <path id="Caminho_262" data-name="Caminho 262" fill="#e4b48d"/>
    <path id="Caminho_263" data-name="Caminho 263" fill="#e4b48d"/>
    <path id="Caminho_264" data-name="Caminho 264" fill="#e4b48d"/>
    <path id="Caminho_265" data-name="Caminho 265" fill="#e4b48d"/>
    <path id="Caminho_266" data-name="Caminho 266" fill="#e4b48d"/>
    <path id="Caminho_267" data-name="Caminho 267" fill="#e4b48d"/>
    <path id="Caminho_268" data-name="Caminho 268" fill="#e4b48d"/>
    <path id="Caminho_269" data-name="Caminho 269" fill="#e4b48d"/>
    <path id="Caminho_270" data-name="Caminho 270" fill="#e4b48d"/>
    <path id="Caminho_271" data-name="Caminho 271" fill="#e4b48d"/>
    <path id="Caminho_272" data-name="Caminho 272" fill="#e4b48d"/>
    <path id="Caminho_273" data-name="Caminho 273" fill="#e4b48d"/>
    <path id="Caminho_274" data-name="Caminho 274" fill="#e4b48d"/>
    <path id="Caminho_275" data-name="Caminho 275" fill="#e4b48d"/>
    <path id="Caminho_276" data-name="Caminho 276" fill="#e4b48d"/>
    <path id="Caminho_277" data-name="Caminho 277" fill="#e4b48d"/>
    <path id="Caminho_278" data-name="Caminho 278" fill="#e4b48d"/>
    <path id="Caminho_279" data-name="Caminho 279" fill="#e4b48d"/>
    <path id="Caminho_280" data-name="Caminho 280" fill="#e4b48d"/>
    <path id="Caminho_281" data-name="Caminho 281" fill="#e4b48d"/>
    <path id="Caminho_282" data-name="Caminho 282" fill="#e4b48d"/>
    <path id="Caminho_283" data-name="Caminho 283" fill="#e4b48d"/>
    <path id="Caminho_284" data-name="Caminho 284" fill="#e4b48d"/>
    <path id="Caminho_285" data-name="Caminho 285" fill="#e4b48d"/>
    <path id="Caminho_286" data-name="Caminho 286" fill="#e4b48d"/>
    <path id="Caminho_287" data-name="Caminho 287" fill="#e4b48d"/>
    <path id="Caminho_288" data-name="Caminho 288" fill="#e4b48d"/>
    <path id="Caminho_289" data-name="Caminho 289" fill="#e4b48d"/>
    <path id="Caminho_290" data-name="Caminho 290" fill="#e4b48d"/>
    <path id="Caminho_291" data-name="Caminho 291" fill="#e4b48d"/>
    <path id="Caminho_292" data-name="Caminho 292" fill="#e4b48d"/>
    <path id="Caminho_293" data-name="Caminho 293" fill="#e4b48d"/>
    <path id="Caminho_294" data-name="Caminho 294" fill="#e4b48d"/>
    <path id="Caminho_295" data-name="Caminho 295" fill="#e4b48d"/>
    <path id="Caminho_296" data-name="Caminho 296" fill="#e4b48d"/>
    <path id="Caminho_297" data-name="Caminho 297" fill="#e4b48d"/>
    <path id="Caminho_298" data-name="Caminho 298" fill="#e4b48d"/>
    <path id="Caminho_299" data-name="Caminho 299" fill="#e4b48d"/>
    <path id="Caminho_300" data-name="Caminho 300" fill="#e4b48d"/>
    <path id="Caminho_301" data-name="Caminho 301" fill="#e4b48d"/>
    <path id="Caminho_302" data-name="Caminho 302" fill="#e4b48d"/>
    <path id="Caminho_303" data-name="Caminho 303" fill="#e4b48d"/>
    <path id="Caminho_304" data-name="Caminho 304" fill="#e4b48d"/>
    <path id="Caminho_305" data-name="Caminho 305" fill="#e4b48d"/>
    <path id="Caminho_306" data-name="Caminho 306" fill="#e4b48d"/>
    <path id="Caminho_307" data-name="Caminho 307" fill="#e4b48d"/>
    <path id="Caminho_308" data-name="Caminho 308" fill="#e4b48d"/>
    <path id="Caminho_309" data-name="Caminho 309" fill="#e4b48d"/>
    <path id="Caminho_310" data-name="Caminho 310" fill="#e4b48d"/>
    <path id="Caminho_311" data-name="Caminho 311" fill="#e4b48d"/>
    <path id="Caminho_312" data-name="Caminho 312" fill="#e4b48d"/>
    <path id="Caminho_313" data-name="Caminho 313" fill="#e4b48d"/>
    <path id="Caminho_314" data-name="Caminho 314" fill="#e4b48d"/>
    <path id="Caminho_315" data-name="Caminho 315" fill="#e4b48d"/>
    <path id="Caminho_316" data-name="Caminho 316" fill="#e4b48d"/>
    <path id="Caminho_317" data-name="Caminho 317" fill="#e4b48d"/>
    <path id="Caminho_318" data-name="Caminho 318" fill="#e4b48d"/>
    <path id="Caminho_319" data-name="Caminho 319" fill="#e4b48d"/>
    <path id="Caminho_320" data-name="Caminho 320" fill="#e4b48d"/>
    <path id="Caminho_321" data-name="Caminho 321" fill="#e4b48d"/>
    <path id="Caminho_322" data-name="Caminho 322" fill="#e4b48d"/>
    <path id="Caminho_323" data-name="Caminho 323" fill="#e4b48d"/>
    <path id="Caminho_324" data-name="Caminho 324" fill="#e4b48d"/>
    <path id="Caminho_325" data-name="Caminho 325" fill="#e4b48d"/>
    <path id="Caminho_326" data-name="Caminho 326" fill="#e4b48d"/>
    <path id="Caminho_327" data-name="Caminho 327" fill="#e4b48d"/>
    <path id="Caminho_328" data-name="Caminho 328" fill="#e4b48d"/>
    <path id="Caminho_329" data-name="Caminho 329" fill="#e4b48d"/>
    <path id="Caminho_330" data-name="Caminho 330" fill="#e4b48d"/>
    <path id="Caminho_331" data-name="Caminho 331" fill="#e4b48d"/>
    <path id="Caminho_332" data-name="Caminho 332" fill="#e4b48d"/>
    <path id="Caminho_333" data-name="Caminho 333" fill="#e4b48d"/>
    <path id="Caminho_334" data-name="Caminho 334" fill="#e4b48d"/>
    <path id="Caminho_335" data-name="Caminho 335" fill="#e4b48d"/>
  </g>
</svg>
