<svg xmlns="http://www.w3.org/2000/svg" width="2731.415" height="815.856" viewBox="0 0 2731.415 815.856">
  <g id="risque" transform="translate(0 0.003)">
    <path id="Caminho_355" data-name="Caminho 355" d="M145.337.051C205.214-2,255.3,28.859,297.592,68.016c63.228,61.009,102.471,151.85,105.2,239.575,1.515,104.989-20.763,210.063-95.407,287.1-6.466,6.487-13.252,12.548-20.144,18.565-3.756,3.286-7.3,6.658-10.776,10.243,51.129,8,103.2-10.947,151.508-25.607-1.11,11.929-4.268,20.87-9.752,31.475-.768,1.494-1.515,2.987-2.3,4.524-21.318,40.63-53.305,69.843-96.282,85.7-64.295,19.355-135.034-4.289-192.671-34.1-15.962-8.642-30.75-18.97-45.324-29.747C46.152,629.685,8.617,618.5-35.086,621.363c-3.585.619-7.149,1.3-10.67,2.134,2.881-18.928,17.242-35.4,32.009-46.946,30.771-18.864,60.3-22.065,95.429-15.62,26.4,6.359,52.622,16.73,74.708,32.649,10.712,8.13,10.712,8.13,23.537,10.477a68.69,68.69,0,0,0,15.45-8.3c1.686-1.024,3.372-2.049,5.121-3.115,39.349-24.753,59.792-66.728,70.483-110.857,10.179-46.754,12.334-93.508,12.27-141.159v-6.3c-.171-83.564-6.679-176.966-67.048-240.813-20.55-19.995-46.562-32.905-75.391-34.164-36.063.768-68.029,16.581-93.295,41.611-63.7,67.368-65.49,171.951-63.633,258.908C-14.28,421.905-2.821,480.2,24.664,536.006,8.019,546.1,8.019,546.1-2.2,544.094c-41.526-13.572-77.162-44.983-97.307-83.372-40.8-81.793-33.652-180.017-5.932-264.5C-79.215,120.767-30.5,59.993,41.159,23.887,73.914,8.053,109.337,2.313,145.337.051Z" transform="translate(1366.661 89.235)" fill="#e4b48d"/>
    <path id="Caminho_356" data-name="Caminho 356" d="M0,0C329.584,0,329.584,0,386.239,42.678c1.579,1.174,3.158,2.369,4.78,3.585,27.89,22.641,41.761,55.461,47.906,90.051,4.033,42.337-4.8,81.857-31.347,115.488-1.3,1.643-2.582,3.286-3.926,4.993-24.817,29.683-61.649,47.97-98.139,59.088-5.975,1.835-11.651,3.969-17.434,6.338.854,1.131,1.707,2.241,2.582,3.393,1.835,2.39,1.835,2.39,3.692,4.844,1.366,1.771,2.731,3.564,4.14,5.42q4.577,6.018,9.2,12.078,11.619,15.268,23.281,30.536,22.982,30.088,45.645,60.433c8.813,11.758,17.775,23.366,26.823,34.932,11.459,14.617,22.513,29.469,33.481,44.45,9.795,13.38,19.909,26.482,30.152,39.563,11.438,14.617,22.62,29.427,33.695,44.343,2.731,3.67,5.484,7.341,8.216,11.011,1.579,2.113,3.137,4.225,4.759,6.423,1.344,1.814,2.71,3.628,4.1,5.505,2.838,4.353,2.838,4.353,2.838,8.621-41.483,8.9-89.347,9.347-127.416-11.694-28.338-18.842-48.525-48.269-68.52-75.263-7.234-9.709-14.66-19.269-22.129-28.808Q288.239,499.6,274.251,480.9c-5.719-7.661-11.544-15.257-17.349-22.854-12.526-16.367-24.945-32.777-37.109-49.4q-15.908-21.7-32.265-43.084c-1.43-1.857-2.859-3.713-4.311-5.634q-8.258-10.819-16.5-21.6c-3.67-4.78-7.3-9.581-10.947-14.383-1.643-2.134-1.643-2.134-3.308-4.289-7.362-9.752-7.362-9.752-7.362-14.511l6-.085c7.49-.149,14.959-.3,22.449-.469,3.2-.085,6.423-.128,9.624-.192,43.084-.662,82.86-9.112,115.829-38.731,24.391-25.543,30.664-60.134,30.366-94.148-.982-36.021-13-65.341-39.157-90.435-50.168-45.965-123.3-39.136-185.651-40.544v597.5H0Z" transform="translate(0 104.566)" fill="#e4b48d"/>
    <path id="Caminho_357" data-name="Caminho 357" d="M56.836,0c.021,2.475.021,4.929.043,7.469q.512,87.96,1.152,175.92.1,10.851.149,21.7c.021,2.155.021,2.155.043,4.353q.256,34.89.427,69.758.224,35.818.512,71.657.16,20.134.256,40.224c.043,12.633.149,25.266.256,37.92q.064,6.914.085,13.849c.085,43.852,5.079,84.8,36.874,117.963,25.479,23.708,56.848,31.155,91.012,30.238,38.389-1.857,72.617-12.014,99.654-40.5,18.757-22.257,23.772-49.55,23.815-77.867,0-2.027.021-4.054.021-6.146q.064-10.147.085-20.315,0-7.266.064-14.575.064-19.781.128-39.542.1-20.678.171-41.355.128-34.7.256-69.395.128-35.722.277-71.465c0-2.2,0-2.2.021-4.439q.032-11.075.085-22.107.352-91.673.683-183.346H419.6V635.912c-11.352-4.545-21.894-10.008-32.713-15.663-36.277-17.413-76.309-6.978-112.393,4.993-72.916,23.857-143.57,34.356-215.419.149a222.647,222.647,0,0,1-47.053-32.158c-2.2-1.9-2.2-1.9-4.417-3.82C-29.886,554.8-48,499.725-50.052,449.813c-.064-4.929-.085-9.837-.064-14.767v-5.655q0-9.283.021-18.565v-13.38q0-18.117.021-36.213,0-18.949.021-37.877,0-35.85.043-71.7.032-40.811.043-81.644.032-83.927.107-167.875,19.205-.448,38.389-.918c4.332-.107,8.685-.192,13.038-.3l18.8-.448C22.288.431,24.23.388,26.214.324,36.436.09,46.615-.038,56.836,0Z" transform="translate(1876.493 104.562)" fill="#e4b48d"/>
    <path id="Caminho_358" data-name="Caminho 358" d="M0,0H339.293V64.018H106.7V266.74H341.427v66.151H106.7V569.756l12.8-2.134c3.969-.192,7.96-.278,11.95-.278,3.457,0,3.457,0,7-.021,2.5,0,4.993.021,7.554.021,2.625,0,5.249-.021,7.96-.021q10.627,0,21.3.021c4.4,0,8.792.021,13.188.021q76.533.032,152.981,2.39v68.285H0Z" transform="translate(2389.987 104.566)" fill="#e4b48d"/>
    <path id="Caminho_359" data-name="Caminho 359" d="M182.811,15.061c1.451.576,2.9,1.152,4.417,1.771,4.289,1.771,8.45,3.713,12.654,5.7,1.494.662,2.966,1.323,4.5,2.006,11.673,6.06,11.673,6.06,14.062,13a112.318,112.318,0,0,1,.171,15.855c-.021,1.921-.043,3.841-.064,5.826-.107,6.146-.32,12.27-.533,18.394-.085,4.161-.171,8.344-.235,12.5-.192,10.2-.491,20.379-.832,30.579-4.268,0-4.268,0-8.792-4.4l-2.9-2.966c-41.142-41.8-101.1-64.466-159.276-66C6.016,48.393-28.724,59.959-56.721,89.215-73.729,108.953-79.469,131.509-78,157.073c2.753,24.305,19.333,44.108,37.685,58.832a160.772,160.772,0,0,0,29.64,16.73c1.472.64,2.945,1.28,4.46,1.942,15.044,6.338,30.472,10.8,46.221,15,8.194,2.2,16.367,4.5,24.54,6.807,1.579.448,3.18.9,4.8,1.366,42.145,11.95,83.65,29,117.728,57.125,1.963,1.6,3.926,3.18,5.954,4.823,31.07,26.589,51.214,63.228,55.93,104.007,3.2,54.948-7.511,110.473-44.151,153.237C160.511,622.95,98.8,635.071,37.406,637.482c-62.161,1.067-139.814-8.514-189.044-50.339-5.271-6.594-4.268-14.084-3.969-22.171.021-1.793.043-3.564.064-5.42.064-5.676.235-11.331.384-17.007.085-3.862.128-7.725.192-11.587.128-9.432.363-18.864.619-28.3A45.305,45.305,0,0,1-138.6,514.4c43.788,44.769,109.747,71,171.93,72,39.2.128,79.232-4.183,108.936-32.521,19.909-20.87,26.375-45.687,26.055-73.962-1.472-23.238-12.846-45.154-29.9-60.966-35.444-28.466-78.037-44.065-120.993-57.253-127.011-39.285-127.011-39.285-157.419-95.045a185.741,185.741,0,0,1-20.763-77.675c-.107-1.579-.213-3.137-.341-4.759-2.049-50.915,20.443-96.069,52.857-133.669C-81.795,22.146-43.726,5.2-7.108-5.211c2.39-.683,4.8-1.366,7.255-2.07C60.985-22.005,125.942-7.751,182.811,15.061Z" transform="translate(956.701 99.108)" fill="#e4b48d"/>
    <path id="Caminho_360" data-name="Caminho 360" d="M.147,0h98.16q.064,116.992.107,233.963v27.57c.021,1.835.021,3.67.021,5.548q0,44.556.043,89.07.032,45.676.021,91.31.032,28.2.043,56.4v38.624c0,7.426,0,14.873.021,22.3v24.135c0,2.39.021,4.759.021,7.213,0,2.134,0,4.268-.021,6.466v5.655c-.256,4.182-.256,4.182-2.39,6.316-2.945.213-5.89.277-8.834.277-1.857,0-3.734.021-5.676.021-2.027,0-4.054-.021-6.167-.021-3.116,0-3.116,0-6.3.021-4.4,0-8.792-.021-13.188-.021-6.765,0-13.508,0-20.272.021-4.268,0-8.536-.021-12.782-.021-2.049,0-4.076.021-6.167.021-1.878,0-3.756-.021-5.676-.021H6.08c-3.8-.277-3.8-.277-5.932-2.411-.213-3.265-.256-6.551-.256-9.837-.021-2.134-.021-4.268-.021-6.466,0-2.369.021-4.759.021-7.213V560.409q.032-11.267.021-22.534V498.782q.032-28.232.043-56.506,0-45.837.021-91.673.032-44.524.064-89.07V228.479Q.073,114.239.147,0Z" transform="translate(605.885 128.039)" fill="#e4b48d"/>
    <path id="Caminho_361" data-name="Caminho 361" d="M128.133,0V64.021H-113V36.281c13.4-3.116,26.781-5.612,40.374-7.682,2.027-.32,4.054-.64,6.124-.96,6.636-1.024,13.252-2.027,19.888-3.052q6.946-1.056,13.892-2.134,14.5-2.209,29.021-4.439Q14.9,15.165,33.472,12.3q14.34-2.209,28.658-4.4,6.85-1.024,13.7-2.091Q85.4,4.336,94.993,2.885c1.878-.3,3.756-.6,5.676-.9,1.75-.256,3.5-.533,5.313-.79,1.494-.235,3.009-.469,4.567-.7A172.456,172.456,0,0,1,128.133,0Z" transform="translate(2603.282 0)" fill="#e4b48d"/>
  </g>
</svg>
