<svg xmlns="http://www.w3.org/2000/svg" width="429.083" height="56.546" viewBox="0 0 429.083 56.546">
  <g id="_45d19981cbb0c4a3b2934ca2b92844fe" data-name="45d19981cbb0c4a3b2934ca2b92844fe" transform="translate(-3.126 -275.638)">
    <path id="Caminho_41" data-name="Caminho 41" d="M-55.639-.033c.627-.007.627-.007,1.264-.017a25.2,25.2,0,0,1,7.711,1.133c.4.125.8.246,1.214.374A28.142,28.142,0,0,1-30.541,14.528q.384.855.735,1.726c.152.357.3.715.452,1.086,2.623,6.982,2.724,15.576-.334,22.447-2.347,5.037-5.522,9.393-10.253,12.417l-.752.482A25.244,25.244,0,0,1-47.675,55.7c-.209.061-.421.125-.641.185a27.525,27.525,0,0,1-7.195.593c-.418.007-.833.013-1.261.017A27.263,27.263,0,0,1-73.3,50.981c-.5-.334-.5-.334-1.011-.674v-.674l-.587-.253a7.444,7.444,0,0,1-2.111-1.77v-.674h-.674c-5.509-7.077-6.8-14.794-6.069-23.6A27.7,27.7,0,0,1-77.681,9.512h.674c.084-.192.169-.388.256-.59a7.474,7.474,0,0,1,1.767-2.107h.674V6.14C-68.744,1.7-62.7-.05-55.639-.033ZM-69.927,14.232a33.177,33.177,0,0,0-2.023,3.034c-.28.418-.28.418-.566.843a21.317,21.317,0,0,0-2.235,10.05c0,.28,0,.56.007.85a20.1,20.1,0,0,0,1.109,6.463c.118.341.233.678.351,1.028a18.191,18.191,0,0,0,9.154,10.034,20.4,20.4,0,0,0,15.441.475,20.912,20.912,0,0,0,5.4-3.109v-.674c.2-.078.4-.158.6-.239,2.721-1.581,4.353-5.839,5.266-8.746a28.4,28.4,0,0,0,.536-7.872c0-.27-.01-.539-.017-.816a19.567,19.567,0,0,0-6.389-13.007C-51.053,6.349-63.137,6.676-69.927,14.232Z" transform="translate(329.915 275.688)" fill="#e4b48d"/>
    <path id="Caminho_42" data-name="Caminho 42" d="M-8.034-.063c.29,0,.58,0,.88,0,.617,0,1.234.007,1.854.013q1.381.015,2.765.013c2.97.013,5.937.078,8.9.209l.769.03A17.418,17.418,0,0,1,19.454,5.864c.971,1.116.971,1.116.971,2.276H21.1a18.791,18.791,0,0,1,1.038,13.6c-1.494,3.655-3.746,5.732-7.107,7.636h-.674v1.349h.674c1.011,1.477,1.011,1.477,1.011,2.36h.674a15.708,15.708,0,0,1,1.032,1.6,55.75,55.75,0,0,0,3.779,5.3,2.219,2.219,0,0,1,.583,1.864h.674a2.782,2.782,0,0,1,1.011,2.36h.674A15.12,15.12,0,0,1,25.5,45.8c1.069,1.736,2.2,3.4,3.4,5.05.961,1.349.961,1.349.961,2.471a16.313,16.313,0,0,1-5.206.4l-1.17.01c-.556,0-.556,0-1.126,0-.509,0-.509,0-1.028,0a4.2,4.2,0,0,1-2.259-.755c-.563-.742-1.065-1.47-1.561-2.256l-.9-1.382-.459-.715c-.711-1.1-1.436-2.188-2.164-3.277-.138-.209-.28-.418-.421-.634q-1.36-2.038-2.758-4.042-1.694-2.438-3.351-4.889l-.435-.637A11.119,11.119,0,0,1,5.6,32.455c-.115-.236-.226-.472-.344-.715a12.364,12.364,0,0,0-4.828-.189l-.853.051q-1.037.066-2.073.138c0,.26,0,.519.007.786q.03,3.672.044,7.336.01,1.886.024,3.773c.013,1.214.017,2.427.02,3.641,0,.462.007.927.01,1.389.01.647.01,1.295.01,1.945,0,.367,0,.738.007,1.116a2.185,2.185,0,0,1-.59,1.541c-1.15.816-2.7.546-4.063.536l-.974.02c-.31,0-.624,0-.941,0-.283,0-.566,0-.86,0a3.21,3.21,0,0,1-2.134-1.517,8.15,8.15,0,0,1-.169-2.1c0-.432-.007-.863-.01-1.308,0-.479,0-.957.007-1.433,0-.5,0-1.008,0-1.51-.007-1.365,0-2.734,0-4.1.007-1.43,0-2.859,0-4.289q-.005-3.6.01-7.2.015-4.167.007-8.331-.005-4,0-8.007V10.614c0-1.338,0-2.674.007-4.012q.005-.738,0-1.477c0-.668,0-1.338.01-2.009,0-.374,0-.748,0-1.136A2.4,2.4,0,0,1-11.51.432C-10.475-.255-9.234-.08-8.034-.063ZM-2.5,7.8c-.034.506-.044,1.011-.044,1.517,0,.324,0,.647,0,.978v2.151q0,1.138,0,2.276,0,1.745,0,3.5v3.267c0,.324,0,.647,0,.978v.866c-.03.654-.03.654.381.991,4.9.371,10.418.617,14.524-2.461a6.374,6.374,0,0,0,2.492-4.46c.1-2.694-.111-4.777-1.844-6.9A11.338,11.338,0,0,0,5.267,7.421H4.235c-.56,0-.56,0-1.129,0-.384,0-.765,0-1.163,0s-.779,0-1.18,0c-.371,0-.742,0-1.123,0H-1.385C-2.154,7.378-2.154,7.378-2.5,7.8Z" transform="translate(336.665 277.061)" fill="#e4b48d"/>
    <path id="Caminho_43" data-name="Caminho 43" d="M-4.269-.122h1.1c.381,0,.762,0,1.156,0s.762,0,1.156,0H1.257c.775.044.775.044,1.113.381.03.63.037,1.264.037,1.895V3.4c0,.651,0,.651,0,1.318,0,.394,0,.792,0,1.2,0,1.49-.007,2.98-.01,4.474-.007,3.328-.013,6.659-.02,10.091H28.33C28.3,14.1,28.3,14.1,28.269,7.71c0-.8,0-1.6-.007-2.4,0-.415-.007-.833-.01-1.264v-1.2c0-.347,0-.691,0-1.045A2.8,2.8,0,0,1,29-.078a7.915,7.915,0,0,1,1.834-.1l1.1.01,1.153.027c.384,0,.765.007,1.16.013q1.426.015,2.846.047a8.659,8.659,0,0,1,.381,3.071c0,.647,0,.647,0,1.308V5.738c0,.5,0,1.008,0,1.51q.005,2.053,0,4.1c0,1.143,0,2.282,0,3.425q.005,4.036,0,8.075,0,4.167.01,8.334.005,3.581.007,7.154,0,2.139,0,4.275.005,2.008,0,4.019c0,.492,0,.981,0,1.473,0,.671,0,1.342,0,2.013,0,.378,0,.752,0,1.14a2.849,2.849,0,0,1-.759,1.932,6.47,6.47,0,0,1-1.652.135c-.492,0-.492,0-.995,0l-1.042-.01-1.038.01c-.327,0-.654,0-.995,0-.3,0-.6,0-.91,0a2.131,2.131,0,0,1-1.8-1.143,12.338,12.338,0,0,1-.115-2.279v-.711c0-.755.007-1.514.013-2.269,0-.469,0-.937,0-1.4q.01-2.6.034-5.2c.02-3.874.04-7.748.064-11.739-12.684.169-12.684.169-25.623.337-.071,7.738-.071,7.738-.131,15.475-.017,1.494-.017,1.494-.027,2.195l-.01,1.467c0,.742-.013,1.48-.024,2.222,0,.418-.007.836-.01,1.264-.067.485-.067.485-.135.978a3.486,3.486,0,0,1-2.636.752h-.947c-.327,0-.654-.01-.991-.013H-3.2c-2.431-.017-2.431-.017-3.2-.4Q-6.411,42.578-6.413,32.3q-.005-4.774-.01-9.545-.005-4.157-.007-8.314,0-2.2,0-4.407,0-2.073,0-4.144V4.369c0-.691,0-1.382,0-2.07,0-.388,0-.775,0-1.177C-6.362-.425-5.641-.122-4.269-.122Z" transform="translate(186.146 277.523)" fill="#e4b48d"/>
    <path id="Caminho_44" data-name="Caminho 44" d="M-39.546,0h1.129c.583,0,.583,0,1.177,0,.391,0,.779,0,1.18,0H-33.9a4.756,4.756,0,0,1,1.881.381,22.992,22.992,0,0,1,.991,2.276c.088.229.175.455.266.688.684,1.8,1.258,3.624,1.8,5.469.381,1.224.856,2.39,1.349,3.57.324.833.577,1.662.819,2.518a20.632,20.632,0,0,0,1.16,3.119A31.711,31.711,0,0,1-23.963,22.8c.3.937.63,1.827,1,2.738.809,2,1.5,4.032,2.2,6.072.843,2.454,1.686,4.906,2.613,7.333.873,2.293,1.692,4.6,2.492,6.918.627,1.807,1.285,3.594,2.006,5.364a4.168,4.168,0,0,1-.158,2.424c-.816.819-2.886.432-3.982.445-.341.007-.681.017-1.032.027l-1,.01-.914.013a3.007,3.007,0,0,1-2.178-1.507c-.357-.8-.661-1.564-.941-2.394-.081-.229-.162-.455-.246-.691-.169-.482-.334-.961-.5-1.443-.253-.742-.509-1.477-.769-2.215-.165-.465-.327-.934-.489-1.4-.078-.223-.155-.442-.233-.671a5.145,5.145,0,0,1-.533-2.309c-4.629-.024-9.255.051-13.884.169l-1.959.051q-2.362.056-4.723.118c-.941,2.728-1.743,5.448-2.411,8.253-.067.266-.135.533-.2.809-.057.236-.115.472-.172.711a5.023,5.023,0,0,1-1.261,2.026,5.844,5.844,0,0,1-1.77.169h-1.042l-1.086-.02c-.361,0-.718,0-1.089.007a12.254,12.254,0,0,1-2.768-.155l-.674-1.011a10.081,10.081,0,0,1,.553-1.935c.131-.388.266-.775.4-1.173s.29-.813.438-1.231q.415-1.188.823-2.38c.209-.6.209-.6.421-1.207.5-1.456.941-2.93,1.389-4.4.4-1.291.823-2.572,1.254-3.85.078-.233.155-.465.236-.7.32-.954.644-1.9.964-2.859.961-2.835,1.858-5.671,2.667-8.553.391-1.376.843-2.717,1.3-4.069.32-.944.634-1.888.951-2.832.175-.529.351-1.055.529-1.585.088-.266.179-.536.27-.813q.273-.814.55-1.635c1.335-3.972,1.335-3.972,2.559-7.977.344-1.146.779-2.249,1.21-3.365.111-.327.223-.654.337-.988.111-.233.223-.462.337-.7A8.225,8.225,0,0,1-39.546,0Zm1.8,10.5-.26.927c-.115.411-.229.823-.351,1.244-.115.4-.226.806-.344,1.22-.425,1.47-.914,2.916-1.406,4.363-.158.482-.32.964-.482,1.446-.078.239-.158.475-.239.721-.169.512-.341,1.022-.509,1.531q-.627,1.886-1.261,3.769c-.62,1.848-1.241,3.7-1.827,5.556-.078.246-.158.5-.239.748a8.386,8.386,0,0,0-.162,2.411c.364.438.364.438,1.22.384,4.653-.01,9.3-.2,13.951-.384a6.479,6.479,0,0,0-.442-2.967c-.094-.233-.185-.465-.283-.7s-.189-.469-.287-.711c-1.15-3.1-2.178-6.207-3.058-9.393a34.154,34.154,0,0,0-1.322-3.56c-.543-1.4-.937-2.839-1.342-4.278A6.748,6.748,0,0,0-37.745,10.5Z" transform="translate(445.742 277.064)" fill="#e4b48d"/>
    <path id="Caminho_45" data-name="Caminho 45" d="M-4.865-.013l.826-.007c.3,0,.6,0,.9.007s.63,0,.954,0C-1.14-.02-.1-.013.944-.01H3.112q2.271,0,4.545.01,2.918.01,5.836,0Q15.728,0,17.97.01h2.151q1.5,0,3,.01c.3,0,.6,0,.9,0,2.05.02,2.05.02,2.8.769a8.515,8.515,0,0,1,.078,1.531c0,.3,0,.6,0,.91s-.007.63-.01.954c0,.472,0,.472,0,.954-.013,2.347-.013,2.347-.4,2.731-.745.034-1.49.04-2.235.04h-.708q-1.163,0-2.326-.007H19.615l-4.241-.01q-2.544-.005-5.088-.007-3.864-.005-7.731-.017V21.015l3.5.051c1.119.02,2.239.037,3.355.057.779.013,1.558.024,2.333.037,1.119.013,2.235.034,3.355.054.347,0,.695.007,1.055.013.324.007.647.01.981.02.287,0,.57.007.866.013.735.091.735.091,1.746.765a5.049,5.049,0,0,1,.121,1.446v.86c-.007.3-.01.593-.017.9s0,.6,0,.9c-.017,2.215-.017,2.215-.782,2.977a9.135,9.135,0,0,1-1.595.108l-1,.02-1.086.013-1.106.02c-1.173.02-2.343.034-3.516.051l-2.377.04q-2.918.046-5.839.084V45.626l5.138.051c1.072.013,2.144.024,3.216.037q2.559.03,5.111.057,2.058.015,4.12.044c.523.007,1.049.013,1.571.017.735,0,1.467.013,2.2.027.415,0,.833.007,1.264.013a1.805,1.805,0,0,1,1.652.765,7.285,7.285,0,0,1,.088,1.446c0,.425,0,.425,0,.86,0,.3,0,.593-.007.9,0,.445,0,.445.007.9,0,.283,0,.57,0,.86v.789c-.088.654-.088.654-.762,1.328-1.011.067-1.989.094-3,.088-.31,0-.624,0-.944,0-1.032,0-2.06,0-3.092,0q-1.072,0-2.144,0-2.25,0-4.5-.007-2.883-.005-5.772,0-2.215.005-4.43,0c-.708,0-1.419,0-2.127,0q-1.487,0-2.974-.007l-.893.007c-2.036-.017-2.036-.017-3.162-.769a4.579,4.579,0,0,1-.135-1.389c-.007-.435-.007-.435-.013-.883,0-.32,0-.641,0-.971s-.007-.678-.013-1.025c-.01-1.129-.01-2.259-.013-3.388Q-7.067,44.2-7.077,43q-.025-3.166-.034-6.332-.015-3.13-.04-6.257-.04-5.482-.057-10.957-.01-3.449-.044-6.895-.02-2.1-.034-4.191-.005-.971-.02-1.942-.015-1.325-.02-2.643c0-.26-.007-.516-.013-.782,0-1.726,0-1.726.546-2.451A2.511,2.511,0,0,1-4.865-.013Z" transform="translate(66.273 276.995)" fill="#e4b48d"/>
    <path id="Caminho_46" data-name="Caminho 46" d="M-4.587-.007c.347,0,.691,0,1.049,0,.374,0,.752,0,1.136,0,.583,0,.583,0,1.173,0q1.234,0,2.465,0,1.871,0,3.742,0,1.2,0,2.4,0c.371,0,.742,0,1.123,0C14.819.01,20.608.9,25.423,5.361a14.6,14.6,0,0,1,2.721,4.454l.367.836a20.352,20.352,0,0,1,.411,5.317c.01.546.01.546.017,1.106a15.326,15.326,0,0,1-2.04,8.29c-.145.253-.293.5-.445.762-.111.182-.219.361-.334.546h-.674c-.125.293-.125.293-.253.59a7.43,7.43,0,0,1-1.77,2.107h-.674v.674a23.358,23.358,0,0,1-6.069,2.7c-.408.115-.819.233-1.241.351a39.587,39.587,0,0,1-7.714.533l-1.615.04c-1.308.034-2.62.061-3.928.088,0,.219,0,.442,0,.668q.01,3.434.017,6.874c0,.856,0,1.709.007,2.566q.005,1.841.007,3.688c0,.381,0,.762.007,1.156v2.036a14.066,14.066,0,0,1-.378,2.566A6.941,6.941,0,0,1-.7,53.688c-.3,0-.593,0-.9,0s-.617,0-.937-.007-.617,0-.934.007c-.445,0-.445,0-.9,0H-5.19a4.622,4.622,0,0,1-1.73-.381V.374A4.429,4.429,0,0,1-4.587-.007Zm6.77,7.8q-.01,3.737-.017,7.471c0,.85,0,1.7-.007,2.545-.007,1.214-.007,2.431-.01,3.648,0,.381,0,.762,0,1.156v1.062c0,.31,0,.624,0,.944-.037.7-.037.7.378,1.042.59.034,1.18.044,1.77.044.55,0,.55,0,1.109,0L6.566,25.7c.374,0,.752,0,1.136.007,4.359,0,4.359,0,8.493-1.247.523-.233.523-.233,1.055-.465l.779-.357v-.674c.2-.064.391-.125.59-.189A6.008,6.008,0,0,0,20.928,19.3a11.323,11.323,0,0,0-1.214-8.132C18.039,9.154,15.43,8.4,12.972,7.792c-.863-.054-1.726-.074-2.589-.067-.236,0-.472,0-.715,0-.745,0-1.49.013-2.239.02l-1.524.01C4.664,7.765,3.424,7.778,2.183,7.792Z" transform="translate(128.004 277.071)" fill="#e4b48d"/>
    <path id="Caminho_47" data-name="Caminho 47" d="M-54.27-4.986c.32.142.641.287.971.432.715.58.715.58.866,1.5a17.7,17.7,0,0,1-.89,3.523c-.206.61-.206.61-.415,1.237a3.725,3.725,0,0,1-2.218,2.07c-.239-.2-.479-.408-.721-.617C-60.029.614-64.028.26-68.094.745c-.809.182-1.571.415-2.36.674v.674c-.2.182-.4.361-.61.546a6.113,6.113,0,0,0-1.709,4.72,13.939,13.939,0,0,0,1.308,3.162V11.2c.189.088.378.179.573.27a27.013,27.013,0,0,1,2.421,1.48,54.758,54.758,0,0,0,5.661,3.092c1.416.7,2.788,1.453,4.157,2.239v.674h1.011v.674c.243.081.485.158.738.239,2.754,1.261,4.838,4.106,6,6.841.108.243.212.485.324.738A16.452,16.452,0,0,1-50.9,39.18a16.011,16.011,0,0,1-9.231,8.344c-6.7,1.993-13.412,1.123-19.764-1.6-.57-.327-1.133-.657-1.686-1.011a12.641,12.641,0,0,1,1.706-5.206c.192-.367.192-.367.388-.745q.465-.905.941-1.8c1.8.587,3.557,1.261,5.32,1.949l1.086.411c.32.125.644.253.974.381,2.856.8,6.581.8,9.208-.651.3-.2.3-.2.607-.4s.3-.2.607-.4a5.255,5.255,0,0,0,2.09-2.967c.233-2.077.246-3.988-1.011-5.732a20.928,20.928,0,0,0-5.8-3.877c-.314-.162-.627-.324-.951-.489-1.3-.671-2.606-1.328-3.924-1.959C-75.373,21-79.095,17.8-81.242,12.546c-.92-3.159-.917-7.751.556-10.7.226-.374.226-.374.455-.759.293-.506.293-.506.59-1.025a29.034,29.034,0,0,1,1.77-2.684h.674V-3.3c1.167-1.011,1.167-1.011,2.023-1.011v-.674C-68.38-8.573-61.226-8.155-54.27-4.986Z" transform="translate(85 283.443)" fill="#e4b48d"/>
  </g>
</svg>
