<svg xmlns="http://www.w3.org/2000/svg" width="596.542" height="1280.734" viewBox="0 0 596.542 1280.734">
  <g id="shape" transform="translate(-0.349 0.646)">
    <path id="Caminho_678" data-name="Caminho 678" d="M0,0V2L7,3,8,6c.66.25,1.32.5,2,.75.66.41,1.32.82,2,1.25a36.2,36.2,0,0,1,1,7h2a25.078,25.078,0,0,1-4,15A21.456,21.456,0,0,1-2.5,35.62,22.7,22.7,0,0,1-16,30c-3.97-5-4.52-9.79-4-16a22.685,22.685,0,0,1,1-4h2l2-4h2l1-3C-7.9.87-4.64-.42,0,0Z" transform="translate(502 206)" fill="#e4b48d"/>
    <path id="Caminho_679" data-name="Caminho 679" d="M0,0C.63.18,1.27.35,1.92.53,7.3,2.23,9.85,4.32,13,9c1.82,4.2,1.69,9.59.43,13.97C12.15,26.14,10.83,28.99,8,31H5v2a25.106,25.106,0,0,1-14.69.25c-5.15-2.78-8.02-5.4-9.88-10.96C-20.54,17.12-19.65,11.94-18,7-12.76,2.19-7.27-2.2,0,0Z" transform="translate(422 207)" fill="#e4b48d"/>
    <path id="Caminho_680" data-name="Caminho 680" d="M0,0C4.37,2.42,7.9,4.81,10.06,9.44c1.08,5.75,1.41,11.31-1.37,16.61-3.27,3.99-6.43,6.52-11.63,7.39a21.724,21.724,0,0,1-14-3c-3.52-3.33-5.76-6.57-6.24-11.49-.15-6.06,0-9.81,4.24-14.51C-13.09-.96-7.49-3.32,0,0Z" transform="translate(585.938 311.563)" fill="#e4b48d"/>
    <path id="Caminho_681" data-name="Caminho 681" d="M0,0A15.176,15.176,0,0,1,6.09,5.13a39.222,39.222,0,0,1,1,7h2c.63,5.06-1.23,8.89-4,13C1.21,29.14-2.26,32.24-7.97,32.5a21.006,21.006,0,0,1-13.94-5.37c-3.97-5-4.52-9.79-4-16a22.685,22.685,0,0,1,1-4h2c.25-.76.49-1.53.75-2.31,1.78-3.83,3.97-5.07,7.69-6.88C-8.85-3.84-5.18-2.47,0,0Z" transform="translate(507.91 312.871)" fill="#e4b48d"/>
    <path id="Caminho_682" data-name="Caminho 682" d="M0,0C1.12-.03,2.24-.05,3.4-.08,7.59.35,9.98,1.99,13.25,4.5c3.84,4.88,4.75,9.67,4.37,15.75h-2c-.02.87-.04,1.73-.06,2.63-1.3,4.67-4.07,6.63-7.94,9.37-3.99,2-8.66,1.5-13,1a18.206,18.206,0,0,1-10.5-8.81c-1.71-4.1-2.49-7.81-1.5-12.19a33.054,33.054,0,0,1,8-11A28.272,28.272,0,0,1,0,0Z" transform="translate(499.375 -0.25)" fill="#e4b48d"/>
    <path id="Caminho_683" data-name="Caminho 683" d="M0,0C1.12-.03,2.24-.05,3.4-.08c4.19.43,6.63,2.04,9.85,4.64,3.4,4.18,4.98,8.16,4.71,13.61a18.909,18.909,0,0,1-7.9,13.08,21.354,21.354,0,0,1-15.44,2,25.226,25.226,0,0,1-10-9v-4h-2c-.5-6.01.77-9.92,4-15C-9.36.5-6.07.08,0,0Z" transform="translate(97.375 -0.25)" fill="#e4b48d"/>
    <path id="Caminho_684" data-name="Caminho 684" d="M0,0Q2.73.63,5.44,1.31c1.01.25,2.02.49,3.06.74.82.31,1.65.63,2.5.95l1,3c.93.37.93.37,1.88.75C17.22,8.72,17.79,11.43,19,15c.93,5.07-1.37,9.75-4,14-3.06,3.53-6.07,5.61-10.68,6.54-5.66.3-10.05-.56-14.66-3.93A20.185,20.185,0,0,1-16.56,18c.28-5.51,3.55-9.59,6.97-13.69C-6.76,1.98-3.57,2.29,0,2Z" transform="translate(498 102)" fill="#e4b48d"/>
    <path id="Caminho_685" data-name="Caminho 685" d="M0,0,1,2c1.86.15,1.86.15,3.75.31,3.39.35,4.22.67,7.06,2.88,3.63,4.66,5.87,8.56,5.6,14.66A21.185,21.185,0,0,1,8.88,33.56,23.615,23.615,0,0,1-6,35c-5.33-2.75-8.92-6.23-11.12-11.88-1.66-5.9-.68-9.08,1.95-14.45C-14,7-14,7-11,6l1-3A18.972,18.972,0,0,1-5.5,1.88C-2.46,1.52-2.46,1.52,0,0Z" transform="translate(98 102)" fill="#e4b48d"/>
    <path id="Caminho_686" data-name="Caminho 686" d="M0,0C6.95,1.66,11.62,4.26,16,10c2.03,6.09,1.42,12.09-1,18H13l-2,4H8v2a25.136,25.136,0,0,1-14.75.25c-5.1-2.83-7.97-5.41-9.82-10.96C-17.54,18.12-16.65,12.94-15,8c3.58-4.58,6.59-5.73,12.11-6.64C-1,1.18-1,1.18,0,0Z" transform="translate(419 102)" fill="#e4b48d"/>
    <path id="Caminho_687" data-name="Caminho 687" d="M0,0A21.084,21.084,0,0,1,3.75,14.94C2.41,21.32.44,25.19-5.06,28.81a26.366,26.366,0,0,1-8.56,1.13c-1.15,0-1.15,0-2.32.01-2.12-.14-2.12-.14-5.12-1.14v-2c-.64-.1-1.28-.2-1.94-.31-.68-.23-1.36-.45-2.06-.69l-1-3h-2c-2.57-4.81-2.55-9.69-2-15,2.21-5.73,7.53-9.59,12.75-12.56C-10.99-5.6-5.14-3.67,0,0Z" transform="translate(191.063 107.188)" fill="#e4b48d"/>
    <path id="Caminho_688" data-name="Caminho 688" d="M0,0A16.243,16.243,0,0,1,6,7C7.32,18.36,7.32,18.36,5,23H3c-.25.64-.5,1.28-.75,1.94C1,27,1,27-1.12,27.75c-.93.12-.93.12-1.88.25v2a23.966,23.966,0,0,1-15,0V28c-.87-.09-.87-.09-1.75-.19C-22.93,26.66-24.11,24.74-26,22c-1.94-5.81-2.02-11.92.69-17.44C-17.62-3.96-10.13-5.93,0,0Z" transform="translate(590 210)" fill="#e4b48d"/>
    <path id="Caminho_689" data-name="Caminho 689" d="M0,0V2L3,3C6.14,8.98,5.92,15.96,4,22.31c-3.32,4.46-6.9,8-12.46,9.24C-14.81,31.89-19.22,30.12-24,26c-3.81-3.81-4.37-7.16-4.69-12.38.2-5.83,1.4-9.07,5.64-13.09C-15.27-5.27-8.36-4.43,0,0Z" transform="translate(350 210)" fill="#e4b48d"/>
    <path id="Caminho_690" data-name="Caminho 690" d="M0,0C3.5,2.49,7.05,5.1,9,9c1.19,12.18,1.19,12.18-2.06,17.06C2.72,30.8-1.57,33.19-7.94,33.62-13.63,33.38-17.12,31.03-21,27c-3.81-5.12-3.71-10.85-3-17a23.962,23.962,0,0,1,3-6h2V2C-12.34-1.36-7.03-3.37,0,0Z" transform="translate(266 208)" fill="#e4b48d"/>
    <path id="Caminho_691" data-name="Caminho 691" d="M0,0A21.038,21.038,0,0,1,10,11c1.01,5.64.42,10.05-2.62,14.94C4.62,29.56,2.49,31.73-2,33c-9.61.7-9.61.7-13-1V30c-.87-.09-.87-.09-1.75-.19-3.4-1.23-4.41-2.7-6.25-5.81A29.383,29.383,0,0,1-22,6C-16.08-1.13-8.82-1.21,0,0Z" transform="translate(426)" fill="#e4b48d"/>
    <path id="Caminho_692" data-name="Caminho 692" d="M0,0A17.739,17.739,0,0,1,8,6,28.954,28.954,0,0,1,9,24a20.624,20.624,0,0,1-5,6H1v2c-3.99,1.99-8.66,1.51-13,1a19.608,19.608,0,0,1-11.38-9.98,19.72,19.72,0,0,1,1-15.33C-21.2,6.36-21.2,6.36-20,5c.78-.95,1.57-1.9,2.38-2.88C-12.85-1.7-5.73-.66,0,0Z" transform="translate(185)" fill="#e4b48d"/>
    <path id="Caminho_693" data-name="Caminho 693" d="M0,0C3.47,3.09,4.74,6.2,5.39,10.75,5.64,17.22,4.6,21.74.5,26.88-1,28-1,28-4,28v2a20.157,20.157,0,0,1-7.44,1.12c-1.14.01-1.14.01-2.31.01A27.726,27.726,0,0,1-20,30V28c-.64-.1-1.28-.21-1.94-.31-.68-.23-1.36-.46-2.06-.69l-1-3-2-1c-1.95-5.85-2.53-12.89.25-18.53A22.687,22.687,0,0,1-14.54-3.85C-9.21-4.17-4.62-2.55,0,0Z" transform="translate(29 106)" fill="#e4b48d"/>
    <path id="Caminho_694" data-name="Caminho 694" d="M0,0C6.6,1.28,11.53,3.1,15.79,8.47,18.5,14.13,17.95,21.15,16,27a47.189,47.189,0,0,1-5,5H9v2A28.816,28.816,0,0,1,.44,35.12c-1.15.01-1.15.01-2.32.01C-4,35-4,35-7,34V32c-.87-.09-.87-.09-1.75-.19C-11.93,30.66-13.11,28.74-15,26a26.314,26.314,0,0,1-.23-16.39c1.77-3.37,3.24-5.17,6.75-6.73q2.67-.8,5.37-1.41C-1.02,1.2-1.02,1.2,0,0Z" transform="translate(579 102)" fill="#e4b48d"/>
    <path id="Caminho_695" data-name="Caminho 695" d="M0,0,12,4V6l3,1c1.87,3.53,2.27,6.54,2.25,10.5.01,1.38.01,1.38.02,2.78a16.727,16.727,0,0,1-4.21,10.03C11,32,11,32,8,32v2c-2.46,1.23-4.13,1.13-6.88,1.12-.86.01-1.72.01-2.61.01-3.66-.19-5.67-.34-8.4-2.91-.59-.71-1.19-1.42-1.8-2.16-.6-.71-1.2-1.42-1.82-2.15-3.15-4.04-2.94-7.78-2.91-12.79C-15.77,10.3-13.47,7.29-10,4-6.36,1.57-4.29,1.84,0,2Z" transform="translate(338 102)" fill="#e4b48d"/>
    <path id="Caminho_696" data-name="Caminho 696" d="M0,0,1,2c1.03-.1,2.06-.21,3.12-.31C9.02,2.08,10.61,3.53,14,7c3.88,5.44,3.8,10.52,3,17-1.75,3.5-1.75,3.5-4,6-.66.76-1.32,1.53-2,2.31C7.61,35.17,4.2,35.14-.12,35.12c-1.31.01-1.31.01-2.64.01A7.281,7.281,0,0,1-7,34V32c-.58-.08-1.16-.16-1.75-.25C-11.7,30.77-13.03,29.38-15,27a27.518,27.518,0,0,1,.5-18.69c.5-.76.99-1.52,1.5-2.31h2V4c.71-.2,1.42-.41,2.15-.62l2.79-.82c.91-.26,1.83-.53,2.77-.81C-1.06,1.21-1.06,1.21,0,0Z" transform="translate(258 102)" fill="#e4b48d"/>
    <path id="Caminho_697" data-name="Caminho 697" d="M0,0C1.02-.01,2.04-.01,3.1-.02A14.2,14.2,0,0,1,9.94,2.25v2h3c3.53,5.44,3.7,10.71,3,17A17.747,17.747,0,0,1,11,29.5c-.5.5-1.01,1-1.53,1.52C5.21,34.45-.92,33.75-6.06,33.25c-4.21-1.28-6.66-3.58-9.44-7-2.49-5.06-2.53-10.53-1.56-16,1.96-4.14,4.22-7.09,8.33-9.2A27.591,27.591,0,0,1,0,0Z" transform="translate(339.063 -0.25)" fill="#e4b48d"/>
    <path id="Caminho_698" data-name="Caminho 698" d="M0,0C4.41,3.34,7.13,6.2,8.01,11.82c.24,6.53-.29,11-4.45,16.12-5.04,4.01-9.09,4.58-15.48,4.32-5.6-.72-8.9-4.2-12.52-8.32a27.4,27.4,0,0,1,.5-18.69c.5-.76.99-1.53,1.5-2.31h3l1-3A30.7,30.7,0,0,1,0,0Z" transform="translate(267.438 1.063)" fill="#e4b48d"/>
    <path id="Caminho_699" data-name="Caminho 699" d="M0,0A20.175,20.175,0,0,1,7.75,9.15c.87,9.91.87,9.91-.82,14.12-.99.5-.99.5-2,1-.41.95-.41.95-.83,1.92-1.92,3.44-4.94,4.09-8.51,5.38a15.984,15.984,0,0,1-12.82-1.4c-4.71-3.07-7.11-6.14-8.49-11.6-.73-4.83-.65-8.27,2.04-12.47C-17.04-2.08-9.61-5.12,0,0Z" transform="translate(428.066 312.727)" fill="#e4b48d"/>
    <path id="Caminho_700" data-name="Caminho 700" d="M0,0C3.96,2.07,5.72,5.07,7.27,9.19c.58,5.15.65,10.06-1,15h-2l-1,4-4,1v2a21.63,21.63,0,0,1-7.93,1.12c-1.29.01-1.29.01-2.59.01a27.428,27.428,0,0,1-6.48-1.13v-2l-4-2v-2l-3-1a25.465,25.465,0,0,1-.31-16.07C-19.91-1.73-10-2.98,0,0Z" transform="translate(588.727 0.813)" fill="#e4b48d"/>
    <path id="Caminho_701" data-name="Caminho 701" d="M0,0A21.3,21.3,0,0,1,10,11c.58,5.24.53,10.26-2,15H6L4,30H2v2a30.4,30.4,0,0,1-9.06,1.12c-1.29.01-1.29.01-2.6.01A13.857,13.857,0,0,1-15,32V30c-2.48-.99-2.48-.99-5-2V25h-2c-1.88-5.64-2.3-12.76-.06-18.34C-16.91-.98-8.47-1.36,0,0Z" transform="translate(24)" fill="#e4b48d"/>
    <path id="Caminho_702" data-name="Caminho 702" d="M0,0C1.16.43,2.31.87,3.5,1.31c4.76,2.3,7.7,3.87,9.88,8.81.89,5.57,1.28,10.9-1.54,15.97A20.881,20.881,0,0,1,0,34c-5.61.32-10.11-.85-14.49-4.43-3.54-3.68-5.34-7.19-5.7-12.32.21-4.62.84-7.66,3.19-11.69C-12.22,1.48-6.37-2.51,0,0Z" transform="translate(181 207)" fill="#e4b48d"/>
    <path id="Caminho_703" data-name="Caminho 703" d="M0,0C3.95,3.49,6.25,6.62,7.07,11.8c.28,6.05-.72,9.76-4.38,14.58-4.55,4.01-9.03,5.27-15,5-5.44-1.73-10.25-4.16-13.31-9.13-1.36-5.65-1.8-11.46.93-16.75C-18.23-2.99-9.39-4.61,0,0Z" transform="translate(268.313 1248.625)" fill="#e4b48d"/>
    <path id="Caminho_704" data-name="Caminho 704" d="M0,0C4.54,4.95,5.57,9.29,5.35,15.85,4.79,20.53,3.06,23.3-.31,26.5c-5.31,3.54-8.9,4.1-15.19,3.28-5.13-1.12-7.71-3.57-10.81-7.66A20.111,20.111,0,0,1-27.94,8.25a28.113,28.113,0,0,1,10-11C-11.77-4.6-5.46-3.25,0,0Z" transform="translate(349.938 1145.75)" fill="#e4b48d"/>
    <path id="Caminho_705" data-name="Caminho 705" d="M0,0C3.68,3.14,7.68,7.14,8.24,12.14,8.42,18.4,7.82,21.97,4,27c-4.14,3.75-8.02,4.82-13.47,5.16-5.5-.35-9.24-2.8-12.97-6.72C-25.58,20.54-25.61,15.65-25,10c1.76-5.32,5.11-8.4,10-11A22.505,22.505,0,0,1,0,0Z" transform="translate(267 1144)" fill="#e4b48d"/>
    <path id="Caminho_706" data-name="Caminho 706" d="M0,0A15.58,15.58,0,0,1,6.59,10.62c.07,5.92-.05,10.22-4.05,14.8-4.57,4.31-9.23,5.48-15.42,5.33-6.05-1.64-9.55-4.92-13-10a20.785,20.785,0,0,1,.07-14.13c2.72-4.04,6.17-7.91,10.89-9.55C-9.55-3.78-4.54-3.06,0,0Z" transform="translate(589.875 1249.25)" fill="#e4b48d"/>
    <path id="Caminho_707" data-name="Caminho 707" d="M0,0C3.83,3.13,5.78,6.18,6.44,11.17c.29,6.1-.61,9.77-4.32,14.64-4.54,4.02-9.03,5.27-15,5-5.89-1.83-8.92-4.47-12.74-9.12a20.4,20.4,0,0,1-.56-14.94c2.22-4.31,5.1-6.66,9.3-8.94A19.353,19.353,0,0,1,0,0Z" transform="translate(348.875 1249.188)" fill="#e4b48d"/>
    <path id="Caminho_708" data-name="Caminho 708" d="M0,0C3.61,3.02,6.78,5.78,7.71,10.55c.44,5.63.24,9.18-3,14-3.32,3.83-6.42,6.26-11.5,7.06-5.9.27-9.93-1.67-14.32-5.56-4.34-4.97-4.67-8.05-4.57-14.48.56-4.41,2.17-7.03,5.39-10.02C-14.21-2.91-6.61-4.19,0,0Z" transform="translate(26.293 1248.453)" fill="#e4b48d"/>
    <path id="Caminho_709" data-name="Caminho 709" d="M0,0C1.02,1.33,1.02,1.33,2.06,2.69c.9,1.05.9,1.05,1.82,2.12C5.79,9.44,5.9,13.77,5.06,18.69,2.92,23.33.1,26.03-4.19,28.75a23.947,23.947,0,0,1-17.12-1.63c-4.37-4.05-6.8-8.54-7.07-14.56.78-6.83,3.51-10.31,8.53-14.67C-13.65-6-5.47-4.31,0,0Z" transform="translate(590.938 1146.313)" fill="#e4b48d"/>
    <path id="Caminho_710" data-name="Caminho 710" d="M0,0C5.3,2.73,8.09,6.77,9.94,12.31c.58,5.99-.7,10.09-4,15-4.86,4.62-8.93,5.36-15.43,5.28-5.34-.58-8.49-2.99-11.95-7.09-2.83-5.56-3.12-10.42-1.42-16.34,1.31-3.04,3.26-4.79,5.8-6.85.72-.6,1.44-1.2,2.18-1.81A20.7,20.7,0,0,1,0,0Z" transform="translate(426.063 727.691)" fill="#e4b48d"/>
    <path id="Caminho_711" data-name="Caminho 711" d="M0,0A25.154,25.154,0,0,1,8.75,9.88c.4,4.78.64,9.36-1.13,13.87C4.31,27.51.58,31.5-4.57,32.18c-6.37.3-10.23-.34-15.09-4.61-3.5-3.73-4.75-7.1-5.03-12.13.18-4.88,1.58-7.62,4.44-11.56C-14.27-1.67-7.65-2.65,0,0Z" transform="translate(587.25 624.125)" fill="#e4b48d"/>
    <path id="Caminho_712" data-name="Caminho 712" d="M0,0C4.96,2.66,8.22,5.95,10,11.28c.63,5.39.38,9.85-2.69,14.43-3.17,3.8-6.01,6.19-11,7.02-7.43.3-11.11-1.59-16.63-6.51-3.38-3.89-3.02-8.3-2.97-13.21.53-5.11,3.18-7.73,6.85-11.04A18,18,0,0,1,0,0Z" transform="translate(24.004 623.719)" fill="#e4b48d"/>
    <path id="Caminho_713" data-name="Caminho 713" d="M0,0A17.576,17.576,0,0,1,8.19,8.23c1.64,5.21,1.92,10.51-.47,15.5-2.94,4.19-5.9,7.03-10.86,8.62-4.65.56-8.87.34-13-2-3.87-3.41-7.57-6.8-8.29-12.1-.19-5.04.39-8.64,3.29-12.9C-14.98-.71-8.49-2.57,0,0Z" transform="translate(587.141 935.648)" fill="#e4b48d"/>
    <path id="Caminho_714" data-name="Caminho 714" d="M0,0C4.18,1.73,6.99,4.65,10,8c1.94,5.81,2.02,11.92-.69,17.44-3.61,4-6.78,7.14-12.33,7.8-5.93.2-9.15-.74-13.98-4.24-4.34-4.68-5.36-8.43-5.28-14.65.6-5.04,3.17-8.34,6.9-11.73C-10.43-.76-5.87-.47,0,0Z" transform="translate(585 831)" fill="#e4b48d"/>
    <path id="Caminho_715" data-name="Caminho 715" d="M0,0C4.01,3.61,7.15,6.79,7.8,12.33c.2,5.93-.74,9.16-4.24,13.98-4.68,4.34-8.43,5.36-14.65,5.28-5.04-.6-8.34-3.16-11.72-6.9-3.39-4.95-3.1-9.51-2.63-15.38,1.73-4.18,4.65-6.98,8-10C-11.62-2.63-5.52-2.71,0,0Z" transform="translate(26.438 832.688)" fill="#e4b48d"/>
    <path id="Caminho_716" data-name="Caminho 716" d="M0,0C5.65,1.99,8.49,5.14,11.25,10.38c1.72,6.01.89,10.46-2.04,15.82A16.213,16.213,0,0,1,0,33c-4.97.52-8.86.57-13.38-1.69-4.78-4.21-7.34-7.68-8.49-13.97A16.1,16.1,0,0,1-19,7C-13.08.73-8.55-.72,0,0Z" transform="translate(504 727)" fill="#e4b48d"/>
    <path id="Caminho_717" data-name="Caminho 717" d="M0,0A17.67,17.67,0,0,1,8.93,9.32c.73,5.88.84,11.08-1.56,16.56C2.85,30.39-.72,32.53-7.07,32.82c-5.09-.24-7.94-1.42-12-4.5-4.11-5.31-5.55-9.29-5-16,1.81-5.28,4.23-8.95,9-12A23.979,23.979,0,0,1,0,0Z" transform="translate(185.07 727.684)" fill="#e4b48d"/>
    <path id="Caminho_718" data-name="Caminho 718" d="M0,0C4.12,4.17,6.16,7.32,6.31,13.19,6.24,18.76,5.48,21.63,2,26c-4.89,3.89-9.05,4.76-15.28,4.52-5.83-1.11-9.38-4.63-12.72-9.33-1.51-4.81-2.03-9.36-.27-14.18,2.35-4.45,5.4-7.82,10.08-9.76C-9.87-3.47-5.42-3.61,0,0Z" transform="translate(590 522)" fill="#e4b48d"/>
    <path id="Caminho_719" data-name="Caminho 719" d="M0,0C3.73,3.12,6.46,6.37,8,11c.54,6.33-.28,10.76-4,16-4.08,3.79-8.04,4.83-13.47,5.16-5-.31-8.46-2.3-12.14-5.6-3.66-4.26-4.09-8.4-3.81-13.91.86-5.43,3.04-8.53,7.36-12.03C-12-2.59-6.35-2.53,0,0Z" transform="translate(26 1144)" fill="#e4b48d"/>
    <path id="Caminho_720" data-name="Caminho 720" d="M0,0A19.947,19.947,0,0,1,8.82,12.14c.49,4.65.03,8.35-2.47,12.35C3.36,28.1.55,31.22-4.18,32.14c-5.63.45-9.19.25-14-3-3.51-3.1-6.2-6.17-7.07-10.87-.26-5.63,1.02-10.64,4.63-15.03C-14.79-1.92-7.26-2.84,0,0Z" transform="translate(427.184 935.855)" fill="#e4b48d"/>
    <path id="Caminho_721" data-name="Caminho 721" d="M0,0C3.49,3.15,6.06,5.82,7.56,10.31c.43,8.73.43,8.73-2,13a62.027,62.027,0,0,1-5,5l-2,2a20.227,20.227,0,0,1-13.93.28A22.334,22.334,0,0,1-25.44,20.31c-.72-7.11-.51-12.33,4-18A19.3,19.3,0,0,1,0,0Z" transform="translate(26.438 936.688)" fill="#e4b48d"/>
    <path id="Caminho_722" data-name="Caminho 722" d="M0,0C4.92,2.33,7.31,5.32,10,10a17.7,17.7,0,0,1-.69,14.19C6.84,28.72,3.94,31.35-1,33c-5.69.56-10.15.31-15-3-4.58-4.37-6.73-8.6-7-15,.85-5.91,3.8-9.26,8.38-12.87C-10.16-.98-5.25-.53,0,0Z" transform="translate(505 831)" fill="#e4b48d"/>
    <path id="Caminho_723" data-name="Caminho 723" d="M0,0A18.746,18.746,0,0,1,8.94,9.31c1.61,6.08,1.2,10.45-2,16C3.62,29.15.69,31.92-4.43,32.64c-5.76.09-9.14-.36-13.63-4.33-4.19-4.19-5.9-7.04-6-13,.67-5.3,2.1-9.21,6-13A19.9,19.9,0,0,1,0,0Z" transform="translate(426.059 831.691)" fill="#e4b48d"/>
    <path id="Caminho_724" data-name="Caminho 724" d="M0,0A23.435,23.435,0,0,1,11,11c.52,5.17.64,9.61-1.56,14.38C5.03,30.12,1.72,33.27-5,33.56c-6.26-.34-10.08-2.49-14.38-7.12C-22.44,21.84-22.64,17.36-22,12A21.584,21.584,0,0,1-13,1,29.14,29.14,0,0,1,0,0Z" transform="translate(585 727)" fill="#e4b48d"/>
    <path id="Caminho_725" data-name="Caminho 725" d="M0,0C4.86,1.68,8.17,4.75,11,9c1.53,4.59,1.94,9.38.28,14C8.63,27.96,5.33,31.22,0,33c-5.56.78-9.79.67-14.44-2.69-3.77-3.29-6.28-5.71-6.83-10.89-.18-5.2-.32-9.35,3.27-13.42C-12.08.48-8.03-.87,0,0Z" transform="translate(22 727)" fill="#e4b48d"/>
    <path id="Caminho_726" data-name="Caminho 726" d="M0,0C5.33,2.77,8.13,6.72,10,12.32a20.151,20.151,0,0,1-4,15,15.012,15.012,0,0,1-9.69,5.44c-5.92.25-9.77-.35-14.31-4.44-4.12-4.01-5.68-8.34-6-14,.83-5.86,3.78-9.25,8.28-12.87C-11.17-1.54-5.08-1.73,0,0Z" transform="translate(506.004 623.684)" fill="#e4b48d"/>
    <path id="Caminho_727" data-name="Caminho 727" d="M0,0C4.3,2.44,7.11,5.1,9.12,9.75c.62,6.96.72,11.57-3.81,17.13-3.7,3.98-7.06,5.33-12.5,5.56-5.31-.28-8.32-1.24-12.5-4.56-3.97-4.99-4.64-9.08-4.38-15.42.74-4.99,3.32-7.62,6.95-10.9C-11.71-2.19-6.05-1.85,0,0Z" transform="translate(24.688 520.125)" fill="#e4b48d"/>
    <path id="Caminho_728" data-name="Caminho 728" d="M0,0A21.157,21.157,0,0,1,9.38,9.88c.72,7.13.44,12.26-4,18C1.67,31.49-1.47,32.22-6.5,32.5c-5.36-.19-8.57-1.36-12.57-4.92a16.571,16.571,0,0,1-4.87-11.77c.52-6.55,2.32-9.62,7.32-13.93C-10.89-1.74-6.44-2,0,0Z" transform="translate(586.625 416.125)" fill="#e4b48d"/>
    <path id="Caminho_729" data-name="Caminho 729" d="M0,0C3.98,3.31,6.3,6.14,6.86,11.42c.19,6.22-.44,9.77-4.24,14.77a18.636,18.636,0,0,1-14,5c-5.89-1.05-9.21-3.75-12.87-8.38-2.95-4.24-2.66-8.61-2.13-13.62,1.76-5.33,5.13-8.36,10-11A20.312,20.312,0,0,1,0,0Z" transform="translate(348.375 313.813)" fill="#e4b48d"/>
    <path id="Caminho_730" data-name="Caminho 730" d="M0,0C4.78,4.22,6.89,8.02,7.31,14.31,7.08,20,4.65,23.44.69,27.38c-3.85,3.13-8.07,4.15-13,4-5.8-1.77-9.96-4.61-13.12-9.86-2.05-4.99-1.45-10.54.31-15.52C-18.96-2.93-9.45-4.64,0,0Z" transform="translate(268.313 313.625)" fill="#e4b48d"/>
    <path id="Caminho_731" data-name="Caminho 731" d="M0,0C3.93,2.7,7.32,5.52,8.59,10.29c.74,7.19-.24,11.68-4.87,17.48-4.29,3.41-8.4,4.47-13.81,4.06-5.42-.91-8.79-3.48-12.25-7.69-2.74-5.17-3.19-9.22-1.63-14.81C-21.9,3.8-18.74,1.57-13.72-1.42A19.342,19.342,0,0,1,0,0Z" transform="translate(427.031 1248.047)" fill="#e4b48d"/>
    <path id="Caminho_732" data-name="Caminho 732" d="M0,0C4.26,4.62,6.58,8.97,6.38,15.38c-.88,5.75-3.79,9.33-8.19,13-5.03,2.79-10.56,2.54-16,1-4.2-2.29-7.11-4.97-9.05-9.38a22.185,22.185,0,0,1,.8-14.58c2.73-4.47,6.92-7.09,11.68-9.04A27.634,27.634,0,0,1,0,0Z" transform="translate(429.813 1145.625)" fill="#e4b48d"/>
    <path id="Caminho_733" data-name="Caminho 733" d="M0,0C3.53,4.15,6.21,9.14,6.07,14.72c-1.12,5.15-3.38,9.81-7.63,13.07-4.66,2.75-8.6,3.2-13.92,2.38-5.5-1.53-8.51-4.13-11.33-9.05a22.134,22.134,0,0,1,0-14.18c2.67-4.74,6-8.58,11.35-10.15A26.739,26.739,0,0,1,0,0Z" transform="translate(108.875 1145.5)" fill="#e4b48d"/>
    <path id="Caminho_734" data-name="Caminho 734" d="M0,0A19.947,19.947,0,0,1,8.82,12.14c.49,4.65.03,8.35-2.47,12.35C3.36,28.1.55,31.22-4.18,32.14c-7.11.57-10.98-.73-16.75-5.06-3.58-4.67-4.64-9.52-3.98-15.37A18.172,18.172,0,0,1-16.63.18,21.822,21.822,0,0,1,0,0Z" transform="translate(427.184 1039.855)" fill="#e4b48d"/>
    <path id="Caminho_735" data-name="Caminho 735" d="M0,0C4.55,2.61,8.07,6.07,10,11c.75,5.9.47,11.02-3,16-2.88,2.96-5.76,5.61-10,6-1.61.15-1.61.15-3.25.31-5.46-.45-9.54-1.99-13.37-6.01a19.968,19.968,0,0,1-3.93-13.84c1.19-5.33,4.54-9.02,8.89-12.14C-9.9-1.04-5.16-.95,0,0Z" transform="translate(345 1039)" fill="#e4b48d"/>
    <path id="Caminho_736" data-name="Caminho 736" d="M0,0C4.48,2.16,7.18,4.93,10,9a19.633,19.633,0,0,1-.62,15.25C6.75,29.01,3.11,31.3-2,33c-5.49.42-9.22-.22-14-3-3.45-3.1-5.64-6.11-6.51-10.72C-22.76,13.03-21.83,8.94-18,4-12.82-1.05-6.84-.93,0,0Z" transform="translate(23 1039)" fill="#e4b48d"/>
    <path id="Caminho_737" data-name="Caminho 737" d="M0,0A19.985,19.985,0,0,1,6,4c.87.68.87.68,1.75,1.38C11.08,9.7,11.55,14.73,11,20,9.08,25.82,6.51,29.07,1,32c-4.35,1.45-8.6,1.89-12.94.28-5.55-2.97-8.74-6.49-10.56-12.47-1.06-5.59.66-10,3.5-14.81C-13.48-.52-7.48-.79,0,0Z" transform="translate(505 935)" fill="#e4b48d"/>
    <path id="Caminho_738" data-name="Caminho 738" d="M0,0A12.971,12.971,0,0,1,5,3c.7.56,1.4,1.11,2.12,1.69,3.09,3.8,4.98,7.63,4.79,12.62A20.72,20.72,0,0,1,5,30C.17,33.22-3.37,33.45-9,33a22.059,22.059,0,0,1-10-6c-2.63-4.81-3.58-8.54-3-14,1.82-5.87,4.17-8.5,9-12C-9.08-.96-4.29-.35,0,0Z" transform="translate(103 935)" fill="#e4b48d"/>
    <path id="Caminho_739" data-name="Caminho 739" d="M0,0C4.89,3.33,7.65,6.6,9.25,12.25a16.158,16.158,0,0,1-2.5,12.63c-4.28,4.53-7.82,7.14-14.13,7.43-5.29-.05-8.3-1.19-12.28-4.66-3.34-3.72-4.41-7.34-5.03-12.21a21.467,21.467,0,0,1,7-14C-12.19-2.08-6.05-2.1,0,0Z" transform="translate(105.25 624.125)" fill="#e4b48d"/>
    <path id="Caminho_740" data-name="Caminho 740" d="M0,0C4.48,3.02,7.98,6.04,9.61,11.34c.8,5.22.35,9.27-2.39,13.84C4.05,29.33,1.24,31.54-4,32.41c-5.89.28-10.26-.11-14.79-4.05-3.87-4.12-5.05-7.8-5.33-13.42C-23.83,9.56-22.2,6.6-18.19,3-12.62-1.57-6.76-2.3,0,0Z" transform="translate(426.125 520.063)" fill="#e4b48d"/>
    <path id="Caminho_741" data-name="Caminho 741" d="M0,0C4.32,5.42,5.68,10.12,5,17,3.42,21.93.61,24.94-3.55,27.86-8.26,30.05-12.96,29.82-18,29a17.72,17.72,0,0,1-9.3-8.88,21.261,21.261,0,0,1,.99-16.56C-18.71-4.86-9.65-6.86,0,0Z" transform="translate(29 419)" fill="#e4b48d"/>
    <path id="Caminho_742" data-name="Caminho 742" d="M0,0C4.01,3.55,5.88,7.11,7.69,12.19a21.887,21.887,0,0,1-5.55,14.9c-4.26,3.37-8.08,4.2-13.45,4.29-5.45-1.01-9.34-3.96-13-8A19.353,19.353,0,0,1-25.62,8.29a18.068,18.068,0,0,1,9.31-9.91C-10.67-3.42-5.25-2.58,0,0Z" transform="translate(107.313 313.625)" fill="#e4b48d"/>
    <path id="Caminho_743" data-name="Caminho 743" d="M0,0A20.494,20.494,0,0,1,7.04,12.52,18.12,18.12,0,0,1,3.69,24.44c-4.15,4.05-7.98,6.93-13.95,7.03a18.8,18.8,0,0,1-12.05-5.03c-3.91-5.04-4.65-9.07-4.39-15.42.78-5.23,3.33-7.76,7.39-10.9C-12.87-3.5-6.63-3.13,0,0Z" transform="translate(27.313 313.563)" fill="#e4b48d"/>
    <path id="Caminho_744" data-name="Caminho 744" d="M0,0C3.72,3.14,6.45,6.36,8,11c.42,6.43-.05,10.59-4.44,15.67-3.79,3.7-7.05,5.25-12.36,5.5C-15.05,31.69-19,28.57-23,24c-3.15-4.72-2.77-9.49-2-15A18.059,18.059,0,0,1-16.95-.22,20.465,20.465,0,0,1,0,0Z" transform="translate(26 209)" fill="#e4b48d"/>
    <path id="Caminho_745" data-name="Caminho 745" d="M0,0C4.14,4.22,5.86,8.06,6.03,13.98,5.65,18.72,4.64,22.42,1.42,26c-4.61,3.82-9.68,4.88-15.59,4.43-5-1.25-8.07-3.61-10.94-7.87-2.34-4.34-3.69-7.57-2.46-12.54,1.81-5.32,3.8-8.67,8.52-11.75A18.964,18.964,0,0,1,0,0Z" transform="translate(510.168 1145.566)" fill="#e4b48d"/>
    <path id="Caminho_746" data-name="Caminho 746" d="M0,0A17.65,17.65,0,0,1,9.3,8.88c1.72,5.18,1.92,10.5-.41,15.5C5.71,29.01,2.5,31.46-3,33c-5.86.75-10.24-.62-15-4-4.31-5.41-5.71-10.13-5-17C-19.14,1.06-10.59-.97,0,0Z" transform="translate(586 1039)" fill="#e4b48d"/>
    <path id="Caminho_747" data-name="Caminho 747" d="M0,0A21.544,21.544,0,0,1,11,11,19.841,19.841,0,0,1,9,25.38,19.337,19.337,0,0,1-2,33c-5.45.67-9.21-.34-14-3-3.45-3.25-5.78-6.47-6.2-11.3C-22.36,9.91-22.36,9.91-19,6c.44-.54.88-1.08,1.34-1.63C-12.56-.99-7.08-1.13,0,0Z" transform="translate(264 1039)" fill="#e4b48d"/>
    <path id="Caminho_748" data-name="Caminho 748" d="M0,0C4.08,3.6,7.77,7.25,8.33,12.93c.1,5.09-.24,8.6-3.21,12.95-3.96,4-7.14,5.91-12.87,6.18-5.93-.1-9.81-2.1-14.13-6.18-2.98-4.33-3.63-8.31-3.48-13.47,1.04-5.45,4.71-8.91,8.67-12.53A23.906,23.906,0,0,1,0,0Z" transform="translate(346.875 936.125)" fill="#e4b48d"/>
    <path id="Caminho_749" data-name="Caminho 749" d="M0,0C4.62,2.26,8.16,5.11,10,10c.8,5.35,1.25,10.7-1.39,15.56C5.63,29.09,2.64,32.09-2,33c-6.44.51-10.55-.09-15.67-4.41-3.93-3.96-5.34-7.53-5.56-13.1C-22.72,9.88-20.21,5.69-16,2-11.07-1.11-5.59-1.06,0,0Z" transform="translate(184 935)" fill="#e4b48d"/>
    <path id="Caminho_750" data-name="Caminho 750" d="M0,0A24.725,24.725,0,0,1,10,9a22.806,22.806,0,0,1-.12,15.25C7.03,28.43,3.89,31.37-1,33c-5.34.63-9.87.41-14.43-2.61a20.378,20.378,0,0,1-7.02-11.66C-22.74,13.05-21.31,9.56-18,5-12.19-.26-7.7-.78,0,0Z" transform="translate(344 831)" fill="#e4b48d"/>
    <path id="Caminho_751" data-name="Caminho 751" d="M0,0A17.67,17.67,0,0,1,8.93,9.32c.88,5.44,1.34,10.62-1.43,15.55C4.14,28.82.88,31.84-4.37,32.69c-6.52.17-10.73-1.07-15.7-5.37-3.71-4.19-4.27-9.55-4-15a19.774,19.774,0,0,1,9-12A23.979,23.979,0,0,1,0,0Z" transform="translate(185.07 831.684)" fill="#e4b48d"/>
    <path id="Caminho_752" data-name="Caminho 752" d="M0,0A21.282,21.282,0,0,1,10.79,10.78c1.57,4.78,1.2,8.43-.6,13.1A19.34,19.34,0,0,1-1,33c-6.53.77-10.71-.06-16-4-4.11-5.3-5.55-9.29-5-16C-18.24,2.05-11.06-1.13,0,0Z" transform="translate(103 831)" fill="#e4b48d"/>
    <path id="Caminho_753" data-name="Caminho 753" d="M0,0C5.22,3.56,8.43,7.52,9.65,13.73a17.341,17.341,0,0,1-4.6,13.01c-4.93,4.32-8.13,5.5-14.69,5.41-4.18-.44-6.25-1.72-9.61-4.27-4.11-5.31-5.55-9.29-5-16,1.81-5.28,4.23-8.95,9-12A22.744,22.744,0,0,1,0,0Z" transform="translate(105.25 728.125)" fill="#e4b48d"/>
    <path id="Caminho_754" data-name="Caminho 754" d="M0,0C3.81,2.57,6.79,4.76,8.88,8.94c1.05,5.92,1.26,11.93-2.13,17.12C3.54,29.66.37,31.61-4.48,32.25c-6.11.3-9.77-.61-14.64-4.31-4.12-5.31-5.56-9.29-5-16,1.89-5.82,4.5-9.08,10-12A20.756,20.756,0,0,1,0,0Z" transform="translate(185.125 624.063)" fill="#e4b48d"/>
    <path id="Caminho_755" data-name="Caminho 755" d="M0,0A21.03,21.03,0,0,1,7.9,11.84,20.233,20.233,0,0,1,3.45,26.33C-.31,29.99-3.71,31.3-8.91,31.4c-5.31-.15-8.65-1.12-12.63-4.67-3.4-4.11-4.56-8.14-4.57-13.44.77-6.2,3.15-9.3,7.94-13.17C-12.78-3.21-5.52-3.05,0,0Z" transform="translate(428.102 417.16)" fill="#e4b48d"/>
    <path id="Caminho_756" data-name="Caminho 756" d="M0,0C5.46.45,9.54,1.99,13.37,6.01A20,20,0,0,1,17.3,19.85c-1.19,5.33-4.54,9.03-8.9,12.14-4.78,2.38-9.46,2.37-14.65,1.32-4.52-2.78-8.3-5.89-10-11-.53-5.97-.53-10.93,3-16C-9.07,2-5.85.56,0,0Z" transform="translate(258.25 414.688)" fill="#e4b48d"/>
    <path id="Caminho_757" data-name="Caminho 757" d="M0,0C3.53,4.15,6.21,9.14,6.07,14.72A23.58,23.58,0,0,1-2.06,28.31a22.08,22.08,0,0,1-15.5,1.19c-4.37-2.64-8.35-6.01-9.96-11.02-1.07-6.03-.41-10.65,2.64-15.98C-17.49-4.58-8.9-4.65,0,0Z" transform="translate(108.875 210.5)" fill="#e4b48d"/>
    <path id="Caminho_758" data-name="Caminho 758" d="M0,0C4.06,3.35,6.97,6.2,7.71,11.58c.31,5.83-.43,9.92-4.19,14.5-3.7,3.71-6.6,5.42-11.94,5.56-4.81-.25-8.58-1.29-12.36-4.35a20.188,20.188,0,0,1-5.45-13.92A21.691,21.691,0,0,1-17.79-.23C-11.92-3.02-5.69-3.52,0,0Z" transform="translate(508.293 1248.418)" fill="#e4b48d"/>
    <path id="Caminho_759" data-name="Caminho 759" d="M0,0C3.92,3.37,6.36,5.86,7.07,11.16c.18,4.79.03,8.26-2.01,12.65C.84,28.26-2.95,30.93-9.23,31.4a19.128,19.128,0,0,1-13.52-6.15c-3.32-4.26-3.81-8.64-3.56-13.94A19.07,19.07,0,0,1-18.59.07C-12.12-3.67-6.59-3.36,0,0Z" transform="translate(187.313 1248.688)" fill="#e4b48d"/>
    <path id="Caminho_760" data-name="Caminho 760" d="M0,0C4,4.1,4.85,6.85,4.88,12.56c.01,1.02.03,2.04.05,3.09-.63,5.15-3.45,8.77-7.5,11.96-4.99,2.71-10.29,2.44-15.62,1.01-4.78-2.94-8.3-5.89-9.98-11.39-.81-5.24-.32-9.26,2.36-13.85A24.037,24.037,0,0,1-15.06-4.31C-9.54-4.44-4.4-3.49,0,0Z" transform="translate(189.438 1146.375)" fill="#e4b48d"/>
    <path id="Caminho_761" data-name="Caminho 761" d="M0,0C4.84,2.33,8.71,5.78,10.75,10.88c.79,6.73.2,11.56-3.75,17.12-5.31,4.22-9.27,5.35-16,5a18.931,18.931,0,0,1-11.75-8.88c-2.16-5.39-2.66-8.64-.75-14.18,1.79-4.01,3.52-6.86,7.31-9.16C-9.53-.88-4.84-.73,0,0Z" transform="translate(505 1039)" fill="#e4b48d"/>
    <path id="Caminho_762" data-name="Caminho 762" d="M0,0C4.61,2.26,8.18,5.11,10,10a38.921,38.921,0,0,1,.31,5.94c.02,1.02.04,2.04.05,3.09C9.79,23.7,7.63,26.84,4,29.75-.51,33.13-4.49,33.56-10,33A21.2,21.2,0,0,1-22,23c-1.54-5.01-1.6-9.47.5-14.31C-16.48.33-9.51-1.8,0,0Z" transform="translate(184 1039)" fill="#e4b48d"/>
    <path id="Caminho_763" data-name="Caminho 763" d="M0,0C5.47,2.43,8.72,6.55,11,12A17.506,17.506,0,0,1,8.94,25.31C6.25,29.09,3.46,31.59-1,33c-5.67.86-10.18.28-15-3-4.05-4.01-6.13-7.57-6.25-13.31.08-4.95,1.08-8.55,4.71-12.13C-11.78-.38-7.42-.73,0,0Z" transform="translate(264 831)" fill="#e4b48d"/>
    <path id="Caminho_764" data-name="Caminho 764" d="M0,0A16.428,16.428,0,0,1,7.75,8.38C9.31,14.47,9.2,19.2,6,24.68a17.32,17.32,0,0,1-9.25,6.7c-6.86.73-11.47.2-17-4-3.97-4.71-5.24-8.84-4.89-14.98.89-5.54,3.67-8.19,7.92-11.68C-11.91-2.9-5.65-2.55,0,0Z" transform="translate(427.25 624.625)" fill="#e4b48d"/>
    <path id="Caminho_765" data-name="Caminho 765" d="M0,0C4.75,3.06,8.35,6.23,9.81,11.81a20.979,20.979,0,0,1-3,14C3.7,29.28.69,31.46-3.95,32.32c-5.87.24-9.74-.45-14.24-4.51-4.11-4-5.68-8.34-6-14,.83-5.86,3.78-9.25,8.28-12.87C-11-2.28-5.27-1.96,0,0Z" transform="translate(506.188 520.188)" fill="#e4b48d"/>
    <path id="Caminho_766" data-name="Caminho 766" d="M0,0C4.05,4.01,6.13,7.57,6.25,13.31c-.08,4.95-1.08,8.55-4.71,12.13-5.01,4.29-8.17,5.02-14.64,4.97-5.77-.82-9.17-4.46-12.9-8.66-1.82-5.01-2.13-10.1-.02-15.07,2.52-4.22,5.09-7.53,9.77-9.37C-9.96-3.56-5.39-3.6,0,0Z" transform="translate(349 522)" fill="#e4b48d"/>
    <path id="Caminho_767" data-name="Caminho 767" d="M0,0C3.81,2.57,6.79,4.76,8.88,8.94c1.05,5.95,1.27,11.94-2.19,17.12A16.73,16.73,0,0,1-3.99,32.41c-5.76.06-10.26.04-14.73-3.87-3.91-4.47-5.77-8.59-5.59-14.6.86-5.76,3.85-9.29,8.19-13C-11.13-2.14-5.39-1.83,0,0Z" transform="translate(185.125 520.063)" fill="#e4b48d"/>
    <path id="Caminho_768" data-name="Caminho 768" d="M0,0C4.62,4.31,6.73,8.62,7,15c-.85,5.91-3.8,9.26-8.38,12.87C-5.85,30.98-10.74,30.74-16,30c-4.73-2.16-7.4-4.97-10-9.44-1.82-6.48-1.41-10.93,1.79-16.76a16.536,16.536,0,0,1,8.09-6.55C-9.93-3.48-5.52-3.07,0,0Z" transform="translate(108 522)" fill="#e4b48d"/>
    <path id="Caminho_769" data-name="Caminho 769" d="M0,0C4.74,2.64,7.62,5.61,9.38,10.88c.51,4.91.57,8.82-1.63,13.31-.78.88-1.57,1.77-2.37,2.69-.83.94-1.65,1.89-2.5,2.87C-.91,32.7-4.99,32.63-9.64,32.43c-5.84-1.09-9.16-4.51-12.98-8.81a21.1,21.1,0,0,1-.16-15.03C-17.86-.3-9.58-2.97,0,0Z" transform="translate(345.625 416.125)" fill="#e4b48d"/>
    <path id="Caminho_770" data-name="Caminho 770" d="M0,0C4.08,3.45,6.43,5.64,6.92,11.18c.25,10.57.25,10.57-4.24,15.29-4.35,3.67-8.34,5.28-14,5-6.45-1.97-10.06-5.23-13.87-10.68a20.024,20.024,0,0,1-.13-13.32A21.893,21.893,0,0,1-14.94-2.09C-9.4-2.76-4.82-3.18,0,0Z" transform="translate(187.316 313.527)" fill="#e4b48d"/>
    <path id="Caminho_771" data-name="Caminho 771" d="M0,0C4.19,3.39,6.12,7.86,7.19,13.06a22.753,22.753,0,0,1-5,13c-4.65,3.98-8.99,5.24-15,5a20.825,20.825,0,0,1-11.83-7.91c-2.88-5.14-2.65-10.29-1.17-15.84,2.66-4.32,6.02-8.22,10.95-9.92A21.453,21.453,0,0,1,0,0Z" transform="translate(107.813 1248.938)" fill="#e4b48d"/>
    <path id="Caminho_772" data-name="Caminho 772" d="M0,0C4.07,1.41,6.17,3.63,8.38,7.28c2.29,4.91,3.24,8.7,1.46,13.9C7.46,26.34,4.63,30.62-.81,32.69c-5.94.85-10.06.55-15.19-2.69-4.73-4.08-6.74-7.16-7.31-13.38.48-5.64,2.03-9.8,6.37-13.5C-11.48-.82-6.62-.71,0,0Z" transform="translate(104 1039)" fill="#e4b48d"/>
    <path id="Caminho_773" data-name="Caminho 773" d="M0,0C4.02,3.62,7.07,6.77,7.84,12.29c.24,5.32-.56,8.92-3.66,13.29A19.341,19.341,0,0,1-9.5,31.81c-5.83-.74-9.25-2.68-13.31-7.06-3.09-4.63-3.14-9.05-2.63-14.44,1.72-4.71,4.24-7.71,8-11C-11.62-2.63-5.52-2.71,0,0Z" transform="translate(267.438 936.688)" fill="#e4b48d"/>
    <path id="Caminho_774" data-name="Caminho 774" d="M0,0C4.18,2.85,7.12,5.98,8.75,10.88c.56,5.69.31,10.14-3,15-3.96,3.89-7.09,6.14-12.69,6.31-5.06-.08-8.51-.89-12.31-4.31-3.35-3.77-5.3-7.44-5.63-12.5C-24.52,9.39-21.47,4.9-17.12.94-11.75-2.11-5.72-1.98,0,0Z" transform="translate(346.25 728.125)" fill="#e4b48d"/>
    <path id="Caminho_775" data-name="Caminho 775" d="M0,0A23.525,23.525,0,0,1,8.69,10.81,18.5,18.5,0,0,1,6.62,24.12c-2.7,3.79-5.44,6.31-9.93,7.69-5.05.77-8.78.61-13.38-1.69-4.05-3.57-7.27-6.78-7.83-12.36-.1-5.1.25-8.6,3.21-12.95C-15.14-1.41-8.25-2.96,0,0Z" transform="translate(266.313 728.188)" fill="#e4b48d"/>
    <path id="Caminho_776" data-name="Caminho 776" d="M0,0C4.18,2.85,7.12,5.98,8.75,10.88c.56,5.69.31,10.14-3,15-4.12,4.05-7.33,6.17-13.13,6.43-5.32-.05-8.29-1.24-12.28-4.74-3.47-3.7-4.75-7.08-5.09-12.07.2-5.18,2.08-8.79,5.5-12.62C-13.58-2.12-6.95-2.41,0,0Z" transform="translate(346.25 624.125)" fill="#e4b48d"/>
    <path id="Caminho_777" data-name="Caminho 777" d="M0,0A19.866,19.866,0,0,1,8.73,12.74c.39,6.03-1.62,10.22-5.48,14.76C-.43,31.01-3.3,31.79-8.25,32c-4.92-.19-7.77-1.13-11.5-4.5-4.33-4.8-5.31-8.41-5.21-14.72.45-4.88,2.63-7.97,6.21-11.09A17.834,17.834,0,0,1,0,0Z" transform="translate(266.75 624.5)" fill="#e4b48d"/>
    <path id="Caminho_778" data-name="Caminho 778" d="M0,0C4.73,4.08,6.74,7.16,7.31,13.38c-.48,5.64-2.03,9.8-6.37,13.5C-4.52,30.82-9.38,30.61-16,30c-5.48-2.45-7.55-5.73-10-11-1.83-5.14-.4-8.84,1.69-13.66a17.453,17.453,0,0,1,9.25-8.15C-9.12-3.35-5.15-3.25,0,0Z" transform="translate(509 418)" fill="#e4b48d"/>
    <path id="Caminho_779" data-name="Caminho 779" d="M0,0C4.91,2.6,7.16,4.86,9.19,10c1.79,5.94.41,9.91-2.13,15.5-3,3.87-5.63,5.96-10.6,6.64-6.21.22-10.34-.07-15.15-4.39-.58-.45-1.15-.91-1.75-1.37-3.32-4.33-3.79-9.36-3.25-14.63,1.92-5.82,4.5-9.07,10-12C-8.76-1.89-4.91-1.66,0,0Z" transform="translate(104.688 416.25)" fill="#e4b48d"/>
    <path id="Caminho_780" data-name="Caminho 780" d="M0,0A18.814,18.814,0,0,1,8.81,10.5c1.04,5.34.36,9.89-2.69,14.43-3.16,3.8-6.01,6.19-11,7.02-5.91.24-9.77-.35-14.31-4.45-4.33-4.8-5.31-8.41-5.21-14.72.45-4.88,2.63-7.97,6.21-11.09C-12.53-2.44-6.35-2.73,0,0Z" transform="translate(266.188 520.5)" fill="#e4b48d"/>
    <path id="Caminho_781" data-name="Caminho 781" d="M0,0C4.05,3.44,6.37,5.67,6.85,11.18c.25,10.57.25,10.57-4.24,15.29-3.78,3.6-6.86,4.33-11.93,4.57-4.78-.19-8.03-.79-11.66-3.96-3.92-4.47-5.77-8.6-5.59-14.61.87-5.75,3.78-9.34,8.18-13A18.278,18.278,0,0,1,0,0Z" transform="translate(187.387 417.527)" fill="#e4b48d"/>
  </g>
</svg>
