<svg xmlns="http://www.w3.org/2000/svg" width="590.56" height="150.415" viewBox="0 0 590.56 150.415">
  <g id="tangle-teezer-seeklogo.com" transform="translate(-4.116 -2.755)">
    <path id="Caminho_1079" data-name="Caminho 1079" d="M177.831,74.83,165.364,58.354H114.347L102.225,74.83H90.215l39.974-54.4H54.1v54.4H42.882V20.425H4.116V13.588H144.5l45.5,61.241H177.831Zm-58.37-23.445H160.4L139.848,23.867Z" fill="#e4b48d"/>
    <path id="Caminho_1080" data-name="Caminho 1080" d="M272.3,74.83l-60.095-46v46H201V13.7h5.812l59.932,46v-46h11.207V74.83Z" fill="#e4b48d"/>
    <path id="Caminho_1081" data-name="Caminho 1081" d="M340.945,76.428c-28.288,0-48.82-13.451-48.82-31.984,0-18.6,20.532-32.1,48.82-32.1,17.25,0,32.254,5.174,41.2,14.2l-9.579,4.425c-5.979-7.326-17.789-11.694-31.623-11.694C319.538,19.277,304,29.861,304,44.444,304,58.961,319.538,69.5,340.944,69.5c13,0,22.977-3.427,30.509-10.478l.662-.62V49.213h-25.8V42.4h37.319V60.676C374.557,70.835,359.4,76.428,340.945,76.428Z" fill="#e4b48d"/>
    <path id="Caminho_1082" data-name="Caminho 1082" d="M399.144,74.83V13.7h11.2V68.016H496.08V13.7h72.175v6.843H507.287v18.2H544.2V45.57H507.287V68.016h64.721V74.83Z" fill="#e4b48d"/>
    <path id="Caminho_1083" data-name="Caminho 1083" d="M116.958,153.568V99.255H55.4v54.313H44.008V99.255H4.628V92.444h185.88v6.811H128.346V117.5h37.468v6.817H128.346v22.437h72.543V92.444h76.943v6.811H212.284V117.5h37.491v6.817H212.284v22.437h69.368v6.814Z" transform="translate(0 -0.399)" fill="#e4b48d"/>
    <path id="Caminho_1084" data-name="Caminho 1084" d="M291.876,153.568l63.151-54.313h-57.98V92.444h78.509L313.8,146.754h84.6V92.444h77.738v6.811H409.771V117.5h37.484v6.817H409.771v22.437h70.177v6.814Z" transform="translate(0 -0.399)" fill="#e4b48d"/>
    <path id="Caminho_1085" data-name="Caminho 1085" d="M560.76,153.568,537.331,126.7H500.913v26.866H489.53V92.444H543c18.294,0,29.215,6.342,29.215,16.963,0,7.866-7.325,14.394-18.662,16.634l-3.539.7,23.278,26.828H560.76ZM500.913,119.76h41.409c14.875,0,18-5.509,18-10.13,0-6.594-6.377-10.375-17.493-10.375H500.914v20.5Z" transform="translate(0 -0.399)" fill="#e4b48d"/>
    <path id="Caminho_1086" data-name="Caminho 1086" d="M585.779,20.537a8.891,8.891,0,1,1,8.9-8.9A8.9,8.9,0,0,1,585.779,20.537Zm0-16.5a7.61,7.61,0,1,0,7.615,7.605A7.615,7.615,0,0,0,585.779,4.036Z" fill="#e4b48d"/>
    <g id="Grupo_3" data-name="Grupo 3" transform="translate(582.827 7.667)">
      <path id="Caminho_1087" data-name="Caminho 1087" d="M582.827,7.667h3.443a3.413,3.413,0,0,1,1.412.254,1.792,1.792,0,0,1,1.044,1.791,2.039,2.039,0,0,1-.282,1.11,2.066,2.066,0,0,1-.794.7,1.593,1.593,0,0,1,.672.472,1.8,1.8,0,0,1,.252.962l.032,1a3.205,3.205,0,0,0,.074.65.683.683,0,0,0,.326.465v.17h-1.254a.7.7,0,0,1-.079-.254,4.118,4.118,0,0,1-.056-.6l-.065-1.255a1.042,1.042,0,0,0-.533-1,2.078,2.078,0,0,0-.9-.145h-2.269v3.25h-1.023V7.667Zm3.332,3.473a1.935,1.935,0,0,0,1.112-.29,1.2,1.2,0,0,0,.412-1.045,1.134,1.134,0,0,0-.572-1.106,1.872,1.872,0,0,0-.824-.153h-2.435V11.14Z" transform="translate(-582.827 -7.667)" fill="#e4b48d"/>
    </g>
  </g>
</svg>
